<svg width="103" height="61" viewBox="0 0 103 61" fill="none" xmlns="http://www.w3.org/2000/svg">
<rect x="0.341797" y="0.230469" width="61.7036" height="60.2289" rx="30.1144" fill="#80B3D6"/>
<path d="M39.3763 15.2309C38.8565 16.438 38.4595 17.7013 38.1965 18.9856C38.1417 19.2498 38.3441 19.4983 38.6152 19.4983C38.8136 19.4983 38.9916 19.3593 39.0327 19.1569C39.2846 17.9298 39.6638 16.7227 40.1603 15.569C40.2537 15.3521 40.1536 15.1008 39.9373 15.008C39.7216 14.914 39.4692 15.0141 39.3763 15.2309Z" fill="white"/>
<path d="M41.5586 20.9755C41.6837 20.9755 41.8077 20.9204 41.8922 20.8148L44.8274 17.1424C44.9747 16.9583 44.9447 16.6898 44.7607 16.5424C44.5772 16.3962 44.3086 16.4246 44.1602 16.6097L41.225 20.2821C40.9996 20.5637 41.2059 20.9755 41.5586 20.9755Z" fill="white"/>
<path d="M49.5925 21.1914C49.5007 20.9734 49.2489 20.8717 49.0331 20.9634C47.3946 21.6529 45.6715 22.1288 43.9118 22.3779C43.6783 22.4107 43.5159 22.627 43.5493 22.8605C43.5833 23.1022 43.8121 23.2587 44.0319 23.223C45.8639 22.9639 47.6581 22.4685 49.3645 21.7507C49.5819 21.659 49.6837 21.4088 49.5925 21.1914Z" fill="white"/>
<path d="M21.1923 34.8493C20.6521 38.6749 19.756 42.4589 18.5157 46.1148C18.4394 46.3379 18.5588 46.5958 18.8099 46.6627C18.7986 46.667 18.7873 46.6719 18.776 46.6762C19.2369 47.0462 19.7588 47.34 20.3142 47.5421C24.0858 46.1406 27.774 44.405 31.2862 42.4321C34.0179 44.3321 37.1437 46.0175 40.7909 47.5576C41.071 47.6773 41.3878 47.4695 41.3842 47.1601C41.3452 43.5038 40.7014 39.6112 39.3609 34.9302C42.5602 32.3 45.4117 29.9309 48.7207 27.2117C48.9998 26.9834 48.8836 26.5267 48.5261 26.4623C44.4136 25.7104 40.5289 25.0582 36.5325 24.3289C31.7111 15.2089 32.6058 13.2329 31.7475 13.117C31.666 13.1044 31.5858 13.1191 31.5142 13.1521C31.5213 13.1339 31.5288 13.1159 31.5359 13.0977C30.5796 13.5345 29.7032 14.1324 28.9087 14.821C28.2431 15.3979 26.17 20.3687 24.6116 23.6819C21.0348 24.4334 17.3005 24.6859 13.4899 24.4206C13.2819 24.4108 13.0843 24.5415 13.0428 24.771C13.0262 24.7791 13.0071 24.7892 12.993 24.7953C12.8263 25.4254 12.748 26.0789 12.7612 26.7306C15.0644 29.9084 17.9237 32.6777 21.1923 34.8493ZM24.3589 24.6081C24.5699 24.6085 24.7713 24.5644 24.9627 24.4817C25.9443 24.2707 26.122 24.2714 26.2475 24.0503L31.549 14.6599C32.433 17.7797 33.7908 20.9912 35.8753 24.9121C36.0536 25.2492 35.7459 25.0186 47.4663 27.1372C44.5859 29.5077 41.5546 32.0224 38.6019 34.4487C38.4696 34.5571 38.4151 34.7334 38.4624 34.8974C39.7517 39.3399 40.41 43.0529 40.5162 46.5112C36.5536 44.7921 33.2315 42.8922 30.3764 40.7138C30.2372 40.6081 30.0493 40.598 29.9004 40.6854C26.7229 42.558 23.0966 44.2705 19.601 45.5544C20.8559 41.6773 21.7355 37.668 22.2176 33.623C22.2624 33.2443 22.353 33.6237 14.5169 25.3347C17.8795 25.4852 21.1783 25.2391 24.3589 24.6081Z" fill="white"/>
<rect x="40.8379" y="0.230469" width="61.7036" height="60.2289" rx="30.1144" fill="#C280D6"/>
<path d="M70.9431 41.1116C70.9431 41.2361 70.9431 40.676 70.8809 42.294C70.1341 43.103 69.3873 43.1653 67.8315 43.7254C66.898 44.0365 65.4666 44.5344 65.84 45.4679C65.7778 46.028 65.7778 46.7125 65.84 47.1482C65.9023 47.7705 66.2757 48.2683 66.8358 48.455C66.898 48.455 66.898 48.455 66.9602 48.5173C68.9517 50.0731 75.9217 50.2598 78.411 50.322C78.8466 50.322 79.2823 50.322 79.6557 50.1975C80.1535 50.0109 80.5892 49.2641 80.1535 48.8284C79.7179 48.3928 78.9711 48.3306 78.3488 48.455C79.4067 47.7705 79.6557 46.5881 79.0956 45.5923C78.4733 44.4099 76.9174 44.2232 75.735 43.6631C74.4281 42.9786 73.8058 41.9828 73.7436 41.1116C73.6813 40.676 73.6813 40.7382 73.8058 39.4935C79.0956 39.0579 83.5763 35.4484 85.3811 30.8432C86.9369 26.7981 86.3768 22.0062 83.8875 18.4589C81.3982 14.9117 77.1041 12.5468 72.7479 12.5468C72.8723 11.9245 72.6856 11.2399 72.1255 10.8043C71.5032 10.0575 70.4452 10.182 70.0718 11.1777C66.7113 11.7378 63.7241 13.2936 61.1726 15.9074C56.2562 20.886 55.5094 28.6651 59.4301 34.3905C62.1683 38.3111 66.4624 40.8004 70.9431 41.1116ZM77.2908 14.6627C72.9345 16.7786 72.4989 16.9031 71.8766 17.5877C71.3787 18.1477 71.0676 19.019 71.5032 19.828C72.25 21.2594 74.4281 20.8238 74.8638 21.7572C75.0505 22.1306 74.8638 22.6285 74.6148 22.8774C74.0547 23.6865 72.4367 24.5577 72.0011 26.9848C71.8144 27.9183 72.0633 28.7273 72.5612 29.2252C73.059 29.723 73.8058 29.8475 74.5526 29.8475C75.9839 29.8475 77.0419 29.4741 77.7887 28.7895C78.7222 27.856 78.9089 26.4869 79.8424 25.9268C80.1535 25.7401 80.6514 25.6779 80.9626 25.9268C81.3982 26.3625 81.336 27.5449 82.3317 27.9805C83.0785 28.2917 83.8875 27.7938 84.2609 27.1715C84.6343 26.4869 84.6343 25.7401 84.821 25.1178C84.9454 27.2337 84.5098 29.3496 83.5763 31.2788C82.6428 33.0836 81.2737 34.6394 79.5934 35.884C75.5483 38.809 69.6985 39.2446 65.5911 36.3819C66.6491 35.9463 66.6491 35.1373 66.7735 34.1415C66.8358 34.2038 66.9602 34.266 67.0847 34.3282C69.7607 36.3197 72.3122 34.0171 71.5032 32.2123C71.2543 31.6522 70.7564 31.2788 70.383 30.9677C69.7607 30.2831 70.383 28.7895 69.4495 27.7938C68.7027 26.9848 67.5825 27.4826 66.898 27.2337C66.4001 27.047 66.1512 26.4247 66.2134 25.8646C66.3379 24.4332 67.8937 23.3753 67.0847 22.3173C66.7113 21.8195 66.089 21.8195 65.84 21.8195L61.2348 21.6328C62.2305 19.2057 63.9108 17.0276 66.4624 15.4095C69.5118 13.4803 73.5569 13.1691 77.2908 14.6627ZM77.9132 46.3391C77.9132 46.7748 77.9132 46.6503 77.9754 47.0859C77.9754 47.3349 77.7265 47.7705 77.4775 47.8327C74.3037 48.8907 70.2585 48.8284 67.2091 47.5838C66.9602 47.5215 66.8358 47.2726 66.8358 47.0237C66.8358 46.6503 66.7735 46.3391 66.7735 46.028C67.5203 46.2769 68.3916 46.3391 68.9517 46.4636C69.8229 46.6503 70.6942 46.7748 71.7521 46.837C73.5569 46.9615 74.8015 46.7748 75.735 46.6503C76.6685 46.5881 77.4153 46.4636 77.9132 46.3391ZM75.735 21.3838C75.0505 19.9525 72.8101 20.3259 72.3745 19.3924C72.1878 19.019 72.3745 18.5211 72.6234 18.21C73.059 17.7121 73.3079 17.6499 78.411 15.1606C81.8338 16.9653 83.9497 20.0147 84.5721 23.6865C83.5763 24.4955 83.8253 25.9268 83.3896 26.6736C83.2652 26.9226 82.8918 27.1715 82.6428 27.047C82.2072 26.8603 82.2072 25.8024 81.5849 25.18C80.9626 24.5577 79.9668 24.6822 79.3445 25.1178C78.1621 25.8646 77.9754 27.2959 77.1664 28.105C76.6063 28.6651 75.735 28.914 74.5526 28.914C74.117 28.914 73.6191 28.8518 73.3079 28.6028C72.9345 28.2294 72.9968 27.5449 73.059 27.1715C73.4324 25.0556 74.8015 24.371 75.4861 23.4375C75.9217 22.8152 76.0462 22.0062 75.735 21.3838ZM60.9237 22.5663C65.4044 22.6907 66.1512 22.6907 66.2757 22.8152C66.2757 22.8774 66.3379 23.0019 66.089 23.4998C65.7156 24.1843 65.2799 24.9311 65.2177 25.7401C65.1555 26.5492 65.5289 27.6693 66.5246 28.0427C66.898 28.1672 67.3336 28.1672 67.707 28.1672C68.7027 28.1672 68.9517 28.2294 69.0761 29.6608C69.1384 31.0299 69.3873 31.2788 70.0096 31.8389C70.2585 32.0256 70.4452 32.2746 70.5697 32.5235C70.8186 33.1458 70.2585 33.9548 69.3873 34.0793C68.8272 34.1415 68.1426 33.9548 67.5203 33.5192C67.1469 33.208 66.6491 32.9591 66.2757 33.1458C65.5289 33.457 65.9023 34.7016 65.4666 35.2617C65.2799 35.5107 64.7198 35.5729 64.5331 35.5729C61.6704 33.0836 59.9902 29.0385 60.3636 25.1178C60.4258 24.2465 60.6125 23.4375 60.9237 22.5663ZM72.8101 39.4313C72.6856 40.4893 72.6234 41.5472 72.6856 42.6052C72.6856 42.8541 72.6856 43.103 72.6234 43.2897C72.5612 43.4764 72.4989 43.6009 72.3745 43.6009C72.25 43.6631 72.0011 43.4764 71.9388 43.2897C71.7521 42.9163 71.8144 42.7296 71.9388 39.4935C71.9388 39.4313 71.9388 39.3691 71.9388 39.3691C72.25 39.3691 72.4989 39.4313 72.8101 39.4313ZM68.2671 44.5344C69.2006 44.2232 70.1341 44.0365 71.0053 43.4142C71.441 44.97 73.3702 44.9078 73.6191 43.2275C75.1127 44.5966 76.3573 44.7833 77.6642 45.4056C76.9174 45.5923 75.5483 45.7168 75.2994 45.779C73.2457 46.0902 71.0676 45.9657 69.2006 45.5301C68.5783 45.4056 67.5203 45.2812 66.898 45.0322C67.2714 44.8455 68.1426 44.5344 68.2671 44.5344ZM71.1298 11.3022C71.2543 11.2399 71.441 11.4889 71.5032 11.6133C71.5654 11.8623 71.6899 12.4846 71.6899 12.7957C71.6277 12.7957 71.5654 12.7957 71.0676 12.858C71.0676 12.6713 71.0053 12.4223 70.9431 12.2356C70.8809 12.1112 70.8186 11.8623 70.8809 11.8C70.9431 11.5511 71.0053 11.3022 71.1298 11.3022ZM61.8571 16.5297C64.222 14.1649 66.9602 12.7335 70.0096 12.1734C70.0718 12.4846 70.1963 12.858 70.1341 12.9824C68.6405 13.2936 67.1469 13.8537 65.9645 14.6005C62.1683 17.0276 59.8035 21.0104 59.4301 24.9933C58.8077 31.2788 62.9151 37.8755 69.8852 38.9957C70.2585 39.0579 70.6319 39.1824 71.0676 39.2446C71.0676 39.3691 71.0676 39.4313 71.0053 40.1781C66.8358 39.9292 62.7906 37.5643 60.2391 33.8304C56.5674 28.4784 57.2519 21.1971 61.8571 16.5297Z" fill="white"/>
<path d="M81.5223 14.9731C81.7713 15.0353 82.0202 14.9109 82.1447 14.6619L82.767 12.9194C82.8292 12.6705 82.7048 12.4216 82.4558 12.2971C82.2069 12.2349 81.958 12.3593 81.8335 12.6083L81.2112 14.3508C81.1489 14.5997 81.2734 14.8486 81.5223 14.9731Z" fill="white"/>
<path d="M82.829 16.2172C83.1401 16.2172 83.2024 16.0305 84.5715 14.8481C84.7582 14.7236 84.7582 14.4124 84.5715 14.2257C84.447 14.039 84.1358 13.9768 83.9491 14.1635L82.5178 15.4082C82.2066 15.6571 82.3933 16.2172 82.829 16.2172Z" fill="white"/>
<path d="M83.5761 17.3991C83.6383 17.648 83.8873 17.8347 84.1362 17.7102C84.6963 17.5858 85.3186 17.5858 85.8787 17.7102H86.0032C86.1899 17.7102 86.3766 17.5858 86.4388 17.3368C86.501 17.0879 86.3766 16.839 86.1276 16.7767C85.4431 16.59 84.6963 16.59 83.9495 16.7767C83.6383 16.9012 83.5139 17.1501 83.5761 17.3991Z" fill="white"/>
</svg>
