<svg width="152" height="61" viewBox="0 0 152 61" fill="none" xmlns="http://www.w3.org/2000/svg">
<rect x="0.605469" y="0.152344" width="61.7036" height="60.2289" rx="30.1144" fill="#80B3D6"/>
<path d="M48.4075 42.9596C47.7797 41.0762 45.5475 39.5416 43.8037 38.0767C42.8271 37.2397 41.8505 36.1933 40.8042 35.147C38.7115 33.1241 36.4096 30.8222 33.9682 28.5203C29.0853 23.8467 24.7605 19.4521 21.4122 16.5224C20.5752 15.755 19.8776 15.0575 19.0405 14.5692C18.2035 14.0112 17.3664 13.9414 16.7386 13.9414C16.1108 13.9414 15.6923 14.2902 15.483 14.5692C15.204 14.7087 14.9947 14.918 14.8552 15.1272C14.5065 15.6155 14.4367 16.1038 14.3669 16.5921C14.2972 17.0804 14.3669 17.4989 14.3669 17.9175V41.0064V43.5874C14.3669 44.0059 14.3669 44.4245 14.4367 44.9127C14.5065 45.1918 14.5762 45.4708 14.7157 45.68C14.925 45.9591 15.204 46.0986 15.4133 46.2381C15.6923 46.3078 15.9016 46.3776 16.1806 46.3776H16.8084H18.064H20.5054C23.7141 46.4474 26.7834 46.4474 29.7131 46.5171C37.1072 46.4474 38.014 46.4474 42.8271 46.3776C43.3154 46.3776 43.8037 46.3776 44.2919 46.4474C45.0593 46.4474 46.0358 46.5171 46.7334 46.1683H47.0124C47.3612 46.0986 47.8495 45.8893 48.268 45.2615C48.547 44.7035 48.6865 43.8664 48.4075 42.9596ZM44.3617 39.5416C44.2222 39.6113 44.0827 39.7509 43.9432 39.8206C43.6642 40.0996 43.4549 40.3786 43.4549 40.5879C43.3154 40.4484 43.1759 40.3089 43.0364 40.1694C42.6876 39.8206 42.1295 39.3323 41.5017 38.7045C41.9203 38.565 42.269 38.286 42.4783 37.9372C42.7573 38.1465 42.9666 38.4255 43.2456 38.6348C43.6642 38.9835 44.0129 39.2626 44.3617 39.5416ZM41.9203 37.3792C41.7808 37.4489 41.6412 37.5187 41.5017 37.6582C41.2925 37.7977 41.0832 37.9372 40.9437 38.1465C40.6647 37.8675 39.6881 36.8211 39.2696 36.4724C39.6183 36.3328 39.9671 36.1236 40.1764 35.8446C40.8042 36.3328 41.3622 36.8909 41.9203 37.3792ZM35.2935 31.1012C35.8516 31.6592 36.4096 32.1475 36.8979 32.6358C36.7584 32.7056 36.6189 32.8451 36.4794 32.9846C36.3398 33.1241 36.2701 33.2636 36.2003 33.3334C35.6423 32.7753 35.0145 32.2173 34.4565 31.5895C34.6657 31.5895 34.9447 31.45 35.2238 31.2407C35.154 31.171 35.2238 31.1012 35.2935 31.1012ZM37.1769 33.6821C37.3164 33.5426 37.4559 33.3334 37.4559 33.1939C38.1535 33.8914 38.851 34.5192 39.5486 35.2168C39.4091 35.2865 39.2696 35.3563 39.1998 35.426C38.9905 35.5655 38.7813 35.705 38.7115 35.8446C38.1535 35.2865 37.5257 34.6587 36.8281 33.9612C36.8979 33.8914 37.0374 33.8217 37.1769 33.6821ZM34.596 30.4036L34.5262 30.4734C34.2472 30.6827 34.1077 30.9617 34.0379 31.171C33.2706 30.4036 32.7126 29.8456 32.0848 29.2178C32.294 29.1481 32.5033 29.0085 32.7126 28.7993C32.7823 28.7295 32.7823 28.6598 32.8521 28.59C33.0613 28.7295 33.2009 28.9388 33.4101 29.0783C33.6891 29.5666 34.1077 29.9851 34.596 30.4036ZM29.9224 25.9393C30.6199 26.6369 31.3175 27.3344 32.0848 28.032C32.015 28.1017 31.9453 28.1715 31.8755 28.2412C31.736 28.4505 31.5965 28.6598 31.5965 28.869C30.8292 28.1715 30.1316 27.4042 29.2946 26.6369C29.3643 26.6369 29.4341 26.5671 29.5038 26.5671C29.7131 26.2881 29.8526 26.0788 29.9224 25.9393ZM29.4341 25.451C29.2946 25.451 29.0853 25.5208 28.9458 25.5905C28.8063 25.6603 28.7365 25.7998 28.597 25.8696C28.039 25.3115 27.5507 24.8232 26.9926 24.2652C27.3414 24.1257 27.4809 23.9164 27.6902 23.6374C28.2482 24.2652 28.876 24.893 29.4341 25.451ZM25.1093 21.1262C25.737 21.754 26.3648 22.3818 27.0624 23.0793C26.7834 23.2886 26.5741 23.4979 26.4346 23.7769C25.8068 23.1491 25.1093 22.4515 24.4117 21.754C24.7605 21.6145 24.9697 21.4052 25.1093 21.1262ZM24.4815 20.4984C24.2024 20.6379 23.9234 20.8472 23.8537 21.1262C23.2956 20.5682 22.7376 20.0101 22.1098 19.4521C22.1795 19.3823 22.2493 19.3823 22.319 19.3126C22.5283 19.1731 22.6678 18.9638 22.7376 18.7545C23.2956 19.3126 23.9234 19.8706 24.4815 20.4984ZM22.2493 18.2662C22.04 18.336 21.9005 18.4057 21.6912 18.5453C21.6215 18.615 21.482 18.7545 21.4122 18.8243C21.0634 18.4755 20.6449 18.1267 20.2961 17.7779C20.1566 17.5687 19.9474 17.4292 19.7381 17.2199C19.8079 17.1501 19.9474 17.0804 20.0171 17.0106C20.2264 16.8014 20.3659 16.6619 20.4356 16.4526C20.5752 16.5921 20.7844 16.8014 20.9239 16.9409L22.2493 18.2662ZM16.7386 14.3599C17.2967 14.4297 18.064 14.5692 18.7615 14.9877C19.1103 15.2668 19.5288 15.5458 19.8776 15.9643C19.5986 16.0341 19.3196 16.2433 19.1103 16.5921C19.1103 16.5921 19.1103 16.5921 19.0405 16.5224L18.622 16.0341C18.343 15.755 18.064 15.4063 17.7152 15.1272C17.3664 14.8482 16.9479 14.4994 16.3898 14.4297C16.3201 14.4297 16.1806 14.4297 16.1108 14.4297C16.2503 14.3599 16.4596 14.2902 16.7386 14.3599ZM44.2919 45.9591C43.8037 45.9591 43.3154 45.8893 42.7573 45.8893C42.4783 45.8893 42.1993 45.8893 41.99 45.8893C42.0598 45.68 42.0598 45.401 42.0598 45.122C42.0598 44.4245 41.8505 43.7967 41.5715 43.7967C41.2925 43.7967 41.0832 44.3547 41.0832 45.122C41.0832 45.401 41.0832 45.68 41.153 45.8893C40.3857 45.8893 39.5486 45.8893 38.7115 45.8893C38.7813 45.68 38.851 45.3313 38.851 45.0523C38.851 44.2849 38.6418 43.6571 38.3628 43.6571C38.0837 43.6571 37.8745 44.2849 37.8745 45.0523C37.8745 45.401 37.9442 45.68 38.014 45.8893C37.5954 45.8893 38.1535 45.8893 35.0843 45.8893C35.154 45.7498 35.154 45.5405 35.154 45.3313C35.154 44.7035 34.9447 44.1454 34.6657 44.1454C34.3867 44.1454 34.1774 44.6337 34.1774 45.3313C34.1774 45.5405 34.1774 45.68 34.2472 45.8893C33.2009 45.8893 32.0848 45.8893 30.9687 45.8893C31.0384 45.68 31.0384 45.401 31.0384 45.122C31.0384 44.4245 30.8292 43.7967 30.5502 43.7967C30.2711 43.7967 30.0619 44.4245 30.0619 45.122C30.0619 45.401 30.0619 45.68 30.1316 45.8893C29.6433 45.8893 30.2014 45.8893 27.4809 45.8196C27.5507 45.5405 27.6204 45.1918 27.6204 44.843C27.6204 44.0757 27.4112 43.3781 27.1322 43.3781C26.8531 43.3781 26.5741 43.8664 26.5741 44.7035C26.5741 45.122 26.6439 45.4708 26.7136 45.68C25.737 45.68 24.7605 45.6103 23.7839 45.6103C23.8537 45.401 23.8537 45.1918 23.8537 44.9127C23.8537 44.2152 23.6444 43.6571 23.3654 43.6571C23.0863 43.6571 22.8771 44.2152 22.8771 44.9127C22.8771 45.1918 22.8771 45.401 22.9468 45.6103C22.1795 45.6103 21.3425 45.5405 20.5054 45.5405C20.3659 45.5405 20.2264 45.5405 20.1566 45.5405C20.2264 45.2615 20.2961 44.9825 20.2961 44.6337C20.2961 43.7967 20.0869 43.0991 19.8079 43.0991C19.5288 43.0991 19.3196 43.7967 19.3196 44.6337C19.3196 44.9825 19.3893 45.3313 19.3893 45.5405C18.9708 45.5405 18.4825 45.5405 18.064 45.5405C17.6454 45.5405 17.2269 45.5405 16.8084 45.5405H16.1806C15.9713 45.5405 15.8318 45.4708 15.6923 45.4708C15.4133 45.401 15.3435 45.1918 15.2738 44.843C15.204 44.564 15.2738 44.0757 15.2738 43.6571C15.2738 35.2865 15.2738 25.2418 15.2738 17.9872C15.2738 17.5687 15.2738 17.0804 15.2738 16.7316C15.2738 16.3131 15.4133 15.9643 15.5528 15.755C15.6923 15.5458 15.9016 15.4063 16.1806 15.476C16.5294 15.4063 16.8084 15.6155 17.0874 15.8248C17.5059 16.1736 17.9245 16.6619 18.343 17.1501C18.4825 17.2897 18.622 17.4292 19.6683 18.4057C24.4117 22.8003 28.4575 26.9856 32.015 30.2641C37.8745 35.8446 39.8276 37.5884 40.8042 38.4953V38.565C40.8042 38.6348 40.9437 38.7743 41.0832 38.7743C41.8505 39.4718 42.4783 40.0299 42.8968 40.3786C43.1759 40.5879 43.3154 40.7274 43.5246 40.8669C43.5246 40.9367 43.5944 41.0064 43.7339 41.0064C43.8037 41.0762 43.8037 41.0762 43.8037 41.0762C43.8037 41.0762 43.8037 41.0762 43.8037 41.0064C44.0129 41.0064 44.3617 40.9367 44.6407 40.6577C44.85 40.4484 44.9197 40.3089 44.9895 40.0996C45.6871 40.6577 46.2451 41.146 46.8729 41.7738C46.7334 41.8435 46.5939 41.9133 46.3846 41.983C46.1056 42.1923 45.8963 42.4713 45.8963 42.6806C45.8266 42.6108 45.7568 42.6108 45.6871 42.5411C45.2685 42.262 44.9197 41.983 44.6407 41.704C43.5246 40.7972 43.4549 40.8669 44.5012 41.8435C44.7802 42.1225 45.0593 42.4016 45.4778 42.7503C45.8963 43.0991 46.3846 43.4479 46.7334 44.0059C46.9426 44.2849 47.0822 44.564 47.0822 44.9127C47.0822 45.2615 47.0124 45.5405 46.7334 45.7498C46.1753 46.0288 45.2685 46.0288 44.2919 45.9591ZM47.8495 45.122C47.6402 45.4708 47.4309 45.68 47.2217 45.8196C47.5007 45.5405 47.6402 45.0523 47.5704 44.7035C47.5704 44.2849 47.3612 43.8664 47.0822 43.5874C46.8729 43.3084 46.5939 43.0991 46.3846 42.8898C46.5939 42.8201 46.8031 42.7503 46.9426 42.6108L47.3612 42.1923C47.5704 42.4713 47.71 42.7503 47.8495 43.0293C48.1982 43.8664 48.1285 44.6337 47.8495 45.122Z" fill="white"/>
<path d="M33.9686 39.0532C33.7594 38.7742 33.4803 38.4254 33.1316 38.1464C32.5038 37.5186 31.876 36.8908 31.1087 36.1235C29.5741 34.5889 27.7604 32.7752 25.8073 30.8221C23.4356 28.4504 22.3195 27.3343 21.3429 26.4275C21.0639 26.1485 20.7151 26.009 20.3664 26.1485C20.0176 26.288 19.8083 26.6368 19.8083 26.9855V27.4041C19.8083 29.3572 19.7386 32.0777 19.7386 35.984V37.0303C19.6688 37.7279 19.5293 38.4952 19.5293 39.1927C19.5293 39.402 19.5991 39.6112 19.6688 39.8205C19.7386 40.0298 19.9478 40.239 20.0873 40.3786C20.9244 41.1459 22.2498 40.7971 23.1566 40.8668C24.2727 40.9366 23.7146 40.8668 25.7375 41.0064C27.8999 41.0761 29.6438 41.0761 30.8296 40.9366C32.0155 40.8668 32.713 40.7273 32.713 40.6576C32.713 40.5878 32.0155 40.5878 30.8296 40.5878C28.3185 40.5181 25.7375 40.3088 23.2263 40.0995C22.8775 40.0995 22.5985 40.0995 22.2498 40.0995C21.622 40.0995 20.9942 40.0995 20.7151 39.7508C20.4361 39.5415 20.4361 38.8439 20.5059 38.2161C20.5756 37.8674 20.6454 37.5186 20.6454 37.1698C20.7151 36.7513 20.6454 36.4025 20.6454 36.0537C20.6454 35.0074 20.7151 32.1474 20.7151 27.3343C21.5522 28.1016 23.8541 30.4036 25.1097 31.5894C27.1326 33.5425 29.016 35.2864 30.5506 36.7513C31.3179 37.4488 32.0852 38.1464 32.713 38.7044L33.5501 39.5415C33.6896 39.681 33.7594 39.8205 33.8291 39.8903C33.8989 40.0298 33.9686 40.0995 33.9686 40.1693C33.9686 40.239 33.8989 40.3088 33.8291 40.3786C33.7594 40.4483 33.6896 40.4483 33.5501 40.5181C33.3408 40.5878 33.1316 40.6576 32.9921 40.6576C32.713 40.7273 32.5038 40.7971 32.5038 40.7971C32.5038 40.7971 32.6433 40.8668 32.9921 40.8668C33.1316 40.8668 33.3408 40.8668 33.6199 40.7971C33.7594 40.7971 33.8989 40.7273 34.0384 40.6576C34.1779 40.5878 34.3872 40.4483 34.3872 40.239C34.3872 40.0298 34.3174 39.8205 34.1779 39.681C34.1779 39.3322 34.1081 39.1927 33.9686 39.0532Z" fill="white"/>
<rect x="45.2188" y="0.152344" width="61.7036" height="60.2289" rx="30.1144" fill="#EED850"/>
<path d="M81.1368 17.092C80.51 14.905 78.4207 13.3047 76.1748 13.3047C74.2423 13.3047 72.4142 14.4782 71.5785 16.2385C71.2129 15.4917 70.5339 14.905 69.646 14.6916C65.1019 13.7314 62.7515 21.4127 61.7591 24.7199C60.4011 29.3074 59.9832 31.2277 60.8189 36.0818C61.3935 39.229 62.6992 42.4829 65.8331 42.5362C65.8853 42.6429 65.9376 43.0697 66.2509 43.5497C66.3032 43.6564 66.4076 43.7098 66.4599 43.8165C66.5643 43.9765 66.6688 44.0832 66.7732 44.1898C67.1911 45.0433 68.3402 45.8435 68.9669 46.1635C70.9517 47.177 73.2499 47.2837 75.4436 47.2837C80.4578 47.2837 85.4197 46.5903 90.2249 45.31C90.9039 45.15 91.6874 44.7766 91.6874 44.1365C91.6874 43.6031 91.1129 43.1763 90.5906 43.0163C89.9116 42.803 89.1803 42.8563 88.5013 43.0163C88.5536 42.9096 88.5536 42.803 88.5013 42.6963C88.9192 42.2162 89.1803 41.5761 89.2326 40.8826C89.3893 38.1622 89.3892 35.5484 89.1281 32.3479C89.0759 31.7078 88.8147 31.0677 88.3969 30.5876C88.5013 30.4275 88.4491 30.3209 88.4491 29.8941C88.3969 26.4269 88.3446 23.7064 86.7777 20.3459C85.7331 18.2122 83.4872 17.252 81.1368 17.092ZM73.2499 20.2392C71.8919 22.0528 71.5785 24.4532 71.3696 26.5869C71.0562 29.7874 70.9517 32.4546 70.8995 35.015C70.8995 35.015 70.8473 35.015 70.8473 35.0683C69.2803 36.4019 67.8179 35.7084 66.8255 33.8415C66.7732 33.7881 66.7732 33.7348 66.721 33.7348C66.9299 27.1737 66.6688 29.6808 67.2956 25.2C67.5045 23.5997 67.9223 21.5194 69.1236 20.0258C70.2205 18.6389 71.9963 17.7321 74.1378 17.412C75.2869 17.252 76.4882 17.3054 77.6895 17.412C75.9137 17.9455 74.2423 18.959 73.2499 20.2392ZM69.5415 44.7766C69.1236 44.5099 68.7058 44.2965 68.2879 44.0832C67.7656 43.8698 67.1911 43.5497 66.9299 43.123C66.4076 42.3762 66.6166 41.8428 66.721 35.1217C67.8701 36.6153 69.3848 37.0953 70.9517 36.0818C70.9517 39.0157 71.1084 41.8961 71.3173 45.5768C70.6383 45.4167 70.6383 45.4167 69.5415 44.7766ZM76.1748 14.1048C77.9507 14.1048 79.5698 15.2784 80.2488 16.932C77.2717 16.6119 74.7646 16.1852 71.9963 17.1987C72.5709 15.385 74.3467 14.1048 76.1748 14.1048ZM61.6024 35.9751C60.8189 31.281 61.1845 29.414 62.5425 24.9333C63.3782 22.1062 65.6764 14.6382 69.4893 15.4384C70.3772 15.5984 71.0562 16.4519 71.0562 17.252C71.0562 17.3587 71.1084 17.4654 71.1606 17.5721C70.6906 17.7854 70.2205 17.7854 69.7504 18.1588C66.9822 20.0792 66.042 23.4397 65.6242 26.8536C64.8929 32.5079 65.363 40.1892 65.6764 41.7894C63.0649 41.5227 62.0725 38.5356 61.6024 35.9751ZM88.5013 40.8826C88.4491 41.7895 87.8746 42.5362 87.0389 42.8563C84.0617 43.8698 81.3457 44.4032 78.8908 44.4566C77.5851 44.5099 76.4882 43.4431 76.4882 42.1095C76.436 40.6693 76.5404 41.2027 76.2793 35.7618C76.3315 35.8151 76.3837 35.8151 76.436 35.8151C76.8016 35.8685 77.1672 35.8685 77.5328 35.8685C77.3761 36.2952 77.2194 37.1487 77.4284 37.5221C77.5851 37.7888 78.0551 37.8955 78.3163 37.6821C78.7341 37.4154 78.9953 36.7219 78.473 35.8685C81.9202 35.7618 85.1063 34.8016 88.4491 33.8415C88.6058 36.3485 88.6058 38.5889 88.5013 40.8826ZM85.7331 30.4275C86.9866 30.1608 88.2402 31.0677 88.3446 32.4012C88.3446 32.5612 88.3446 32.7213 88.3969 32.9346C88.2402 32.9346 88.6058 32.8813 87.3522 33.2013C83.6961 34.2682 80.2488 35.2284 76.436 34.9083C76.3315 34.9083 76.2271 34.9083 76.1748 35.015C76.1748 34.5882 76.1226 34.1082 76.1226 33.6814C76.0704 32.7213 76.8016 31.8678 77.7417 31.7611C80.4578 31.4411 83.1215 31.0143 85.7331 30.4275ZM87.6656 30.0008C85.9942 29.0407 85.5764 30.0542 77.6895 30.961C76.3315 31.121 75.3391 32.3479 75.3914 33.7348C75.6003 39.0157 75.4958 33.7348 75.7047 42.0562C75.757 43.8165 77.1672 45.2567 78.9431 45.2034C79.5176 45.2034 80.0921 45.15 80.7189 45.0967C77.8984 45.7368 74.2423 46.0035 72.1008 45.6834C71.683 38.2689 71.474 33.9481 72.153 26.6936C72.3097 24.9333 72.5709 23.013 73.4588 21.4127C73.2499 22.1062 73.6155 23.2797 73.8244 23.9198C74.869 26.8536 77.5851 28.6673 80.8234 28.2405V28.4005C80.8234 28.8273 81.189 29.2007 81.6591 29.1473H81.7113C82.0769 29.094 82.3381 28.7739 82.3381 28.4005V27.9738C84.7407 27.2804 86.4643 25.6801 86.9866 22.9596C87.6134 25.3067 87.6134 27.4937 87.6656 30.0008ZM86.0465 20.7193C86.1509 20.9326 86.2554 21.146 86.3599 21.3594V21.4127C86.2032 24.2398 85.1063 25.7334 83.3305 26.6936C82.9648 26.8003 82.5992 26.907 82.2858 27.0136C82.2336 26.6403 81.9202 26.3735 81.6068 26.3735C81.189 26.3735 80.8756 26.6936 80.8756 27.1203V27.387C80.2488 27.4404 79.5698 27.387 78.9953 27.2804C75.9659 26.5336 75.6003 24.5066 75.1824 22.1595C75.1302 21.7861 74.869 20.2925 74.7124 19.9191C77.6895 17.1987 84.2706 16.8786 86.0465 20.7193Z" fill="white"/>
<path d="M83.6952 16.2377L84.5309 13.7306C84.5831 13.5172 84.4787 13.3039 84.2698 13.1972C84.0608 13.1438 83.8519 13.2505 83.7474 13.4639L82.9117 15.971C82.8595 16.1844 82.964 16.3977 83.1729 16.5044C83.3818 16.5577 83.5908 16.4511 83.6952 16.2377Z" fill="white"/>
<path d="M86.5167 15.2254L85.5243 16.3989C85.3676 16.5589 85.4198 16.8256 85.5765 16.9856C85.7332 17.1457 85.9944 17.0923 86.1511 16.9323L87.0912 15.7588C87.2479 15.5987 87.1957 15.332 87.039 15.172C86.8823 15.0653 86.6211 15.0653 86.5167 15.2254Z" fill="white"/>
<path d="M87.247 19.0129C87.5604 19.0129 88.7095 18.6929 88.9706 18.5862C89.4407 18.4262 89.8585 18.3195 90.5375 18.2128C90.7465 18.1595 90.9032 17.9461 90.8509 17.7327C90.7987 17.5194 90.5898 17.3593 90.3809 17.4127C89.0229 17.6794 88.5005 17.9994 87.1425 18.2128C86.6725 18.2662 86.7769 19.0129 87.247 19.0129Z" fill="white"/>
<rect x="90.2969" y="0.152344" width="61.7036" height="60.2289" rx="30.1144" fill="#8ED680"/>
<path d="M128.143 17.3535C127.699 18.385 127.359 19.4645 127.135 20.5621C127.088 20.7878 127.261 21.0002 127.492 21.0002C127.662 21.0002 127.814 20.8814 127.849 20.7084C128.064 19.6598 128.389 18.6283 128.813 17.6424C128.893 17.4571 128.807 17.2423 128.622 17.163C128.438 17.0827 128.222 17.1682 128.143 17.3535Z" fill="white"/>
<path d="M130.008 22.2585C130.115 22.2585 130.221 22.2115 130.293 22.1212L132.801 18.9829C132.927 18.8257 132.902 18.5962 132.744 18.4703C132.588 18.3453 132.358 18.3695 132.231 18.5278L129.723 21.666C129.53 21.9066 129.707 22.2585 130.008 22.2585Z" fill="white"/>
<path d="M136.873 22.4424C136.795 22.2561 136.579 22.1692 136.395 22.2476C134.995 22.8367 133.522 23.2435 132.019 23.4563C131.819 23.4843 131.68 23.6692 131.709 23.8687C131.738 24.0752 131.933 24.209 132.121 24.1785C133.687 23.9571 135.22 23.5338 136.678 22.9204C136.864 22.842 136.951 22.6282 136.873 22.4424Z" fill="white"/>
<path d="M112.604 34.1151C112.143 37.3843 111.377 40.6179 110.317 43.742C110.252 43.9326 110.354 44.1531 110.569 44.2102C110.559 44.2139 110.549 44.2181 110.54 44.2218C110.933 44.5379 111.379 44.789 111.854 44.9617C115.077 43.764 118.229 42.2809 121.23 40.5949C123.565 42.2186 126.236 43.6588 129.352 44.975C129.592 45.0772 129.862 44.8997 129.859 44.6353C129.826 41.5108 129.276 38.1844 128.13 34.1843C130.864 31.9366 133.301 29.9121 136.129 27.5885C136.367 27.3933 136.268 27.0031 135.962 26.948C132.448 26.3055 129.128 25.7481 125.713 25.1249C121.593 17.3315 122.358 15.6429 121.624 15.5439C121.555 15.5331 121.486 15.5457 121.425 15.5739C121.431 15.5583 121.437 15.543 121.443 15.5273C120.626 15.9007 119.877 16.4116 119.198 17C118.63 17.493 116.858 21.7408 115.526 24.572C112.47 25.2142 109.279 25.43 106.022 25.2033C105.845 25.195 105.676 25.3066 105.64 25.5027C105.626 25.5097 105.61 25.5183 105.598 25.5236C105.455 26.062 105.388 26.6204 105.4 27.1773C107.368 29.8929 109.811 32.2594 112.604 34.1151ZM115.31 25.3635C115.491 25.3639 115.663 25.3262 115.826 25.2555C116.665 25.0753 116.817 25.0758 116.924 24.8869L121.455 16.8624C122.21 19.5283 123.37 22.2727 125.152 25.6233C125.304 25.9114 125.041 25.7143 135.057 27.5248C132.595 29.5504 130.005 31.6994 127.482 33.7728C127.369 33.8654 127.322 34.0161 127.362 34.1562C128.464 37.9525 129.027 41.1255 129.118 44.0808C125.731 42.6117 122.892 40.9881 120.453 39.1266C120.334 39.0363 120.173 39.0277 120.046 39.1023C117.331 40.7026 114.232 42.166 111.245 43.2631C112.317 39.95 113.069 36.5238 113.481 33.0672C113.519 32.7436 113.596 33.0678 106.9 25.9844C109.774 26.1131 112.592 25.9028 115.31 25.3635Z" fill="white"/>
</svg>
