<svg width="307" height="38" viewBox="0 0 307 38" fill="none" xmlns="http://www.w3.org/2000/svg">
<path d="M24.352 37.0111C24.5415 36.9641 25.3037 37.0784 25.6336 37.0585C25.2596 37.5555 23.6685 37.1817 24.352 37.0111ZM58.1983 0.927073C57.9245 1.04992 57.6507 1.17277 57.3769 1.29562C58.1549 1.37545 59.2007 1.28528 59.9227 1.40189C60.0408 1.42147 59.7344 1.77717 60.0138 1.79305C60.2933 1.80883 60.2394 1.32274 60.6459 1.27075C61.1018 1.21391 63.1895 1.55255 63.9125 1.54434C66.6166 1.51152 69.3439 1.23392 72.0534 1.43581C69.2561 1.79543 72.0749 2.16144 72.8583 2.00559C73.032 1.9695 73.0042 1.06582 75.8107 1.29336C77.5942 1.43776 75.9469 2.72969 78.9231 2.08247C76.6345 1.17867 78.8851 1.24201 80.6791 1.21196C80.9884 1.20664 83.4861 1.34243 84.5895 1.30241C84.967 1.28848 85.5421 0.815136 86.0429 0.802715C86.3875 0.794521 86.6481 1.0533 87.1598 1.04012C89.5452 0.981796 91.8911 0.961674 94.2807 1.04917C92.8842 2.26556 95.3768 1.56758 95.4887 1.62573C96.058 1.956 93.4832 2.05 94.5015 2.25657C95.9245 2.21888 97.3475 2.1812 98.7705 2.14351C97.6027 1.99416 100.317 1.11919 100.816 1.5172C100.596 0.442354 107.302 2.45271 108.323 2.09377C108.535 2.01795 107.144 1.48672 110.372 1.72974C110.722 1.75675 110.589 2.08104 110.773 2.05081C110.883 2.03263 111.547 1.0019 112.255 1.57147C112.514 1.77935 110.86 2.45632 114.493 2.18421C113.046 1.13513 119.53 1.61607 120.723 1.87897C120.485 1.73803 120.247 1.5971 120.008 1.45616C121.188 1.83636 121.4 1.47968 121.666 1.49912C122.737 1.57719 124.209 1.93665 125.206 1.90384C126.373 1.8661 126.377 1.21367 127.738 1.46746C127.415 1.32351 127.092 1.17956 126.769 1.0356C127.709 1.07027 128.649 1.10494 129.589 1.13961C127.412 2.00324 130.058 1.18081 130.232 1.16222C130.51 1.13079 130.111 1.48436 130.576 1.44033C130.624 1.43308 130.554 1.10013 131.271 1.06273C132.768 0.985743 132.531 1.40437 133.16 1.39963C133.218 1.39747 133.016 1.09752 134.102 1.02656C137.552 0.800657 134.085 1.25642 133.952 1.29788C133.778 1.35257 134.962 2.60608 132.03 2.1616C133.015 2.3031 133.113 2.8578 133.224 2.87157C133.322 2.88289 135.028 2.80476 135.122 2.78565C135.96 2.59729 135.222 2.21823 135.386 2.1503C135.519 2.09554 137.574 2.58953 138.055 1.44937C139.038 2.50103 137.49 2.40468 135.841 2.56633C135.601 2.78214 137.411 2.99198 137.506 2.99141C139.841 2.98949 138.548 2.12444 139.059 1.57147C139.327 1.28215 140.278 1.87231 139.4 1.09665C141.519 1.01477 140.234 1.46425 140.371 1.53077C140.578 1.6285 141.319 1.40619 141.412 1.43581C141.548 1.47964 141.075 1.7482 141.612 1.84279C141.701 1.85655 142.567 1.39441 141.45 1.17353C142.942 1.23922 142.819 0.845161 143.324 1.6393C144.351 0.136885 144.07 2.52737 144.474 2.61155C145.549 2.83346 145.237 1.65386 145.294 1.59634C145.686 1.22772 148.663 1.63294 149.4 1.46294C149.109 2.31255 147.04 1.47222 146.577 1.63704C145.035 2.1854 148.751 2.06182 147.631 3.12933C148.101 2.83615 148.57 2.54296 149.04 2.24978C149.901 2.93615 148.679 3.23544 150.997 2.98462C151.376 2.39219 149.358 3.07819 149.763 2.61155C150.002 2.33768 151.345 2.27886 151.372 2.13447C151.398 1.96066 150.184 2.16665 150.375 1.89932C150.793 1.32243 155.223 1.87163 151.851 2.18647C152.791 2.17661 153.276 3.32406 154.092 2.96653C154.619 2.73447 151.652 1.14972 156.104 1.44033C156.198 1.98216 154.324 1.60033 154.275 1.64156C154.207 1.70158 154.546 2.92427 154.605 2.98462C154.812 3.18332 159.358 2.5286 160.319 3.14289C159.939 2.43623 163.754 3.0168 164.17 2.80148C164.28 2.74203 163.867 2.30917 163.985 2.26335C164.723 1.99066 166.718 2.76337 167.644 2.78339C168.68 2.80608 168.549 2.43222 168.607 2.43293C169.063 2.45378 168.699 2.70723 168.977 2.70651C169.398 2.7053 172.291 2.75713 172.437 2.70425C172.479 2.68777 172.007 2.2607 172.638 2.17969C172.747 2.16566 172.678 2.672 174.546 2.45328C176.795 2.19022 172.983 1.82361 173.918 1.29336C175.363 2.04835 175.316 1.30019 175.708 1.35893C175.844 1.38033 176.853 2.01644 177.95 1.9762C177.163 2.07945 176.376 2.1827 175.589 2.28596C176.363 2.3975 177.865 2.25944 178.503 2.38544C178.814 2.44678 178.557 2.96935 179.233 2.95523C179.376 2.94939 179.945 1.67626 178.175 2.24752C178.034 1.79293 178.876 2.08896 179.267 1.96037C179.326 1.94033 179.559 1.18088 180.058 1.65287C180.177 1.76899 178.873 3.98437 182.237 2.38092C182.345 2.32925 181.968 2.0518 182.074 1.99429C182.147 1.95534 183.005 2.06756 183.1 2.0282C183.197 1.98597 182.782 1.68307 182.898 1.62347C183.49 1.31636 184.267 2.51768 183.046 2.42614C183.454 2.57462 183.862 2.72309 184.271 2.87157C183.834 1.96618 184.912 2.61683 185.476 2.58894C189.096 2.41074 186.672 1.82188 187.294 1.5172C188.295 1.02802 187.531 2.57742 189.016 2.11186C189.154 2.06833 187.358 1.41063 190.865 1.78175C190.347 1.80737 189.829 1.833 189.312 1.85862C189.61 2.73434 191.181 1.79855 191.302 1.78627C192.679 1.66603 191.748 1.98172 193.792 1.53077C193.975 1.49028 194.373 1.70641 194.763 1.5986C196.382 1.15446 192.627 1.32909 192.525 0.974554C192.476 0.800835 196.514 0.844584 196.652 0.927073C197.241 1.29273 194.822 1.08813 195.283 1.54208C195.451 1.70326 201.206 1.37221 202.361 1.54886C203.693 1.75442 204.293 2.94173 204.301 1.60765C204.677 2.91717 205.01 2.0237 205.18 2.03272C207.24 2.15395 207.244 2.16716 209.011 2.04177C209.401 2.01451 209.731 2.41184 209.869 2.34475C209.949 2.30423 209.799 1.87902 210.192 1.74783C210.739 1.56836 214.023 2.00569 214.267 2.24074C214.511 2.47579 212.88 2.34267 213.173 2.72912C214.353 2.76819 215.486 2.67257 216.674 2.7133C217.168 2.73137 216.914 3.00185 217.127 3.00723C217.218 3.01056 218.923 2.77237 218.851 2.6726C218.681 2.4406 213.417 2.59655 214.803 2.12317C215.071 2.0317 216.016 2.65499 215.866 1.89706C220.568 2.0689 225.271 2.24074 229.974 2.41258C227.272 2.97948 224.231 2.47248 221.401 2.52563C221.013 2.53219 219.702 2.45909 219.861 2.84218C222.268 2.94135 225.26 2.74175 227.571 2.99141C227.645 2.99967 227.373 3.34385 227.65 3.39839C228.168 3.50019 229.854 2.94509 230.138 3.08863C230.186 3.12207 229.227 3.57581 229.519 3.86417C230.267 4.60416 230.458 2.9652 231.102 2.98462C231.6 3.00034 234.946 3.7928 235.78 3.29212C236.666 2.75846 233.313 2.98231 233.561 2.54598C235.829 2.1075 238.126 2.57573 240.269 2.52111C240.307 2.51972 239.979 2.17779 240.458 2.12995C241.29 2.04669 241.508 2.5317 241.913 2.60929C242.35 2.69188 243.895 2.62238 244.101 2.79922C244.128 2.8224 243.815 3.30347 243.767 3.317C243.094 3.51527 242.855 2.89089 242.794 2.88288C242.564 2.8592 242.338 3.09835 242.128 3.08411C241.783 3.06036 241.592 2.8391 241.136 2.81957C240.822 2.80527 241.125 3.23016 240.822 3.21073C240.711 3.20187 239.51 2.23167 239.398 3.22203C239.363 3.53429 249.184 3.93528 250.165 3.68555C249.323 3.56646 248.481 3.44738 247.639 3.3283C249.349 3.61817 251.403 2.82687 251.548 3.99757C257.889 4.09329 264.229 4.189 270.57 4.28472C271.702 4.38446 271.081 5.13677 272.944 4.91781C272.463 4.67814 271.981 4.43847 271.5 4.1988C272.454 4.36694 276.685 4.69541 277.369 4.54022C277.458 4.51988 277.581 3.83901 278.638 3.78051C279.576 3.72886 279.727 4.239 280.228 4.33673C280.649 4.41735 281.122 4.28369 281.247 4.31185C281.343 4.3344 281.381 4.64636 281.612 4.70075C282.34 4.86894 281.75 3.9906 282.473 4.99921C282.297 5.03765 282.121 5.07609 281.945 5.11453C282.824 5.26051 284.025 5.71841 282.73 5.94433C282.507 5.98333 282.698 5.68153 282.532 5.68205C276.031 5.73813 281.222 6.32481 283.501 5.85615C284.086 6.30333 287.365 6.03031 287.474 6.11843C287.626 6.24607 287.065 6.60346 287.8 6.91206C287.955 6.97738 292.34 6.72698 290.761 7.3213C290.435 7.4439 288.333 7.3151 287.826 7.33261C289.018 8.28042 291.813 6.92248 292.128 6.95728C293.396 7.10499 289.692 7.77869 292.548 7.88883C294.745 7.97334 292.683 7.34047 293.527 7.07033C294.002 6.91875 296.488 7.61595 296.42 6.71308C297.273 6.61667 296.774 7.09473 296.879 7.12912C296.982 7.15934 298.66 6.88906 299.204 7.07937C299.27 7.10304 299.062 7.57232 299.131 7.61072C299.263 7.67646 300.881 7.58265 300.946 7.54289C300.987 7.51526 300.602 7.1044 300.76 7.00476C300.945 6.88986 302.502 6.98655 302.588 6.8691C302.709 6.69152 300.787 6.80851 301.107 6.34906C301.993 6.46474 303.436 6.15819 304.021 5.78832C303.878 5.89407 303.019 5.90925 302.721 5.87197C302.861 5.19907 304.705 5.20824 304.075 5.74083C304.476 5.45481 304.202 5.30306 304.428 5.03313C304.487 4.96475 305.056 4.95067 305.166 4.83416C305.18 4.81094 304.593 4.55706 304.71 4.42038C304.923 4.17341 306.65 4.22897 306.791 4.29377C307.189 4.47738 305.781 4.69955 305.664 4.98339C305.647 5.02697 306.844 5.58318 306.863 5.6323C306.933 6.15935 305.6 5.77953 305.753 6.25409C306.082 6.35433 306.412 6.45457 306.741 6.55481C305.47 7.03537 303.119 6.78826 302.513 7.33487C304.397 7.17221 306.369 7.19145 306.365 8.42243C306.363 8.94086 305.551 9.24477 305.582 9.37659C305.702 9.84824 306.83 9.33586 306.872 9.36077C306.906 9.38951 306.922 9.4175 306.922 9.44474C306.922 9.44475 306.922 9.44476 306.922 9.44477C306.922 9.72092 305.313 9.91978 305.233 10.0459C305.097 10.2698 305.813 11.1918 305.812 11.3957C305.787 11.4367 304.642 11.6548 305.028 12.0107C305.419 12.3702 306.422 12.3781 306.457 12.4154C306.649 12.6305 304.895 12.8266 304.842 12.9536C304.815 13.0178 305.757 13.4122 305.784 13.5256C305.808 13.6394 305.092 13.8877 304.81 14.2469C304.6 14.5137 305.212 14.7183 305.104 14.7601C305.027 14.7879 303.37 14.7833 303.289 14.8302C303.167 14.8996 303.555 15.2185 303.499 15.2983C303.419 15.413 302.884 15.2978 302.953 15.4158C303.006 15.5038 305.08 16.6032 305.067 16.8968C305.043 17.3977 302.846 16.2453 304.89 18.2218C304.905 18.2348 305.402 18.0943 305.416 18.1065C305.723 18.4701 304.128 19.0295 306.079 18.9318C302.45 19.5634 305.627 19.6847 305.09 20.5281C304.883 20.8522 303.476 20.9859 303.47 21.0345C303.606 21.4458 304.055 21.1268 304.207 21.3285C304.291 21.4411 303.032 21.8759 303.315 22.1583C303.462 22.3038 304.798 22.252 304.853 22.2804C305.382 22.5481 304.733 22.8364 304.85 23.0265C304.927 23.154 305.733 23.1641 305.754 23.187C305.788 23.2348 304.693 23.7499 304.465 23.9309C304.292 24.0702 304.942 24.2885 304.821 24.3492C304.093 24.7124 302.542 23.7862 304.036 25.0841C304.128 25.1637 304.693 25.1315 304.709 25.1474C305.059 25.5153 304.018 25.5471 303.832 25.8483C303.512 26.3673 305.008 26.0779 303.764 26.4429C304.697 26.7824 305.217 26.7682 306.309 26.6736C303.286 26.9375 302.219 28.2811 305.575 28.2473C304.507 28.2263 304.626 28.9846 304.307 28.9979C304.109 29.0053 302.561 28.2514 303.271 29.943C303.36 30.1544 304.3 29.8859 304.006 30.3184C301.749 30.208 303.958 30.5936 303.96 30.6508C303.931 31.6472 298.417 30.8311 297.469 30.9447C296.37 31.0765 295.393 31.8617 295.154 31.8627C294.367 31.863 295.02 31.4643 294.844 31.3178C294.666 31.1725 292.43 31.9363 292.318 31.8943C291.885 31.7258 292.325 31.2534 292.28 31.2296C291.743 30.9401 288.74 31.31 287.9 31.2002C287.926 31.5067 289.613 31.531 288.56 32.0232C287.332 32.5971 287.262 31.2461 287.23 31.1866C281.607 31.1994 275.985 31.2122 270.362 31.2251C270.432 31.9438 274.108 31.4018 274.192 31.4964C274.683 32.0567 268.473 32.0464 267.711 31.7926C268.29 31.9478 268.868 32.1031 269.447 32.2584C268.459 33.0847 266.272 32.0111 264.843 32.3759C264.381 32.4942 265.268 32.8131 265.249 32.8349C264.73 33.1559 263.898 32.9086 264.52 32.4777C263.253 32.8906 263.438 32.435 262.466 32.4008C262.416 32.3994 262.834 32.7328 262.064 32.8711C261.704 32.9356 259.782 32.9367 259.525 33.2283C259.419 33.3511 260.394 34.6443 260.514 33.5313C262.605 34.0739 261.182 33.0241 261.994 33.0497C262.119 33.0555 261.832 33.6768 263.878 33.3844C263.488 34.5047 261.133 33.6669 260.729 33.8026C259.897 34.0816 263.328 34.6601 263.957 33.7868C263.663 34.6611 264.2 33.9046 264.965 33.9406C265.803 33.9795 265.438 34.2399 265.891 34.2413C267.13 34.2478 266.616 33.6307 267.637 34.187C266.642 32.4647 269.386 33.9598 270.185 34.4109C268.884 34.4983 267.583 34.5857 266.282 34.6731C266.356 34.7636 266.431 34.854 266.505 34.9445C266.162 34.9317 265.82 34.9188 265.477 34.906C265.532 34.8194 265.587 34.7327 265.642 34.646C263.875 35.2096 263.444 34.5762 263.299 34.5691C261.444 34.4957 259.302 34.5011 257.426 34.499C257.145 34.4987 257.338 35.0625 255.287 34.6211C254.633 34.4806 255.25 34.0421 254.509 34.1079C253.581 35.2995 253.599 34.3491 253.323 34.3476C252.532 34.3477 252.048 34.6429 251.975 34.646C250.997 34.6921 249.565 34.6428 248.491 34.6867C248.471 34.6912 249.03 35.0573 248.332 34.949C248.087 34.9103 245.889 33.3475 243.968 33.8569C244.468 33.9624 244.968 34.0679 245.467 34.1735C244.88 34.026 240.763 34.4199 241.77 34.8382C242.387 35.0939 243.893 34.0865 244.058 35.0553C242.688 34.7653 235.122 35.199 234.533 34.9739C234.451 34.9417 234.953 34.6274 234.84 34.5872C234.753 34.5566 233.02 34.6311 232.79 34.5104C232.653 34.4386 233.419 34.246 233.356 34.1328C233.302 34.052 231.137 33.9174 231.014 34.3114C231.546 34.1532 233.039 34.2913 232.256 34.6234C232.155 34.6646 231.633 34.4105 231.51 34.4629C230.375 34.9456 233.769 34.8297 234.295 34.8337C232.162 35.3356 228.864 34.7439 226.393 35.0711C225.395 34.7432 227.873 34.5695 226.744 34.2978C224.4 33.7347 226.12 34.7512 226.047 34.793C225.465 35.1238 223.483 33.3509 223.482 34.7003C222.632 34.4971 222.907 34.327 221.708 34.5036C221.866 34.597 222.024 34.6905 222.181 34.7839C220.85 35.5656 218.033 33.5936 218.244 33.4431C218.812 33.0405 220.279 33.6685 220.404 33.6534C220.59 33.6311 221.103 32.2618 223.132 33.4861C223.964 32.5677 219.915 32.8662 221.757 32.2403C220.513 32.343 215.395 31.7038 214.659 32.1069C214.571 32.1595 214.98 33.0746 213.716 32.6088C213.116 32.387 214.563 32.3764 214.288 32.1679C213.443 31.5281 201.948 31.9374 199.765 31.9712C199.623 31.9722 199.675 31.6882 199.536 31.6908C199.108 31.6988 197.549 32.1223 196.783 31.9916C198.37 32.5172 195.289 32.5581 194.505 32.5003C193.316 32.4122 193.389 31.9124 192.875 31.8061C190.895 31.3965 187.826 32.583 186.287 31.4738C186.371 32.5747 183.626 30.934 182.377 30.9243C181.398 30.9164 179.979 31.645 181.3 32.0888C179.611 32.0381 177.833 32.2435 176.249 32.3104C175.987 32.3216 176.348 31.996 175.901 32.0255C175.86 32.0305 175.804 32.3495 175.421 32.3827C172.253 32.6608 173.795 31.9828 173.202 31.7835C172.87 31.6719 172.626 31.6164 172.446 31.5981C174.292 31.5358 176.421 31.4105 176.991 31.4014C176.505 30.6969 172.899 31.5367 171.843 31.3472C171.807 31.3403 171.934 30.952 171.897 30.9492C171.896 30.9492 171.895 30.9492 171.895 30.9492C171.499 30.9195 168.978 31.0628 169.497 31.5258C169.636 31.6495 170.797 31.6492 172.173 31.6072C171.8 31.694 172.078 32.129 172.013 32.1476C171.216 32.3626 169.263 31.938 168.571 31.8808C168.412 31.8682 168.424 32.1469 168.398 32.1476C167.768 32.0843 168.026 31.2885 167.38 32.1091C166.24 31.1174 169.518 31.9619 169.287 31.3178C169.109 30.8219 161.828 31.0882 161.849 31.8695C161.824 31.7859 161.724 31.6822 161.519 31.5642C161.063 31.3021 159.036 31.3841 158.687 31.528C158.628 31.5564 158.651 32.3147 158.578 32.3217C158.395 32.3391 155.918 31.7446 154.992 32.1928C155.492 32.2991 155.992 32.4053 156.491 32.5116C153.474 32.5182 153.94 32.7438 154.946 32.9706C154.996 32.9726 155.045 33.0014 155.093 33.0045C155.872 33.1721 156.871 33.3336 156.886 33.3934C156.943 33.6217 151.824 33.7487 152.809 33.0452C152.946 32.949 155.315 33.2623 154.142 32.7603C153.937 32.6724 152.416 32.8156 152.336 32.7603C151.801 32.3925 155.123 31.9038 154.717 31.3811C153.911 31.8787 152.876 31.6166 151.951 31.7451C151.531 31.8032 151.427 32.1834 151.375 32.1905C150.6 32.2898 151.035 31.8912 150.776 31.9011C150.637 31.908 149.108 32.7563 149.397 31.5868C144.361 32.4472 148.004 32.4463 151.094 32.3805C150.118 32.8064 148.204 32.6004 147.345 32.6993C147.036 32.7351 147.219 33.1254 146.699 33.2035C145.627 33.364 140.512 32.9157 139.179 32.81C139.998 32.6722 139.758 32.2471 139.127 32.2764C138.495 32.306 139.026 32.8734 138.902 32.9344C138.77 32.9976 135.806 32.7297 135.313 32.8033C137.545 32.5977 137.041 32.1738 135.147 32.1295C135.421 32.0074 135.695 31.8853 135.969 31.7632C134.859 31.9348 132.525 31.2881 131.883 31.4806C131.782 31.5115 132.144 31.8679 132.088 31.8853C131.525 32.0367 129.61 31.6732 129.521 31.7948C129.445 31.8961 130.262 32.1949 129.959 32.342C129.896 32.373 129.108 31.8912 128.333 32.0096C128.045 32.0532 128.218 32.3903 128.146 32.4098C127.541 32.572 127.898 32.0043 126.794 32.0956C125.985 32.1631 125.382 32.718 124.264 32.5342C127.935 33.2416 124.849 32.9461 123.315 33.1605C123.069 33.1947 123.279 33.8066 121.81 33.5087C124.937 32.4022 120.918 32.9239 120.096 32.9118C120.051 32.908 120.035 32.5045 119.632 32.498C119.598 32.4984 119.647 32.7711 119.272 32.792C115.718 32.9891 117.991 32.681 117.315 32.4121C117.028 32.2975 115.299 32.6832 114.834 32.6925C114.727 32.6934 114.776 32.4101 114.362 32.4211C113.629 32.4415 112.973 32.7432 112.489 32.7671C112.433 32.7685 112.43 32.3214 111.513 32.4664C111.256 32.5069 110.966 32.6657 111.332 32.7942C112.546 33.217 114.849 32.4853 116.222 32.9073C117.473 33.2916 113.527 33.3278 113.322 33.3301C113.247 33.3315 114.017 33.1095 113.234 33.0655C112.566 33.029 111.344 33.8012 110.347 33.6331C110.271 33.6206 109.475 32.9658 109.512 32.9276C109.545 32.8997 110.768 32.7576 110.59 32.5681C110.569 32.5465 109.792 32.5509 109.691 32.4098C109.567 32.2381 109.232 30.5528 109.066 30.5106C108.64 30.4062 108.917 30.7905 108.642 30.7638C108.051 30.7074 106.003 30.209 105.936 30.7932C106.274 30.8279 106.613 30.8625 106.951 30.8972C105.068 30.9573 105.871 31.2059 105.604 31.3155C105.317 31.434 105.398 30.9206 104.763 30.8723C104.625 30.8617 101.969 30.9689 102.017 31.1844C103.486 30.8415 102.941 31.476 103.009 31.4873C103.267 31.5287 103.595 31.1727 103.94 31.1798C106.369 31.2355 103.92 31.7973 104.493 31.9418C104.69 31.9904 105.083 31.6866 105.167 31.7021C105.439 31.7525 105.444 32.1504 105.625 32.1182C106.049 32.0435 105.554 31.4805 105.588 31.4512C105.966 31.0988 107.449 31.5372 106.526 32.1498C107.08 32.3706 107.145 31.6261 107.584 31.9237C108.458 32.5131 107.149 32.3617 106.795 32.4596C105.523 32.8126 105.145 32.5268 103.345 32.6246C102.696 32.6591 101.928 33.0208 101.627 33.0407C101.438 33.0532 99.648 31.7948 99.5954 33.7642C98.8997 33.5736 97.8083 32.2759 97.0917 32.3352C96.4482 32.3894 96.6528 33.0861 96.5928 33.113C96.5008 33.1554 95.7227 33.1005 95.4595 33.1989C95.1512 33.3153 95.3051 33.5812 94.8158 33.6896C93.5982 33.9586 93.6301 33.2474 93.5049 33.2012C92.052 32.667 92.6882 33.6785 92.3658 33.7597C92.066 33.8342 87.8604 33.4449 86.9752 33.7009C87.3354 33.5585 87.6956 33.416 88.0559 33.2736C87.4112 32.83 86.7279 33.5535 86.7158 32.758C86.585 34.0423 85.2544 33.1839 84.8547 33.217C84.6971 33.2307 84.7095 33.4495 84.5124 33.459C83.7422 33.4973 82.0058 33.3231 81.5881 33.4341C79.7815 33.9118 84.401 34.7065 84.7647 34.7545C84.0367 34.7404 79.918 35.028 81.8112 35.6454C82.1039 35.7407 82.6224 35.1659 82.7867 35.1434C83.8992 34.9955 83.0243 35.5105 83.1115 35.5595C83.2598 35.6385 83.992 35.1407 84.1852 35.2C84.2497 35.219 83.8346 35.6853 84.8956 35.6951C84.3737 36.1472 81.3916 35.7789 81.0004 35.8851C80.861 35.923 81.7346 36.889 79.1825 35.9506C79.2121 36.0403 79.2417 36.13 79.2713 36.2197C77.8502 36.2566 76.4291 36.2936 75.0081 36.3305C75.1625 36.1239 75.9604 35.7088 74.9555 35.7969C74.3769 35.8479 74.805 36.3081 74.7522 36.3214C74.233 36.4481 65.0438 36.295 63.2629 36.3463C62.6572 36.363 60.9686 36.7329 60.8398 36.7397C60.07 36.7768 57.3436 36.536 56.7998 36.5883C56.4602 36.6218 56.783 37.0065 56.4797 36.9885C56.1976 36.9712 56.4898 36.5993 56.4061 36.5837C55.7122 36.449 50.442 36.9367 49.1905 36.586C49.9554 36.6913 53.7723 35.9483 53.6955 35.6861C53.679 35.6501 52.7513 35.3673 52.5599 35.5052C52.2438 35.1833 51.1583 36.1635 50.568 35.971C50.5012 35.9491 50.7641 35.3993 49.7104 35.2995C49.3474 35.2654 48.397 35.694 47.4404 35.2135C46.0555 35.4444 38.7744 34.7313 38.2749 35.3221C38.2601 35.3533 39.2854 35.5567 38.5927 35.7991C37.6718 36.1214 38.4988 35.0359 37.4255 34.9422C37.2638 34.928 34.2777 35.0378 34.1799 35.105C33.2755 35.7143 35.8848 35.9612 35.8483 36.032C35.7573 36.2104 33.5892 36.3183 33.5011 36.2762C33.4172 36.2325 35.1854 35.4252 33.0607 35.7313C33.3041 35.8278 33.5475 35.9243 33.7909 36.0207C32.7916 36.2086 32.6964 35.6501 32.4543 35.616C31.7018 35.508 30.8876 36.3563 29.6819 35.3085C29.3631 35.0304 29.8924 34.7216 29.8525 34.6799C29.4694 34.3057 28.9808 35.3069 28.4049 34.5601C28.3615 34.5044 29.7018 34.057 27.3593 34.0559C27.5205 34.1275 27.6817 34.1991 27.8429 34.2707C27.5126 34.4305 25.1408 34.5255 24.8217 34.4877C23.8895 34.3773 24.7024 33.8633 23.7655 33.9247C24.3664 34.6291 21.5173 34.7211 21.6812 34.1147C21.2833 34.8763 18.863 34.2888 17.7253 34.2707C17.0074 34.2598 15.5431 34.5922 15.315 34.5533C15.0372 34.5057 15.1216 33.9861 14.6199 33.8705C14.4768 33.8375 12.9832 34.2183 11.6722 33.6806C11.4181 33.5769 10.8845 32.6957 11.3568 32.4754C12.1651 32.0985 13.6942 32.8085 13.6747 32.2877C13.6518 31.7307 11.5922 32.062 11.0378 31.9893C8.47845 31.653 9.95635 31.0609 9.89052 30.8814C9.71984 30.4458 8.3214 30.4593 8.26305 30.4201C8.02121 30.2462 9.01217 29.9014 9.02713 29.6355C9.04519 29.2894 7.69724 28.6647 8.00368 28.548C8.44234 28.3823 9.68112 28.903 9.75967 28.8781C10.7821 28.5423 9.38065 27.7425 8.99442 27.3496C8.87733 27.2288 9.34385 27.0301 9.24677 26.9946C7.76492 26.4567 8.9344 28.1186 7.94877 28.0076C7.06939 27.9087 8.20084 27.3831 8.16725 27.3541C8.12383 27.3223 7.07239 27.2937 6.9078 27.1077C6.82668 27.0146 9.55952 25.9924 9.44539 25.534C8.57343 25.635 7.70148 25.736 6.82952 25.837C6.76116 25.2394 8.01533 25.6793 8.14505 25.6177C8.40619 25.494 7.67801 25.1916 7.70926 25.0027C7.72603 24.8825 8.58067 24.4536 7.80857 24.2769C7.54322 24.2158 6.98633 24.6348 6.01987 24.2068C9.38329 23.6601 7.0525 23.3241 6.95336 23.1124C6.85625 22.9008 8.46197 22.4025 6.5129 22.4906C6.4284 21.3276 6.55492 22.123 7.10875 21.9186C7.7872 21.6673 6.21916 21.2844 8.69883 21.5749C8.55776 21.0304 6.56468 21.0689 6.45916 21.0255C6.36805 20.9861 6.81107 20.7183 6.6531 20.6275C4.78465 19.5754 6.068 20.0559 5.52684 19.384C5.47871 19.3239 3.71273 19.0748 5.05718 18.977C7.50655 18.7991 8.53023 19.5707 8.94184 17.9211C7.13012 17.2045 4.93496 18.2693 4.38422 18.2874C3.54125 18.3134 4.41449 17.9769 4.31062 17.8826C4.27454 17.8522 3.54812 17.88 3.53836 17.8532C3.02038 16.5951 6.77222 17.8324 7.95344 17.6136C7.63683 17.4252 7.32021 17.2367 7.0036 17.0483C7.43315 17.0408 7.8627 17.0332 8.29226 17.0257C6.24587 16.6469 8.22011 16.8823 8.73038 15.8635C8.84493 15.6346 7.50053 16.0272 9.03414 15.391C7.90302 15.2441 8.26381 15.036 7.2396 15.3231C7.26603 14.9148 9.57044 14.4542 10.4794 14.2446C7.2684 13.7857 9.09949 15.2836 6.32364 14.4911C5.80888 14.9967 7.13384 14.8983 7.0258 14.9817C6.63816 15.2818 5.72945 14.8053 4.63307 15.8567C4.45456 16.0294 5.20993 16.5607 4.09214 16.5351C3.96851 16.5314 3.25627 16.0773 3.26614 16.0444C3.36056 15.6888 4.06538 15.822 4.09448 15.6736C4.12179 15.5331 3.33545 15.6176 3.33273 15.5786C3.30857 15.1331 3.98882 15.4084 3.89002 15.2689C3.67665 14.9655 0.848204 14.0068 4.53961 14.2876C1.4735 14.7913 4.14705 14.7795 5.34108 14.586C5.64557 14.5375 5.72269 14.2714 6.15657 14.179C6.71467 14.0594 7.3679 14.1872 7.65669 14.1384C7.96729 14.0845 6.20249 13.4555 8.75491 13.6432C7.4559 13.0175 5.16137 13.6846 3.88535 13.2452C1.31092 12.3574 5.68035 12.1668 6.13554 12.0808C6.25681 12.0575 5.85024 11.6981 5.93108 11.6761C6.06327 11.6423 8.54311 11.8084 8.78762 11.511C9.03148 11.2139 7.87931 11.5247 7.80273 11.2148C7.75081 11.0062 10.7424 10.6361 9.12293 10.4935C8.00675 10.3958 5.94933 11.2343 5.60278 10.333C7.24427 10.2584 8.88577 10.1838 10.5273 10.1092C9.62882 9.76625 8.73038 9.42332 7.83194 9.0804C9.67433 8.97164 11.2671 9.3588 13.0169 8.86786C8.81212 7.769 14.3822 7.9909 14.4435 7.85717C14.464 7.77719 12.8089 6.88527 12.5426 6.72213C14.0092 6.37901 18.4655 6.21134 15.8583 5.11C16.3315 5.35868 17.4775 4.74483 17.4624 4.69849C17.3169 4.21194 14.8174 4.52745 15.2251 4.08801C15.6975 3.57805 16.3595 4.26988 17.0862 4.21463C20.8155 3.9266 19.7924 1.38661 23.5318 1.78853C23.4575 1.69809 23.3831 1.60765 23.3087 1.5172C27.3733 1.66116 31.4379 1.80511 35.5025 1.94906C37.0927 1.1734 41.3251 0.701071 43.4038 0.786888C43.8224 0.8036 45.8775 1.21069 46.0325 1.28206C46.3197 1.41884 44.7406 1.47103 45.4542 1.72748C45.6049 1.78012 49.0841 1.95117 48.8353 1.5172C48.4454 1.46689 47.2253 1.68503 47.0256 1.58278C45.6228 0.852915 56.349 1.43599 56.8804 1.14187C56.6428 1.00093 56.4053 0.859995 56.1677 0.719057C56.8446 0.788395 57.5214 0.857735 58.1983 0.927073ZM27.0964 35.7811C26.6902 36.2165 25.6721 35.8895 25.0705 36.0117C24.2394 36.1829 22.8266 37.8596 23.4349 36.179C24.6554 36.0464 25.8759 35.9137 27.0964 35.7811ZM44.9343 36.43C44.1159 36.1961 44.7507 35.2575 45.4215 35.6477C45.4959 35.692 46.0416 36.7448 44.9343 36.43ZM36.3542 35.9846C36.3886 35.9721 37.0959 35.997 37.1206 36.0117C37.7549 36.3885 35.6225 36.3115 36.3542 35.9846ZM77.8027 35.503C76.9009 35.5435 77.554 36.3968 78.1146 36.0456C78.1499 36.0233 77.862 35.501 77.8027 35.503ZM77.1613 35.4803C76.4609 34.7162 75.0503 36.2648 76.1717 36.1089C76.2805 36.0932 77.1937 35.5176 77.1613 35.4803ZM42.017 36.0569C42.1091 35.764 42.9533 35.9055 43.3139 35.9755C43.304 36.2429 42.3705 36.0242 42.017 36.0569ZM63.4218 35.9755C63.4576 35.7453 60.5233 35.758 60.3234 36.0614C60.7866 35.9327 63.3881 36.1824 63.4218 35.9755ZM70.947 35.6522C70.8726 35.6124 69.8589 35.6729 69.8885 35.876C70.3833 36.1425 71.2819 35.8323 70.947 35.6522ZM85.9038 35.6657C85.9588 35.6147 85.1997 34.322 86.9985 35.1728C87.2626 35.2974 86.3194 35.6352 86.4132 35.6816C86.6097 35.772 86.7651 35.8142 86.8899 35.8218C86.0521 35.9289 85.1819 35.9793 85.0977 35.9009C84.7023 35.5305 85.8795 35.687 85.9038 35.6657ZM93.7561 34.7025C93.9287 34.4917 95.0311 34.6044 95.2819 34.6912C95.325 34.7076 95.1372 35.2618 95.6336 35.2203C96.0321 35.1861 95.4368 34.6185 96.2131 34.7093C96.9976 34.8005 95.9495 35.205 96.018 35.2339C96.1098 35.2717 97.3233 35.0169 97.2856 35.3469C97.2575 35.5914 95.9574 35.4261 95.6359 35.4781C95.2243 35.5449 95.7235 35.9522 95.0354 35.8647C94.6031 35.8101 94.8428 35.0937 94.7515 35.0575C94.675 35.0284 93.1638 35.4406 93.7584 34.7048C93.7577 34.704 93.7569 34.7033 93.7561 34.7025ZM87.1165 35.7901C87.0535 35.8143 86.9795 35.8272 86.8899 35.8218C86.9659 35.812 87.0416 35.8007 87.1165 35.7901ZM29.4611 35.4668C29.8865 35.6877 28.6237 35.971 28.1455 35.6816C28.1373 35.4482 29.3933 35.4324 29.4611 35.4668ZM87.8935 35.2068C89.138 35.3862 88.2226 35.633 87.1165 35.7901C87.4678 35.6553 87.4756 35.1468 87.8935 35.2068ZM52.5599 35.5052C52.6124 35.5586 52.6457 35.6419 52.6499 35.7788C52.5119 35.6291 52.4996 35.5487 52.5599 35.5052ZM55.4632 35.7494C56.4585 35.3325 54.4363 35.3494 54.4491 35.6477C54.4552 35.7603 55.4234 35.766 55.4632 35.7494ZM78.9593 35.5436C78.8683 35.5029 80.2827 34.244 78.2291 35.1887C79.3251 35.337 78.1688 35.4741 78.1859 35.5843C78.2306 35.9012 80.0717 35.5966 80.4793 35.7336C80.7985 35.1667 79.2599 35.6781 78.9617 35.5436C78.9609 35.5436 78.9601 35.5436 78.9593 35.5436ZM107.908 35.0078C107.659 35.34 106.867 35.2331 106.333 35.2135C106.583 34.8813 107.374 34.9882 107.908 35.0078ZM247.654 35.0553C243.995 35.3624 243.521 34.0096 246.869 34.5443C246.935 34.5555 247.877 34.9181 247.654 35.0553ZM216.25 34.7048C215.905 34.1152 217.046 34.0204 217.796 34.2639C217.965 34.3187 218.592 34.9159 217.876 35.0327C217.899 34.318 216.792 34.045 216.25 34.7048ZM88.5968 34.8292C88.9592 34.436 90.0746 34.7158 90.6624 34.7749C90.3037 35.0986 89.1165 34.9522 88.5968 34.8292ZM235.63 34.3498C235.244 34.3052 234.984 34.8181 235.051 34.8608C235.349 35.0566 236.069 34.6418 235.63 34.3498ZM84.996 34.7681C84.9451 34.5331 86.4225 34.307 86.5254 34.8879C86.2095 34.8459 85.0326 34.9156 84.996 34.7681ZM106.901 34.8314C106.672 34.712 107.859 34.4981 108.219 34.6166C108.19 34.8667 107.051 34.9091 106.901 34.8314ZM229.42 34.5239C229.075 34.4794 228.212 34.4658 228.117 34.6731C227.998 34.9324 229.263 34.844 229.42 34.5239ZM293.685 34.0762C293.729 34.1694 292.392 34.8408 291.798 34.6709C290.67 34.3458 293.638 34.0104 293.685 34.0762ZM239.281 34.0853C240.37 34.5731 239.161 34.1007 239.209 34.6144C239.942 34.6329 241.765 34.6582 240.511 34.1531C240.267 34.0554 239.623 34.1185 239.281 34.0853ZM238.276 33.9134C238.159 34.0799 237.374 34.6045 238.053 34.5669C238.367 34.5487 238.873 33.9658 238.276 33.9134ZM285.405 34.3046C284.429 33.8498 288.904 34.0938 289.033 34.1735C289.101 34.2155 289.145 34.2552 289.171 34.2888C289.335 34.1446 290.18 34.1187 290.278 34.4832C290.025 34.4531 289.333 34.4852 289.252 34.4448C289.218 34.4276 289.192 34.4114 289.174 34.395C288.876 34.7115 285.592 34.3908 285.405 34.3046ZM277.99 33.8366C279.107 33.1657 279.305 34.3063 279.208 34.343C277.992 34.8099 278.785 33.9687 278.748 33.9293C278.663 33.8637 277.799 34.254 277.993 33.8366C277.992 33.8366 277.991 33.8366 277.99 33.8366ZM283.885 34.1169C283.931 34.1021 284.869 34.1374 284.907 34.1554C285.676 34.5387 283.022 34.4405 283.885 34.1169ZM99.6748 33.9044C100.346 34.0178 99.6876 34.4374 99.2414 34.2865C99.2047 34.2716 99.0825 33.8042 99.6748 33.9044ZM237.74 34.0265C237.584 33.9472 233.602 33.6482 233.841 34.282C234.179 34.2072 238.706 34.5334 237.74 34.0265ZM207.979 33.8727C208.682 33.8776 207.916 34.4754 207.541 34.2526C207.402 34.1698 207.802 33.8719 207.979 33.8727ZM83.0041 34.2255C82.2749 34.5539 82.4257 33.4521 83.0578 33.8298C83.0826 33.8446 83.0326 34.2126 83.0041 34.2255ZM213.59 34.2164C211.168 34.5787 211.741 32.6835 214.89 33.3233C214.791 33.4077 214.693 33.4921 214.594 33.5765C218.229 33.8608 214.843 33.7101 213.953 33.8162C213.615 33.8565 213.898 34.1729 213.592 34.2187C213.591 34.2179 213.59 34.2172 213.59 34.2164ZM204.286 33.8366C201.954 32.4914 206.407 33.3674 207.684 33.1922C206.446 33.7476 204.834 33.6636 207.026 34.2322C203.821 34.3422 205.155 33.8065 205.027 33.7619C204.876 33.712 204.386 33.8943 204.286 33.8366ZM210.439 33.8275C210.573 33.7883 211.589 34.0621 211.955 34.0174C211.443 34.477 209.544 34.0944 210.439 33.8275ZM270.216 34.1486C270.3 33.7886 270.509 33.5234 271.311 33.6579C271.063 33.8388 270.551 33.9944 270.216 34.1486ZM26.3253 33.8863C25.7732 33.8605 24.6738 33.7248 25.0109 34.1034C25.0478 34.1356 26.3236 34.0988 26.3253 33.8863ZM226.174 33.7348C226.056 33.6905 223.019 33.6608 224.068 34.0581C224.385 34.178 227.148 34.1271 226.174 33.7348ZM241.899 33.78C241.645 33.7763 240.613 33.8441 240.591 33.9293C240.521 34.2236 241.788 34.0618 241.899 33.78ZM23.54 33.5178C23.4673 33.4804 21.7809 33.5466 21.9663 33.7212C22.3182 34.0516 23.7892 33.6464 23.54 33.5178ZM102.118 33.061C102.259 33.0477 102.445 33.4388 102.494 33.4431C102.609 33.4487 105.189 33.2983 104.203 33.8004C104.039 33.8845 100.326 33.6917 99.8431 33.6421C99.6563 33.1052 101.242 33.616 101.628 33.5607C101.696 33.5502 101.74 33.1011 102.117 33.0633C102.117 33.0625 102.117 33.0618 102.118 33.061ZM274.393 33.7687C274.506 33.4274 277.54 33.2014 277.505 33.615C276.468 33.6662 275.43 33.7175 274.393 33.7687ZM272.852 33.7122C272.204 33.4708 273.72 33.3909 274.167 33.4974C274.172 33.727 272.946 33.7475 272.852 33.7122ZM236.145 32.5048C235.84 32.5883 236.778 33.0863 236.568 33.1831C236.434 33.2434 235.753 33.0567 235.535 33.2125C235.474 33.262 236.169 33.7302 236.37 33.7099C236.655 33.6829 236.378 33.3145 236.69 33.312C237.724 33.3041 238.641 33.5668 239.61 33.5607C239.698 33.5594 239.019 33.2993 239.766 33.303C239.881 33.303 240.575 33.6905 241.468 33.6331C243.441 32.433 244.89 33.6113 247.394 33.1786C247.299 33.0656 245.427 32.7625 245.317 32.7513C243.224 32.5539 239.474 32.5322 237.282 32.5297C236.72 32.5286 236.993 32.7827 236.75 32.792C236.559 32.7988 236.787 32.3285 236.145 32.5048ZM26.6185 33.6263C26.3554 33.1565 25.4323 33.4538 24.8427 33.4296C25.0502 33.8533 26.0424 33.5222 26.6185 33.6263ZM259.231 33.3482C258.936 33.3663 258.019 33.2248 257.944 33.3663C257.846 33.551 259.169 33.6675 259.231 33.3482ZM116.668 33.1944C116.697 33.1816 117.408 33.2068 117.434 33.2216C118.07 33.5986 115.937 33.5213 116.668 33.1944ZM133.675 33.2849C134.214 33.2269 134.758 33.0801 134.939 33.4612C134.596 33.4029 133.612 33.5503 133.675 33.2849ZM157.139 33.2736C157.027 32.7744 158.65 33.0977 158.957 33.1424C158.843 33.3643 157.22 33.6332 157.139 33.2736ZM270.099 32.5817C271.091 32.6112 270.882 31.8551 271.511 32.1973C271.614 32.2551 271.946 33.8295 270.856 33.2396C270.66 33.1336 271.427 32.7595 270.099 32.5817ZM215.403 33.3391C215.655 33.0089 216.444 33.1069 216.977 33.1334C216.857 33.3787 215.782 33.3156 215.403 33.3391ZM20.4942 33.1402C20.0289 32.674 17.8791 33.0198 18.4111 33.3278C18.4867 33.368 20.1926 33.1225 20.4942 33.1402ZM91.1192 33.3233C92.0037 32.9562 90.1717 32.8425 89.5934 33.2012C89.8552 33.1777 91.0596 33.3475 91.1192 33.3233ZM151.503 33.0022C151.545 32.9872 152.483 33.0226 152.525 33.0407C153.294 33.424 150.64 33.3258 151.503 33.0022ZM128.083 32.6789C128.42 32.3768 130.642 32.6206 131.14 32.9231C130.661 33.3648 127.663 33.0562 128.083 32.6789ZM266.017 32.7965C266.725 32.7808 267.396 32.8739 268.046 33.0045C267.909 33.2588 266.092 32.9865 266.017 32.7965ZM154.946 32.9706C154.996 32.9726 155.045 33.0014 155.093 33.0045C155.043 32.9937 154.994 32.9814 154.946 32.9706ZM250.176 32.6179C249.582 32.5174 249.706 32.9834 249.742 32.9977C250.188 33.1486 250.847 32.7312 250.176 32.6179ZM25.9409 32.9344C25.7353 32.5138 24.7378 32.84 24.1639 32.74C24.3304 33.0721 25.4787 32.9785 25.9409 32.9344ZM201.788 32.9751C201.043 32.5191 204.075 31.9894 204.714 32.2832C204.761 32.565 201.897 33.0375 201.788 32.9751ZM88.3725 32.6925C88.313 32.3629 87.0401 32.7606 87.3105 32.9163C87.4817 33.0154 88.4081 32.8972 88.3725 32.6925ZM206.239 32.4754C206.523 32.3748 207.187 32.7 206.954 32.8982C206.653 33.1523 206.165 32.5042 206.239 32.4754ZM231.796 32.2109C231.671 32.1605 229.996 32.4988 230.688 32.8349C231.168 33.0685 231.245 32.5921 231.357 32.5907C231.484 32.5922 234.172 33.1752 231.796 32.2109ZM184.808 32.688C185.44 32.5612 186.204 32.7083 186.865 32.6993C186.596 32.9031 185.077 32.9586 184.808 32.688ZM93.2818 32.6043C93.1283 32.471 88.9474 32.3907 91.3225 32.801C91.461 32.8242 93.7479 33.0079 93.2818 32.6043ZM270.099 32.5817C269.974 32.578 269.829 32.5622 269.662 32.5297C269.828 32.5425 269.973 32.5648 270.099 32.5817ZM258.832 32.5319C259.06 32.292 257.909 32.2279 257.57 32.3556C257.465 32.6487 258.8 32.5655 258.832 32.5319ZM186.916 32.3646C187.297 32.2273 187.988 32.3738 188.46 32.3578C188.38 32.5809 187.08 32.5912 186.916 32.3646ZM160.155 32.1136C160.912 32.2462 161.843 32.1852 161.858 31.9124C161.873 31.9551 161.91 32.0003 161.971 32.0458C162.032 32.0909 162.843 31.964 163.195 32.0571C165.304 32.6102 155.053 32.382 160.994 31.6117C160.714 31.779 160.435 31.9463 160.155 32.1136ZM125.076 32.0368C124.647 31.7047 123.444 32.1208 123.756 32.2516C123.974 32.3412 125.506 32.3711 125.076 32.0368ZM141.604 31.8401C141.475 31.7808 140.301 32.0134 140.27 32.1883C140.946 32.3725 142.188 32.1154 141.604 31.8401ZM121.775 31.6479C121.505 31.5978 121.161 32.1332 121.193 32.1566C121.467 32.3521 122.228 31.946 121.775 31.6479ZM268.044 31.1391C267.643 30.9858 266.364 31.3734 266.086 31.727C266.034 31.6586 265.894 31.5695 265.638 31.4625C265.639 31.4625 265.64 31.4625 265.641 31.4625C265.295 31.3196 254.961 31.1636 261.893 31.8446C262.11 31.8664 261.813 31.549 262.696 31.6049C262.755 31.609 262.784 31.8682 262.964 31.8808C263.379 31.9081 265.588 32.0712 266.032 31.8627C266.036 31.9107 266.064 31.9564 266.126 31.9983C266.67 32.3721 268.355 31.2574 268.044 31.1391ZM143.932 31.7926C143.696 31.6966 142.948 31.7877 142.87 32.0164C143.241 32.1285 144.481 32.0166 143.932 31.7926ZM93.1521 31.666C92.6705 31.4779 91.4502 31.8295 91.819 32.0164C92.0452 32.1314 93.7075 31.8819 93.1521 31.666ZM136.438 31.9147C139.2 32.185 137.097 31.8928 137.52 31.5574C137.16 31.6765 136.799 31.7956 136.438 31.9147ZM280.823 32.0051C280.383 31.9279 280.9 31.2662 281.385 31.6253C281.537 31.7393 281.069 32.047 280.823 32.0051ZM300.704 31.7994C300.328 31.2126 302.164 31.5573 301.449 31.9599C301.415 31.9735 300.731 31.8217 300.704 31.7994ZM286.812 31.5597C286.513 31.9592 286.318 32.0066 285.476 31.9079C286.723 31.7953 285.567 31.442 286.812 31.5597ZM161.849 31.8695C161.854 31.8856 161.858 31.8975 161.858 31.9124C161.852 31.8977 161.85 31.8838 161.849 31.8695ZM119.179 31.7519C118.833 31.4134 117.864 31.4383 118.153 31.779C118.181 31.8106 119.037 32.002 119.179 31.7519ZM266.086 31.727C266.132 31.7876 266.108 31.8268 266.032 31.8627C266.028 31.8175 266.048 31.7748 266.086 31.727ZM124.38 31.476C124.346 31.7286 125.82 31.8268 125.879 31.7971C126.725 31.3592 124.989 31.4608 124.38 31.476ZM83.4036 31.311C83.3275 31.3373 83.818 31.9892 84.1186 31.7338C84.3514 31.5356 83.6884 31.2107 83.4036 31.311ZM289.671 31.3969C290.138 31.3973 290.795 31.397 290.916 31.7067C290.603 31.6591 289.661 31.6241 289.671 31.3969ZM299.986 31.3743C299.434 31.7383 298.174 31.7373 297.369 31.6773C297.354 31.1981 299.468 31.487 299.986 31.3743ZM269.31 31.3178C269.272 31.2983 268.101 31.1553 268.261 31.476C268.495 31.9464 269.641 31.4922 269.31 31.3178ZM85.6772 31.6569C86.2007 31.436 84.9958 30.7572 84.4434 31.2816C84.1597 31.5501 85.5889 31.6939 85.6772 31.6569ZM116.154 31.3087C115.463 31.4943 117.175 31.8249 117.415 31.4896C117.096 31.4627 116.399 31.243 116.154 31.3087ZM139.662 30.9696C137.485 30.0023 138.67 31.7668 139.057 31.6117C139.111 31.5895 139.715 30.9923 139.662 30.9696ZM15.0919 31.207C14.7837 31.3414 15.9328 31.8282 16.0815 31.5077C16.1733 31.3071 15.289 31.1213 15.0919 31.207ZM172.446 31.5981C172.354 31.6012 172.263 31.6044 172.173 31.6072C172.24 31.5914 172.329 31.5862 172.446 31.5981ZM109.882 30.0131C111.415 31.3787 111.254 30.3262 111.387 30.3319C111.675 30.3466 112.344 30.7159 112.886 30.6553C112.265 30.809 111.644 30.9628 111.023 31.1165C111.513 31.2151 115.776 31.7178 115.865 31.4964C115.993 31.181 114.652 31.28 114.613 31.2522C114.557 31.2126 114.347 30.3359 114.223 30.3026C114.018 30.2493 110.454 30.2311 109.882 30.0131ZM135.109 31.121C135.459 31.2253 135.558 31.5726 135.721 31.4896C135.776 31.4612 135.785 31.1299 135.975 31.0442C135.686 31.0698 135.397 31.0954 135.109 31.121ZM107.138 31.2409C106.704 30.836 108.649 30.9898 108.712 31.0351C109.045 31.3096 107.493 31.5716 107.138 31.2409ZM123.644 31.1821C123.573 31.1585 122.079 31.0321 122.091 31.2567C122.487 31.428 124.484 31.4779 123.644 31.1821ZM136.208 31.0216C136.733 31.0602 137.725 31.3938 137.611 30.8949C137.611 30.8949 137.61 30.8949 137.609 30.8949C137.142 30.9372 136.675 30.9794 136.208 31.0216ZM87.4694 30.6033C86.4968 29.8087 86.9576 30.8127 87.8187 31.069C88.0796 30.7123 87.6288 30.7326 87.4694 30.6033ZM84.357 30.0109C84.0864 29.8679 81.2981 30.0246 81.7236 30.445C81.8748 30.5948 83.4781 30.217 83.552 30.246C83.664 30.2891 83.1525 30.7542 84.0076 30.6621C83.9576 30.5045 84.4497 30.0586 84.357 30.0109ZM86.6644 30.0945C85.6979 29.4903 85.4808 30.6048 86.2076 30.6078C86.4916 30.6098 86.8023 30.1817 86.6644 30.0945ZM90.6122 30.1895C90.2644 30.0838 89.3381 29.9296 88.6996 30.3003C89.554 30.3319 90.4085 30.3636 91.2629 30.3953C91.3614 30.1853 90.9164 30.2824 90.6098 30.1895C90.6106 30.1895 90.6114 30.1895 90.6122 30.1895ZM305.794 28.5186C305.026 28.2025 306.795 28.0814 306.87 28.1591C307.092 28.4169 306.137 28.6597 305.794 28.5186ZM9.09373 21.082C8.88035 20.956 8.74086 20.5415 8.27123 20.7587C8.74362 21.0647 9.21601 21.3707 9.6884 21.6767C10.0555 20.9755 9.32694 21.221 9.09373 21.082ZM7.28984 18.5203C7.35657 18.5033 6.99205 17.4251 7.85414 18.1449C8.43661 18.6309 5.2691 19.1046 4.69733 18.6265C5.3291 18.4044 6.71542 18.6587 7.28984 18.5203ZM1.74148 13.8535C1.70496 13.7675 2.90837 13.6414 3.04766 13.702C3.77906 14.0215 1.93908 14.3141 1.74148 13.8535ZM5.58058 14.0592C5.01621 13.8498 6.26648 13.7149 6.63908 13.8354C6.67522 14.036 5.66777 14.0897 5.58058 14.0592ZM298.017 12.9038C297.407 12.1711 296.86 13.7484 297.8 13.4306C297.845 13.4157 298.043 12.9397 298.017 12.9038ZM2.91798 12.7659C3.48236 12.9753 2.23209 13.1102 1.85948 12.9897C1.82483 12.7893 2.83205 12.7353 2.91798 12.7659ZM297.587 11.1583C296.776 10.631 297.062 12.4007 297.163 12.472C297.581 12.7536 299.012 12.059 299.305 11.8864C297.162 12.1519 297.969 11.4068 297.587 11.1583ZM293.846 12.221C293.094 12.4098 295.017 12.7708 295.384 12.2775C295.01 12.3011 294.06 12.1664 293.846 12.221ZM289.279 11.6535C288.875 11.5901 287.671 11.4383 287.47 11.7168C287.911 11.6664 289.109 11.94 289.279 11.6535ZM288.363 10.8191C287.731 10.4408 287.579 11.5431 288.308 11.2148C288.337 11.2021 288.387 10.8402 288.363 10.8191ZM284.808 10.4212C284.393 9.98281 283.92 11.0504 284.592 11.0792C284.792 11.0857 284.852 10.4715 284.808 10.4212ZM296.572 9.2545C295.978 9.06625 295.212 9.83076 296.481 9.91472C296.035 10.0315 295.59 10.1484 295.144 10.2652C296.806 10.6937 296.684 9.63348 297.161 9.67731C297.827 9.73961 297.775 10.6145 297.641 10.8892C298.188 10.3532 300.51 10.3446 301.852 10.2426C300.672 10.0176 298.758 9.62764 297.594 9.48512C297.262 9.44386 296.939 9.6838 296.656 9.65696C296.202 9.61265 296.605 9.26717 296.574 9.2545C296.574 9.2545 296.573 9.2545 296.572 9.2545ZM280.135 10.4054C278.915 9.90877 279.686 10.9809 280.376 10.7897C280.405 10.775 280.165 10.4175 280.135 10.4054ZM1.30102 9.50773C2.93019 9.95589 1.74599 10.5499 5.15415 9.64792C3.7223 10.2864 5.07496 10.1071 4.79547 10.3647C4.57126 10.5684 3.73115 10.3997 4.21949 10.8101C3.57761 10.3634 0.790863 10.4869 0.666625 10.4144C0.667794 10.4144 0.668962 10.4144 0.67013 10.4144C0.595512 10.3714 0.78116 9.36521 1.30102 9.50773ZM289.273 8.84977C288.867 7.54883 288.707 9.6137 287.908 8.53548C286.843 10.1012 290.848 8.53571 291.333 9.85819C286.984 9.70453 294.207 11.1686 291.171 9.18893C293.672 9.90745 291.99 8.94375 292.377 8.6915C292.79 8.42279 294.204 8.71481 294.133 8.23024C294.132 8.23024 294.131 8.23024 294.13 8.23024C293.265 8.26416 292.4 8.29807 291.534 8.33199C292.381 9.37728 290.613 9.06385 290.013 8.21216C289.767 8.42469 289.52 8.63723 289.273 8.84977ZM294.171 9.83106C294.086 9.80713 292.204 9.95363 292.325 10.1634C292.576 10.2972 295.248 10.1368 294.171 9.83106ZM302.454 9.6027C301.779 9.60015 300.734 9.39622 300.365 9.79036C301.041 9.79301 302.087 9.99706 302.454 9.6027ZM267.656 9.52808C266.795 9.85152 269.447 9.94733 268.679 9.56426C268.642 9.54623 267.698 9.51298 267.656 9.52808ZM287.314 9.04648C286.438 8.6489 286.852 9.91438 287.501 9.58461C287.539 9.56517 287.355 9.06461 287.314 9.04648ZM2.62123 9.35398C2.67981 9.04394 5.04358 9.26171 5.46258 9.25902C5.22452 9.54722 2.55402 9.70942 2.62123 9.35398ZM303.644 8.44278C302.299 7.32793 300.474 8.61563 300.274 8.58749C300.075 8.55882 300.387 8.07148 300.342 8.0584C300.239 8.03107 298.12 8.07197 298.017 8.10589C297.944 8.13234 298.327 8.81718 297.89 9.03291C298.743 8.64377 302.617 8.88722 302.818 8.81133C302.974 8.75073 301.8 8.03156 303.641 8.44278C303.642 8.44278 303.643 8.44278 303.644 8.44278ZM299.774 8.43826C300.304 8.72533 298.819 8.76126 298.46 8.65532C297.662 8.41826 299.706 8.40425 299.774 8.43826ZM296.204 8.17372C296.034 8.10933 294.504 8.05084 294.374 8.37043C295.099 8.78501 296.589 8.32375 296.204 8.17372ZM279.179 8.21668C278.782 8.25762 277.689 8.01203 277.626 8.29129C278.024 8.25056 279.117 8.49596 279.179 8.21668ZM10.6861 6.91658C10.026 6.6829 11.5555 6.58744 12.0017 6.69952C12.0259 6.88581 10.7423 6.93665 10.6861 6.91658ZM287.166 6.37619C286.931 6.29127 282.131 6.50317 281.457 6.63395C282.116 6.84514 286.873 6.86138 287.089 6.7583C287.152 6.72744 287.196 6.38955 287.166 6.37619ZM297.546 6.24731C297.986 5.83607 298.274 6.32929 298.329 6.33549C298.873 6.39842 300.002 6.3057 299.754 6.70178C298.794 6.54197 296.67 7.06397 297.546 6.24731ZM278.838 6.35584C277.208 6.50845 280.339 6.94171 279.928 6.51185C279.902 6.48586 279.007 6.33982 278.838 6.35584ZM287.702 6.25635C288.062 5.92405 292.863 6.21063 293.634 6.21113C292.943 6.82404 292.387 6.3585 291.459 6.38975C291.209 6.39891 291.276 6.65389 291.249 6.6543C290.816 6.66611 291.14 6.37161 290.873 6.36714C290.704 6.36513 287.196 6.72454 287.702 6.25635ZM297.798 5.96242C298.066 5.72667 301.064 5.62618 301.184 5.68883C302.087 6.15477 298.03 6.04449 297.798 5.96242ZM287.262 5.71144C287.778 4.99912 290.162 5.47616 288.53 5.83128C288.375 5.86358 287.715 5.5548 287.262 5.71144ZM279.012 5.67753C278.932 5.65658 277.233 5.51419 277.202 5.74083C277.448 5.82891 279.925 5.90793 279.012 5.67753ZM279.893 4.91103C279.852 4.91647 280.25 5.35298 279.454 5.29767C279.387 5.29246 279.263 4.80134 278.262 4.98112C278.059 5.01815 277.744 5.34305 277.767 5.36324C278.81 6.13398 281.95 4.65782 279.893 4.91103ZM297.852 5.56447C297.691 5.35717 298.081 4.74188 298.432 5.05348C298.583 5.18802 298.302 5.55728 297.852 5.56447ZM273.624 5.47855C274.612 5.1054 271.511 5.03485 271.353 5.13035C271.452 5.36279 273.525 5.515 273.624 5.47855ZM12.2318 4.03601C12.2311 4.03601 12.2303 4.03601 12.2295 4.03601C13.0604 4.12056 12.5458 4.43098 12.5847 4.44073C14.3546 4.89669 13.8851 4.1936 14.1619 4.11062C14.7554 3.93117 14.6598 4.78618 15.6609 4.43169C14.0061 4.95518 15.5123 4.73572 15.5592 5.03991C15.7447 6.28126 13.356 4.45865 12.5309 4.71884C12.416 4.75487 13.2647 5.15105 12.9702 5.26375C12.0126 5.62895 9.04339 3.71267 12.2318 4.03601ZM298.703 4.99921C299.088 4.63459 302.012 4.98824 301.237 5.28863C301.112 5.33679 298.136 5.53068 298.703 4.99921ZM162.115 4.46108C162.817 4.14553 161.189 3.77458 160.887 4.02018C160.737 4.14254 161.806 4.59957 162.115 4.46108ZM150.695 3.11124C149.86 3.1753 148.98 4.49119 150.019 4.28698C150.129 4.26466 150.791 3.29377 150.695 3.11124ZM205.527 3.78729C204.655 3.31703 204.707 4.19078 205.347 4.17845C205.573 4.17424 205.555 3.80217 205.527 3.78729ZM172.249 3.90034C172.161 3.86984 171.153 3.92564 171.19 4.12645C171.563 4.24693 172.813 4.10971 172.249 3.90034ZM205.804 3.66294C205.287 3.82041 206.177 4.45237 206.809 3.83477C206.488 3.88543 205.857 3.64685 205.804 3.66294ZM285.46 3.78051C285.027 4.13929 283.802 4.03088 283.099 4.09253C283.023 3.62771 284.957 3.86478 285.46 3.78051ZM154.24 3.64032C153.45 3.96793 155.143 4.23613 154.988 3.80312C154.966 3.7796 154.271 3.62636 154.24 3.64032ZM233.658 3.61545C233.083 3.89272 234.908 4.26561 234.406 3.77825C234.381 3.75838 233.689 3.60003 233.658 3.61545ZM241.625 3.77599C241.189 3.68246 239.33 3.71123 240.053 3.98174C240.166 4.02331 241.592 4.02995 241.625 3.77599ZM14.211 3.77599C13.9761 3.2985 15.3395 3.41216 15.5347 3.49562C15.6114 3.53033 14.5173 4.39723 14.211 3.77599ZM199.864 3.71268C199.413 3.77242 198.243 3.65889 198.037 3.90939C198.589 3.85754 200.013 4.21167 199.864 3.71268ZM157.844 3.63806C157.156 3.11921 155.98 3.17042 156.271 3.84834C157.57 3.80291 156.11 3.239 157.844 3.63806ZM208.71 3.10446C208.348 3.06488 208.071 3.71592 208.111 3.74659C208.503 4.03841 209.069 3.35776 208.71 3.10446ZM181.561 3.64032C181.54 3.3621 180.381 3.48838 180.535 3.66746C180.586 3.72758 181.578 3.86548 181.561 3.64032ZM270.272 3.62224C269.74 3.36829 271.363 3.12002 271.843 3.41648C272.077 3.84367 270.339 3.65141 270.272 3.62224ZM218.742 3.26725C218.796 2.85436 216.983 3.0878 217.697 3.43005C217.876 3.51568 218.723 3.40531 218.742 3.26725ZM236.095 2.77208C234.879 3.26446 239.985 3.61403 238.643 3.00045C238.547 2.95673 236.201 2.7305 236.095 2.77208ZM244.433 3.07959C244.224 3.02533 244.328 1.63789 245.196 2.17291C245.31 2.24229 244.777 2.60906 244.87 2.69295C244.925 2.74076 246.813 2.93561 246.9 2.90322C246.993 2.86645 246.883 2.42176 246.978 2.37188C247.085 2.31613 248.247 2.70677 248.855 2.71104C250.002 2.71836 250.126 2.34823 250.22 2.34701C250.494 2.34455 250.954 2.60735 251.51 2.60703C254.309 2.60407 258.591 2.29034 260.81 3.07506C258.835 2.75994 256.953 3.09428 254.988 3.19716C255.563 2.42457 252.097 3.79244 254.125 2.90096C253.191 3.09434 245.121 3.24898 244.436 3.07959C244.435 3.07959 244.434 3.07959 244.433 3.07959ZM147.4 2.72234C147.913 2.24862 145.28 2.35518 145.057 2.90322C145.405 2.97928 147.336 2.77603 147.4 2.72234ZM159.543 1.56695C159.788 1.48518 160.02 0.559214 161.301 1.02882C161.303 1.02882 161.304 1.02882 161.305 1.02882C161.68 1.16596 161.253 1.39159 161.321 1.47198C161.346 1.50481 162.515 1.96543 161.544 2.03951C160.064 2.15316 161.405 1.35065 160.616 1.34084C160.519 1.34008 159.025 1.8413 159.112 1.95132C159.121 1.96414 159.571 1.85811 159.645 1.90384C159.925 2.07574 159.789 2.3649 159.828 2.37866C159.958 2.41392 162.32 1.92131 162.664 2.35153C162.775 2.49026 158.897 2.8103 158.746 2.73817C158.651 2.69272 158.691 1.89008 158.592 1.81114C158.541 1.77182 156.981 2.07259 156.779 1.99881C156.72 1.97746 156.675 1.95446 156.642 1.9355C156.878 2.18382 155.466 2.16594 155.509 1.88576C155.533 1.77563 156.506 1.83937 156.54 1.85862C156.556 1.86677 156.569 1.878 156.581 1.88576C156.38 1.58313 159.672 1.59678 158.961 1.14639C159.916 0.899668 158.826 1.80709 159.543 1.56695ZM164.13 1.07178C164.031 1.15619 163.933 1.2406 163.834 1.32502C165.505 1.11841 167.433 1.52476 169.357 1.52173C169.845 1.52157 169.284 1.00532 169.924 1.14639C170.436 1.25945 171.004 1.73829 170.725 1.84506C170.657 1.87169 169.613 1.55981 169.091 1.59182C167.548 1.68658 167.938 2.12929 167.848 2.14125C167.748 2.15384 166.777 1.8425 166.247 1.85636C164.914 1.89219 164.305 2.164 162.484 1.80888C163.535 1.5171 162.959 0.883238 164.13 1.07178ZM226.398 2.01464C226.461 1.73598 227.555 1.98321 227.952 1.94228C227.889 2.22163 226.795 1.97369 226.398 2.01464ZM63.4919 1.65287C63.1561 2.11014 65.6728 2.22337 65.0096 1.84279C64.8628 1.75833 63.8081 1.65612 63.4919 1.65287ZM74.7978 1.93097C75.1344 1.80455 73.7788 1.47532 73.7813 1.82923C73.7833 1.94272 74.7544 1.94742 74.7978 1.93097ZM185.724 1.52173C185.788 1.50741 186.714 1.60925 186.743 1.63252C187.356 2.11806 184.308 1.83743 185.724 1.52173ZM88.5419 1.36798C87.3685 1.6677 90.9004 1.79761 89.8212 1.41546C89.7674 1.39684 88.5983 1.35341 88.5419 1.36798ZM93.4512 1.28432C93.1699 1.30038 91.9208 1.15156 91.9043 1.2911C91.8794 1.51621 93.3092 1.67003 93.4512 1.28432ZM208.954 1.37702C208.818 0.861792 210.465 1.25197 211.038 1.18709C211.174 1.70268 209.526 1.31195 208.954 1.37702ZM198.557 0.997166C205.501 0.591005 203.97 1.69182 198.143 1.24814C198.135 0.917604 198.119 1.02274 198.557 0.997166ZM207.449 1.05821C207.197 1.38829 206.408 1.29041 205.875 1.26397C205.971 1.03448 207.065 1.11753 207.449 1.05821ZM60.4952 0.94516C60.9307 0.5282 62.8593 1.04224 62.5164 1.21423C62.4366 1.25137 60.3352 1.17446 60.4952 0.94516ZM186.306 1.08082C186.144 0.579746 188.229 0.784138 188.389 0.895418C189.032 1.34302 186.475 0.97023 186.306 1.08082ZM218.81 0.936117C219.178 0.543631 220.224 0.745501 220.896 0.750711C220.59 1.08632 219.38 0.943178 218.81 0.936117ZM213.954 0.628614C213.996 0.61355 214.934 0.648985 214.976 0.667053C215.745 1.0504 213.091 0.952227 213.954 0.628614ZM11.0799 0.266848C11.1111 0.2542 11.8215 0.279226 11.8463 0.29398C12.4804 0.670803 10.3482 0.593805 11.0799 0.266848Z" fill="#8ED680"/>
</svg>
