<svg width="59" height="6" viewBox="0 0 59 6" fill="none" xmlns="http://www.w3.org/2000/svg">
<path d="M0.566688 2.81213C0.900718 2.77305 1.3369 2.81484 1.66948 2.87219C1.7754 2.88998 1.72148 2.96949 1.79277 2.98535C1.93403 3.01626 2.0636 2.97727 2.20368 3.01409C2.24901 3.02669 2.1925 3.15264 2.24017 3.16296C2.50639 3.21862 2.75449 3.18654 3.02279 3.21331C4.3431 3.3454 5.64031 3.39268 6.97895 3.45007C7.41272 3.46888 7.96173 3.58318 8.40843 3.5332C8.46187 3.52725 8.43001 3.4167 8.44018 3.40759C8.60036 3.2681 8.5477 3.49128 8.6527 3.52093C9.05719 3.63801 9.51537 3.64819 9.91532 3.60552C10.0807 3.58705 9.91442 3.36747 10.0819 3.49072C10.0935 3.49904 10.0512 3.61644 10.097 3.62896C10.2005 3.65712 10.4008 3.63614 10.484 3.64544C10.4988 3.64715 10.5124 3.6487 10.5252 3.6501C10.6445 3.66376 10.6777 3.6629 10.8111 3.66412C11.0122 3.66697 11.2586 3.72532 11.4709 3.69872C11.517 3.69269 11.4559 3.57235 11.5295 3.55187C11.6029 3.53142 11.7999 3.54162 11.8671 3.56998C11.9342 3.59836 11.9057 3.69295 11.9175 3.71463C12.0126 3.89763 12.2361 3.64417 12.2656 3.6379C12.8018 3.53106 13.2538 3.67539 13.7494 3.67489C14.1288 3.67421 14.5303 3.62644 14.892 3.63287C15.3212 3.64099 15.6846 3.70606 16.1001 3.69466C16.1438 3.6936 16.0925 3.55212 16.1459 3.55054C16.7164 3.5338 17.282 3.5489 17.85 3.644C17.9067 3.65367 17.8337 3.77795 17.8904 3.79504C18.2379 3.89688 18.7904 4.14167 18.9959 3.60057C19.232 3.62148 19.5195 3.64301 19.7295 3.75182C19.8655 3.82185 19.7336 3.95733 19.9006 3.8994C19.9383 3.88649 19.8891 3.76802 19.9457 3.75762C20.184 3.71397 20.4444 3.75219 20.6792 3.69065C20.727 3.67785 20.7138 3.57167 20.7273 3.55253C20.8411 3.3975 21.0315 3.65328 21.073 3.67182C21.3893 3.81013 21.6177 3.7552 21.9118 3.75813C21.98 3.75887 21.8992 3.61635 21.9648 3.61193C22.3055 3.59096 22.6565 3.60263 22.99 3.66533C23.0642 3.67961 22.9963 3.80125 23.0317 3.8143C23.1879 3.87034 23.2219 3.64076 23.3717 3.69007C23.4032 3.70017 23.3856 3.80423 23.3914 3.81564C23.4818 3.99481 23.5596 3.74054 23.5827 3.73489C23.8756 3.65765 24.0634 3.92254 24.3465 3.88436C24.3804 3.87953 24.3037 3.74807 24.3989 3.74252C25.0329 3.7048 25.7027 3.73929 26.332 3.8428C26.4296 3.85871 26.3603 3.95779 26.3665 3.96996C26.4671 4.16012 26.531 3.90476 26.5627 3.89505C26.8123 3.82515 27.0494 4.03843 27.2187 3.73395C28.2825 3.83609 29.3397 3.66145 30.3943 3.9289C30.4078 3.93199 30.3842 4.05778 30.4112 4.0634C30.7357 4.13246 30.6723 3.93743 30.8842 3.69751C30.9376 3.63727 31.1015 3.92488 31.1159 3.94594C31.1685 4.02359 31.1153 4.21083 31.1329 4.22583C31.2777 4.34357 31.2524 3.72537 31.45 3.72414C31.4562 3.72514 31.4308 3.83909 31.4474 3.85032C31.4992 3.88557 31.55 3.84008 31.6005 3.87899C31.7159 3.96903 31.7586 4.26927 31.9321 4.09344C31.9541 4.07063 31.9183 3.72008 32.0929 3.73567C32.1641 3.74218 32.4756 3.73436 32.5621 3.75657C32.6488 3.77875 32.59 3.89213 32.5962 3.89699C32.8299 4.04504 32.7419 4.10751 32.8594 4.32807C32.9768 4.54778 32.9424 4.02222 32.9899 3.96324C33.038 3.90442 33.2113 4.02662 33.2537 4.06921C33.2961 4.11182 33.244 4.18399 33.2817 4.20801C33.5308 4.36494 33.3888 3.94633 33.4698 3.86234C33.6591 3.66348 33.813 4.05233 33.9912 4.08926C34.0393 4.09924 33.9995 4.01072 34.0421 4.0021C34.2106 3.96917 34.3125 4.09008 34.5005 3.97709C34.5322 3.95867 34.6875 3.72304 34.7894 3.89427C34.8039 3.91896 34.7642 4.01644 34.8363 4.03763C34.9443 4.06944 35.1364 4.08909 35.2493 4.05565C35.3348 4.03089 35.2349 3.87163 35.344 3.92044C35.3925 3.94223 35.3038 4.03666 35.3948 4.06978C35.4855 4.10291 35.7134 4.09676 35.7988 4.09273C35.8844 4.08864 35.8364 3.96763 35.8433 3.95938C35.8845 3.91214 36.0476 3.85203 36.0639 3.85202C36.5173 3.83866 36.9497 3.90647 37.3712 3.9442C37.6511 3.96832 37.927 3.97902 38.2033 3.94678C38.2587 3.94048 38.219 3.81322 38.2274 3.81093C38.4179 3.75314 38.2738 4.09689 38.4127 4.20776C38.3869 3.94838 38.4689 3.99365 38.6048 3.96172C38.6702 3.94611 38.6318 3.84642 38.6375 3.83597C38.7308 3.68068 38.8032 3.87616 38.8217 3.91605C38.89 4.06278 38.9544 3.8853 39.0005 3.98327C39.0468 4.08049 38.9515 4.22954 39.0805 4.22377C39.1137 4.12967 39.0109 3.8896 39.1071 3.84722C39.4803 3.68725 40.175 3.85039 40.4801 3.85507C40.7789 3.86056 40.8714 3.83827 41.0508 3.86228C41.3707 3.90538 41.2445 3.73172 41.4335 3.63794C41.6217 3.54389 41.5548 3.99251 41.5885 4.08606C41.6219 4.17955 41.6447 4.07979 41.6832 4.12991C41.7215 4.18002 41.6497 4.24953 41.7333 4.26399C41.8174 4.27848 42.0292 4.0945 42.0506 3.99299C42.0966 3.778 41.9831 3.56355 42.1999 3.62667C42.2124 3.63044 42.1811 3.74961 42.2284 3.75812C42.6066 3.82169 42.9927 3.79727 43.3756 3.84409C43.4282 3.85071 43.3932 3.98403 43.4239 3.98934C43.7431 4.04476 43.6123 3.8364 43.7584 3.57901C43.7508 3.90459 43.859 4.09387 44.1002 4.07269C44.2435 4.06012 44.205 3.92181 44.2867 3.81365C44.3112 3.78107 44.4204 3.86764 44.4316 3.79968C44.4695 3.57737 44.3486 3.34546 44.6016 3.41661C44.6128 3.42006 44.5909 3.54193 44.6288 3.5452C44.8735 3.56675 44.8778 3.33773 45.1265 3.2822C45.3274 3.23801 45.6953 3.33398 45.9283 3.32728C45.9687 3.68895 46.177 3.57863 46.2307 3.31856C46.3772 3.30987 46.5376 3.27408 46.6857 3.2887C46.7366 3.29363 46.7186 3.40243 46.7264 3.41285C46.8463 3.57654 46.8763 3.32584 46.9064 3.31194C47.2409 3.17071 47.5447 3.31235 47.8508 3.08145C47.8615 3.07318 47.8411 2.8206 47.9568 2.98907C47.9645 3.00073 47.875 3.13139 48.0294 3.11583C48.1852 3.10011 48.5008 3.18561 48.6956 3.03344C48.7438 2.99663 48.8408 2.77178 48.9723 2.91144C48.99 2.93045 48.9873 3.00451 49.0143 3.04072C49.1016 3.15587 49.0912 2.89831 49.2083 3.09789C49.3253 3.29745 49.5143 3.42874 49.7042 3.24133C49.7104 3.23574 49.7258 3.02701 49.7947 3.01739C49.9058 3.00202 50.0621 3.01534 50.1793 2.99146C50.234 2.98023 50.1752 2.86352 50.1843 2.85943C50.5325 2.72054 50.8151 2.77862 51.2161 2.74716C51.2851 2.74256 51.4647 2.53108 51.626 2.63643C51.8066 2.75095 51.7782 3.38669 52.0955 3.17179C52.226 3.08518 52.244 2.28217 52.5821 2.62839C53.0553 2.43228 53.543 2.54914 54.0164 2.33912C54.0381 2.32974 54.0773 2.10407 54.1338 2.10022C54.2154 2.09521 54.2697 2.19207 54.3256 2.19304C54.3358 2.19334 54.3459 2.19344 54.3559 2.19336C54.5733 2.14952 54.7414 2.00511 54.9468 1.93866C55.0289 1.91151 55.0396 2.0211 55.1381 1.98738C55.2367 1.95301 55.2449 1.79877 55.3993 1.80446C55.5158 1.80915 55.7305 2.02426 55.8744 1.99393C55.761 1.73735 55.8514 1.70213 55.9737 1.56127C55.9971 1.53405 55.923 1.46142 55.9319 1.44402C55.9666 1.37146 56.0546 1.4186 56.0841 1.34319C56.0914 1.32498 56.0498 1.23871 56.0533 1.21899C56.081 1.0484 56.3256 1.16696 56.368 1.18752C56.5303 1.26535 56.5201 1.13089 56.6205 1.14271C56.7213 1.1543 56.6405 1.27416 56.7439 1.25965C56.9571 1.22954 57.1823 1.09617 57.3682 1.00427C57.362 1.0073 57.363 1.00688 57.364 1.00646C57.4388 0.974548 57.3366 0.880069 57.3461 0.872791C57.4911 0.773279 57.6998 0.837393 57.6989 0.565615C58.041 1.14081 57.7732 0.468052 58.0529 0.510713C58.075 0.514467 58.1971 0.801662 58.1437 0.868251C58.0907 0.934699 57.9547 0.879599 57.8862 0.981474C57.8688 1.00556 57.8511 1.32526 57.8426 1.34797C57.7683 1.52664 57.5709 1.10616 57.5532 1.08567C57.4699 0.987674 57.4167 1.00428 57.3826 1.05594L57.3925 1.05114C57.352 1.11886 57.3429 1.23867 57.3261 1.26095C57.1892 1.44399 57.0038 1.46592 56.882 1.60772C56.802 1.69992 56.9296 1.97689 56.8454 2.00889C56.5632 2.11608 56.2854 1.7793 56.1895 2.23379C56.168 2.33083 56.3656 2.60661 56.0535 2.46312C56.0334 2.45435 55.7858 2.30447 55.7607 2.48117C55.7575 2.50349 55.7971 2.59212 55.7857 2.60605C55.709 2.69747 55.6121 2.65515 55.5178 2.73467C55.4233 2.81423 55.309 2.91956 55.1667 2.93759C55.0806 2.94895 54.9187 2.8144 54.867 2.78528C54.7213 2.70076 54.6694 2.93638 54.5561 2.80885C54.5285 2.81548 54.4481 2.83622 54.4197 2.83759C54.4093 2.73188 54.3951 2.58866 54.384 2.47678C54.3697 2.4261 54.3429 2.38329 54.2881 2.35738C54.3093 2.60874 54.3244 2.8675 54.3438 3.12053C54.0137 3.14885 53.6593 3.1254 53.3089 3.20126C53.2655 3.21097 53.335 3.33597 53.289 3.34985C53.0954 3.40785 52.9014 3.34735 52.7042 3.42594C52.5453 3.48858 52.4036 3.66384 52.2378 3.73459C52.0806 3.47213 51.8429 3.6208 51.6569 3.63178C51.5905 3.63602 51.5794 3.55963 51.528 3.54443C51.3346 3.48881 51.4684 3.72184 51.4289 3.77081C51.2626 3.97917 51.1226 3.41866 50.8909 3.47936C50.8789 3.48236 50.7824 3.81511 50.7637 3.83826C50.649 3.98813 50.7191 3.73791 50.6295 3.73231C50.4685 3.72143 50.3442 3.67068 50.1765 3.79433C50.1292 3.83051 50.0371 4.04307 49.9045 3.91686C49.8871 3.90034 49.8761 3.79894 49.8639 3.79516C49.6417 3.73536 49.7004 4.04931 49.6042 4.17681C49.51 4.30392 49.2877 4.11935 49.2441 4.06244C49.1232 3.91673 49.3018 3.98091 49.3057 3.96378C49.3323 3.76396 49.2091 3.81951 49.1097 3.82038C49.0418 3.51422 48.9085 3.55643 49.0056 3.82269C49.0166 3.85173 49.0878 3.80969 49.1097 3.82038C49.0781 4.13798 48.9288 4.20384 48.7141 3.94867C48.6144 3.82884 48.6628 3.66183 48.4357 3.75762C48.3317 3.80094 48.4085 4.00699 48.3212 4.08075C48.1264 4.24834 47.8075 4.09447 47.59 4.15906C47.5109 4.18256 47.6072 4.28755 47.5535 4.30764C47.4113 4.36125 47.2641 4.29315 47.1215 4.35927C47.1087 4.36538 47.1587 4.48315 47.1132 4.4912C46.7657 4.55483 46.4469 4.51763 46.0767 4.56188C45.8949 4.58379 45.5925 4.68873 45.4011 4.69669C45.0827 4.71021 44.6605 4.57421 44.399 4.64396C44.2242 4.68937 44.2749 4.80852 44.2061 4.89985C44.0708 5.07711 43.7839 4.80966 43.7455 4.76755C43.7445 4.76617 43.8935 4.72332 43.8068 4.66749C43.7479 4.54006 43.7472 4.76682 43.7455 4.76755C43.7205 4.74058 43.4112 4.73953 43.3509 4.76816C43.3184 4.78386 43.347 4.89901 43.3299 4.90499C42.9326 5.0436 42.5135 5.10508 42.098 5.07807C42.0905 5.0762 42.0928 4.94472 42.0753 4.94196C41.8296 4.89996 41.6823 5.06968 41.4919 5.17636C41.2996 5.28305 41.1376 5.26001 41.0062 5.04174C40.854 5.07825 40.6404 4.98931 40.5127 4.93487C40.3862 4.88041 40.3802 5.13593 40.3695 5.14148C40.029 5.31826 39.8357 5.17991 39.4786 5.16982C39.3065 5.16471 38.9791 5.21187 38.798 5.24452C38.6549 5.27084 38.5662 5.21325 38.4331 5.25456C38.415 5.26008 38.436 5.3732 38.4305 5.3777C38.2834 5.51693 38.3494 5.23772 38.3173 5.18884C38.2044 5.01089 38.136 4.91633 37.9497 5.00453C37.9069 5.02474 37.7866 5.42659 37.7065 5.45116C37.6026 5.48236 37.64 5.33853 37.5309 5.37473C37.5215 5.37768 37.5247 5.46607 37.4567 5.46303C37.4343 5.46211 37.4118 5.46101 37.3891 5.45976C37.11 5.44322 36.782 5.40298 36.4952 5.41412C36.4518 5.41543 36.5089 5.55508 36.4462 5.55928C36.1494 5.5789 35.8259 5.57675 35.537 5.51366C35.4655 5.49769 35.5093 5.39913 35.4936 5.37012C35.3973 5.19458 35.2613 5.45202 35.2413 5.45707C34.7198 5.58461 34.3134 5.35578 33.7728 5.46998C33.7415 5.47669 33.5226 5.75292 33.4202 5.51797C33.4132 5.50235 33.3125 5.26195 33.2254 5.42733C33.2199 5.43768 33.2829 5.56138 33.1743 5.54943C33.0658 5.53751 32.8896 5.6215 32.7426 5.48603C32.6957 5.44337 32.5838 5.20357 32.4444 5.39608C32.4354 5.40952 32.2203 5.8442 32.1403 5.54561C32.1278 5.49645 32.1374 5.17994 31.9728 5.34311C31.9413 5.37474 31.9993 5.44501 31.9159 5.48955C31.7879 5.55818 31.6166 5.47435 31.4578 5.61615C31.4303 5.64125 31.3121 5.85666 31.2167 5.69411C31.2019 5.66865 31.2292 5.56286 31.1797 5.55129C30.9439 5.49576 30.6957 5.56763 30.4526 5.49566C30.3666 5.47037 30.409 5.29938 30.3206 5.25401C30.2321 5.20866 30.0533 5.16545 29.9605 5.2439C29.8677 5.32238 29.9707 5.59415 29.8311 5.61653C29.2233 5.71374 28.6223 5.55636 28.0174 5.5351C27.9274 5.53192 28.0024 5.62906 27.8696 5.63137C27.3819 5.6403 26.5393 5.73417 26.1153 5.52834C25.775 5.36349 26.2024 5.23612 25.9424 5.16937C25.8168 5.13753 25.683 5.45434 25.6528 5.46438C25.3583 5.56635 25.1525 5.42666 24.887 5.4703C24.8322 5.47935 24.8863 5.60749 24.8397 5.61378C24.6804 5.63639 24.5128 5.57952 24.3605 5.59032C24.2921 5.59547 24.3049 5.6934 24.242 5.68598C24.0915 5.66934 23.9583 5.62844 23.8115 5.53692C23.7981 5.52858 23.888 5.40653 23.7766 5.40222C23.5965 5.3956 23.3727 5.30545 23.1657 5.39938C23.1043 5.42763 23.1023 5.65153 22.9697 5.49715C22.9419 5.4649 22.9768 5.19599 22.8232 5.42856C22.7973 5.46721 22.5391 5.78099 22.4119 5.57923C22.3784 5.52613 22.2926 5.30627 22.2189 5.34096C22.2089 5.34649 22.2492 5.46669 22.188 5.47852C21.9718 5.51812 21.7451 5.50563 21.5235 5.54362C21.4644 5.55401 21.5527 5.67833 21.4645 5.68983C21.2229 5.72163 20.9177 5.69036 20.6807 5.6517C20.5933 5.63722 20.6536 5.53405 20.6472 5.52284C20.5447 5.34049 20.4846 5.58686 20.4507 5.60127C20.2403 5.68752 20.0773 5.57201 19.8827 5.60284C19.8289 5.61104 19.8672 5.72843 19.8565 5.73892C19.7456 5.84135 19.8281 5.63036 19.7578 5.60719C19.5613 5.54157 19.3423 5.55124 19.1422 5.56643C19.069 5.57219 19.1514 5.70828 19.0857 5.71187C18.6977 5.73571 18.2929 5.72301 17.9141 5.64822C17.843 5.63389 17.8877 5.529 17.8728 5.50507C17.7703 5.33758 17.622 5.56624 17.5863 5.58803C17.4281 5.68755 17.3668 5.59486 17.2278 5.61226C16.5538 5.69886 15.708 5.63783 15.0738 5.60009C14.2345 5.55153 13.5926 5.45189 12.7952 5.47788C12.7452 5.47939 12.7956 5.61888 12.7525 5.62198C12.1854 5.65566 11.6332 5.60117 11.0707 5.64147C11.0238 5.64452 11.0913 5.77676 11.0162 5.78612C10.8639 5.80602 10.6747 5.7992 10.5252 5.75819C10.5234 5.75774 10.5217 5.75728 10.52 5.75682C10.4432 5.73648 10.5462 5.623 10.4689 5.60485C10.2893 5.5623 10.1005 5.55288 9.92333 5.57408C9.84796 5.58339 9.96176 5.71864 9.86363 5.7202C9.17845 5.73362 8.5096 5.75691 7.82133 5.58177C7.77413 5.56975 7.73258 5.29487 7.63378 5.34758C7.62634 5.42387 7.62675 5.5136 7.62351 5.59514C6.62996 5.63906 5.64924 5.54377 4.65467 5.52904C4.61285 5.52845 4.685 5.67409 4.60424 5.67369C4.13453 5.67154 3.67781 5.71189 3.19959 5.56713C3.1517 5.55297 3.17481 5.29675 3.03409 5.3355C3.01037 5.34257 2.7974 5.37674 2.74317 5.43236C2.73584 5.44075 2.77393 5.56034 2.7066 5.56383C2.31335 5.58199 1.89336 5.55469 1.49982 5.48162C1.43521 5.46959 1.50392 5.34224 1.45805 5.33257C1.13583 5.26496 0.784404 5.36178 0.477148 5.24614C0.270142 5.16828 0.347403 4.94814 0.237371 4.73144C0.221863 4.70086 0.0942584 4.69602 0.0875911 4.56994C0.0706216 4.2529 0.132534 3.90574 0.107128 3.5678C0.101712 3.49502 -0.0692442 3.57341 0.0319764 3.39752C0.038942 3.38574 0.163343 3.32737 0.193596 3.26769C0.214827 3.22644 0.176558 3.09822 0.219893 3.04541C0.263198 2.99264 0.311287 3.10013 0.382843 3.03808C0.454646 2.97527 0.423735 2.8294 0.566688 2.81213ZM39.9426 4.68988C39.8249 4.57201 39.8257 5.02097 39.944 4.90881C39.9497 4.90286 39.9487 4.69565 39.9426 4.68988ZM53.6025 2.79425C53.4272 2.62322 53.3759 2.92834 53.5051 3.06057C53.632 3.19326 53.6548 2.84633 53.6025 2.79425ZM55.136 2.28741C54.9142 2.20686 55.1107 2.81269 55.251 2.62001C55.2593 2.60891 55.149 2.29195 55.136 2.28741ZM0.745583 4.66973C0.743843 4.66377 0.652326 4.65796 0.650312 4.66387C0.601617 4.80636 0.784479 4.81787 0.745583 4.66973ZM56.4793 1.49796C56.3922 1.44547 56.2961 1.60397 56.4043 1.66979C56.4917 1.72266 56.588 1.56324 56.4793 1.49796ZM33.9976 4.30822C33.9958 4.30155 33.9295 4.296 33.9311 4.33378C33.9365 4.45546 34.0284 4.42045 33.9976 4.30822ZM58.8439 0.51201C58.4735 0.59785 58.0889 0.169422 58.5119 0.100113C58.588 0.0880585 58.4036 0.308579 58.5104 0.325373C58.7043 0.3562 58.7226 0.00669315 58.9456 0.124952C58.9859 0.146722 58.8653 0.508187 58.8435 0.512906C58.8436 0.512607 58.8438 0.512309 58.8439 0.51201ZM39.8562 4.15403C39.8538 4.14821 39.7632 4.14612 39.7612 4.15207C39.7177 4.29631 39.9005 4.30059 39.8562 4.15403ZM30.152 4.05268C30.1471 4.04006 29.9359 4.02917 29.9289 4.04084C29.8198 4.27424 30.2469 4.29695 30.152 4.05268ZM45.9331 3.33645C46.0148 3.18182 46.1294 3.15012 46.2302 3.31843C46.1322 3.32156 46.0335 3.33275 45.9331 3.33645Z" fill="white"/>
</svg>
