<svg width="300" height="46" viewBox="0 0 300 46" fill="none" xmlns="http://www.w3.org/2000/svg">
<path d="M23.5972 45.1953C23.7822 45.1382 24.5263 45.277 24.8484 45.253C24.4833 45.8566 22.9299 45.4025 23.5972 45.1953ZM56.6388 1.36092C56.3715 1.51016 56.1043 1.65939 55.837 1.80863C56.5965 1.9056 57.6174 1.79606 58.3222 1.93773C58.4375 1.96151 58.1384 2.39361 58.4112 2.4129C58.6841 2.43207 58.6314 1.84158 59.0282 1.77842C59.4733 1.70936 61.5114 2.12075 62.2172 2.11077C64.857 2.0709 67.5195 1.73368 70.1645 1.97893C67.4338 2.41579 70.1855 2.86042 70.9504 2.67109C71.1199 2.62725 71.0927 1.52947 73.8325 1.80588C75.5737 1.98129 73.9655 3.55072 76.8709 2.76448C74.6367 1.66655 76.8338 1.7435 78.5852 1.707C78.8871 1.70054 81.3255 1.86549 82.4026 1.81687C82.7711 1.79996 83.3326 1.22494 83.8214 1.20985C84.1578 1.1999 84.4123 1.51426 84.9118 1.49825C87.2405 1.4274 89.5306 1.40295 91.8634 1.50924C90.5002 2.9869 92.9334 2.139 93.0427 2.20965C93.5985 2.61084 91.0849 2.72504 92.079 2.97597C93.4681 2.93019 94.8573 2.88442 96.2465 2.83864C95.1064 2.65721 97.7559 1.59431 98.2436 2.07781C98.0289 0.772091 104.575 3.21425 105.572 2.77821C105.779 2.68611 104.421 2.04078 107.572 2.33599C107.913 2.3688 107.784 2.76275 107.963 2.72602C108.071 2.70394 108.719 1.45182 109.411 2.14373C109.663 2.39626 108.048 3.21863 111.595 2.88808C110.182 1.61367 116.513 2.19791 117.677 2.51727C117.445 2.34607 117.212 2.17486 116.979 2.00364C118.131 2.46551 118.338 2.03222 118.598 2.05583C119.643 2.15068 121.08 2.58734 122.054 2.54749C123.193 2.50164 123.197 1.70908 124.525 2.01738C124.21 1.84251 123.895 1.66763 123.58 1.49276C124.497 1.53488 125.414 1.57699 126.332 1.61911C124.207 2.66824 126.79 1.66916 126.96 1.64658C127.232 1.60839 126.842 2.0379 127.296 1.98442C127.343 1.97562 127.275 1.57115 127.974 1.52572C129.436 1.43219 129.205 1.94073 129.818 1.93498C129.875 1.93236 129.678 1.56798 130.738 1.48178C134.106 1.20735 130.721 1.76101 130.592 1.81138C130.422 1.87781 131.577 3.40056 128.716 2.86061C129.676 3.0325 129.773 3.70634 129.881 3.72307C129.977 3.73682 131.642 3.64191 131.733 3.6187C132.552 3.38987 131.832 2.9294 131.991 2.84688C132.122 2.78036 134.127 3.38045 134.597 1.99541C135.557 3.27294 134.045 3.1559 132.436 3.35227C132.201 3.61443 133.968 3.86934 134.061 3.86864C136.341 3.86631 135.079 2.81546 135.577 2.14373C135.839 1.79226 136.768 2.50919 135.91 1.56692C137.979 1.46746 136.724 2.01348 136.858 2.09429C137.06 2.21301 137.783 1.94295 137.874 1.97893C138.007 2.03218 137.545 2.35842 138.069 2.47333C138.156 2.49004 139.001 1.92864 137.912 1.66031C139.367 1.74012 139.247 1.26142 139.741 2.22613C140.744 0.401011 140.469 3.30494 140.864 3.4072C141.913 3.67677 141.609 2.24382 141.664 2.17394C142.046 1.72615 144.952 2.2184 145.672 2.01188C145.388 3.04398 143.368 2.02316 142.916 2.22338C141.411 2.88953 145.039 2.73939 143.945 4.03619C144.404 3.68004 144.862 3.32388 145.321 2.96773C146.161 3.80153 144.969 4.1651 147.231 3.8604C147.601 3.14073 145.632 3.97408 146.027 3.4072C146.26 3.07451 147.572 3.00305 147.597 2.82765C147.623 2.61651 146.438 2.86674 146.624 2.542C147.032 1.8412 151.357 2.50836 148.065 2.89083C148.983 2.87885 149.456 4.27275 150.252 3.83843C150.767 3.55652 147.871 1.6314 152.216 1.98442C152.309 2.64263 150.479 2.17878 150.432 2.22887C150.365 2.30179 150.696 3.78709 150.753 3.8604C150.956 4.10178 155.394 3.30643 156.332 4.05267C155.96 3.19422 159.685 3.89949 160.091 3.63792C160.199 3.56571 159.795 3.03987 159.911 2.98421C160.631 2.65295 162.579 3.59163 163.483 3.61595C164.494 3.64351 164.366 3.18935 164.423 3.19021C164.868 3.21555 164.512 3.52343 164.784 3.52256C165.195 3.52109 168.02 3.58405 168.161 3.51982C168.203 3.4998 167.742 2.981 168.357 2.88259C168.464 2.86553 168.397 3.48063 170.22 3.21493C172.416 2.89538 168.695 2.45003 169.608 1.80588C171.018 2.72304 170.972 1.81417 171.355 1.88554C171.487 1.91153 172.473 2.68427 173.544 2.63538C172.775 2.76081 172.007 2.88625 171.239 3.01168C171.994 3.14717 173.461 2.97946 174.083 3.13253C174.387 3.20704 174.136 3.84185 174.796 3.8247C174.936 3.8176 175.491 2.27103 173.764 2.96498C173.626 2.41275 174.448 2.77236 174.829 2.61616C174.887 2.59182 175.114 1.66924 175.601 2.24261C175.718 2.38367 174.445 5.07488 177.728 3.12704C177.834 3.06426 177.466 2.72722 177.57 2.65736C177.64 2.61004 178.478 2.74637 178.571 2.69856C178.666 2.64725 178.261 2.2793 178.374 2.2069C178.952 1.83382 179.711 3.29317 178.519 3.18197C178.917 3.36234 179.315 3.54271 179.714 3.72307C179.288 2.62321 180.34 3.41361 180.891 3.37974C184.424 3.16326 182.058 2.44792 182.666 2.07781C183.643 1.48355 182.896 3.36574 184.347 2.80018C184.481 2.74731 182.728 1.94835 186.151 2.39917C185.646 2.4303 185.141 2.46143 184.635 2.49256C184.927 3.55637 186.46 2.41958 186.578 2.40466C187.922 2.25859 187.013 2.6421 189.009 2.09429C189.188 2.0451 189.576 2.30765 189.957 2.17669C191.537 1.63715 187.872 1.84929 187.772 1.4186C187.724 1.20757 191.666 1.26072 191.801 1.36092C192.376 1.80511 190.015 1.55656 190.465 2.10802C190.629 2.30383 196.247 1.90167 197.374 2.11626C198.675 2.36597 199.26 3.8083 199.269 2.18767C199.636 3.77846 199.96 2.6931 200.126 2.70405C202.138 2.85131 202.141 2.86736 203.866 2.71504C204.247 2.68193 204.569 3.16459 204.703 3.08309C204.782 3.03387 204.635 2.51734 205.019 2.35797C205.553 2.13994 208.759 2.67121 208.997 2.95675C209.236 3.24228 207.643 3.08057 207.929 3.55003C209.081 3.59749 210.187 3.48133 211.347 3.5308C211.829 3.55276 211.581 3.88134 211.789 3.88787C211.878 3.89191 213.542 3.60256 213.472 3.48136C213.307 3.19953 208.168 3.38898 209.521 2.81392C209.782 2.7028 210.704 3.45998 210.558 2.53925C215.149 2.748 219.74 2.95675 224.331 3.16549C221.693 3.85416 218.725 3.23826 215.962 3.30283C215.583 3.3108 214.303 3.22199 214.458 3.68736C216.808 3.80784 219.729 3.56537 221.985 3.86864C222.057 3.87868 221.792 4.29679 222.062 4.36305C222.568 4.48672 224.214 3.81238 224.491 3.98675C224.538 4.02738 223.601 4.57858 223.886 4.92887C224.617 5.8278 224.803 3.83682 225.432 3.8604C225.918 3.87949 229.185 4.84216 229.998 4.23396C230.863 3.58567 227.591 3.85759 227.832 3.32755C230.047 2.79488 232.289 3.36369 234.381 3.29733C234.418 3.29564 234.098 2.88027 234.565 2.82216C235.377 2.72102 235.591 3.3102 235.986 3.40446C236.413 3.50479 237.921 3.42036 238.122 3.63518C238.148 3.66335 237.843 4.24774 237.796 4.26417C237.139 4.50502 236.906 3.74654 236.846 3.7368C236.622 3.70804 236.401 3.99856 236.196 3.98126C235.859 3.95241 235.673 3.68363 235.228 3.6599C234.92 3.64253 235.217 4.15868 234.921 4.13507C234.812 4.12432 233.64 2.94573 233.531 4.14881C233.497 4.52813 243.084 5.01525 244.042 4.71188C243.22 4.56722 242.398 4.42256 241.576 4.2779C243.245 4.63003 245.25 3.66876 245.392 5.09092C251.582 5.2072 257.772 5.32347 263.961 5.43975C265.067 5.56091 264.461 6.4748 266.279 6.20882C265.809 5.91767 265.339 5.62652 264.869 5.33537C265.801 5.53962 269.931 5.93865 270.599 5.75013C270.686 5.72542 270.806 4.8983 271.838 4.82724C272.754 4.76449 272.901 5.38421 273.39 5.50292C273.801 5.60087 274.263 5.4385 274.385 5.47271C274.479 5.5001 274.516 5.87906 274.741 5.94514C275.452 6.14945 274.875 5.08245 275.581 6.3077C275.409 6.3544 275.238 6.40109 275.066 6.44778C275.924 6.62512 277.096 7.18137 275.832 7.45582C275.615 7.50319 275.802 7.13657 275.639 7.1372C269.293 7.20533 274.361 7.91802 276.585 7.3487C277.156 7.89193 280.358 7.56026 280.464 7.66731C280.612 7.82237 280.064 8.25653 280.782 8.6314C280.933 8.71076 285.214 8.40657 283.672 9.12855C283.354 9.27748 281.302 9.12101 280.807 9.14228C281.971 10.2937 284.7 8.64406 285.007 8.68633C286.245 8.86577 282.629 9.68418 285.417 9.81797C287.561 9.92063 285.548 9.15184 286.373 8.82367C286.837 8.63953 289.263 9.48648 289.197 8.38969C290.03 8.27257 289.543 8.85332 289.645 8.89508C289.746 8.9318 291.383 8.60347 291.915 8.83465C291.98 8.8634 291.777 9.43348 291.843 9.48013C291.973 9.55999 293.552 9.44603 293.616 9.39773C293.656 9.36417 293.279 8.86506 293.434 8.74401C293.615 8.60444 295.134 8.72189 295.218 8.57921C295.336 8.36349 293.46 8.50561 293.773 7.94747C294.638 8.08801 296.047 7.71561 296.617 7.2663C296.478 7.39477 295.639 7.41321 295.348 7.36792C295.485 6.55049 297.286 6.56163 296.67 7.20862C297.061 6.86115 296.794 6.67682 297.014 6.3489C297.072 6.26584 297.628 6.24873 297.735 6.10719C297.749 6.079 297.176 5.77058 297.29 5.60455C297.498 5.30453 299.184 5.37202 299.322 5.45074C299.71 5.67379 298.336 5.94368 298.221 6.28848C298.205 6.34143 299.374 7.0171 299.391 7.07678C299.46 7.71702 298.159 7.25562 298.308 7.83211C298.629 7.95388 298.951 8.07565 299.273 8.19742C298.032 8.78121 295.737 8.48101 295.145 9.14503C296.985 8.94743 298.909 8.9708 298.905 10.4662C298.904 11.096 298.111 11.4652 298.141 11.6253C298.258 12.1982 299.36 11.5758 299.4 11.6061C299.434 11.641 299.449 11.675 299.449 11.7081C299.449 11.7081 299.449 11.7081 299.449 11.7081C299.449 12.0436 297.879 12.2851 297.8 12.4383C297.668 12.7104 298.367 13.8304 298.366 14.0781C298.342 14.1278 297.223 14.3929 297.601 14.8252C297.982 15.2618 298.961 15.2715 298.996 15.3168C299.182 15.578 297.47 15.8163 297.419 15.9705C297.392 16.0485 298.312 16.5277 298.339 16.6655C298.361 16.8037 297.663 17.1053 297.387 17.5416C297.182 17.8658 297.78 18.1143 297.675 18.1651C297.6 18.1988 295.982 18.1933 295.902 18.2503C295.784 18.3346 296.163 18.722 296.108 18.8189C296.03 18.9582 295.507 18.8183 295.575 18.9617C295.626 19.0685 297.651 20.404 297.638 20.7608C297.615 21.3692 295.47 19.9693 297.466 22.3703C297.48 22.3861 297.966 22.2155 297.979 22.2302C298.279 22.672 296.722 23.3516 298.626 23.2328C295.084 24.0001 298.185 24.1474 297.661 25.1719C297.459 25.5657 296.086 25.7281 296.079 25.7872C296.213 26.2868 296.65 25.8993 296.799 26.1443C296.881 26.2812 295.652 26.8093 295.929 27.1523C296.072 27.3291 297.376 27.2661 297.43 27.3006C297.946 27.6258 297.313 27.9761 297.426 28.207C297.501 28.3619 298.288 28.3742 298.309 28.402C298.342 28.46 297.273 29.0858 297.051 29.3057C296.882 29.4749 297.517 29.7401 297.399 29.8138C296.687 30.255 295.174 29.1298 296.632 30.7065C296.721 30.8032 297.273 30.7641 297.289 30.7834C297.63 31.2304 296.615 31.269 296.433 31.6349C296.121 32.2654 297.581 31.9139 296.367 32.3573C297.277 32.7696 297.785 32.7524 298.851 32.6374C295.9 32.9581 294.858 34.5902 298.134 34.5491C297.092 34.5237 297.208 35.4449 296.897 35.461C296.704 35.47 295.192 34.5541 295.885 36.6091C295.972 36.8658 296.89 36.5397 296.603 37.0651C294.399 36.931 296.556 37.3994 296.558 37.4689C296.53 38.6794 291.146 37.6879 290.221 37.8259C289.148 37.986 288.194 38.9399 287.961 38.9411C287.193 38.9415 287.83 38.4572 287.659 38.2791C287.485 38.1027 285.302 39.0305 285.193 38.9795C284.77 38.7749 285.199 38.201 285.155 38.172C284.632 37.8203 281.7 38.2697 280.879 38.1363C280.905 38.5086 282.552 38.5381 281.524 39.1361C280.326 39.8332 280.257 38.192 280.226 38.1198C274.737 38.1354 269.247 38.151 263.758 38.1665C263.827 39.0397 267.415 38.3812 267.497 38.4961C267.977 39.1768 261.914 39.1642 261.171 38.8559C261.735 39.0445 262.3 39.2331 262.865 39.4218C261.901 40.4256 259.766 39.1214 258.37 39.5646C257.92 39.7083 258.785 40.0957 258.767 40.1222C258.261 40.512 257.448 40.2117 258.056 39.6882C256.819 40.1897 257 39.6363 256.051 39.5948C256.002 39.5931 256.409 39.9981 255.658 40.1661C255.306 40.2445 253.43 40.2458 253.179 40.6001C253.075 40.7493 254.027 42.3202 254.145 40.9681C256.186 41.6272 254.797 40.352 255.59 40.3831C255.711 40.3902 255.432 41.1448 257.428 40.7896C257.048 42.1505 254.749 41.1329 254.355 41.2977C253.542 41.6366 256.891 42.3394 257.506 41.2785C257.219 42.3405 257.744 41.4216 258.49 41.4653C259.307 41.5126 258.951 41.8289 259.394 41.8306C260.603 41.8385 260.102 41.0889 261.099 41.7647C260.127 39.6725 262.806 41.4886 263.586 42.0366C262.316 42.1428 261.046 42.249 259.776 42.3552C259.848 42.4651 259.921 42.5749 259.993 42.6848C259.659 42.6693 259.324 42.6537 258.99 42.6381C259.043 42.5328 259.097 42.4275 259.151 42.3223C257.425 43.0068 257.005 42.2374 256.864 42.2289C255.053 42.1396 252.961 42.1462 251.13 42.1437C250.856 42.1433 251.044 42.8281 249.042 42.292C248.403 42.1213 249.006 41.5886 248.282 41.6685C247.377 43.1161 247.394 41.9615 247.125 41.9597C246.352 41.9599 245.88 42.3185 245.808 42.3223C244.854 42.3782 243.456 42.3183 242.407 42.3717C242.388 42.3772 242.933 42.8219 242.252 42.6903C242.013 42.6433 239.868 40.7448 237.992 41.3637C238.48 41.4918 238.968 41.62 239.456 41.7482C238.882 41.5691 234.863 42.0475 235.846 42.5557C236.448 42.8663 237.919 41.6426 238.08 42.8194C236.743 42.4672 229.356 42.994 228.781 42.7205C228.702 42.6815 229.191 42.2997 229.081 42.2508C228.996 42.2136 227.304 42.3041 227.08 42.1575C226.946 42.0703 227.694 41.8363 227.633 41.6988C227.58 41.6007 225.467 41.4372 225.346 41.9157C225.865 41.7236 227.323 41.8914 226.558 42.2948C226.46 42.3449 225.95 42.0362 225.831 42.0998C224.722 42.6862 228.036 42.5454 228.549 42.5502C226.467 43.1599 223.247 42.4412 220.835 42.8386C219.86 42.4403 222.28 42.2293 221.177 41.8993C218.89 41.2152 220.569 42.4501 220.498 42.5008C219.929 42.9027 217.994 40.7489 217.993 42.3882C217.164 42.1414 217.432 41.9347 216.262 42.1492C216.416 42.2627 216.569 42.3763 216.723 42.4898C215.424 43.4393 212.674 41.0438 212.88 40.861C213.434 40.3719 214.866 41.1348 214.989 41.1165C215.17 41.0893 215.67 39.4259 217.652 40.9132C218.463 39.7976 214.511 40.1602 216.309 39.3998C215.095 39.5246 210.099 38.748 209.379 39.2377C209.294 39.3017 209.693 40.4133 208.459 39.8475C207.873 39.5781 209.286 39.5651 209.018 39.3119C208.193 38.5347 196.971 39.0318 194.84 39.0729C194.702 39.0742 194.752 38.7292 194.616 38.7323C194.199 38.742 192.677 39.2564 191.929 39.0976C193.478 39.7362 190.47 39.7859 189.705 39.7156C188.544 39.6086 188.616 39.0015 188.114 38.8724C186.18 38.3747 183.185 39.8162 181.682 38.4687C181.765 39.8061 179.084 37.8129 177.865 37.8012C176.91 37.7916 175.524 38.6767 176.813 39.2157C175.165 39.1542 173.429 39.4037 171.883 39.4849C171.627 39.4986 171.979 39.1031 171.543 39.1388C171.503 39.145 171.449 39.5325 171.074 39.5728C167.982 39.9106 169.487 39.0871 168.908 38.8449C168.585 38.7094 168.346 38.642 168.17 38.6197C169.973 38.544 172.051 38.3918 172.607 38.3808C172.133 37.5249 168.613 38.5451 167.582 38.3148C167.546 38.3065 167.671 37.8348 167.634 37.8314C167.634 37.8314 167.633 37.8314 167.632 37.8314C167.246 37.7953 164.785 37.9694 165.292 38.5318C165.428 38.6821 166.56 38.6818 167.904 38.6307C167.54 38.7362 167.811 39.2646 167.747 39.2872C166.969 39.5484 165.063 39.0326 164.387 38.9631C164.233 38.9478 164.244 39.2863 164.218 39.2872C163.604 39.2103 163.856 38.2436 163.225 39.2405C162.111 38.0357 165.312 39.0616 165.086 38.2791C164.913 37.6767 157.804 38.0003 157.826 38.9493C157.801 38.8478 157.703 38.7218 157.503 38.5785C157.058 38.26 155.08 38.3597 154.738 38.5346C154.681 38.569 154.704 39.4902 154.632 39.4987C154.453 39.5198 152.035 38.7976 151.132 39.3421C151.62 39.4712 152.107 39.6003 152.595 39.7294C149.65 39.7374 150.105 40.0115 151.086 40.287C151.135 40.2894 151.183 40.3244 151.23 40.3282C151.991 40.5318 152.966 40.7279 152.981 40.8006C153.036 41.0779 148.039 41.2322 149 40.3776C149.134 40.2608 151.446 40.6413 150.302 40.0315C150.101 39.9247 148.616 40.0987 148.538 40.0315C148.016 39.5847 151.259 38.991 150.863 38.356C150.076 38.9606 149.066 38.6422 148.163 38.7983C147.752 38.8688 147.651 39.3306 147.601 39.3394C146.843 39.4599 147.268 38.9757 147.016 38.9878C146.88 38.9961 145.388 40.0267 145.67 38.606C140.753 39.6511 144.31 39.6501 147.326 39.5701C146.373 40.0875 144.504 39.8372 143.666 39.9574C143.365 40.001 143.543 40.475 143.035 40.5699C141.989 40.7649 136.995 40.2203 135.695 40.0919C136.493 39.9244 136.26 39.408 135.643 39.4437C135.026 39.4797 135.545 40.1689 135.424 40.243C135.295 40.3197 132.402 39.9944 131.92 40.0837C134.099 39.834 133.607 39.3191 131.759 39.2652C132.026 39.1169 132.293 38.9685 132.56 38.8202C131.477 39.0287 129.198 38.2431 128.572 38.4769C128.474 38.5145 128.827 38.9474 128.771 38.9685C128.222 39.1525 126.353 38.7109 126.266 38.8587C126.192 38.9817 126.989 39.3447 126.693 39.5234C126.632 39.561 125.863 38.9757 125.106 39.1196C124.825 39.1726 124.994 39.582 124.923 39.6058C124.333 39.8027 124.682 39.1132 123.604 39.224C122.814 39.306 122.226 39.9801 121.134 39.7568C124.718 40.6162 121.705 40.2573 120.207 40.5177C119.967 40.5592 120.173 41.3026 118.738 40.9407C121.791 39.5965 117.868 40.2302 117.065 40.2155C117.021 40.211 117.006 39.7208 116.612 39.7129C116.579 39.7133 116.627 40.0446 116.261 40.07C112.791 40.3095 115.01 39.9352 114.35 39.6085C114.07 39.4693 112.382 39.9378 111.928 39.9491C111.823 39.9503 111.871 39.606 111.467 39.6195C110.752 39.6442 110.111 40.0107 109.639 40.0398C109.584 40.0414 109.581 39.4983 108.686 39.6744C108.435 39.7237 108.152 39.9166 108.51 40.0727C109.695 40.5863 111.943 39.6974 113.283 40.2101C114.504 40.6769 110.652 40.721 110.452 40.7237C110.378 40.7254 111.131 40.4557 110.366 40.4023C109.714 40.3579 108.521 41.296 107.548 41.0917C107.474 41.0766 106.697 40.2812 106.733 40.2348C106.765 40.2009 107.959 40.0282 107.785 39.798C107.765 39.7718 107.006 39.7772 106.907 39.6058C106.786 39.3972 106.459 37.3499 106.297 37.2986C105.881 37.1717 106.152 37.6387 105.883 37.6062C105.306 37.5377 103.307 36.9323 103.241 37.6419C103.572 37.684 103.902 37.7261 104.233 37.7682C102.394 37.8412 103.178 38.1433 102.918 38.2764C102.637 38.4204 102.716 37.7966 102.096 37.738C101.962 37.7251 99.3689 37.8554 99.4161 38.1171C100.85 37.7005 100.318 38.4714 100.384 38.4851C100.636 38.5353 100.956 38.103 101.293 38.1116C103.664 38.1793 101.273 38.8617 101.833 39.0372C102.026 39.0963 102.409 38.7272 102.491 38.7461C102.757 38.8072 102.761 39.2906 102.938 39.2515C103.352 39.1607 102.869 38.4768 102.902 38.4412C103.271 38.0132 104.719 38.5457 103.817 39.2899C104.358 39.5581 104.422 38.6536 104.851 39.0152C105.704 39.7312 104.426 39.5473 104.08 39.6662C102.838 40.0951 102.47 39.7479 100.712 39.8667C100.079 39.9086 99.3288 40.348 99.0352 40.3721C98.8501 40.3873 97.1032 38.8586 97.0517 41.251C96.3726 41.0196 95.3072 39.443 94.6076 39.5151C93.9795 39.5809 94.1791 40.4273 94.1205 40.46C94.0307 40.5115 93.2711 40.4448 93.0142 40.5644C92.7132 40.7057 92.8635 41.0287 92.3858 41.1604C91.1971 41.4872 91.2283 40.6233 91.1061 40.5671C89.6877 39.9182 90.3088 41.147 89.994 41.2456C89.7014 41.3361 85.5958 40.8632 84.7316 41.1741C85.0832 41.0011 85.4349 40.8281 85.7866 40.655C85.1573 40.1162 84.4901 40.9951 84.4784 40.0288C84.3507 41.5889 83.0517 40.546 82.6615 40.5863C82.5077 40.6029 82.5198 40.8688 82.3273 40.8802C81.5754 40.9269 79.8803 40.7152 79.4725 40.85C77.7089 41.4304 82.2186 42.3958 82.5737 42.4541C81.863 42.4369 77.8422 42.7863 79.6904 43.5363C79.9761 43.652 80.4823 42.9539 80.6427 42.9265C81.7288 42.7468 80.8746 43.3724 80.9598 43.4319C81.1046 43.528 81.8193 42.9231 82.008 42.9952C82.0709 43.0183 81.6657 43.5848 82.7014 43.5967C82.192 44.1459 79.2808 43.6985 78.8988 43.8274C78.7628 43.8735 79.6156 45.047 77.1241 43.9071C77.153 44.016 77.1819 44.125 77.2108 44.2339C75.8235 44.2788 74.4362 44.3237 73.049 44.3685C73.1997 44.1175 73.9787 43.6133 72.9976 43.7203C72.4328 43.7822 72.8507 44.3413 72.7992 44.3575C72.2924 44.5114 63.3216 44.3254 61.5831 44.3878C60.9917 44.408 59.3433 44.8573 59.2176 44.8657C58.466 44.9107 55.8045 44.6182 55.2736 44.6817C54.942 44.7224 55.2572 45.1897 54.9611 45.1678C54.6857 45.1468 54.971 44.6951 54.8892 44.6762C54.2119 44.5125 49.0669 45.105 47.8452 44.6789C48.5919 44.8068 52.3181 43.9043 52.2431 43.5857C52.2269 43.5421 51.3213 43.1984 51.1345 43.366C50.8259 42.9749 49.7662 44.1657 49.1899 43.9318C49.1247 43.9052 49.3814 43.2373 48.3527 43.116C47.9984 43.0746 47.0705 43.5953 46.1367 43.0117C44.7847 43.2921 37.6768 42.4258 37.1891 43.1435C37.1746 43.1814 38.1756 43.4285 37.4993 43.7231C36.6003 44.1146 37.4077 42.7958 36.3599 42.6821C36.202 42.6648 33.2869 42.7982 33.1915 42.8798C32.3086 43.6199 34.8558 43.92 34.8202 44.006C34.7313 44.2226 32.6148 44.3537 32.5288 44.3026C32.4469 44.2495 34.173 43.2688 32.0988 43.6407C32.3364 43.7579 32.5741 43.875 32.8117 43.9922C31.8362 44.2205 31.7432 43.542 31.5069 43.5006C30.7722 43.3694 29.9774 44.3999 28.8004 43.127C28.4891 42.7892 29.0058 42.4141 28.9669 42.3635C28.593 41.9088 28.116 43.1251 27.5538 42.2179C27.5114 42.1502 28.8199 41.6067 26.533 41.6054C26.6904 41.6923 26.8478 41.7793 27.0052 41.8663C26.6827 42.0605 24.3672 42.1759 24.0557 42.13C23.1457 41.9958 23.9393 41.3714 23.0246 41.4461C23.6113 42.3017 20.8299 42.4134 20.9899 41.6768C20.6015 42.6019 18.2387 41.8883 17.128 41.8663C16.4272 41.8531 14.9977 42.2569 14.7751 42.2096C14.5038 42.1518 14.5863 41.5206 14.0965 41.3801C13.9568 41.3401 12.4987 41.8027 11.2189 41.1494C10.9708 41.0235 10.4499 39.953 10.9109 39.6854C11.7 39.2276 13.1928 40.09 13.1738 39.4575C13.1514 38.7808 11.1407 39.1832 10.5995 39.0949C8.10103 38.6864 9.54379 37.9671 9.47953 37.749C9.3129 37.2198 7.94772 37.2363 7.89075 37.1887C7.65467 36.9774 8.62206 36.5586 8.63667 36.2356C8.6543 35.8151 7.33839 35.0562 7.63755 34.9144C8.06578 34.7131 9.27511 35.3457 9.35179 35.3155C10.3499 34.9075 8.98178 33.936 8.60473 33.4587C8.49043 33.3119 8.94586 33.0705 8.85109 33.0275C7.40447 32.374 8.54615 34.3928 7.58394 34.258C6.72547 34.1378 7.83002 33.4994 7.79723 33.4642C7.75484 33.4255 6.7284 33.3907 6.56772 33.1648C6.48853 33.0517 9.1564 31.8099 9.04498 31.2531C8.19376 31.3758 7.34253 31.4985 6.4913 31.6212C6.42457 30.8952 7.64892 31.4296 7.77556 31.3547C8.03049 31.2045 7.31962 30.8372 7.35013 30.6076C7.3665 30.4616 8.20083 29.9407 7.44708 29.7259C7.18803 29.6518 6.64439 30.1608 5.7009 29.6408C8.98436 28.9767 6.70898 28.5686 6.6122 28.3114C6.51739 28.0543 8.08494 27.449 6.18221 27.5561C6.09972 26.1432 6.22323 27.1095 6.76389 26.8612C7.42622 26.5559 5.89546 26.0907 8.31618 26.4437C8.17846 25.7822 6.23276 25.829 6.12975 25.7762C6.0408 25.7284 6.47329 25.403 6.31908 25.2928C4.49505 24.0147 5.74788 24.5983 5.21959 23.7821C5.17261 23.7092 3.44861 23.4066 4.7611 23.2877C7.15224 23.0716 8.15158 24.009 8.55341 22.005C6.78475 21.1345 4.64179 22.428 4.10414 22.45C3.28121 22.4815 4.13369 22.0729 4.03229 21.9583C3.99707 21.9213 3.28791 21.9551 3.27839 21.9226C2.77272 20.3942 6.43537 21.8972 7.58851 21.6315C7.27942 21.4026 6.97033 21.1737 6.66124 20.9448C7.08058 20.9356 7.49992 20.9265 7.91927 20.9173C5.92153 20.4572 7.84883 20.7431 8.34697 19.5055C8.4588 19.2275 7.14636 19.7043 8.64351 18.9315C7.53929 18.7531 7.89149 18.5002 6.89163 18.8491C6.91744 18.353 9.16706 17.7934 10.0544 17.5389C6.91975 16.9814 8.70731 18.801 5.99745 17.8383C5.49493 18.4525 6.78839 18.3329 6.68291 18.4343C6.30449 18.7989 5.41738 18.22 4.34708 19.4973C4.17281 19.707 4.91022 20.3525 3.819 20.3213C3.69831 20.3169 3.003 19.7653 3.01264 19.7253C3.10482 19.2932 3.79288 19.4551 3.82129 19.2748C3.84794 19.1041 3.0803 19.2068 3.07765 19.1594C3.05406 18.6182 3.71814 18.9526 3.62169 18.7832C3.4134 18.4146 0.652187 17.25 4.25583 17.5911C1.26262 18.203 3.87261 18.1887 5.03825 17.9537C5.3355 17.8947 5.41079 17.5714 5.83435 17.4592C6.37919 17.3139 7.01688 17.4691 7.29881 17.4098C7.60202 17.3444 5.87918 16.5802 8.37092 16.8083C7.1028 16.0482 4.86282 16.8586 3.61713 16.3249C1.10391 15.2464 5.36946 15.0148 5.81382 14.9103C5.93221 14.882 5.53531 14.4454 5.61422 14.4187C5.74327 14.3776 8.16415 14.5795 8.40286 14.2182C8.64092 13.8572 7.51614 14.2348 7.44138 13.8583C7.3907 13.6049 10.3111 13.1554 8.73019 12.9822C7.64054 12.8634 5.63204 13.882 5.29373 12.7871C6.8962 12.6965 8.49866 12.6059 10.1011 12.5152C9.22405 12.0986 8.34697 11.6821 7.46989 11.2655C9.26849 11.1334 10.8234 11.6037 12.5316 11.0073C8.42677 9.6724 13.8644 9.94197 13.9242 9.77951C13.9442 9.68235 12.3285 8.59886 12.0686 8.40068C13.5003 7.98386 17.8507 7.78018 15.3054 6.44229C15.7674 6.74438 16.8862 5.99868 16.8714 5.94239C16.7293 5.35134 14.2893 5.73461 14.6873 5.20079C15.1484 4.5813 15.7947 5.42172 16.5042 5.3546C20.1448 5.00471 19.146 1.91916 22.7965 2.40741C22.7239 2.29754 22.6513 2.18767 22.5787 2.07781C26.5467 2.25268 30.5146 2.42755 34.4826 2.60242C36.035 1.66015 40.1668 1.08638 42.1961 1.19063C42.6047 1.21093 44.6109 1.70545 44.7623 1.79215C45.0426 1.95831 43.5011 2.02171 44.1977 2.33325C44.3448 2.39719 47.7413 2.60498 47.4985 2.07781C47.1179 2.01668 45.9267 2.28168 45.7318 2.15746C44.3623 1.27084 54.8335 1.97915 55.3523 1.62186C55.1204 1.45065 54.8884 1.27944 54.6565 1.10822C55.3173 1.19246 55.978 1.27669 56.6388 1.36092ZM26.2763 43.7011C25.8798 44.2301 24.8859 43.8328 24.2986 43.9813C23.4873 44.1892 22.108 46.2261 22.7019 44.1845C23.8934 44.0234 25.0849 43.8622 26.2763 43.7011ZM43.6902 44.4894C42.8912 44.2053 43.5109 43.065 44.1658 43.539C44.2384 43.5929 44.7712 44.8718 43.6902 44.4894ZM35.314 43.9483C35.3477 43.9332 36.0381 43.9634 36.0622 43.9813C36.6814 44.4391 34.5998 44.3455 35.314 43.9483ZM75.7772 43.3632C74.8968 43.4125 75.5343 44.449 76.0817 44.0225C76.1161 43.9954 75.835 43.3608 75.7772 43.3632ZM75.151 43.3358C74.4673 42.4076 73.0902 44.2888 74.1849 44.0994C74.2911 44.0802 75.1826 43.381 75.151 43.3358ZM40.8422 44.0362C40.9322 43.6804 41.7563 43.8522 42.1082 43.9373C42.0987 44.2621 41.1874 43.9964 40.8422 44.0362ZM61.7382 43.9373C61.7731 43.6576 58.9086 43.6731 58.7135 44.0417C59.1655 43.8853 61.7053 44.1886 61.7382 43.9373ZM69.0844 43.5445C69.0118 43.4962 68.0222 43.5697 68.0511 43.8165C68.5341 44.1402 69.4114 43.7634 69.0844 43.5445ZM83.6857 43.561C83.7394 43.499 82.9983 41.9286 84.7544 42.9622C85.0122 43.1136 84.0914 43.5239 84.183 43.5802C84.3749 43.6901 84.5265 43.7414 84.6483 43.7505C83.8305 43.8807 82.9809 43.9419 82.8987 43.8467C82.5128 43.3968 83.6619 43.5869 83.6857 43.561ZM91.3513 42.3909C91.5198 42.1348 92.5959 42.2717 92.8409 42.3772C92.8829 42.397 92.6996 43.0703 93.1842 43.0199C93.5732 42.9784 92.9921 42.2888 93.7499 42.3992C94.5157 42.5099 93.4925 43.0013 93.5594 43.0364C93.649 43.0824 94.8337 42.7727 94.7969 43.1737C94.7694 43.4707 93.5003 43.2699 93.1864 43.333C92.7846 43.4142 93.2718 43.909 92.6002 43.8027C92.1782 43.7363 92.4121 42.8661 92.323 42.8221C92.2484 42.7867 90.7731 43.2875 91.3536 42.3937C91.3528 42.3927 91.3521 42.3918 91.3513 42.3909ZM84.8696 43.7121C84.808 43.7415 84.7357 43.7571 84.6483 43.7505C84.7225 43.7387 84.7965 43.725 84.8696 43.7121ZM28.5848 43.3193C29.0001 43.5877 27.7674 43.9318 27.3006 43.5802C27.2925 43.2967 28.5187 43.2775 28.5848 43.3193ZM85.628 43.0034C86.843 43.2214 85.9494 43.5213 84.8696 43.7121C85.2124 43.5483 85.2201 42.9306 85.628 43.0034ZM51.1345 43.366C51.1857 43.4309 51.2182 43.5321 51.2224 43.6983C51.0877 43.5165 51.0756 43.4188 51.1345 43.366ZM53.9688 43.6626C54.9404 43.1562 52.9663 43.1767 52.9788 43.539C52.9847 43.6758 53.9299 43.6828 53.9688 43.6626ZM76.9063 43.4127C76.8174 43.3631 78.1982 41.8339 76.1935 42.9815C77.2634 43.1617 76.1346 43.3282 76.1513 43.4621C76.1949 43.847 77.9922 43.477 78.3901 43.6434C78.7018 42.9547 77.1997 43.576 76.9086 43.4127C76.9078 43.4127 76.907 43.4127 76.9063 43.4127ZM105.167 42.7617C104.923 43.1653 104.151 43.0354 103.629 43.0117C103.873 42.6081 104.645 42.738 105.167 42.7617ZM241.591 42.8194C238.019 43.1925 237.556 41.5491 240.824 42.1987C240.888 42.2123 241.808 42.6528 241.591 42.8194ZM210.933 42.3937C210.596 41.6774 211.71 41.5622 212.442 41.8581C212.607 41.9246 213.22 42.6501 212.521 42.7919C212.543 41.9238 211.462 41.5921 210.933 42.3937ZM86.3147 42.5447C86.6685 42.0671 87.7574 42.4071 88.3311 42.4788C87.981 42.8721 86.822 42.6942 86.3147 42.5447ZM229.852 41.9624C229.476 41.9082 229.222 42.5313 229.287 42.5832C229.578 42.821 230.281 42.3172 229.852 41.9624ZM82.7995 42.4706C82.7497 42.1851 84.192 41.9104 84.2925 42.6161C83.9841 42.5651 82.8352 42.6497 82.7995 42.4706ZM104.184 42.5475C103.96 42.4024 105.119 42.1425 105.47 42.2865C105.442 42.5903 104.33 42.6418 104.184 42.5475ZM223.79 42.1739C223.453 42.1198 222.611 42.1033 222.517 42.3552C222.402 42.6701 223.637 42.5628 223.79 42.1739ZM286.527 41.6301C286.57 41.7433 285.265 42.5589 284.685 42.3525C283.584 41.9576 286.481 41.5502 286.527 41.6301ZM233.416 41.6411C234.48 42.2337 233.299 41.6598 233.346 42.2838C234.061 42.3063 235.841 42.3371 234.617 41.7235C234.379 41.6048 233.75 41.6815 233.416 41.6411ZM232.436 41.4323C232.322 41.6345 231.555 42.2718 232.218 42.2261C232.524 42.204 233.018 41.4959 232.436 41.4323ZM278.444 41.9075C277.491 41.355 281.86 41.6515 281.985 41.7482C282.052 41.7993 282.095 41.8475 282.12 41.8883C282.28 41.7132 283.106 41.6816 283.201 42.1245C282.954 42.0879 282.278 42.1269 282.2 42.0778C282.166 42.0569 282.141 42.0373 282.123 42.0174C281.832 42.4018 278.627 42.0122 278.444 41.9075ZM271.205 41.3389C272.296 40.5239 272.489 41.9096 272.395 41.9542C271.207 42.5213 271.982 41.4994 271.945 41.4516C271.862 41.3719 271.019 41.8461 271.208 41.3389C271.207 41.3389 271.206 41.3389 271.205 41.3389ZM276.96 41.6795C277.005 41.6615 277.921 41.7044 277.958 41.7262C278.709 42.1919 276.118 42.0726 276.96 41.6795ZM97.1293 41.4213C97.7848 41.5591 97.1418 42.0689 96.7062 41.8855C96.6704 41.8675 96.5511 41.2997 97.1293 41.4213ZM231.912 41.5697C231.76 41.4733 227.872 41.1101 228.106 41.88C228.436 41.7892 232.855 42.1855 231.912 41.5697ZM202.859 41.3829C203.545 41.3888 202.797 42.115 202.431 41.8443C202.296 41.7438 202.686 41.3818 202.859 41.3829ZM80.8549 41.8114C80.1431 42.2103 80.2902 40.8719 80.9073 41.3307C80.9315 41.3487 80.8828 41.7958 80.8549 41.8114ZM208.336 41.8004C205.972 42.2405 206.531 39.9383 209.605 40.7154C209.509 40.818 209.413 40.9205 209.317 41.0231C212.865 41.3684 209.559 41.1853 208.691 41.3142C208.36 41.3632 208.637 41.7475 208.338 41.8031C208.337 41.8022 208.337 41.8013 208.336 41.8004ZM199.254 41.3389C196.977 39.7049 201.324 40.769 202.57 40.5561C201.362 41.2309 199.788 41.1288 201.928 41.8196C198.799 41.9532 200.102 41.3024 199.977 41.2483C199.829 41.1876 199.351 41.4091 199.254 41.3389ZM205.26 41.328C205.391 41.2803 206.383 41.6129 206.74 41.5587C206.241 42.1169 204.386 41.6521 205.26 41.328ZM263.616 41.718C263.698 41.2806 263.902 40.9585 264.685 41.122C264.443 41.3417 263.943 41.5307 263.616 41.718ZM25.5236 41.3994C24.9846 41.368 23.9114 41.2032 24.2405 41.663C24.2765 41.7022 25.5219 41.6575 25.5236 41.3994ZM220.621 41.2153C220.506 41.1616 217.541 41.1255 218.565 41.6081C218.874 41.7537 221.572 41.6918 220.621 41.2153ZM235.972 41.2703C235.724 41.2657 234.716 41.3481 234.695 41.4516C234.627 41.8092 235.864 41.6126 235.972 41.2703ZM22.8045 40.9517C22.7336 40.9063 21.0872 40.9867 21.2682 41.1989C21.6117 41.6001 23.0478 41.108 22.8045 40.9517ZM99.5142 40.3968C99.6518 40.3807 99.8338 40.8557 99.8814 40.861C99.9933 40.8678 102.513 40.6851 101.55 41.295C101.39 41.3972 97.765 41.163 97.2935 41.1027C97.1112 40.4505 98.6595 41.071 99.0363 41.0038C99.1027 40.9911 99.1452 40.4455 99.513 40.3996C99.5134 40.3987 99.5138 40.3977 99.5142 40.3968ZM267.693 41.2565C267.804 40.8419 270.766 40.5674 270.732 41.0698C269.719 41.132 268.706 41.1943 267.693 41.2565ZM266.189 41.1879C265.557 40.8946 267.037 40.7975 267.473 40.9269C267.478 41.2059 266.281 41.2308 266.189 41.1879ZM230.355 39.7211C230.058 39.8225 230.973 40.4275 230.768 40.5451C230.637 40.6184 229.972 40.3916 229.76 40.5809C229.7 40.641 230.378 41.2097 230.574 41.1851C230.853 41.1523 230.583 40.7048 230.887 40.7017C231.896 40.6921 232.792 41.0113 233.738 41.0038C233.824 41.0023 233.161 40.6862 233.89 40.6907C234.002 40.6908 234.679 41.1615 235.552 41.0917C237.478 39.6339 238.892 41.0653 241.336 40.5397C241.244 40.4024 239.416 40.0341 239.309 40.0205C237.265 39.7808 233.605 39.7545 231.465 39.7514C230.916 39.7501 231.183 40.0587 230.946 40.07C230.759 40.0783 230.981 39.507 230.355 39.7211ZM25.8099 41.0835C25.553 40.5128 24.6518 40.874 24.0762 40.8445C24.2788 41.3593 25.2474 40.957 25.8099 41.0835ZM252.892 40.7457C252.604 40.7677 251.709 40.5958 251.636 40.7676C251.54 40.992 252.831 41.1335 252.892 40.7457ZM113.719 40.5589C113.746 40.5433 114.44 40.5739 114.467 40.5918C115.087 41.0498 113.005 40.956 113.719 40.5589ZM130.321 40.6687C130.848 40.5983 131.379 40.42 131.556 40.883C131.22 40.8121 130.26 40.9912 130.321 40.6687ZM153.227 40.655C153.118 40.0487 154.702 40.4413 155.002 40.4957C154.891 40.7652 153.307 41.0919 153.227 40.655ZM263.502 39.8145C264.47 39.8504 264.266 38.9319 264.881 39.3476C264.981 39.4178 265.305 41.3304 264.241 40.6138C264.049 40.485 264.799 40.0305 263.502 39.8145ZM210.106 40.7347C210.352 40.3335 211.122 40.4526 211.642 40.4847C211.526 40.7827 210.476 40.7061 210.106 40.7347ZM19.8311 40.493C19.3769 39.9267 17.2782 40.3467 17.7975 40.7209C17.8714 40.7697 19.5367 40.4716 19.8311 40.493ZM88.7771 40.7154C89.6406 40.2695 87.8521 40.1314 87.2875 40.5671C87.5431 40.5386 88.7189 40.7448 88.7771 40.7154ZM147.725 40.3254C147.766 40.3071 148.682 40.3502 148.723 40.3721C149.473 40.8378 146.883 40.7185 147.725 40.3254ZM124.862 39.9326C125.192 39.5657 127.36 39.8618 127.846 40.2293C127.379 40.7659 124.452 40.391 124.862 39.9326ZM259.517 40.0755C260.208 40.0565 260.863 40.1695 261.498 40.3282C261.364 40.6371 259.59 40.3063 259.517 40.0755ZM151.086 40.287C151.135 40.2894 151.183 40.3244 151.23 40.3282C151.181 40.3151 151.133 40.3001 151.086 40.287ZM244.052 39.8585C243.473 39.7364 243.593 40.3026 243.629 40.3199C244.065 40.5033 244.708 39.9962 244.052 39.8585ZM25.1483 40.243C24.9476 39.7321 23.9738 40.1284 23.4136 40.0068C23.5761 40.4103 24.6971 40.2966 25.1483 40.243ZM196.815 40.2925C196.088 39.7385 199.047 39.095 199.671 39.452C199.717 39.7942 196.922 40.3683 196.815 40.2925ZM86.0957 39.9491C86.0376 39.5488 84.7949 40.0319 85.0589 40.221C85.2261 40.3414 86.1304 40.1978 86.0957 39.9491ZM201.16 39.6854C201.438 39.5633 202.086 39.9583 201.858 40.1991C201.565 40.5077 201.088 39.7204 201.16 39.6854ZM226.109 39.3641C225.987 39.3029 224.352 39.7138 225.028 40.1222C225.496 40.4059 225.571 39.8272 225.681 39.8255C225.804 39.8274 228.429 40.5356 226.109 39.3641ZM180.239 39.9436C180.855 39.7897 181.601 39.9684 182.247 39.9574C181.984 40.2049 180.501 40.2725 180.239 39.9436ZM90.8882 39.842C90.7384 39.6801 86.6569 39.5826 88.9755 40.081C89.1108 40.1091 91.3433 40.3323 90.8882 39.842ZM263.502 39.8145C263.38 39.81 263.239 39.7909 263.075 39.7514C263.238 39.7669 263.379 39.7941 263.502 39.8145ZM252.502 39.7541C252.725 39.4627 251.602 39.3848 251.271 39.5399C251.168 39.8959 252.472 39.7948 252.502 39.7541ZM182.296 39.5508C182.668 39.3841 183.343 39.562 183.804 39.5426C183.726 39.8135 182.457 39.8261 182.296 39.5508ZM156.172 39.246C156.911 39.407 157.82 39.3329 157.834 39.0015C157.849 39.0533 157.885 39.1083 157.944 39.1636C158.004 39.2183 158.796 39.0642 159.14 39.1773C161.198 39.8492 151.191 39.572 156.991 38.6362C156.718 38.8395 156.445 39.0427 156.172 39.246ZM121.927 39.1526C121.508 38.7492 120.333 39.2547 120.638 39.4135C120.85 39.5223 122.347 39.5587 121.927 39.1526ZM138.061 38.9136C137.936 38.8416 136.789 39.1241 136.76 39.3366C137.419 39.5605 138.632 39.2481 138.061 38.9136ZM118.704 38.6801C118.441 38.6193 118.105 39.2698 118.136 39.2982C118.403 39.5356 119.146 39.0423 118.704 38.6801ZM261.496 38.0621C261.104 37.8759 259.856 38.3467 259.584 38.7763C259.534 38.6932 259.397 38.5849 259.147 38.4549C259.148 38.4549 259.149 38.4549 259.149 38.4549C258.812 38.2814 248.724 38.0918 255.491 38.9191C255.702 38.9456 255.413 38.56 256.275 38.628C256.332 38.6329 256.361 38.9477 256.536 38.9631C256.941 38.9963 259.098 39.1944 259.532 38.9411C259.535 38.9994 259.563 39.0549 259.623 39.1059C260.154 39.5599 261.799 38.2058 261.496 38.0621ZM140.334 38.8559C140.104 38.7393 139.373 38.8501 139.298 39.1279C139.66 39.264 140.87 39.1281 140.334 38.8559ZM90.7616 38.7021C90.2915 38.4736 89.1002 38.9008 89.4603 39.1279C89.681 39.2675 91.3038 38.9644 90.7616 38.7021ZM133.019 39.0043C135.714 39.3327 133.662 38.9777 134.075 38.5703C133.723 38.7149 133.371 38.8596 133.019 39.0043ZM273.971 39.1141C273.541 39.0204 274.046 38.2165 274.519 38.6527C274.668 38.7912 274.211 39.1651 273.971 39.1141ZM293.379 38.8642C293.013 38.1513 294.804 38.5702 294.106 39.0592C294.074 39.0757 293.406 38.8913 293.379 38.8642ZM279.817 38.573C279.526 39.0584 279.336 39.116 278.514 38.996C279.73 38.8593 278.602 38.43 279.817 38.573ZM157.826 38.9493C157.83 38.9689 157.834 38.9834 157.834 39.0015C157.828 38.9837 157.826 38.9667 157.826 38.9493ZM116.17 38.8065C115.832 38.3953 114.886 38.4256 115.168 38.8395C115.195 38.8778 116.031 39.1103 116.17 38.8065ZM259.584 38.7763C259.629 38.8499 259.606 38.8976 259.532 38.9411C259.528 38.8861 259.547 38.8343 259.584 38.7763ZM121.247 38.4714C121.214 38.7782 122.653 38.8975 122.711 38.8614C123.537 38.3294 121.842 38.4529 121.247 38.4714ZM81.2449 38.2709C81.1707 38.3029 81.6494 39.0948 81.9429 38.7845C82.1702 38.5438 81.523 38.1491 81.2449 38.2709ZM282.608 38.3753C283.064 38.3758 283.706 38.3754 283.824 38.7516C283.519 38.6938 282.599 38.6513 282.608 38.3753ZM292.678 38.3478C292.139 38.79 290.909 38.7887 290.123 38.7159C290.109 38.1338 292.172 38.4847 292.678 38.3478ZM262.732 38.2791C262.694 38.2555 261.552 38.0818 261.708 38.4714C261.936 39.0427 263.054 38.491 262.732 38.2791ZM83.4644 38.6911C83.9755 38.4228 82.7993 37.5982 82.26 38.2352C81.9831 38.5614 83.3783 38.7361 83.4644 38.6911ZM113.217 38.2681C112.542 38.4936 114.214 38.8953 114.447 38.4879C114.137 38.4552 113.456 38.1883 113.217 38.2681ZM136.166 37.8561C134.04 36.6812 135.198 38.8246 135.575 38.6362C135.628 38.6093 136.218 37.8838 136.166 37.8561ZM14.5572 38.1445C14.2563 38.3078 15.3781 38.8992 15.5233 38.5099C15.613 38.2662 14.7497 38.0405 14.5572 38.1445ZM168.17 38.6197C168.081 38.6235 167.992 38.6274 167.904 38.6307C167.97 38.6115 168.057 38.6053 168.17 38.6197ZM107.094 36.6943C108.59 38.3532 108.433 37.0746 108.563 37.0816C108.844 37.0994 109.497 37.548 110.027 37.4744C109.42 37.6611 108.814 37.8479 108.207 38.0347C108.686 38.1544 112.848 38.7651 112.935 38.4961C113.06 38.113 111.751 38.2332 111.712 38.1995C111.657 38.1514 111.453 37.0864 111.331 37.0459C111.132 36.9811 107.652 36.959 107.094 36.6943ZM131.721 38.0402C132.063 38.1668 132.16 38.5887 132.319 38.4879C132.373 38.4534 132.381 38.0509 132.566 37.9468C132.284 37.9779 132.003 38.009 131.721 38.0402ZM104.415 38.1857C103.992 37.6939 105.891 37.8807 105.951 37.9358C106.276 38.2692 104.761 38.5875 104.415 38.1857ZM120.529 38.1143C120.459 38.0856 119.001 37.9321 119.013 38.205C119.399 38.413 121.348 38.4736 120.529 38.1143ZM132.794 37.9193C133.307 37.9663 134.275 38.3716 134.164 37.7655C134.163 37.7655 134.162 37.7655 134.162 37.7655C133.706 37.8168 133.25 37.868 132.794 37.9193ZM85.214 37.4112C84.2646 36.4459 84.7144 37.6656 85.555 37.977C85.8097 37.5436 85.3697 37.5682 85.214 37.4112ZM82.1756 36.6915C81.9115 36.5179 79.1895 36.7082 79.6048 37.2189C79.7524 37.4009 81.3177 36.9419 81.3898 36.9772C81.4991 37.0295 80.9998 37.5945 81.8346 37.4826C81.7858 37.2911 82.2661 36.7496 82.1756 36.6915ZM84.4282 36.7932C83.4847 36.0591 83.2727 37.413 83.9822 37.4167C84.2595 37.4191 84.5628 36.8991 84.4282 36.7932ZM88.2821 36.9085C87.9426 36.7801 87.0383 36.5929 86.415 37.0431C87.2491 37.0816 88.0833 37.12 88.9174 37.1585C89.0135 36.9034 88.5791 37.0214 88.2798 36.9085C88.2806 36.9085 88.2813 36.9085 88.2821 36.9085ZM298.348 34.8787C297.598 34.4948 299.325 34.3477 299.398 34.442C299.615 34.7551 298.683 35.0502 298.348 34.8787ZM8.70168 25.8449C8.49338 25.6918 8.35721 25.1883 7.89874 25.4521C8.3599 25.8238 8.82106 26.1955 9.28222 26.5673C9.6406 25.7155 8.92935 26.0137 8.70168 25.8449ZM6.94068 22.7329C7.00582 22.7123 6.64997 21.4026 7.49156 22.2769C8.06019 22.8673 4.96798 23.4427 4.40981 22.862C5.02656 22.5921 6.37992 22.901 6.94068 22.7329ZM1.52423 17.0637C1.48857 16.9593 2.66338 16.8061 2.79936 16.8797C3.51337 17.2678 1.71713 17.6233 1.52423 17.0637ZM5.27206 17.3137C4.7211 17.0593 5.94165 16.8954 6.30539 17.0418C6.34067 17.2855 5.35717 17.3507 5.27206 17.3137ZM290.756 15.9101C290.16 15.02 289.627 16.9362 290.544 16.5501C290.588 16.5319 290.782 15.9537 290.756 15.9101ZM2.67276 15.7426C3.22371 15.9969 2.00317 16.1609 1.63942 16.0145C1.60559 15.771 2.58887 15.7054 2.67276 15.7426ZM290.337 13.7897C289.545 13.1492 289.824 15.2989 289.923 15.3855C290.33 15.7276 291.728 14.8839 292.013 14.6741C289.921 14.9967 290.709 14.0915 290.337 13.7897ZM286.685 15.0806C285.95 15.31 287.827 15.7486 288.185 15.1493C287.82 15.178 286.893 15.0143 286.685 15.0806ZM282.226 14.3912C281.831 14.3142 280.656 14.1299 280.459 14.4681C280.891 14.4069 282.059 14.7392 282.226 14.3912ZM281.332 13.3777C280.715 12.9181 280.566 14.2572 281.278 13.8583C281.306 13.8429 281.355 13.4032 281.332 13.3777ZM277.861 12.8943C277.456 12.3617 276.994 13.6586 277.65 13.6935C277.845 13.7015 277.904 12.9553 277.861 12.8943ZM289.345 11.477C288.765 11.2483 288.018 12.177 289.256 12.279C288.821 12.4209 288.387 12.5628 287.952 12.7047C289.574 13.2253 289.455 11.9374 289.92 11.9906C290.571 12.0663 290.52 13.1291 290.389 13.4628C290.923 12.8117 293.189 12.8013 294.5 12.6773C293.348 12.404 291.48 11.9303 290.343 11.7571C290.019 11.707 289.704 11.9985 289.428 11.9659C288.984 11.912 289.378 11.4924 289.348 11.477C289.347 11.477 289.346 11.477 289.345 11.477ZM273.299 12.875C272.109 12.2718 272.861 13.5742 273.534 13.342C273.563 13.3241 273.329 12.8898 273.299 12.875ZM1.09424 11.7846C2.68468 12.329 1.52863 13.0506 4.85576 11.9549C3.45795 12.7306 4.77846 12.5127 4.50561 12.8256C4.28673 13.0731 3.4666 12.8681 3.94332 13.3667C3.3167 12.824 0.59621 12.9741 0.474926 12.886C0.476067 12.886 0.477207 12.886 0.478348 12.886C0.405503 12.8338 0.586738 11.6115 1.09424 11.7846ZM282.22 10.9853C281.823 9.40494 281.668 11.9133 280.887 10.6035C279.848 12.5055 283.758 10.6038 284.231 12.2103C279.985 12.0237 287.037 13.8022 284.073 11.3973C286.514 12.2702 284.873 11.0995 285.25 10.793C285.653 10.4666 287.034 10.8214 286.964 10.2327C286.963 10.2327 286.962 10.2327 286.962 10.2327C286.117 10.2739 285.272 10.3151 284.427 10.3563C285.254 11.6261 283.528 11.2454 282.942 10.2107C282.702 10.4689 282.461 10.7271 282.22 10.9853ZM287.002 12.1774C286.918 12.1483 285.081 12.3263 285.199 12.5811C285.445 12.7437 288.053 12.5488 287.002 12.1774ZM295.088 11.9C294.428 11.8969 293.408 11.6491 293.049 12.1279C293.709 12.1311 294.729 12.379 295.088 11.9ZM261.117 11.8093C260.276 12.2022 262.865 12.3186 262.116 11.8533C262.079 11.8314 261.158 11.791 261.117 11.8093ZM280.308 11.2243C279.453 10.7413 279.857 12.2786 280.49 11.878C280.527 11.8544 280.347 11.2463 280.308 11.2243ZM2.38306 11.5978C2.44025 11.2212 4.74782 11.4857 5.15686 11.4825C4.92446 11.8326 2.31745 12.0296 2.38306 11.5978ZM296.249 10.4909C294.936 9.1366 293.155 10.7009 292.96 10.6667C292.766 10.6319 293.07 10.0399 293.026 10.024C292.925 9.99076 290.856 10.0404 290.756 10.0816C290.685 10.1138 291.059 10.9457 290.632 11.2078C291.465 10.7351 295.247 11.0308 295.443 10.9386C295.595 10.865 294.449 9.99136 296.247 10.4909C296.248 10.4909 296.248 10.4909 296.249 10.4909ZM292.472 10.4854C292.988 10.8341 291.539 10.8778 291.189 10.7491C290.409 10.4611 292.405 10.4441 292.472 10.4854ZM288.986 10.1641C288.821 10.0858 287.327 10.0148 287.2 10.403C287.907 10.9066 289.362 10.3463 288.986 10.1641ZM272.366 10.2162C271.978 10.266 270.911 9.96764 270.85 10.3069C271.239 10.2574 272.305 10.5555 272.366 10.2162ZM10.2562 8.63689C9.6118 8.35303 11.1049 8.23707 11.5405 8.37321C11.5641 8.59951 10.3111 8.66127 10.2562 8.63689ZM280.163 7.98044C279.933 7.87727 275.247 8.1347 274.59 8.29356C275.233 8.55011 279.877 8.56984 280.088 8.44462C280.149 8.40714 280.192 7.99667 280.163 7.98044ZM290.297 7.82387C290.726 7.3243 291.007 7.92347 291.061 7.93099C291.592 8.00744 292.694 7.8948 292.452 8.37596C291.515 8.18183 289.441 8.81594 290.297 7.82387ZM272.033 7.95572C270.442 8.14111 273.498 8.66743 273.097 8.14524C273.071 8.11367 272.198 7.93625 272.033 7.95572ZM280.686 7.83486C281.037 7.43119 285.724 7.77932 286.477 7.77993C285.803 8.52448 285.26 7.95895 284.354 7.99691C284.11 8.00804 284.175 8.31779 284.149 8.31828C283.726 8.33263 284.043 7.97488 283.782 7.96945C283.617 7.967 280.193 8.40361 280.686 7.83486ZM290.542 7.47779C290.804 7.19141 293.73 7.06934 293.848 7.14544C294.729 7.71146 290.769 7.57749 290.542 7.47779ZM280.256 7.17291C280.76 6.30759 283.088 6.88709 281.495 7.31848C281.343 7.35773 280.699 6.98262 280.256 7.17291ZM272.203 7.13171C272.125 7.10626 270.466 6.93329 270.436 7.20862C270.676 7.31561 273.094 7.4116 272.203 7.13171ZM273.063 6.20058C273.023 6.20718 273.412 6.73746 272.634 6.67027C272.569 6.66394 272.448 6.06733 271.471 6.28573C271.272 6.33071 270.965 6.72539 270.987 6.74992C272.005 7.68621 275.071 5.89298 273.063 6.20058ZM290.595 6.99438C290.438 6.74255 290.818 5.9951 291.161 6.37362C291.308 6.53707 291.034 6.98564 290.595 6.99438ZM266.943 6.89C267.907 6.4367 264.88 6.35099 264.726 6.46701C264.823 6.74937 266.846 6.93427 266.943 6.89ZM11.7652 5.13762C11.7644 5.13762 11.7637 5.13762 11.7629 5.13762C12.5741 5.24033 12.0716 5.61743 12.1096 5.62927C13.8375 6.18316 13.3792 5.32905 13.6494 5.22825C14.2287 5.01026 14.1354 6.04891 15.1127 5.61828C13.4972 6.25421 14.9677 5.98762 15.0135 6.35714C15.1945 7.86512 12.8626 5.65104 12.0572 5.96711C11.9449 6.01088 12.7735 6.49215 12.486 6.62906C11.5512 7.0727 8.65254 4.74483 11.7652 5.13762ZM291.426 6.3077C291.802 5.86476 294.656 6.29438 293.9 6.65928C293.778 6.71778 290.873 6.95332 291.426 6.3077ZM158.085 5.65399C158.771 5.27067 157.181 4.82003 156.886 5.11839C156.74 5.26703 157.783 5.82222 158.085 5.65399ZM146.937 4.01422C146.122 4.09204 145.262 5.69057 146.277 5.4425C146.384 5.41538 147.03 4.23596 146.937 4.01422ZM200.465 4.83548C199.614 4.26422 199.664 5.32563 200.289 5.31066C200.51 5.30554 200.492 4.85356 200.465 4.83548ZM167.978 4.97281C167.892 4.93576 166.908 5.00353 166.944 5.24748C167.308 5.39384 168.529 5.22715 167.978 4.97281ZM200.735 4.68441C200.231 4.87571 201.099 5.64341 201.716 4.89316C201.403 4.9547 200.787 4.66487 200.735 4.68441ZM278.498 4.82724C278.075 5.26308 276.879 5.13138 276.193 5.20628C276.119 4.64162 278.007 4.92961 278.498 4.82724ZM150.397 4.65694C149.626 5.05491 151.279 5.38072 151.127 4.85471C151.106 4.82613 150.428 4.63997 150.397 4.65694ZM227.927 4.62673C227.366 4.96356 229.147 5.41653 228.657 4.82449C228.633 4.80035 227.958 4.60799 227.927 4.62673ZM235.704 4.82174C235.279 4.70813 233.464 4.74308 234.17 5.07169C234.28 5.12219 235.672 5.13026 235.704 4.82174ZM13.6973 4.82174C13.468 4.2417 14.799 4.37978 14.9895 4.48116C15.0644 4.52332 13.9963 5.57642 13.6973 4.82174ZM194.937 4.74484C194.496 4.81741 193.354 4.6795 193.153 4.9838C193.692 4.92081 195.082 5.35101 194.937 4.74484ZM153.916 4.6542C153.244 4.0239 152.096 4.08611 152.38 4.90964C153.648 4.85445 152.223 4.16943 153.916 4.6542ZM203.572 4.00598C203.219 3.9579 202.948 4.74878 202.988 4.78604C203.371 5.14053 203.923 4.31369 203.572 4.00598ZM177.069 4.65694C177.049 4.31896 175.917 4.47236 176.068 4.68991C176.117 4.76294 177.085 4.93046 177.069 4.65694ZM263.671 4.63497C263.152 4.32648 264.736 4.02488 265.205 4.38502C265.432 4.90396 263.736 4.67041 263.671 4.63497ZM213.366 4.20374C213.418 3.70216 211.649 3.98575 212.346 4.4015C212.521 4.50553 213.347 4.37145 213.366 4.20374ZM230.306 3.60222C229.119 4.20035 234.103 4.625 232.794 3.87963C232.7 3.82652 230.41 3.5517 230.306 3.60222ZM238.446 3.97577C238.241 3.90986 238.344 2.22442 239.191 2.87435C239.302 2.95863 238.782 3.40418 238.873 3.50608C238.926 3.56416 240.769 3.80087 240.854 3.76152C240.945 3.71685 240.838 3.17665 240.93 3.11605C241.035 3.04833 242.169 3.52287 242.763 3.52806C243.883 3.53695 244.004 3.08733 244.095 3.08584C244.363 3.08286 244.812 3.4021 245.355 3.40171C248.087 3.39812 252.267 3.017 254.433 3.97027C252.505 3.58746 250.668 3.99362 248.75 4.11859C249.312 3.18006 245.928 4.84173 247.907 3.75878C246.996 3.99368 239.118 4.18154 238.449 3.97577C238.448 3.97577 238.447 3.97577 238.446 3.97577ZM143.719 3.54179C144.22 2.96632 141.651 3.09577 141.433 3.76152C141.772 3.85392 143.657 3.60701 143.719 3.54179ZM155.574 2.13823C155.813 2.0389 156.039 0.914051 157.291 1.48452C157.292 1.48452 157.293 1.48452 157.294 1.48452C157.66 1.65112 157.243 1.92521 157.31 2.02287C157.335 2.06275 158.476 2.6223 157.528 2.71229C156.083 2.85035 157.392 1.87547 156.621 1.86356C156.527 1.86264 155.069 2.47152 155.153 2.60517C155.162 2.62074 155.601 2.49194 155.673 2.54749C155.947 2.75631 155.814 3.10757 155.853 3.12429C155.979 3.16713 158.285 2.5687 158.621 3.09133C158.73 3.25986 154.944 3.64864 154.796 3.56102C154.703 3.5058 154.742 2.53077 154.646 2.43488C154.596 2.38711 153.073 2.75249 152.876 2.66285C152.818 2.63692 152.774 2.60898 152.742 2.58594C152.973 2.8876 151.594 2.86588 151.636 2.52552C151.66 2.39174 152.609 2.46917 152.643 2.49256C152.658 2.50245 152.671 2.5161 152.683 2.52552C152.486 2.15789 155.7 2.17447 155.006 1.62735C155.938 1.32763 154.874 2.42996 155.574 2.13823ZM160.052 1.53671C159.956 1.63925 159.86 1.74179 159.763 1.84434C161.394 1.59335 163.276 2.08698 165.155 2.0833C165.632 2.08311 165.083 1.45598 165.708 1.62735C166.209 1.76469 166.763 2.34638 166.49 2.47608C166.424 2.50844 165.405 2.12956 164.895 2.16845C163.389 2.28356 163.769 2.82136 163.681 2.83589C163.584 2.85118 162.636 2.47297 162.119 2.48981C160.817 2.53334 160.223 2.86353 158.445 2.43213C159.471 2.07768 158.909 1.30767 160.052 1.53671ZM220.84 2.68208C220.902 2.34357 221.969 2.6439 222.357 2.59418C222.296 2.93353 221.228 2.63233 220.84 2.68208ZM61.8066 2.24261C61.4788 2.7981 63.9357 2.93564 63.2882 2.47333C63.1449 2.37073 62.1153 2.24656 61.8066 2.24261ZM72.8437 2.58045C73.1723 2.42687 71.8489 2.02692 71.8514 2.45685C71.8533 2.59471 72.8013 2.60042 72.8437 2.58045ZM181.133 2.0833C181.195 2.0659 182.099 2.18963 182.127 2.21789C182.726 2.80771 179.751 2.46681 181.133 2.0833ZM86.261 1.89652C85.1155 2.26063 88.5635 2.41843 87.5099 1.9542C87.4574 1.93159 86.3161 1.87883 86.261 1.89652ZM91.0536 1.7949C90.779 1.81441 89.5596 1.63363 89.5435 1.80314C89.5192 2.0766 90.915 2.26346 91.0536 1.7949ZM203.81 1.90751C203.678 1.28162 205.286 1.75561 205.845 1.67679C205.978 2.30312 204.369 1.82847 203.81 1.90751ZM193.66 1.44607C200.439 0.952671 198.945 2.28992 193.257 1.75095C193.249 1.34942 193.233 1.47714 193.66 1.44607ZM202.341 1.52023C202.095 1.9212 201.325 1.8023 200.805 1.77018C200.898 1.4914 201.966 1.59229 202.341 1.52023ZM58.8811 1.38289C59.3063 0.876377 61.189 1.50083 60.8543 1.70975C60.7763 1.75487 58.725 1.66144 58.8811 1.38289ZM181.701 1.5477C181.543 0.938993 183.579 1.18728 183.734 1.32247C184.363 1.86621 181.866 1.41335 181.701 1.5477ZM213.432 1.37191C213.791 0.895121 214.812 1.14035 215.469 1.14668C215.17 1.55437 213.989 1.38049 213.432 1.37191ZM208.692 0.998358C208.733 0.980057 209.649 1.0231 209.69 1.04505C210.44 1.51074 207.849 1.39148 208.692 0.998358ZM10.6406 0.558887C10.6711 0.543524 11.3646 0.573925 11.3888 0.591848C12.0078 1.04961 9.92635 0.956072 10.6406 0.558887Z" fill="#C280D6"/>
</svg>
