<svg width="420" height="46" viewBox="0 0 420 46" fill="none" xmlns="http://www.w3.org/2000/svg">
<path d="M32.8582 45.1289C33.1178 45.0718 34.1621 45.2106 34.6141 45.1866C34.1017 45.7902 31.9217 45.3361 32.8582 45.1289ZM79.23 1.29451C78.8549 1.44374 78.4798 1.59298 78.1047 1.74222C79.1707 1.83919 80.6034 1.72965 81.5926 1.87131C81.7544 1.8951 81.3347 2.32719 81.7175 2.34649C82.1005 2.36566 82.0266 1.77517 82.5835 1.712C83.2081 1.64295 86.0684 2.05433 87.059 2.04435C90.7637 2.00449 94.5003 1.66727 98.2125 1.91251C94.3801 2.34938 98.242 2.794 99.3154 2.60467C99.5533 2.56084 99.5153 1.46306 103.36 1.73947C105.804 1.91488 103.547 3.4843 107.625 2.69806C104.489 1.60014 107.572 1.67708 110.03 1.64059C110.454 1.63412 113.876 1.79908 115.388 1.75045C115.905 1.73354 116.693 1.15852 117.379 1.14344C117.851 1.13348 118.208 1.44785 118.909 1.43184C122.178 1.36098 125.392 1.33654 128.666 1.44282C126.752 2.92048 130.167 2.07258 130.321 2.14323C131.101 2.54443 127.573 2.65863 128.968 2.90956C130.918 2.86378 132.867 2.818 134.817 2.77222C133.217 2.59079 136.935 1.52789 137.62 2.01139C137.318 0.705673 146.506 3.14783 147.904 2.71179C148.195 2.61969 146.289 1.97436 150.712 2.26958C151.191 2.30238 151.01 2.69633 151.261 2.65961C151.411 2.63752 152.322 1.3854 153.292 2.07731C153.646 2.32984 151.38 3.15221 156.357 2.82166C154.375 1.54725 163.259 2.13149 164.894 2.45085C164.567 2.27964 164.241 2.10844 163.914 1.93722C165.53 2.39909 165.822 1.9658 166.186 1.98941C167.653 2.08426 169.669 2.52092 171.036 2.48107C172.635 2.43522 172.64 1.64266 174.504 1.95096C174.062 1.77608 173.62 1.60121 173.177 1.42634C174.465 1.46846 175.752 1.51057 177.04 1.55269C174.058 2.60182 177.683 1.60274 177.922 1.58015C178.303 1.54197 177.755 1.97148 178.392 1.918C178.458 1.90919 178.363 1.50473 179.345 1.4593C181.396 1.36577 181.072 1.87431 181.933 1.86856C182.012 1.86593 181.736 1.50156 183.223 1.41535C187.951 1.14093 183.2 1.69459 183.018 1.74495C182.78 1.81139 184.401 3.33413 180.385 2.79419C181.734 2.96608 181.869 3.63992 182.021 3.65665C182.156 3.6704 184.492 3.57548 184.621 3.55227C185.769 3.32345 184.759 2.86297 184.982 2.78046C185.166 2.71393 187.98 3.31402 188.64 1.92898C189.987 3.20652 187.865 3.08948 185.607 3.28585C185.277 3.548 187.757 3.80292 187.888 3.80222C191.087 3.79989 189.316 2.74904 190.015 2.0773C190.382 1.72584 191.686 2.44276 190.482 1.5005C193.386 1.40104 191.625 1.94706 191.813 2.02786C192.096 2.14658 193.112 1.87653 193.239 1.9125C193.425 1.96576 192.777 2.29199 193.513 2.40691C193.635 2.42361 194.821 1.86222 193.292 1.59389C195.335 1.67369 195.166 1.19499 195.859 2.1597C197.266 0.334587 196.88 3.23851 197.434 3.34078C198.908 3.61035 198.48 2.17739 198.558 2.10752C199.094 1.65972 203.173 2.15198 204.183 1.94546C203.784 2.97756 200.949 1.95673 200.315 2.15696C198.202 2.8231 203.294 2.67297 201.759 3.96977C202.403 3.61362 203.046 3.25746 203.69 2.90131C204.869 3.7351 203.196 4.09867 206.371 3.79398C206.89 3.07431 204.126 3.90765 204.68 3.34078C205.007 3.00808 206.848 2.93663 206.885 2.76123C206.921 2.55009 205.257 2.80032 205.519 2.47557C206.092 1.77478 212.161 2.44193 207.541 2.8244C208.829 2.81242 209.494 4.20632 210.611 3.77201C211.334 3.4901 207.268 1.56497 213.367 1.91799C213.497 2.5762 210.929 2.11236 210.862 2.16245C210.769 2.23536 211.233 3.72067 211.314 3.79398C211.598 4.03536 217.827 3.24001 219.143 3.98625C218.622 3.1278 223.849 3.83306 224.419 3.5715C224.57 3.49928 224.004 2.97345 224.166 2.91779C225.176 2.58652 227.911 3.5252 229.179 3.54952C230.598 3.57708 230.419 3.12293 230.498 3.12379C231.123 3.14912 230.623 3.457 231.005 3.45614C231.582 3.45466 235.546 3.51763 235.745 3.45339C235.803 3.43337 235.156 2.91457 236.02 2.81616C236.17 2.79911 236.075 3.4142 238.634 3.14851C241.716 2.82895 236.494 2.3836 237.775 1.73946C239.754 2.65661 239.69 1.74775 240.227 1.81911C240.413 1.8451 241.796 2.61784 243.299 2.56896C242.22 2.69439 241.142 2.81982 240.064 2.94525C241.124 3.08075 243.182 2.91304 244.056 3.06611C244.482 3.14062 244.131 3.77542 245.056 3.75827C245.253 3.75118 246.032 2.2046 243.608 2.89856C243.414 2.34632 244.567 2.70593 245.103 2.54973C245.184 2.52539 245.503 1.60282 246.186 2.17618C246.35 2.31724 244.564 5.00845 249.172 3.06061C249.32 2.99783 248.804 2.6608 248.949 2.59093C249.048 2.54361 250.224 2.67995 250.354 2.63213C250.487 2.58082 249.919 2.21287 250.077 2.14047C250.889 1.76739 251.954 3.22674 250.281 3.11555C250.84 3.29591 251.399 3.47628 251.958 3.65664C251.36 2.55678 252.837 3.34718 253.61 3.31331C258.569 3.09683 255.248 2.38149 256.101 2.01138C257.472 1.41712 256.425 3.29931 258.46 2.73376C258.649 2.68088 256.188 1.88192 260.993 2.33274C260.283 2.36387 259.574 2.395 258.865 2.42613C259.274 3.48994 261.426 2.35315 261.591 2.33823C263.478 2.19216 262.202 2.57567 265.004 2.02786C265.254 1.97867 265.799 2.24122 266.334 2.11026C268.552 1.57072 263.408 1.78286 263.267 1.35217C263.2 1.14114 268.733 1.19429 268.922 1.29449C269.729 1.73868 266.415 1.49013 267.046 2.04159C267.277 2.2374 275.161 1.83524 276.743 2.04983C278.569 2.29954 279.39 3.74187 279.402 2.12124C279.917 3.71203 280.372 2.62667 280.606 2.63762C283.428 2.78488 283.434 2.80093 285.854 2.64861C286.389 2.6155 286.84 3.09816 287.029 3.01666C287.139 2.96744 286.934 2.45091 287.473 2.29154C288.221 2.07351 292.721 2.60478 293.056 2.89031C293.39 3.17585 291.156 3.01414 291.556 3.4836C293.174 3.53105 294.725 3.4149 296.353 3.46437C297.03 3.48633 296.682 3.8149 296.974 3.82144C297.099 3.82548 299.434 3.53613 299.335 3.41493C299.104 3.1331 291.891 3.32255 293.791 2.74749C294.157 2.63637 295.451 3.39355 295.246 2.47282C301.689 2.68156 308.132 2.89031 314.575 3.09906C310.873 3.78772 306.707 3.17183 302.83 3.2364C302.298 3.24437 300.501 3.15556 300.72 3.62093C304.017 3.74141 308.117 3.49894 311.283 3.80221C311.384 3.81225 311.012 4.23036 311.392 4.29662C312.101 4.42028 314.411 3.74594 314.8 3.92032C314.866 3.96094 313.551 4.51214 313.951 4.86243C314.977 5.76137 315.238 3.77038 316.12 3.79397C316.802 3.81306 321.387 4.77573 322.529 4.16752C323.744 3.51924 319.15 3.79116 319.49 3.26111C322.597 2.72845 325.744 3.29726 328.681 3.2309C328.732 3.22921 328.283 2.81384 328.938 2.75572C330.079 2.65458 330.378 3.24376 330.933 3.33802C331.531 3.43836 333.648 3.35392 333.931 3.56874C333.967 3.59691 333.538 4.1813 333.473 4.19773C332.551 4.43859 332.224 3.6801 332.14 3.67037C331.825 3.64161 331.515 3.93213 331.227 3.91483C330.754 3.88597 330.493 3.61719 329.868 3.59346C329.437 3.57609 329.853 4.09224 329.438 4.06864C329.285 4.05789 327.64 2.8793 327.487 4.08237C327.439 4.4617 340.894 4.94882 342.238 4.64544C341.085 4.50078 339.931 4.35612 338.778 4.21146C341.12 4.5636 343.934 3.60233 344.134 5.02449C352.821 5.14076 361.507 5.25704 370.194 5.37331C371.746 5.49447 370.895 6.40836 373.447 6.14238C372.788 5.85123 372.128 5.56009 371.469 5.26894C372.777 5.47318 378.572 5.87221 379.51 5.68369C379.632 5.65898 379.801 4.83186 381.249 4.7608C382.534 4.69805 382.74 5.31777 383.427 5.43648C384.004 5.53443 384.652 5.37206 384.823 5.40627C384.955 5.43366 385.007 5.81262 385.323 5.8787C386.32 6.08301 385.512 5.01601 386.502 6.24126C386.261 6.28796 386.02 6.33465 385.779 6.38134C386.983 6.55868 388.628 7.11493 386.854 7.38938C386.549 7.43675 386.811 7.07013 386.584 7.07076C377.676 7.13889 384.789 7.85158 387.911 7.28226C388.713 7.82549 393.205 7.49382 393.355 7.60087C393.562 7.75593 392.794 8.19009 393.801 8.56496C394.013 8.64432 400.021 8.34013 397.857 9.06211C397.411 9.21104 394.531 9.05457 393.837 9.07584C395.47 10.2272 399.3 8.57762 399.73 8.61989C401.467 8.79933 396.393 9.61774 400.307 9.75153C403.316 9.85419 400.491 9.08539 401.648 8.75723C402.298 8.57309 405.704 9.42003 405.611 8.32325C406.78 8.20613 406.096 8.78687 406.24 8.82864C406.381 8.86536 408.68 8.53703 409.426 8.76821C409.516 8.79696 409.231 9.36704 409.325 9.41368C409.507 9.49355 411.723 9.37959 411.812 9.33128C411.869 9.29773 411.341 8.79862 411.558 8.67757C411.811 8.538 413.944 8.65545 414.061 8.51277C414.227 8.29705 411.594 8.43917 412.033 7.88103C413.247 8.02157 415.224 7.64917 416.025 7.19985C415.829 7.32832 414.652 7.34677 414.244 7.30148C414.436 6.48405 416.963 6.49519 416.099 7.14217C416.648 6.79471 416.273 6.61037 416.582 6.28246C416.663 6.1994 417.444 6.18229 417.594 6.04075C417.613 6.01255 416.809 5.70414 416.97 5.53811C417.262 5.23809 419.627 5.30558 419.82 5.38429C420.365 5.60735 418.437 5.87724 418.276 6.22203C418.253 6.27498 419.893 6.95065 419.918 7.01033C420.014 7.65058 418.189 7.18918 418.397 7.76567C418.849 7.88744 419.3 8.00921 419.752 8.13098C418.01 8.71476 414.789 8.41457 413.959 9.07859C416.54 8.88099 419.242 8.90436 419.236 10.3997C419.234 11.0295 418.121 11.3987 418.164 11.5588C418.328 12.1318 419.874 11.5094 419.931 11.5396C419.978 11.5745 419.999 11.6085 419.999 11.6416C419.999 11.6416 419.999 11.6417 419.999 11.6417C419.999 11.9771 417.796 12.2187 417.685 12.3719C417.5 12.644 418.481 13.7639 418.479 14.0116C418.445 14.0614 416.876 14.3264 417.405 14.7587C417.941 15.1954 419.315 15.205 419.363 15.2504C419.625 15.5116 417.222 15.7498 417.151 15.9041C417.113 15.9821 418.403 16.4613 418.441 16.599C418.473 16.7373 417.492 17.0389 417.106 17.4752C416.818 17.7994 417.657 18.0479 417.509 18.0987C417.404 18.1324 415.133 18.1269 415.022 18.1839C414.855 18.2681 415.387 18.6556 415.31 18.7524C415.2 18.8917 414.467 18.7519 414.562 18.8952C414.634 19.0021 417.476 20.3376 417.458 20.6943C417.425 21.3028 414.415 19.9028 417.216 22.3039C417.236 22.3197 417.918 22.149 417.936 22.1638C418.357 22.6056 416.172 23.2851 418.844 23.1663C413.873 23.9336 418.225 24.081 417.49 25.1055C417.206 25.4993 415.279 25.6617 415.27 25.7208C415.457 26.2203 416.071 25.8329 416.28 26.0778C416.395 26.2147 414.67 26.7429 415.058 27.0859C415.259 27.2626 417.089 27.1997 417.165 27.2342C417.889 27.5594 417.001 27.9096 417.16 28.1406C417.266 28.2955 418.37 28.3077 418.399 28.3356C418.446 28.3936 416.946 29.0193 416.634 29.2393C416.396 29.4085 417.287 29.6736 417.122 29.7474C416.123 30.1886 413.999 29.0634 416.046 30.6401C416.171 30.7368 416.945 30.6977 416.968 30.717C417.447 31.1639 416.021 31.2026 415.766 31.5685C415.328 32.1989 417.377 31.8474 415.673 32.2908C416.951 32.7031 417.664 32.6859 419.159 32.571C415.018 32.8916 413.556 34.5238 418.154 34.4827C416.691 34.4572 416.854 35.3784 416.417 35.3946C416.146 35.4036 414.025 34.4877 414.998 36.5427C415.12 36.7994 416.408 36.4732 416.004 36.9987C412.912 36.8646 415.939 37.333 415.942 37.4024C415.902 38.6129 408.347 37.6215 407.049 37.7595C405.542 37.9196 404.203 38.8734 403.876 38.8746C402.799 38.8751 403.693 38.3907 403.452 38.2127C403.208 38.0363 400.144 38.9641 399.991 38.9131C399.398 38.7084 400 38.1345 399.938 38.1056C399.204 37.7539 395.089 38.2033 393.937 38.0699C393.973 38.4422 396.286 38.4717 394.842 39.0697C393.16 39.7668 393.064 38.1256 393.02 38.0534C385.317 38.0689 377.613 38.0845 369.91 38.1001C370.006 38.9732 375.042 38.3148 375.157 38.4297C375.829 39.1103 367.321 39.0978 366.278 38.7895C367.07 38.9781 367.863 39.1667 368.656 39.3553C367.302 40.3592 364.306 39.0549 362.348 39.4981C361.715 39.6418 362.93 40.0293 362.905 40.0557C362.194 40.4456 361.053 40.1452 361.906 39.6217C360.17 40.1233 360.424 39.5699 359.092 39.5284C359.023 39.5266 359.595 39.9317 358.541 40.0997C358.048 40.178 355.414 40.1793 355.062 40.5336C354.916 40.6828 356.253 42.2538 356.417 40.9017C359.282 41.5608 357.333 40.2856 358.445 40.3167C358.616 40.3237 358.224 41.0784 361.026 40.7232C360.492 42.0841 357.265 41.0664 356.712 41.2313C355.571 41.5701 360.272 42.2729 361.135 41.2121C360.732 42.2741 361.468 41.3552 362.516 41.3988C363.663 41.4462 363.163 41.7624 363.784 41.7642C365.481 41.7721 364.777 41.0224 366.177 41.6982C364.813 39.606 368.572 41.4222 369.668 41.9702C367.885 42.0764 366.103 42.1826 364.32 42.2888C364.422 42.3986 364.524 42.5085 364.626 42.6184C364.156 42.6028 363.687 42.5872 363.217 42.5717C363.292 42.4664 363.368 42.3611 363.443 42.2558C361.022 42.9404 360.431 42.171 360.233 42.1624C357.692 42.0732 354.756 42.0798 352.187 42.0773C351.801 42.0769 352.066 42.7617 349.256 42.2256C348.36 42.0549 349.206 41.5222 348.19 41.6021C346.919 43.0497 346.943 41.8951 346.565 41.8933C345.481 41.8934 344.818 42.252 344.718 42.2558C343.378 42.3118 341.416 42.2519 339.945 42.3053C339.917 42.3107 340.683 42.7555 339.727 42.6239C339.391 42.5769 336.38 40.6784 333.748 41.2972C334.433 41.4254 335.118 41.5536 335.802 41.6818C334.997 41.5026 329.357 41.9811 330.736 42.4893C331.581 42.7999 333.645 41.5762 333.872 42.753C331.995 42.4008 321.628 42.9275 320.821 42.6541C320.71 42.6151 321.397 42.2332 321.242 42.1844C321.123 42.1472 318.748 42.2377 318.433 42.091C318.246 42.0039 319.295 41.7699 319.209 41.6323C319.135 41.5342 316.169 41.3707 316 41.8493C316.728 41.6572 318.775 41.825 317.702 42.2284C317.564 42.2784 316.848 41.9698 316.68 42.0333C315.124 42.6197 319.775 42.479 320.495 42.4838C317.573 43.0935 313.055 42.3747 309.669 42.7722C308.301 42.3739 311.697 42.1628 310.15 41.8328C306.939 41.1488 309.295 42.3837 309.196 42.4344C308.398 42.8362 305.682 40.6825 305.68 42.3217C304.517 42.075 304.893 41.8683 303.251 42.0828C303.467 42.1963 303.683 42.3098 303.899 42.4234C302.075 43.3729 298.215 40.9773 298.505 40.7946C299.283 40.3055 301.293 41.0684 301.464 41.05C301.718 41.0229 302.421 39.3595 305.202 40.8468C306.341 39.7311 300.794 40.0938 303.318 39.3333C301.613 39.4581 294.602 38.6816 293.592 39.1713C293.472 39.2352 294.033 40.3468 292.3 39.7811C291.478 39.5116 293.461 39.4987 293.085 39.2455C291.927 38.4682 276.178 38.9654 273.187 39.0065C272.992 39.0077 273.064 38.6627 272.873 38.6659C272.287 38.6755 270.151 39.19 269.102 39.0312C271.275 39.6698 267.054 39.7195 265.98 39.6492C264.351 39.5422 264.451 38.9351 263.747 38.806C261.034 38.3083 256.829 39.7498 254.721 38.4022C254.836 39.7396 251.075 37.7465 249.364 37.7348C248.023 37.7252 246.079 38.6102 247.888 39.1493C245.574 39.0877 243.138 39.3373 240.968 39.4185C240.609 39.4321 241.103 39.0367 240.491 39.0724C240.435 39.0785 240.359 39.4661 239.833 39.5064C235.494 39.8442 237.605 39.0206 236.793 38.7785C236.339 38.6429 236.004 38.5755 235.758 38.5533C238.287 38.4775 241.204 38.3253 241.984 38.3143C241.319 37.4585 236.379 38.4787 234.932 38.2484C234.882 38.24 235.056 37.7683 235.005 37.765C235.004 37.765 235.003 37.765 235.002 37.765C234.46 37.7288 231.007 37.9029 231.718 38.4654C231.908 38.6157 233.498 38.6154 235.383 38.5643C234.873 38.6698 235.254 39.1982 235.164 39.2207C234.072 39.4819 231.397 38.9662 230.448 38.8966C230.231 38.8814 230.247 39.2199 230.211 39.2207C229.348 39.1438 229.703 38.1772 228.817 39.174C227.254 37.9693 231.746 38.9952 231.43 38.2127C231.186 37.6103 221.21 37.9338 221.24 38.8829C221.205 38.7814 221.068 38.6554 220.787 38.5121C220.163 38.1936 217.386 38.2933 216.906 38.4681C216.826 38.5026 216.858 39.4237 216.758 39.4322C216.507 39.4534 213.113 38.7312 211.845 39.2757C212.53 39.4048 213.214 39.5339 213.899 39.663C209.765 39.671 210.404 39.9451 211.781 40.2205C211.85 40.223 211.917 40.258 211.983 40.2617C213.05 40.4654 214.419 40.6615 214.44 40.7342C214.518 41.0114 207.504 41.1658 208.853 40.3112C209.041 40.1944 212.287 40.5749 210.68 39.9651C210.399 39.8583 208.315 40.0323 208.205 39.9651C207.473 39.5182 212.024 38.9246 211.467 38.2896C210.363 38.8942 208.945 38.5758 207.679 38.7318C207.102 38.8024 206.961 39.2642 206.889 39.2729C205.827 39.3935 206.423 38.9093 206.068 38.9214C205.878 38.9297 203.784 39.9603 204.179 38.5396C197.279 39.5847 202.271 39.5836 206.504 39.5036C205.166 40.0211 202.544 39.7708 201.367 39.8909C200.945 39.9345 201.195 40.4086 200.482 40.5034C199.014 40.6985 192.006 40.1539 190.18 40.0255C191.301 39.858 190.973 39.3416 190.108 39.3773C189.242 39.4132 189.969 40.1025 189.801 40.1766C189.62 40.2533 185.559 39.928 184.883 40.0173C187.94 39.7676 187.251 39.2527 184.656 39.1988C185.031 39.0504 185.406 38.9021 185.781 38.7538C184.26 38.9622 181.063 38.1767 180.184 38.4105C180.046 38.448 180.541 38.881 180.464 38.9021C179.693 39.0861 177.069 38.6445 176.947 38.7923C176.844 38.9152 177.963 39.2782 177.547 39.457C177.461 39.4946 176.382 38.9093 175.319 39.0532C174.925 39.1061 175.162 39.5156 175.063 39.5394C174.235 39.7363 174.724 39.0468 173.211 39.1576C172.103 39.2396 171.277 39.9137 169.746 39.6904C174.775 40.5498 170.547 40.1908 168.444 40.4513C168.107 40.4928 168.396 41.2362 166.383 40.8742C170.668 39.5301 165.161 40.1638 164.034 40.1491C163.972 40.1446 163.951 39.6543 163.399 39.6465C163.352 39.6469 163.419 39.9782 162.906 40.0035C158.036 40.2431 161.15 39.8688 160.225 39.5421C159.831 39.4029 157.463 39.8714 156.825 39.8827C156.678 39.8839 156.746 39.5396 156.178 39.5531C155.174 39.5778 154.275 39.9443 153.612 39.9733C153.535 39.975 153.532 39.4319 152.276 39.608C151.923 39.6573 151.526 39.8501 152.028 40.0063C153.691 40.5199 156.846 39.631 158.726 40.1436C160.441 40.6105 155.035 40.6545 154.754 40.6573C154.65 40.659 155.706 40.3893 154.634 40.3359C153.717 40.2915 152.043 41.2296 150.678 41.0253C150.574 41.0102 149.483 40.2147 149.534 40.1684C149.579 40.1345 151.254 39.9618 151.011 39.7316C150.982 39.7054 149.918 39.7107 149.779 39.5394C149.608 39.3307 149.15 37.2835 148.922 37.2321C148.339 37.1053 148.719 37.5722 148.341 37.5398C147.532 37.4713 144.725 36.8659 144.634 37.5755C145.098 37.6176 145.561 37.6597 146.025 37.7018C143.445 37.7748 144.545 38.0769 144.179 38.21C143.786 38.3539 143.897 37.7302 143.027 37.6716C142.838 37.6587 139.199 37.7889 139.265 38.0507C141.278 37.6341 140.531 38.4049 140.624 38.4187C140.977 38.4689 141.427 38.0366 141.9 38.0452C145.227 38.1128 141.872 38.7953 142.657 38.9708C142.928 39.0299 143.466 38.6608 143.581 38.6796C143.953 38.7408 143.96 39.2241 144.208 39.185C144.788 39.0943 144.111 38.4104 144.157 38.3748C144.675 37.9467 146.707 38.4793 145.442 39.2235C146.202 39.4917 146.291 38.5872 146.893 38.9488C148.09 39.6648 146.296 39.4809 145.811 39.5998C144.068 40.0286 143.551 39.6815 141.084 39.8003C140.195 39.8422 139.143 40.2816 138.731 40.3057C138.471 40.3209 136.019 38.7922 135.947 41.1846C134.994 40.9531 133.499 39.3766 132.517 39.4487C131.635 39.5145 131.916 40.3609 131.833 40.3936C131.707 40.445 130.641 40.3783 130.281 40.498C129.858 40.6393 130.069 40.9623 129.399 41.094C127.73 41.4208 127.774 40.5568 127.603 40.5007C125.612 39.8518 126.484 41.0806 126.042 41.1791C125.631 41.2697 119.869 40.7968 118.657 41.1077C119.15 40.9347 119.644 40.7616 120.137 40.5886C119.254 40.0497 118.318 40.9287 118.301 39.9624C118.122 41.5224 116.299 40.4796 115.751 40.5199C115.535 40.5365 115.552 40.8024 115.282 40.8138C114.227 40.8604 111.848 40.6488 111.276 40.7836C108.801 41.364 115.13 42.3294 115.628 42.3877C114.631 42.3705 108.988 42.7199 111.581 43.4699C111.982 43.5856 112.693 42.8874 112.918 42.8601C114.442 42.6804 113.244 43.306 113.363 43.3655C113.566 43.4615 114.569 42.8567 114.834 42.9288C114.922 42.9519 114.354 43.5184 115.807 43.5303C115.092 44.0795 111.007 43.6321 110.471 43.761C110.28 43.8071 111.477 44.9806 107.98 43.8407C108.02 43.9496 108.061 44.0586 108.102 44.1675C106.155 44.2124 104.208 44.2573 102.261 44.3021C102.472 44.0511 103.565 43.5469 102.189 43.6539C101.396 43.7158 101.982 44.2749 101.91 44.2911C101.199 44.445 88.6089 44.259 86.169 44.3213C85.339 44.3416 83.0256 44.7909 82.8492 44.7993C81.7944 44.8442 78.0591 44.5518 77.314 44.6152C76.8487 44.6559 77.2911 45.1233 76.8754 45.1014C76.4891 45.0804 76.8893 44.6286 76.7746 44.6097C75.824 44.4461 68.6033 45.0386 66.8888 44.6125C67.9367 44.7404 73.1661 43.8379 73.061 43.5193C73.0383 43.4756 71.7673 43.132 71.5051 43.2996C71.072 42.9085 69.5848 44.0993 68.776 43.8654C68.6845 43.8388 69.0447 43.1709 67.6011 43.0496C67.1038 43.0082 65.8015 43.5289 64.4909 42.9453C62.5936 43.2257 52.618 42.3594 51.9336 43.0771C51.9133 43.115 53.318 43.3621 52.3689 43.6567C51.1072 44.0481 52.2403 42.7294 50.7699 42.6157C50.5483 42.5983 46.4571 42.7318 46.3232 42.8134C45.0841 43.5535 48.659 43.8535 48.6089 43.9396C48.4843 44.1562 45.5139 44.2873 45.3932 44.2362C45.2782 44.1831 47.7007 43.2024 44.7897 43.5743C45.1232 43.6914 45.4567 43.8086 45.7901 43.9258C44.4211 44.1541 44.2906 43.4756 43.9589 43.4342C42.9279 43.303 41.8125 44.3335 40.1605 43.0606C39.7237 42.7228 40.4489 42.3477 40.3942 42.297C39.8695 41.8424 39.2 43.0587 38.411 42.1515C38.3516 42.0838 40.1879 41.5403 36.9784 41.539C37.1993 41.6259 37.4201 41.7129 37.641 41.7999C37.1885 41.9941 33.9389 42.1095 33.5017 42.0636C32.2245 41.9294 33.3383 41.305 32.0547 41.3797C32.878 42.2353 28.9745 42.347 29.199 41.6104C28.6538 42.5355 25.3379 41.8219 23.7791 41.7999C22.7956 41.7867 20.7894 42.1904 20.4769 42.1432C20.0962 42.0854 20.2119 41.4542 19.5245 41.3137C19.3285 41.2737 17.2822 41.7363 15.486 41.083C15.1379 40.9571 14.4068 39.8866 15.0538 39.619C16.1612 39.1612 18.2563 40.0236 18.2295 39.3911C18.1981 38.7144 15.3763 39.1168 14.6168 39.0285C11.1103 38.62 13.1351 37.9007 13.0449 37.6826C12.8111 37.1534 10.8951 37.1699 10.8152 37.1223C10.4838 36.911 11.8415 36.4921 11.862 36.1692C11.8868 35.7487 10.04 34.9898 10.4598 34.848C11.0608 34.6467 12.758 35.2793 12.8656 35.249C14.2664 34.8411 12.3464 33.8696 11.8172 33.3923C11.6568 33.2455 12.2959 33.0041 12.1629 32.9611C10.1327 32.3076 11.735 34.3264 10.3846 34.1916C9.17976 34.0714 10.7299 33.433 10.6839 33.3978C10.6244 33.3591 9.18389 33.3243 8.95837 33.0984C8.84724 32.9853 12.5914 31.7435 12.4351 31.1867C11.2404 31.3094 10.0458 31.4321 8.85113 31.5548C8.75747 30.8288 10.4758 31.3632 10.6535 31.2883C11.0113 31.1381 10.0136 30.7708 10.0564 30.5412C10.0794 30.3952 11.2503 29.8743 10.1925 29.6595C9.82894 29.5854 9.06598 30.0944 7.74185 29.5744C12.35 28.9103 9.15663 28.5022 9.0208 28.245C8.88774 27.9879 11.0877 27.3826 8.41734 27.4897C8.30156 26.0768 8.47491 27.0431 9.23369 26.7947C10.1632 26.4895 8.01489 26.0243 11.4122 26.3773C11.2189 25.7158 8.48827 25.7626 8.34371 25.7098C8.21888 25.662 8.82585 25.3366 8.60942 25.2264C6.04951 23.9483 7.80779 24.5319 7.06636 23.7157C7.00043 23.6428 4.5809 23.3402 6.42289 23.2213C9.77871 23.0052 11.1812 23.9426 11.7452 21.9386C9.26297 21.0681 6.25544 22.3616 5.50089 22.3836C4.34596 22.4151 5.54237 22.0065 5.40005 21.8919C5.35062 21.8549 4.35537 21.8887 4.342 21.8562C3.63232 20.3278 8.77263 21.8308 10.391 21.5651C9.9572 21.3362 9.52342 21.1073 9.08963 20.8784C9.67815 20.8692 10.2667 20.8601 10.8552 20.8509C8.05149 20.3908 10.7563 20.6767 11.4554 19.4391C11.6124 19.161 9.77046 19.6379 11.8716 18.8651C10.3219 18.6867 10.8162 18.4338 9.41297 18.7827C9.44918 18.2866 12.6064 17.727 13.8517 17.4725C9.45243 16.915 11.9611 18.7346 8.15803 17.7719C7.45278 18.3861 9.26807 18.2665 9.12004 18.3679C8.58895 18.7325 7.34395 18.1536 5.84184 19.4309C5.59726 19.6406 6.63218 20.2861 5.10072 20.2549C4.93134 20.2505 3.95551 19.6988 3.96904 19.6589C4.0984 19.2268 5.06406 19.3887 5.10392 19.2084C5.14133 19.0377 4.064 19.1404 4.06028 19.093C4.02717 18.5518 4.95917 18.8862 4.8238 18.7167C4.53147 18.3482 0.656292 17.1835 5.71378 17.5247C1.513 18.1366 5.17595 18.1223 6.81185 17.8872C7.22904 17.8283 7.33469 17.505 7.92913 17.3928C8.69378 17.2475 9.58875 17.4027 9.98441 17.3434C10.41 17.278 7.99205 16.5138 11.4891 16.7419C9.70932 15.9818 6.56565 16.7922 4.8174 16.2585C1.29025 15.18 7.27668 14.9484 7.90032 14.8439C8.06647 14.8156 7.50945 14.379 7.6202 14.3523C7.80131 14.3112 11.1989 14.513 11.5339 14.1518C11.868 13.7908 10.2894 14.1684 10.1845 13.7919C10.1134 13.5385 14.212 13.089 11.9933 12.9157C10.464 12.797 7.64521 13.8156 7.17041 12.7207C9.41937 12.6301 11.6683 12.5394 13.9173 12.4488C12.6864 12.0322 11.4554 11.6156 10.2245 11.1991C12.7487 11.0669 14.9309 11.5373 17.3284 10.9409C11.5674 9.60599 19.1989 9.87556 19.2828 9.71311C19.3109 9.61595 17.0433 8.53246 16.6785 8.33427C18.6878 7.91745 24.7933 7.71377 21.2212 6.37588C21.8696 6.67797 23.4397 5.93227 23.419 5.87599C23.2196 5.28493 19.7951 5.66821 20.3536 5.13438C21.0009 4.51489 21.9078 5.35531 22.9035 5.28819C28.013 4.9383 26.6112 1.85275 31.7345 2.341C31.6326 2.23113 31.5307 2.12126 31.4288 2.0114C36.9976 2.18627 42.5663 2.36114 48.1351 2.53601C50.3139 1.59374 56.1125 1.01997 58.9606 1.12421C59.5341 1.14452 62.3496 1.63904 62.5621 1.72574C62.9555 1.8919 60.7921 1.9553 61.7698 2.26684C61.9762 2.33078 66.743 2.53857 66.4021 2.01139C65.868 1.95027 64.1963 2.21527 63.9227 2.09105C62.0008 1.20442 76.6964 1.91274 77.4245 1.55544C77.099 1.38423 76.7735 1.21302 76.448 1.04181C77.3754 1.12604 78.3027 1.21028 79.23 1.29451ZM36.6182 43.6347C36.0617 44.1637 34.6668 43.7664 33.8426 43.9148C32.7039 44.1228 30.7682 46.1597 31.6017 44.1181C33.2738 43.957 34.946 43.7958 36.6182 43.6347ZM61.0575 44.423C59.9361 44.1389 60.8058 42.9986 61.7249 43.4726C61.8269 43.5265 62.5746 44.8054 61.0575 44.423ZM49.302 43.8819C49.3492 43.8668 50.3182 43.897 50.3521 43.9148C51.2211 44.3726 48.2996 44.2791 49.302 43.8819ZM106.09 43.2968C104.854 43.3461 105.749 44.3826 106.517 43.956C106.565 43.9289 106.171 43.2944 106.09 43.2968ZM105.211 43.2694C104.251 42.3411 102.319 44.2224 103.855 44.0329C104.004 44.0138 105.255 43.3146 105.211 43.2694ZM57.0605 43.9698C57.1867 43.614 58.3434 43.7858 58.8373 43.8709C58.8239 44.1957 57.5449 43.93 57.0605 43.9698ZM86.3867 43.8709C86.4358 43.5912 82.4155 43.6067 82.1417 43.9753C82.7762 43.8189 86.3405 44.1222 86.3867 43.8709ZM96.6967 43.4781C96.5948 43.4298 95.2059 43.5033 95.2465 43.75C95.9244 44.0738 97.1555 43.697 96.6967 43.4781ZM117.189 43.4946C117.264 43.4326 116.224 41.8622 118.689 42.8958C119.05 43.0472 117.758 43.4575 117.887 43.5138C118.156 43.6237 118.369 43.6749 118.54 43.6841C117.392 43.8143 116.2 43.8755 116.084 43.7802C115.543 43.3303 117.155 43.5205 117.189 43.4946ZM127.947 42.3245C128.183 42.0684 129.694 42.2053 130.037 42.3108C130.096 42.3306 129.839 43.0038 130.519 42.9535C131.065 42.9119 130.25 42.2224 131.313 42.3327C132.388 42.4435 130.952 42.9349 131.046 42.97C131.172 43.0159 132.834 42.7063 132.783 43.1073C132.744 43.4043 130.963 43.2035 130.522 43.2666C129.958 43.3477 130.642 43.8426 129.7 43.7363C129.107 43.6699 129.436 42.7997 129.311 42.7557C129.206 42.7203 127.135 43.2211 127.95 42.3272C127.949 42.3263 127.948 42.3254 127.947 42.3245ZM118.85 43.6457C118.764 43.6751 118.662 43.6907 118.54 43.6841C118.644 43.6723 118.748 43.6586 118.85 43.6457ZM39.858 43.2529C40.4409 43.5213 38.7108 43.8654 38.0556 43.5138C38.0443 43.2303 39.7652 43.2111 39.858 43.2529ZM119.915 42.937C121.62 43.155 120.366 43.4548 118.85 43.6457C119.331 43.4819 119.342 42.8642 119.915 42.937ZM71.5051 43.2996C71.577 43.3645 71.6226 43.4657 71.6284 43.6319C71.4394 43.4501 71.4224 43.3524 71.5051 43.2996ZM75.4828 43.5962C76.8464 43.0898 74.0759 43.1102 74.0934 43.4726C74.1017 43.6094 75.4282 43.6164 75.4828 43.5962ZM107.674 43.3463C107.55 43.2967 109.487 41.7675 106.674 42.915C108.175 43.0953 106.591 43.2618 106.615 43.3957C106.676 43.7806 109.198 43.4106 109.757 43.577C110.194 42.8883 108.086 43.5096 107.677 43.3463C107.676 43.3463 107.675 43.3463 107.674 43.3463ZM147.336 42.6953C146.994 43.0989 145.91 42.969 145.178 42.9453C145.52 42.5417 146.604 42.6715 147.336 42.6953ZM338.799 42.753C333.785 43.1261 333.136 41.4827 337.723 42.1322C337.813 42.1459 339.103 42.5864 338.799 42.753ZM295.772 42.3272C295.3 41.611 296.863 41.4958 297.89 41.7916C298.122 41.8582 298.981 42.5836 298 42.7255C298.032 41.8573 296.515 41.5257 295.772 42.3272ZM120.878 42.4783C121.375 42.0007 122.903 42.3407 123.708 42.4124C123.217 42.8057 121.59 42.6278 120.878 42.4783ZM322.324 41.896C321.796 41.8418 321.439 42.4649 321.53 42.5168C321.939 42.7546 322.927 42.2507 322.324 41.896ZM115.945 42.4042C115.875 42.1187 117.899 41.844 118.04 42.5497C117.607 42.4987 115.995 42.5833 115.945 42.4042ZM145.956 42.4811C145.642 42.3359 147.269 42.0761 147.762 42.2201C147.722 42.5239 146.162 42.5754 145.956 42.4811ZM313.817 42.1075C313.343 42.0534 312.161 42.0369 312.03 42.2888C311.868 42.6037 313.601 42.4963 313.817 42.1075ZM401.864 41.5636C401.924 41.6768 400.093 42.4924 399.279 42.286C397.733 41.8911 401.799 41.4837 401.864 41.5636ZM327.327 41.5746C328.819 42.1673 327.162 41.5933 327.227 42.2174C328.232 42.2398 330.729 42.2706 329.012 41.657C328.678 41.5383 327.795 41.615 327.327 41.5746ZM325.95 41.3659C325.79 41.568 324.714 42.2053 325.644 42.1597C326.074 42.1376 326.767 41.4295 325.95 41.3659ZM390.52 41.8411C389.182 41.2886 395.314 41.585 395.49 41.6818C395.583 41.7329 395.644 41.781 395.679 41.8218C395.904 41.6467 397.062 41.6152 397.196 42.058C396.849 42.0215 395.901 42.0604 395.791 42.0114C395.744 41.9905 395.708 41.9709 395.684 41.9509C395.275 42.3354 390.776 41.9458 390.52 41.8411ZM380.36 41.2725C381.891 40.4575 382.162 41.8432 382.03 41.8878C380.364 42.4549 381.45 41.433 381.399 41.3851C381.283 41.3055 380.099 41.7796 380.365 41.2725C380.364 41.2725 380.362 41.2725 380.36 41.2725ZM388.437 41.6131C388.5 41.595 389.785 41.6379 389.838 41.6598C390.891 42.1255 387.255 42.0062 388.437 41.6131ZM136.056 41.3549C136.976 41.4927 136.073 42.0025 135.462 41.8191C135.412 41.801 135.244 41.2332 136.056 41.3549ZM325.215 41.5032C325.002 41.4069 319.546 41.0436 319.874 41.8136C320.337 41.7227 326.539 42.1191 325.215 41.5032ZM284.441 41.3165C285.403 41.3224 284.354 42.0486 283.841 41.7779C283.65 41.6773 284.198 41.3154 284.441 41.3165ZM113.216 41.745C112.217 42.1439 112.423 40.8055 113.289 41.2643C113.323 41.2822 113.255 41.7294 113.216 41.745ZM292.127 41.734C288.809 42.174 289.595 39.8718 293.909 40.649C293.774 40.7516 293.639 40.8541 293.504 40.9566C298.483 41.302 293.845 41.1189 292.625 41.2478C292.162 41.2968 292.55 41.6811 292.131 41.7367C292.13 41.7358 292.129 41.7349 292.127 41.734ZM279.381 41.2725C276.186 39.6385 282.286 40.7026 284.036 40.4897C282.34 41.1645 280.131 41.0624 283.135 41.7532C278.743 41.8868 280.571 41.236 280.396 41.1819C280.189 41.1212 279.517 41.3427 279.381 41.2725ZM287.81 41.2615C287.995 41.2139 289.387 41.5465 289.888 41.4922C289.187 42.0504 286.584 41.5857 287.81 41.2615ZM369.709 41.6515C369.825 41.2142 370.111 40.892 371.209 41.0555C370.87 41.2753 370.168 41.4643 369.709 41.6515ZM35.5618 41.333C34.8053 41.3016 33.2991 41.1368 33.761 41.5966C33.8115 41.6358 35.5594 41.5911 35.5618 41.333ZM309.368 41.1489C309.207 41.0951 305.047 41.059 306.484 41.5417C306.917 41.6872 310.703 41.6254 309.368 41.1489ZM330.914 41.2038C330.565 41.1993 329.151 41.2817 329.121 41.3851C329.025 41.7427 330.761 41.5461 330.914 41.2038ZM31.7457 40.8852C31.6461 40.8399 29.3356 40.9203 29.5896 41.1324C30.0717 41.5337 32.0872 41.0416 31.7457 40.8852ZM139.403 40.3304C139.596 40.3142 139.852 40.7893 139.918 40.7946C140.075 40.8014 143.611 40.6186 142.26 41.2286C142.035 41.3308 136.948 41.0966 136.286 41.0363C136.031 40.3841 138.203 41.0045 138.732 40.9374C138.825 40.9247 138.885 40.3791 139.401 40.3332C139.402 40.3322 139.402 40.3313 139.403 40.3304ZM375.432 41.1901C375.588 40.7755 379.744 40.5009 379.696 41.0033C378.275 41.0656 376.853 41.1278 375.432 41.1901ZM373.321 41.1214C372.434 40.8281 374.511 40.7311 375.123 40.8605C375.129 41.1394 373.45 41.1643 373.321 41.1214ZM323.03 39.6547C322.613 39.7561 323.897 40.3611 323.61 40.4787C323.426 40.552 322.492 40.3252 322.195 40.5144C322.11 40.5746 323.062 41.1433 323.338 41.1187C323.729 41.0859 323.349 40.6383 323.776 40.6353C325.193 40.6257 326.449 40.9448 327.778 40.9374C327.898 40.9359 326.968 40.6198 327.991 40.6243C328.149 40.6244 329.099 41.0951 330.323 41.0253C333.026 39.5675 335.011 40.9989 338.442 40.4732C338.312 40.3359 335.747 39.9677 335.596 39.9541C332.728 39.7144 327.591 39.688 324.588 39.6849C323.817 39.6837 324.191 39.9922 323.859 40.0035C323.597 40.0119 323.909 39.4405 323.03 39.6547ZM35.9635 41.0171C35.603 40.4464 34.3383 40.8076 33.5305 40.7781C33.8148 41.2929 35.1742 40.8906 35.9635 41.0171ZM354.66 40.6792C354.255 40.7012 353 40.5294 352.896 40.7012C352.762 40.9256 354.574 41.0671 354.66 40.6792ZM159.338 40.4925C159.377 40.4769 160.351 40.5074 160.388 40.5254C161.258 40.9834 158.337 40.8896 159.338 40.4925ZM182.639 40.6023C183.378 40.5319 184.123 40.3535 184.371 40.8166C183.9 40.7457 182.552 40.9248 182.639 40.6023ZM214.786 40.5886C214.633 39.9822 216.856 40.3749 217.276 40.4293C217.121 40.6988 214.897 41.0255 214.786 40.5886ZM369.549 39.7481C370.909 39.784 370.622 38.8655 371.485 39.2812C371.625 39.3514 372.081 41.264 370.587 40.5474C370.318 40.4186 371.37 39.964 369.549 39.7481ZM294.612 40.6682C294.957 40.2671 296.038 40.3862 296.768 40.4183C296.604 40.7163 295.131 40.6396 294.612 40.6682ZM27.5727 40.4266C26.9353 39.8603 23.9899 40.2803 24.7187 40.6545C24.8224 40.7033 27.1595 40.4052 27.5727 40.4266ZM124.334 40.649C125.546 40.2031 123.036 40.065 122.244 40.5007C122.602 40.4721 124.252 40.6784 124.334 40.649ZM207.064 40.259C207.122 40.2407 208.407 40.2837 208.465 40.3057C209.518 40.7714 205.882 40.6521 207.064 40.259ZM174.977 39.8662C175.44 39.4992 178.483 39.7953 179.166 40.1629C178.509 40.6995 174.402 40.3246 174.977 39.8662ZM363.957 40.009C364.926 39.99 365.846 40.103 366.737 40.2617C366.55 40.5707 364.059 40.2398 363.957 40.009ZM211.781 40.2205C211.85 40.223 211.917 40.258 211.983 40.2617C211.914 40.2486 211.847 40.2337 211.781 40.2205ZM342.253 39.792C341.44 39.67 341.609 40.2361 341.659 40.2535C342.27 40.4368 343.173 39.9298 342.253 39.792ZM35.0351 40.1766C34.7534 39.6657 33.3867 40.062 32.6005 39.9404C32.8286 40.3439 34.4018 40.2302 35.0351 40.1766ZM275.959 40.226C274.938 39.6721 279.092 39.0286 279.967 39.3855C280.032 39.7278 276.108 40.3018 275.959 40.226ZM120.571 39.8827C120.489 39.4824 118.745 39.9655 119.116 40.1546C119.351 40.275 120.62 40.1314 120.571 39.8827ZM282.056 39.619C282.446 39.4968 283.356 39.8919 283.036 40.1326C282.624 40.4412 281.955 39.654 282.056 39.619ZM317.071 39.2976C316.9 39.2365 314.606 39.6474 315.553 40.0557C316.211 40.3395 316.316 39.7608 316.471 39.7591C316.644 39.7609 320.327 40.4691 317.071 39.2976ZM252.695 39.8772C253.56 39.7233 254.607 39.902 255.513 39.8909C255.144 40.1385 253.063 40.206 252.695 39.8772ZM127.297 39.7756C127.087 39.6137 121.359 39.5162 124.613 40.0145C124.802 40.0427 127.936 40.2659 127.297 39.7756ZM369.549 39.7481C369.378 39.7436 369.18 39.7245 368.951 39.6849C369.178 39.7005 369.377 39.7276 369.549 39.7481ZM354.112 39.6877C354.425 39.3962 352.849 39.3183 352.384 39.4734C352.24 39.8295 354.069 39.7284 354.112 39.6877ZM255.582 39.4844C256.104 39.3177 257.052 39.4956 257.698 39.4762C257.589 39.7471 255.808 39.7596 255.582 39.4844ZM218.919 39.1795C219.955 39.3405 221.231 39.2665 221.251 38.9351C221.272 38.9869 221.323 39.0419 221.406 39.0971C221.49 39.1519 222.601 38.9977 223.084 39.1109C225.972 39.7828 211.928 39.5055 220.068 38.5698C219.685 38.773 219.302 38.9763 218.919 39.1795ZM170.858 39.0862C170.27 38.6827 168.622 39.1883 169.049 39.3471C169.347 39.4559 171.447 39.4923 170.858 39.0862ZM193.501 38.8472C193.325 38.7752 191.716 39.0577 191.675 39.2702C192.6 39.494 194.303 39.1817 193.501 38.8472ZM166.334 38.6137C165.965 38.5529 165.494 39.2034 165.537 39.2317C165.913 39.4692 166.955 38.9759 166.334 38.6137ZM366.734 37.9957C366.184 37.8094 364.432 38.2803 364.051 38.7098C363.98 38.6268 363.789 38.5185 363.438 38.3885C363.439 38.3885 363.44 38.3885 363.441 38.3885C362.968 38.215 348.809 38.0254 358.306 38.8527C358.604 38.8792 358.197 38.4936 359.407 38.5615C359.487 38.5665 359.527 38.8813 359.774 38.8966C360.342 38.9299 363.369 39.128 363.977 38.8746C363.983 38.933 364.022 38.9885 364.105 39.0394C364.852 39.4935 367.16 38.1393 366.734 37.9957ZM196.691 38.7895C196.368 38.6729 195.343 38.7836 195.236 39.0614C195.745 39.1976 197.443 39.0616 196.691 38.7895ZM127.119 38.6357C126.46 38.4072 124.788 38.8344 125.293 39.0614C125.603 39.2011 127.88 38.898 127.119 38.6357ZM186.425 38.9378C190.208 39.2662 187.328 38.9113 187.907 38.5039C187.413 38.6485 186.919 38.7932 186.425 38.9378ZM384.242 39.0477C383.639 38.9539 384.348 38.15 385.012 38.5862C385.22 38.7248 384.58 39.0986 384.242 39.0477ZM411.481 38.7977C410.966 38.0849 413.481 38.5037 412.501 38.9927C412.455 39.0092 411.518 38.8249 411.481 38.7977ZM392.447 38.5066C392.038 38.992 391.771 39.0495 390.618 38.9296C392.325 38.7928 390.741 38.3636 392.447 38.5066ZM221.24 38.8829C221.246 38.9025 221.252 38.917 221.251 38.9351C221.243 38.9172 221.24 38.9003 221.24 38.8829ZM162.778 38.7401C162.304 38.3289 160.977 38.3592 161.372 38.773C161.411 38.8114 162.584 39.0439 162.778 38.7401ZM364.051 38.7098C364.114 38.7835 364.082 38.8311 363.977 38.8746C363.972 38.8197 364 38.7678 364.051 38.7098ZM169.904 38.405C169.857 38.7117 171.877 38.831 171.958 38.795C173.117 38.263 170.738 38.3865 169.904 38.405ZM113.763 38.2045C113.659 38.2365 114.331 39.0284 114.743 38.7181C115.062 38.4774 114.153 38.0826 113.763 38.2045ZM396.364 38.3088C397.004 38.3094 397.904 38.309 398.07 38.6851C397.642 38.6274 396.351 38.5848 396.364 38.3088ZM410.497 38.2814C409.74 38.7235 408.014 38.7223 406.911 38.6494C406.891 38.0674 409.787 38.4182 410.497 38.2814ZM368.469 38.2127C368.416 38.189 366.812 38.0154 367.031 38.405C367.352 38.9763 368.921 38.4246 368.469 38.2127ZM116.878 38.6247C117.595 38.3564 115.945 37.5318 115.188 38.1688C114.799 38.4949 116.757 38.6697 116.878 38.6247ZM158.634 38.2017C157.687 38.4272 160.033 38.8288 160.361 38.4215C159.925 38.3888 158.97 38.1219 158.634 38.2017ZM190.841 37.7897C187.858 36.6148 189.483 38.7582 190.012 38.5698C190.086 38.5429 190.914 37.8174 190.841 37.7897ZM20.1712 38.0781C19.7489 38.2414 21.3232 38.8328 21.527 38.4434C21.6528 38.1998 20.4412 37.9741 20.1712 38.0781ZM235.758 38.5533C235.632 38.5571 235.507 38.5609 235.383 38.5643C235.476 38.5451 235.598 38.5389 235.758 38.5533ZM150.041 36.6279C152.141 38.2868 151.92 37.0082 152.103 37.0152C152.497 37.033 153.413 37.4816 154.156 37.4079C153.305 37.5947 152.454 37.7815 151.603 37.9683C152.276 38.088 158.116 38.6987 158.238 38.4297C158.414 38.0466 156.576 38.1668 156.522 38.1331C156.445 38.085 156.158 37.0199 155.988 36.9794C155.707 36.9147 150.824 36.8926 150.041 36.6279ZM184.603 37.9737C185.083 38.1004 185.219 38.5223 185.442 38.4215C185.518 38.3869 185.53 37.9845 185.789 37.8804C185.394 37.9115 184.998 37.9426 184.603 37.9737ZM146.281 38.1193C145.687 37.6275 148.352 37.8143 148.437 37.8694C148.893 38.2027 146.767 38.5211 146.281 38.1193ZM168.896 38.0479C168.798 38.0192 166.752 37.8656 166.768 38.1385C167.31 38.3466 170.046 38.4072 168.896 38.0479ZM186.109 37.8529C186.828 37.8998 188.188 38.3051 188.032 37.6991C188.031 37.6991 188.03 37.6991 188.029 37.6991C187.389 37.7503 186.749 37.8016 186.109 37.8529ZM119.334 37.3448C118.001 36.3795 118.632 37.5992 119.812 37.9106C120.17 37.4772 119.552 37.5018 119.334 37.3448ZM115.069 36.6251C114.699 36.4514 110.879 36.6418 111.461 37.1525C111.669 37.3345 113.865 36.8755 113.966 36.9108C114.12 36.9631 113.419 37.5281 114.591 37.4162C114.522 37.2247 115.196 36.6831 115.069 36.6251ZM118.231 36.7268C116.907 35.9927 116.609 37.3466 117.605 37.3503C117.994 37.3526 118.42 36.8327 118.231 36.7268ZM123.639 36.8421C123.163 36.7137 121.894 36.5264 121.019 36.9767C122.19 37.0152 123.36 37.0536 124.531 37.0921C124.666 36.837 124.056 36.955 123.636 36.8421C123.637 36.8421 123.638 36.8421 123.639 36.8421ZM418.453 34.8123C417.401 34.4284 419.825 34.2812 419.928 34.3756C420.232 34.6887 418.924 34.9838 418.453 34.8123ZM11.9533 25.7785C11.6609 25.6254 11.4698 25.1219 10.8264 25.3857C11.4736 25.7574 12.1208 26.1291 12.768 26.5009C13.271 25.6491 12.2728 25.9473 11.9533 25.7785ZM9.4818 22.6665C9.57323 22.6458 9.07381 21.3362 10.2549 22.2105C11.053 22.8009 6.71324 23.3763 5.92988 22.7956C6.79545 22.5257 8.6948 22.8346 9.4818 22.6665ZM1.88015 16.9973C1.83011 16.8929 3.47887 16.7397 3.66971 16.8133C4.67178 17.2014 2.15087 17.5569 1.88015 16.9973ZM7.13999 17.2473C6.36676 16.9929 8.07972 16.829 8.59022 16.9753C8.63973 17.2191 7.25945 17.2843 7.13999 17.2473ZM407.799 15.8437C406.963 14.9536 406.214 16.8697 407.502 16.4837C407.563 16.4655 407.835 15.8873 407.799 15.8437ZM3.49203 15.6762C4.26527 15.9305 2.55231 16.0944 2.04181 15.9481C1.99434 15.7046 3.3743 15.639 3.49203 15.6762ZM407.21 13.7232C406.099 13.0827 406.49 15.2324 406.629 15.3191C407.201 15.6612 409.163 14.8174 409.563 14.6077C406.628 14.9303 407.733 14.0251 407.21 13.7232ZM402.085 15.0142C401.054 15.2435 403.689 15.6821 404.191 15.0828C403.679 15.1115 402.378 14.9479 402.085 15.0142ZM395.828 14.3248C395.273 14.2478 393.625 14.0634 393.348 14.4017C393.953 14.3404 395.594 14.6728 395.828 14.3248ZM394.573 13.3112C393.706 12.8516 393.499 14.1907 394.498 13.7919C394.536 13.7765 394.605 13.3368 394.573 13.3112ZM389.702 12.8278C389.134 12.2953 388.485 13.5921 389.406 13.6271C389.679 13.6351 389.762 12.8889 389.702 12.8278ZM405.819 11.4105C405.005 11.1818 403.957 12.1106 405.694 12.2126C405.084 12.3545 404.474 12.4964 403.863 12.6383C406.14 13.1589 405.973 11.8709 406.626 11.9242C407.539 11.9998 407.467 13.0626 407.284 13.3964C408.033 12.7452 411.214 12.7348 413.053 12.6108C411.437 12.3376 408.815 11.8638 407.22 11.6907C406.765 11.6406 406.323 11.932 405.935 11.8994C405.312 11.8456 405.865 11.4259 405.823 11.4105C405.821 11.4105 405.82 11.4105 405.819 11.4105ZM383.299 12.8086C381.629 12.2053 382.685 13.5078 383.629 13.2755C383.669 13.2576 383.341 12.8233 383.299 12.8086ZM1.27669 11.7182C3.50876 12.2626 1.88632 12.9842 6.55574 11.8885C4.59401 12.6641 6.44726 12.4463 6.06433 12.7592C5.75715 13.0067 4.60614 12.8017 5.2752 13.3003C4.39577 12.7576 0.57773 12.9077 0.407515 12.8196C0.409116 12.8196 0.410716 12.8196 0.412317 12.8196C0.310084 12.7674 0.564435 11.5451 1.27669 11.7182ZM395.82 10.9189C395.263 9.3385 395.044 11.8469 393.949 10.5371C392.49 12.4391 397.977 10.5374 398.642 12.1439C392.682 11.9572 402.579 13.7358 398.419 11.3309C401.846 12.2037 399.542 11.033 400.071 10.7266C400.637 10.4002 402.575 10.7549 402.477 10.1663C402.476 10.1663 402.475 10.1663 402.474 10.1663C401.288 10.2075 400.103 10.2487 398.917 10.2899C400.078 11.5597 397.655 11.1789 396.833 10.1443C396.495 10.4025 396.158 10.6607 395.82 10.9189ZM402.53 12.1109C402.413 12.0819 399.834 12.2598 400.001 12.5147C400.345 12.6772 404.005 12.4823 402.53 12.1109ZM413.879 11.8335C412.953 11.8304 411.521 11.5827 411.017 12.0615C411.943 12.0647 413.375 12.3126 413.879 11.8335ZM366.202 11.7429C365.022 12.1358 368.656 12.2522 367.605 11.7868C367.553 11.7649 366.26 11.7245 366.202 11.7429ZM393.135 11.1578C391.936 10.6749 392.503 12.2121 393.392 11.8115C393.443 11.7879 393.191 11.1799 393.135 11.1578ZM3.08546 11.5314C3.16572 11.1548 6.40426 11.4193 6.97833 11.4161C6.65216 11.7662 2.99338 11.9632 3.08546 11.5314ZM415.508 10.4245C413.666 9.07016 411.166 10.6344 410.892 10.6003C410.619 10.5654 411.047 9.97341 410.985 9.95753C410.843 9.92432 407.94 9.974 407.799 10.0152C407.699 10.0473 408.224 10.8793 407.625 11.1413C408.794 10.6686 414.101 10.9644 414.377 10.8722C414.59 10.7986 412.982 9.92492 415.505 10.4245C415.506 10.4245 415.507 10.4245 415.508 10.4245ZM410.207 10.419C410.932 10.7677 408.898 10.8113 408.406 10.6827C407.312 10.3947 410.114 10.3777 410.207 10.419ZM405.315 10.0976C405.083 10.0194 402.987 9.94834 402.808 10.3366C403.801 10.8402 405.842 10.2799 405.315 10.0976ZM381.99 10.1498C381.445 10.1995 379.948 9.9012 379.863 10.2404C380.408 10.191 381.904 10.4891 381.99 10.1498ZM14.135 8.57049C13.2306 8.28662 15.326 8.17066 15.9374 8.3068C15.9705 8.5331 14.212 8.59487 14.135 8.57049ZM392.932 7.91399C392.61 7.81083 386.034 8.06826 385.111 8.22712C386.014 8.48367 392.531 8.5034 392.827 8.37818C392.913 8.34069 392.973 7.93023 392.932 7.91399ZM407.154 7.75743C407.757 7.25786 408.151 7.85703 408.227 7.86455C408.972 7.941 410.519 7.82836 410.18 8.30952C408.864 8.11539 405.954 8.7495 407.154 7.75743ZM381.522 7.88928C379.289 8.07467 383.579 8.60099 383.016 8.0788C382.98 8.04723 381.753 7.86981 381.522 7.88928ZM393.667 7.76842C394.159 7.36475 400.738 7.71288 401.794 7.71349C400.848 8.45804 400.085 7.89251 398.815 7.93047C398.472 7.9416 398.563 8.25135 398.527 8.25184C397.933 8.26619 398.377 7.90844 398.011 7.90301C397.78 7.90056 392.974 8.33717 393.667 7.76842ZM407.498 7.41135C407.866 7.12497 411.974 7.0029 412.139 7.079C413.375 7.64502 407.818 7.51105 407.498 7.41135ZM393.063 7.10647C393.771 6.24115 397.038 6.82065 394.802 7.25204C394.588 7.29129 393.684 6.91618 393.063 7.10647ZM381.761 7.06527C381.651 7.03982 379.323 6.86685 379.282 7.14218C379.618 7.24917 383.011 7.34516 381.761 7.06527ZM382.968 6.13414C382.912 6.14074 383.458 6.67102 382.366 6.60383C382.275 6.5975 382.105 6.00089 380.733 6.21929C380.455 6.26427 380.024 6.65895 380.055 6.68348C381.484 7.61977 385.786 5.82654 382.968 6.13414ZM407.574 6.92793C407.352 6.6761 407.886 5.92866 408.368 6.30718C408.574 6.47063 408.189 6.91919 407.574 6.92793ZM374.379 6.82356C375.732 6.37026 371.483 6.28456 371.267 6.40057C371.403 6.68293 374.243 6.86784 374.379 6.82356ZM16.2527 5.07121C16.2516 5.07121 16.2506 5.07121 16.2495 5.07121C17.3879 5.17392 16.6828 5.55102 16.7361 5.56286C19.161 6.11675 18.5178 5.26264 18.897 5.16185C19.7101 4.94385 19.5791 5.98251 20.9507 5.55188C18.6835 6.1878 20.7472 5.92121 20.8114 6.29074C21.0655 7.79871 17.7929 5.58463 16.6625 5.90071C16.505 5.94447 17.6679 6.42575 17.2643 6.56266C15.9523 7.00629 11.8843 4.67842 16.2527 5.07121ZM408.739 6.24126C409.267 5.79832 413.273 6.22793 412.211 6.59284C412.04 6.65134 407.963 6.88688 408.739 6.24126ZM221.603 5.58757C222.566 5.20424 220.334 4.75361 219.921 5.05196C219.715 5.2006 221.18 5.7558 221.603 5.58757ZM205.958 3.9478C204.814 4.02561 203.608 5.62414 205.031 5.37607C205.182 5.34896 206.089 4.16953 205.958 3.9478ZM281.081 4.76905C279.887 4.19778 279.958 5.2592 280.835 5.24422C281.144 5.23911 281.119 4.78712 281.081 4.76905ZM235.487 4.90639C235.368 4.86934 233.987 4.93711 234.037 5.18106C234.548 5.32742 236.261 5.16072 235.487 4.90639ZM281.461 4.61798C280.752 4.80928 281.971 5.57698 282.837 4.82673C282.397 4.88827 281.533 4.59843 281.461 4.61798ZM390.595 4.7608C390.002 5.19664 388.324 5.06494 387.36 5.13984C387.256 4.57518 389.907 4.86317 390.595 4.7608ZM210.814 4.59052C209.731 4.98848 212.052 5.3143 211.839 4.78828C211.809 4.75971 210.857 4.57355 210.814 4.59052ZM319.622 4.5603C318.835 4.89712 321.335 5.35009 320.647 4.75806C320.613 4.73392 319.666 4.54156 319.622 4.5603ZM330.538 4.75531C329.94 4.64169 327.393 4.67665 328.385 5.00526C328.539 5.05576 330.493 5.06382 330.538 4.75531ZM18.9643 4.75534C18.6424 4.1753 20.5104 4.31337 20.7778 4.41475C20.8829 4.45691 19.384 5.51001 18.9643 4.75534ZM273.323 4.67841C272.705 4.75098 271.101 4.61307 270.819 4.91737C271.575 4.85438 273.526 5.28458 273.323 4.67841ZM215.752 4.58777C214.809 3.95747 213.198 4.01968 213.596 4.84321C215.376 4.78803 213.376 4.103 215.752 4.58777ZM285.441 3.93955C284.946 3.89147 284.566 4.68235 284.622 4.71961C285.159 5.0741 285.934 4.24726 285.441 3.93955ZM248.246 4.59052C248.218 4.25254 246.629 4.40594 246.841 4.62348C246.911 4.69651 248.269 4.86404 248.246 4.59052ZM369.786 4.56853C369.058 4.26004 371.282 3.95844 371.939 4.31858C372.259 4.83753 369.878 4.60397 369.786 4.56853ZM299.186 4.13731C299.26 3.63573 296.777 3.91931 297.755 4.33507C298 4.4391 299.161 4.30502 299.186 4.13731ZM322.961 3.53578C321.296 4.13392 328.291 4.55856 326.453 3.8132C326.321 3.76009 323.106 3.48527 322.961 3.53578ZM334.386 3.90933C334.098 3.84342 334.241 2.15798 335.431 2.80791C335.587 2.8922 334.857 3.33774 334.984 3.43965C335.059 3.49772 337.645 3.73444 337.765 3.69509C337.893 3.65041 337.742 3.11021 337.872 3.04962C338.018 2.9819 339.61 3.45644 340.444 3.46162C342.015 3.47052 342.185 3.02089 342.314 3.0194C342.689 3.01642 343.32 3.33567 344.081 3.33527C347.916 3.33168 353.782 2.95056 356.822 3.90383C354.117 3.52103 351.538 3.92718 348.846 4.05216C349.635 3.11362 344.885 4.7753 347.663 3.69234C346.384 3.92725 335.328 4.11511 334.389 3.90933C334.388 3.90933 334.387 3.90933 334.386 3.90933ZM201.442 3.47537C202.145 2.8999 198.539 3.02935 198.233 3.6951C198.709 3.78749 201.355 3.54059 201.442 3.47537ZM218.08 2.07181C218.415 1.97248 218.733 0.847626 220.489 1.4181C220.49 1.4181 220.492 1.4181 220.494 1.4181C221.007 1.5847 220.422 1.85878 220.516 1.95645C220.55 1.99633 222.152 2.55588 220.822 2.64586C218.793 2.78392 220.631 1.80905 219.549 1.79714C219.417 1.79622 217.37 2.40509 217.489 2.53874C217.501 2.55431 218.117 2.42551 218.219 2.48106C218.603 2.68989 218.416 3.04115 218.47 3.05787C218.648 3.1007 221.884 2.50228 222.355 3.02491C222.508 3.19344 217.195 3.58221 216.988 3.49459C216.857 3.43938 216.912 2.46434 216.777 2.36845C216.707 2.32068 214.57 2.68606 214.293 2.59642C214.212 2.5705 214.15 2.54255 214.105 2.51952C214.429 2.82118 212.493 2.79946 212.553 2.45909C212.586 2.32531 213.918 2.40275 213.966 2.42613C213.987 2.43603 214.005 2.44968 214.022 2.45909C213.746 2.09146 218.256 2.10804 217.283 1.56092C218.59 1.2612 217.097 2.36353 218.08 2.07181ZM224.364 1.47028C224.229 1.57283 224.094 1.67537 223.959 1.77791C226.248 1.52693 228.889 2.02055 231.526 2.01687C232.195 2.01669 231.425 1.38955 232.302 1.56092C233.004 1.69826 233.782 2.27995 233.4 2.40965C233.307 2.44201 231.876 2.06314 231.161 2.10202C229.047 2.21713 229.581 2.75494 229.457 2.76947C229.321 2.78475 227.991 2.40654 227.265 2.42338C225.438 2.46691 224.604 2.7971 222.109 2.3657C223.549 2.01125 222.76 1.24125 224.364 1.47028ZM309.676 2.61564C309.763 2.27713 311.26 2.57747 311.805 2.52775C311.719 2.86709 310.22 2.5659 309.676 2.61564ZM86.4827 2.17619C86.0227 2.73169 89.4707 2.86923 88.562 2.40692C88.361 2.30431 86.916 2.18015 86.4827 2.17619ZM101.973 2.51403C102.434 2.36046 100.577 1.96051 100.58 2.39043C100.583 2.5283 101.913 2.53401 101.973 2.51403ZM253.95 2.01687C254.037 1.99948 255.306 2.1232 255.345 2.15146C256.186 2.74128 252.01 2.40038 253.95 2.01687ZM120.803 1.83011C119.195 2.19421 124.034 2.35202 122.556 1.88779C122.482 1.86518 120.88 1.81241 120.803 1.83011ZM127.529 1.72848C127.144 1.74799 125.432 1.56721 125.41 1.73672C125.376 2.01019 127.335 2.19704 127.529 1.72848ZM285.776 1.84108C285.59 1.21519 287.847 1.68918 288.632 1.61036C288.818 2.23669 286.56 1.76204 285.776 1.84108ZM271.531 1.37964C281.045 0.88624 278.948 2.22349 270.965 1.68452C270.953 1.28299 270.931 1.41071 271.531 1.37964ZM283.714 1.4538C283.368 1.85477 282.288 1.73587 281.558 1.70375C281.689 1.42497 283.188 1.52586 283.714 1.4538ZM82.377 1.31648C82.9737 0.809964 85.6159 1.43441 85.1462 1.64334C85.0368 1.68845 82.1579 1.59503 82.377 1.31648ZM254.747 1.48127C254.525 0.872565 257.382 1.12086 257.601 1.25604C258.482 1.79978 254.978 1.34692 254.747 1.48127ZM299.279 1.30548C299.784 0.828688 301.217 1.07392 302.138 1.08025C301.719 1.48793 300.061 1.31405 299.279 1.30548ZM292.627 0.931926C292.685 0.913625 293.97 0.95667 294.027 0.97862C295.081 1.44431 291.445 1.32505 292.627 0.931926ZM14.6744 0.49248C14.7172 0.477116 15.6905 0.507517 15.7245 0.525441C16.5932 0.983201 13.672 0.889664 14.6744 0.49248Z" fill="#80B3D6"/>
</svg>
