<svg width="301" height="38" viewBox="0 0 301 38" fill="none" xmlns="http://www.w3.org/2000/svg">
<path d="M23.3234 37.5111C23.5095 37.4641 24.258 37.5784 24.582 37.5585C24.2147 38.0555 22.6522 37.6817 23.3234 37.5111ZM56.5599 1.42707C56.291 1.54992 56.0222 1.67277 55.7533 1.79562C56.5173 1.87545 57.5443 1.78528 58.2532 1.90189C58.3692 1.92147 58.0684 2.27717 58.3427 2.29305C58.6172 2.30883 58.5643 1.82274 58.9634 1.77075C59.4111 1.71391 61.4612 2.05255 62.1712 2.04434C64.8265 2.01152 67.5047 1.73392 70.1653 1.93581C67.4185 2.29543 70.1865 2.66144 70.9558 2.50559C71.1263 2.4695 71.099 1.56582 73.855 1.79336C75.6064 1.93776 73.9887 3.22969 76.9113 2.58247C74.6639 1.67867 76.8739 1.74201 78.6356 1.71196C78.9393 1.70664 81.3921 1.84243 82.4756 1.80241C82.8463 1.78848 83.4111 1.31514 83.9028 1.30272C84.2412 1.29452 84.4971 1.5533 84.9995 1.54012C87.342 1.4818 89.6456 1.46167 91.9921 1.54917C90.6209 2.76556 93.0685 2.06758 93.1784 2.12573C93.7375 2.456 91.209 2.55 92.209 2.75657C93.6064 2.71888 95.0038 2.6812 96.4011 2.64351C95.2542 2.49416 97.9194 1.61919 98.41 2.0172C98.194 0.942354 104.779 2.95271 105.781 2.59377C105.99 2.51795 104.623 1.98672 107.794 2.22974C108.137 2.25675 108.007 2.58104 108.187 2.55081C108.295 2.53263 108.948 1.5019 109.643 2.07147C109.897 2.27935 108.272 2.95632 111.84 2.68421C110.419 1.63513 116.787 2.11607 117.958 2.37897C117.724 2.23803 117.49 2.0971 117.256 1.95616C118.414 2.33636 118.623 1.97968 118.884 1.99912C119.936 2.07719 121.381 2.43665 122.36 2.40384C123.507 2.3661 123.51 1.71367 124.847 1.96746C124.53 1.82351 124.212 1.67956 123.895 1.5356C124.818 1.57027 125.741 1.60494 126.664 1.63961C124.527 2.50324 127.125 1.68081 127.296 1.66222C127.569 1.63079 127.177 1.98436 127.633 1.94033C127.68 1.93308 127.612 1.60013 128.316 1.56273C129.786 1.48574 129.554 1.90437 130.171 1.89963C130.228 1.89747 130.03 1.59752 131.096 1.52656C134.484 1.30066 131.079 1.75642 130.949 1.79788C130.778 1.85257 131.94 3.10608 129.062 2.6616C130.028 2.8031 130.125 3.3578 130.234 3.37157C130.33 3.38289 132.005 3.30476 132.097 3.28565C132.921 3.09729 132.196 2.71823 132.357 2.6503C132.488 2.59554 134.505 3.08953 134.978 1.94937C135.943 3.00103 134.423 2.90468 132.804 3.06633C132.568 3.28214 134.345 3.49198 134.439 3.49141C136.732 3.48949 135.462 2.62444 135.964 2.07147C136.227 1.78215 137.161 2.37231 136.299 1.59665C138.38 1.51477 137.118 1.96425 137.252 2.03077C137.455 2.1285 138.183 1.90619 138.274 1.93581C138.408 1.97964 137.943 2.2482 138.47 2.34279C138.558 2.35655 139.408 1.89441 138.312 1.67353C139.776 1.73922 139.656 1.34516 140.152 2.1393C141.161 0.636885 140.884 3.02737 141.281 3.11155C142.337 3.33346 142.031 2.15386 142.087 2.09634C142.471 1.72772 145.394 2.13294 146.118 1.96294C145.832 2.81255 143.801 1.97222 143.346 2.13704C141.832 2.6854 145.481 2.56182 144.381 3.62933C144.842 3.33615 145.304 3.04296 145.765 2.74978C146.61 3.43615 145.411 3.73544 147.686 3.48462C148.059 2.89219 146.077 3.57819 146.475 3.11155C146.709 2.83768 148.029 2.77886 148.055 2.63447C148.081 2.46066 146.888 2.66665 147.076 2.39932C147.486 1.82243 151.836 2.37163 148.525 2.68647C149.449 2.67661 149.925 3.82406 150.725 3.46653C151.243 3.23447 148.33 1.64972 152.701 1.94033C152.794 2.48216 150.953 2.10033 150.906 2.14156C150.838 2.20158 151.171 3.42427 151.229 3.48462C151.433 3.68332 155.897 3.0286 156.84 3.64289C156.467 2.93623 160.214 3.5168 160.622 3.30148C160.73 3.24203 160.324 2.80917 160.441 2.76335C161.165 2.49066 163.125 3.26337 164.034 3.28339C165.051 3.30608 164.922 2.93222 164.979 2.93293C165.427 2.95378 165.069 3.20723 165.343 3.20651C165.756 3.2053 168.597 3.25713 168.74 3.20425C168.782 3.18777 168.318 2.7607 168.937 2.67969C169.045 2.66566 168.977 3.172 170.811 2.95328C173.02 2.69022 169.277 2.32361 170.195 1.79336C171.614 2.54835 171.568 1.80019 171.952 1.85893C172.086 1.88033 173.077 2.51644 174.154 2.4762C173.381 2.57945 172.608 2.6827 171.835 2.78596C172.595 2.8975 174.071 2.75944 174.697 2.88544C175.002 2.94678 174.75 3.46935 175.414 3.45523C175.554 3.44939 176.113 2.17626 174.375 2.74752C174.236 2.29293 175.063 2.58896 175.447 2.46037C175.505 2.44033 175.734 1.68088 176.224 2.15287C176.341 2.26899 175.061 4.48437 178.363 2.88092C178.47 2.82925 178.1 2.5518 178.204 2.49429C178.275 2.45534 179.118 2.56756 179.211 2.5282C179.306 2.48597 178.899 2.18307 179.013 2.12347C179.594 1.81636 180.357 3.01768 179.158 2.92614C179.559 3.07462 179.96 3.22309 180.361 3.37157C179.932 2.46618 180.99 3.11683 181.545 3.08894C185.099 2.91074 182.719 2.32188 183.33 2.0172C184.313 1.52802 183.562 3.07742 185.021 2.61186C185.156 2.56833 183.392 1.91063 186.836 2.28175C186.328 2.30737 185.819 2.333 185.311 2.35862C185.604 3.23434 187.146 2.29855 187.265 2.28627C188.617 2.16603 187.703 2.48172 189.711 2.03077C189.89 1.99028 190.281 2.20641 190.664 2.0986C192.254 1.65446 188.567 1.82909 188.466 1.47455C188.418 1.30083 192.383 1.34458 192.519 1.42707C193.097 1.79273 190.722 1.58813 191.175 2.04208C191.34 2.20326 196.991 1.87221 198.125 2.04886C199.433 2.25442 200.022 3.44173 200.031 2.10765C200.4 3.41717 200.726 2.5237 200.893 2.53272C202.916 2.65395 202.92 2.66716 204.655 2.54177C205.038 2.51451 205.362 2.91184 205.497 2.84475C205.576 2.80423 205.429 2.37902 205.815 2.24783C206.352 2.06836 209.577 2.50569 209.817 2.74074C210.056 2.97579 208.455 2.84267 208.742 3.22912C209.901 3.26819 211.013 3.17257 212.18 3.2133C212.665 3.23137 212.416 3.50185 212.625 3.50723C212.714 3.51056 214.388 3.27237 214.318 3.1726C214.151 2.9406 208.982 3.09655 210.343 2.62317C210.606 2.5317 211.534 3.15499 211.386 2.39706C216.004 2.5689 220.623 2.74074 225.241 2.91258C222.587 3.47948 219.601 2.97248 216.822 3.02563C216.441 3.03219 215.153 2.95909 215.31 3.34218C217.673 3.44135 220.611 3.24175 222.881 3.49141C222.953 3.49967 222.687 3.84385 222.959 3.89839C223.467 4.00019 225.123 3.44509 225.401 3.58863C225.449 3.62207 224.507 4.07581 224.793 4.36417C225.529 5.10416 225.715 3.4652 226.348 3.48462C226.837 3.50034 230.123 4.2928 230.941 3.79212C231.812 3.25846 228.52 3.48231 228.763 3.04598C230.99 2.6075 233.246 3.07573 235.35 3.02111C235.388 3.01972 235.066 2.67779 235.535 2.62995C236.352 2.54669 236.567 3.0317 236.965 3.10929C237.394 3.19188 238.911 3.12238 239.113 3.29922C239.139 3.3224 238.832 3.80347 238.785 3.817C238.125 4.01527 237.89 3.39089 237.83 3.38288C237.604 3.3592 237.382 3.59835 237.176 3.58411C236.836 3.56036 236.65 3.3391 236.202 3.31957C235.893 3.30527 236.191 3.73016 235.893 3.71073C235.784 3.70187 234.605 2.73167 234.495 3.72203C234.46 4.03429 244.104 4.43528 245.068 4.18555C244.241 4.06646 243.414 3.94738 242.587 3.8283C244.266 4.11817 246.283 3.32687 246.426 4.49757C252.652 4.59329 258.879 4.689 265.105 4.78472C266.217 4.88446 265.607 5.63677 267.436 5.41781C266.964 5.17814 266.491 4.93847 266.018 4.6988C266.956 4.86694 271.11 5.19541 271.782 5.04022C271.869 5.01988 271.99 4.33901 273.028 4.28051C273.949 4.22886 274.097 4.739 274.589 4.83673C275.003 4.91735 275.467 4.78369 275.59 4.81185C275.684 4.8344 275.721 5.14636 275.948 5.20075C276.663 5.36894 276.083 4.4906 276.793 5.49921C276.62 5.53765 276.448 5.57609 276.275 5.61453C277.138 5.76051 278.317 6.21841 277.046 6.44433C276.827 6.48333 277.015 6.18153 276.852 6.18205C270.467 6.23813 275.566 6.82481 277.803 6.35615C278.377 6.80333 281.598 6.53031 281.705 6.61843C281.854 6.74607 281.302 7.10346 282.025 7.41206C282.177 7.47738 286.482 7.22698 284.932 7.8213C284.612 7.9439 282.548 7.8151 282.05 7.83261C283.221 8.78042 285.966 7.42248 286.274 7.45728C287.519 7.60499 283.883 8.27869 286.687 8.38883C288.844 8.47334 286.819 7.84047 287.649 7.57033C288.115 7.41875 290.556 8.11595 290.489 7.21308C291.327 7.11667 290.837 7.59473 290.94 7.62912C291.041 7.65934 292.689 7.38906 293.223 7.57937C293.288 7.60304 293.084 8.07232 293.151 8.11072C293.281 8.17646 294.87 8.08265 294.934 8.04289C294.974 8.01526 294.596 7.6044 294.751 7.50476C294.933 7.38986 296.462 7.48655 296.546 7.3691C296.665 7.19152 294.778 7.30851 295.092 6.84906C295.962 6.96474 297.379 6.65819 297.954 6.28832C297.813 6.39407 296.969 6.40925 296.677 6.37197C296.814 5.69907 298.625 5.70824 298.006 6.24083C298.4 5.95481 298.131 5.80306 298.353 5.53313C298.411 5.46475 298.97 5.45067 299.078 5.33416C299.092 5.31094 298.515 5.05706 298.63 4.92038C298.84 4.67341 300.535 4.72897 300.674 4.79377C301.064 4.97738 299.682 5.19955 299.567 5.48339C299.55 5.52697 300.726 6.08318 300.744 6.1323C300.812 6.65935 299.504 6.27953 299.654 6.75409C299.977 6.85433 300.301 6.95457 300.624 7.05481C299.376 7.53537 297.068 7.28826 296.472 7.83487C298.323 7.67221 300.259 7.69145 300.255 8.92243C300.254 9.44086 299.455 9.74477 299.486 9.87659C299.604 10.3482 300.712 9.83586 300.753 9.86077C300.787 9.88951 300.802 9.9175 300.802 9.94474C300.802 9.94475 300.802 9.94476 300.802 9.94477C300.802 10.2209 299.222 10.4198 299.143 10.5459C299.01 10.7698 299.713 11.6918 299.712 11.8957C299.688 11.9367 298.563 12.1548 298.942 12.5107C299.327 12.8702 300.311 12.8781 300.346 12.9154C300.534 13.1305 298.811 13.3266 298.76 13.4536C298.733 13.5178 299.658 13.9122 299.685 14.0256C299.708 14.1394 299.005 14.3877 298.728 14.7469C298.521 15.0137 299.123 15.2183 299.017 15.2601C298.941 15.2879 297.314 15.2833 297.234 15.3302C297.115 15.3996 297.496 15.7185 297.441 15.7983C297.362 15.913 296.837 15.7978 296.905 15.9158C296.956 16.0038 298.993 17.1032 298.98 17.3968C298.957 17.8977 296.8 16.7453 298.807 18.7218C298.821 18.7348 299.31 18.5943 299.323 18.6065C299.625 18.9701 298.058 19.5295 299.974 19.4318C296.411 20.0634 299.53 20.1847 299.003 21.0281C298.8 21.3522 297.418 21.4859 297.412 21.5345C297.546 21.9458 297.986 21.6268 298.136 21.8285C298.218 21.9411 296.982 22.3759 297.261 22.6583C297.404 22.8038 298.716 22.752 298.77 22.7804C299.289 23.0481 298.653 23.3364 298.767 23.5265C298.843 23.654 299.634 23.6641 299.655 23.687C299.688 23.7348 298.613 24.2499 298.389 24.4309C298.219 24.5702 298.858 24.7885 298.739 24.8492C298.024 25.2124 296.501 24.2862 297.968 25.5841C298.058 25.6637 298.613 25.6315 298.629 25.6474C298.972 26.0153 297.951 26.0471 297.768 26.3483C297.454 26.8673 298.922 26.5779 297.701 26.9429C298.617 27.2824 299.128 27.2682 300.2 27.1736C297.231 27.4375 296.184 28.7811 299.479 28.7473C298.431 28.7263 298.547 29.4846 298.235 29.4979C298.04 29.5053 296.52 28.7514 297.217 30.443C297.304 30.6544 298.228 30.3859 297.939 30.8184C295.722 30.708 297.892 31.0936 297.894 31.1508C297.865 32.1472 292.45 31.3311 291.52 31.4447C290.44 31.5765 289.48 32.3617 289.246 32.3627C288.474 32.363 289.114 31.9643 288.942 31.8178C288.767 31.6725 286.571 32.4363 286.461 32.3943C286.036 32.2258 286.468 31.7534 286.423 31.7296C285.897 31.4401 282.948 31.81 282.122 31.7002C282.148 32.0067 283.805 32.031 282.771 32.5232C281.565 33.0971 281.496 31.7461 281.465 31.6866C275.944 31.6994 270.422 31.7122 264.901 31.7251C264.969 32.4438 268.579 31.9018 268.661 31.9964C269.144 32.5567 263.046 32.5464 262.298 32.2926C262.866 32.4478 263.434 32.6031 264.002 32.7584C263.032 33.5847 260.884 32.5111 259.481 32.8759C259.028 32.9942 259.898 33.3131 259.88 33.3349C259.371 33.6559 258.553 33.4086 259.164 32.9777C257.92 33.3906 258.102 32.935 257.147 32.9008C257.098 32.8994 257.508 33.2328 256.753 33.3711C256.399 33.4356 254.511 33.4367 254.259 33.7283C254.155 33.8511 255.112 35.1443 255.23 34.0313C257.283 34.5739 255.886 33.5241 256.684 33.5497C256.806 33.5555 256.525 34.1768 258.533 33.8844C258.151 35.0047 255.838 34.1669 255.441 34.3026C254.624 34.5816 257.993 35.1601 258.611 34.2868C258.322 35.1611 258.85 34.4046 259.601 34.4406C260.424 34.4795 260.065 34.7399 260.51 34.7413C261.727 34.7478 261.222 34.1307 262.225 34.687C261.247 32.9647 263.942 34.4598 264.727 34.9109C263.45 34.9983 262.172 35.0857 260.894 35.1731C260.967 35.2636 261.04 35.354 261.114 35.4445C260.777 35.4317 260.44 35.4188 260.104 35.406C260.158 35.3194 260.212 35.2327 260.266 35.146C258.53 35.7096 258.107 35.0762 257.965 35.0691C256.144 34.9957 254.04 35.0011 252.198 34.999C251.922 34.9987 252.111 35.5625 250.097 35.1211C249.455 34.9806 250.062 34.5421 249.333 34.6079C248.423 35.7995 248.44 34.8491 248.169 34.8476C247.392 34.8477 246.917 35.1429 246.845 35.146C245.885 35.1921 244.478 35.1428 243.424 35.1867C243.404 35.1912 243.953 35.5573 243.268 35.449C243.027 35.4103 240.869 33.8475 238.983 34.3569C239.473 34.4624 239.964 34.5679 240.455 34.6735C239.878 34.526 235.835 34.9199 236.824 35.3382C237.429 35.5939 238.909 34.5865 239.071 35.5553C237.726 35.2653 230.296 35.699 229.717 35.4739C229.637 35.4417 230.13 35.1274 230.019 35.0872C229.934 35.0566 228.232 35.1311 228.006 35.0104C227.871 34.9386 228.623 34.746 228.562 34.6328C228.509 34.552 226.383 34.4174 226.262 34.8114C226.784 34.6532 228.251 34.7913 227.481 35.1234C227.382 35.1646 226.87 34.9105 226.749 34.9629C225.634 35.4456 228.967 35.3297 229.483 35.3337C227.389 35.8356 224.151 35.2439 221.724 35.5711C220.744 35.2432 223.178 35.0695 222.068 34.7978C219.767 34.2347 221.456 35.2512 221.385 35.293C220.813 35.6238 218.866 33.8509 218.865 35.2003C218.031 34.9971 218.301 34.827 217.124 35.0036C217.279 35.097 217.434 35.1905 217.588 35.2839C216.281 36.0656 213.515 34.0936 213.722 33.9431C214.28 33.5405 215.72 34.1685 215.843 34.1534C216.026 34.1311 216.529 32.7618 218.522 33.9861C219.338 33.0677 215.363 33.3662 217.172 32.7403C215.95 32.843 210.925 32.2038 210.201 32.6069C210.115 32.6595 210.517 33.5746 209.275 33.1088C208.686 32.887 210.107 32.8764 209.837 32.6679C209.008 32.0281 197.72 32.4374 195.576 32.4712C195.437 32.4722 195.488 32.1882 195.351 32.1908C194.931 32.1988 193.4 32.6223 192.648 32.4916C194.206 33.0172 191.18 33.0581 190.411 33.0003C189.243 32.9122 189.315 32.4124 188.81 32.3061C186.865 31.8965 183.852 33.083 182.341 31.9738C182.424 33.0747 179.727 31.434 178.501 31.4243C177.54 31.4164 176.146 32.145 177.443 32.5888C175.785 32.5381 174.039 32.7435 172.483 32.8104C172.226 32.8216 172.58 32.496 172.142 32.5255C172.102 32.5305 172.047 32.8495 171.67 32.8827C168.56 33.1608 170.073 32.4828 169.491 32.2835C169.166 32.1719 168.925 32.1164 168.749 32.0981C170.562 32.0358 172.653 31.9105 173.212 31.9014C172.735 31.1969 169.194 32.0367 168.157 31.8472C168.121 31.8403 168.246 31.452 168.21 31.4492C168.209 31.4492 168.208 31.4492 168.208 31.4492C167.819 31.4195 165.344 31.5628 165.853 32.0258C165.99 32.1495 167.129 32.1492 168.481 32.1072C168.115 32.194 168.388 32.629 168.323 32.6476C167.541 32.8626 165.624 32.438 164.944 32.3808C164.788 32.3682 164.799 32.6469 164.774 32.6476C164.155 32.5843 164.409 31.7885 163.775 32.6091C162.654 31.6174 165.874 32.4619 165.647 31.8178C165.473 31.3219 158.322 31.5882 158.343 32.3695C158.319 32.2859 158.22 32.1822 158.019 32.0642C157.572 31.8021 155.581 31.8841 155.238 32.028C155.18 32.0564 155.203 32.8147 155.131 32.8217C154.951 32.8391 152.519 32.2446 151.61 32.6928C152.101 32.7991 152.591 32.9053 153.082 33.0116C150.119 33.0182 150.577 33.2438 151.564 33.4706C151.614 33.4726 151.662 33.5014 151.709 33.5045C152.474 33.6721 153.455 33.8336 153.47 33.8934C153.526 34.1217 148.499 34.2487 149.466 33.5452C149.601 33.449 151.926 33.7623 150.775 33.2603C150.573 33.1724 149.08 33.3156 149.001 33.2603C148.476 32.8925 151.738 32.4038 151.339 31.8811C150.548 32.3787 149.532 32.1166 148.624 32.2451C148.211 32.3032 148.109 32.6834 148.058 32.6905C147.296 32.7898 147.724 32.3912 147.47 32.4011C147.333 32.408 145.832 33.2563 146.116 32.0868C141.17 32.9472 144.748 32.9463 147.782 32.8805C146.823 33.3064 144.943 33.1004 144.1 33.1993C143.797 33.2351 143.977 33.6254 143.466 33.7035C142.414 33.864 137.39 33.4157 136.082 33.31C136.885 33.1722 136.65 32.7471 136.03 32.7764C135.41 32.806 135.931 33.3734 135.81 33.4344C135.68 33.4976 132.77 33.2297 132.285 33.3033C134.477 33.0977 133.982 32.6738 132.123 32.6295C132.391 32.5074 132.66 32.3853 132.929 32.2632C131.839 32.4348 129.547 31.7881 128.917 31.9806C128.818 32.0115 129.173 32.3679 129.118 32.3853C128.565 32.5367 126.685 32.1732 126.597 32.2948C126.523 32.3961 127.325 32.6949 127.027 32.842C126.965 32.873 126.192 32.3912 125.43 32.5096C125.148 32.5532 125.318 32.8903 125.247 32.9098C124.654 33.072 125.004 32.5043 123.92 32.5956C123.125 32.6631 122.534 33.218 121.436 33.0342C125.04 33.7416 122.01 33.4461 120.503 33.6605C120.261 33.6947 120.468 34.3066 119.025 34.0087C122.097 32.9022 118.15 33.4239 117.342 33.4118C117.298 33.408 117.283 33.0045 116.887 32.998C116.853 32.9984 116.901 33.2711 116.533 33.292C113.043 33.4891 115.275 33.181 114.612 32.9121C114.329 32.7975 112.632 33.1832 112.175 33.1925C112.07 33.1934 112.118 32.9101 111.711 32.9211C110.992 32.9415 110.347 33.2432 109.872 33.2671C109.817 33.2685 109.815 32.8214 108.914 32.9664C108.661 33.0069 108.377 33.1657 108.737 33.2942C109.929 33.717 112.19 32.9853 113.538 33.4073C114.767 33.7916 110.892 33.8278 110.69 33.8301C110.616 33.8315 111.373 33.6095 110.604 33.5655C109.948 33.529 108.748 34.3012 107.769 34.1331C107.695 34.1206 106.913 33.4658 106.949 33.4276C106.982 33.3997 108.182 33.2576 108.008 33.0681C107.987 33.0465 107.224 33.0509 107.125 32.9098C107.003 32.7381 106.674 31.0528 106.511 31.0106C106.093 30.9062 106.365 31.2905 106.094 31.2638C105.514 31.2074 103.503 30.709 103.437 31.2932C103.77 31.3279 104.102 31.3625 104.434 31.3972C102.585 31.4573 103.373 31.7059 103.112 31.8155C102.829 31.934 102.909 31.4206 102.285 31.3723C102.15 31.3617 99.542 31.4689 99.5894 31.6844C101.032 31.3415 100.497 31.976 100.563 31.9873C100.816 32.0287 101.139 31.6727 101.478 31.6798C103.862 31.7355 101.458 32.2973 102.02 32.4418C102.214 32.4904 102.6 32.1866 102.682 32.2021C102.95 32.2525 102.954 32.6504 103.132 32.6182C103.548 32.5435 103.063 31.9805 103.095 31.9512C103.467 31.5988 104.923 32.0372 104.017 32.6498C104.561 32.8706 104.625 32.1261 105.056 32.4237C105.914 33.0131 104.629 32.8617 104.281 32.9596C103.031 33.3126 102.661 33.0268 100.893 33.1246C100.256 33.1591 99.5016 33.5208 99.2062 33.5407C99.0201 33.5532 97.2628 32.2948 97.2111 34.2642C96.528 34.0736 95.4562 32.7759 94.7525 32.8352C94.1206 32.8894 94.3216 33.5861 94.2626 33.613C94.1722 33.6554 93.4082 33.6005 93.1498 33.6989C92.8469 33.8153 92.9981 34.0812 92.5176 34.1896C91.3219 34.4586 91.3533 33.7474 91.2304 33.7012C89.8036 33.167 90.4283 34.1785 90.1118 34.2597C89.8174 34.3342 85.6876 33.9449 84.8183 34.2009C85.172 34.0585 85.5258 33.916 85.8795 33.7736C85.2465 33.33 84.5754 34.0535 84.5636 33.258C84.4351 34.5423 83.1285 33.6839 82.736 33.717C82.5813 33.7307 82.5935 33.9495 82.3998 33.959C81.6435 33.9973 79.9384 33.8231 79.5282 33.9341C77.7542 34.4118 82.2905 35.2065 82.6476 35.2545C81.9328 35.2404 77.8883 35.528 79.7473 36.1454C80.0347 36.2407 80.5439 35.6659 80.7053 35.6434C81.7978 35.4955 80.9386 36.0105 81.0243 36.0595C81.1699 36.1385 81.8889 35.6407 82.0786 35.7C82.1419 35.719 81.7343 36.1853 82.7761 36.1951C82.2637 36.6472 79.3354 36.2789 78.9511 36.3851C78.8143 36.423 79.6721 37.389 77.166 36.4506C77.195 36.5403 77.2241 36.63 77.2532 36.7197C75.8577 36.7566 74.4623 36.7936 73.0668 36.8305C73.2184 36.6239 74.002 36.2088 73.0152 36.2969C72.447 36.3479 72.8674 36.8081 72.8155 36.8214C72.3057 36.9481 63.282 36.795 61.5333 36.8463C60.9384 36.863 59.2803 37.2329 59.1538 37.2397C58.3978 37.2768 55.7206 37.036 55.1866 37.0883C54.8531 37.1218 55.1701 37.5065 54.8722 37.4885C54.5953 37.4712 54.8822 37.0993 54.7999 37.0837C54.1187 36.949 48.9433 37.4367 47.7144 37.086C48.4655 37.1913 52.2136 36.4483 52.1383 36.1861C52.122 36.1501 51.2111 35.8673 51.0231 36.0052C50.7127 35.6833 49.6468 36.6635 49.067 36.471C49.0015 36.4491 49.2597 35.8993 48.2249 35.7995C47.8685 35.7654 46.9352 36.194 45.9958 35.7135C44.6359 35.9444 37.486 35.2313 36.9955 35.8221C36.9809 35.8533 37.9878 36.0567 37.3075 36.2991C36.4032 36.6214 37.2153 35.5359 36.1614 35.4422C36.0026 35.428 33.0703 35.5378 32.9743 35.605C32.0862 36.2143 34.6485 36.4612 34.6126 36.532C34.5232 36.7104 32.3942 36.8183 32.3077 36.7762C32.2253 36.7325 33.9616 35.9252 31.8752 36.2313C32.1142 36.3278 32.3532 36.4243 32.5922 36.5207C31.611 36.7086 31.5175 36.1501 31.2798 36.116C30.5408 36.008 29.7413 36.8563 28.5573 35.8085C28.2442 35.5304 28.764 35.2216 28.7248 35.1799C28.3487 34.8057 27.8689 35.8069 27.3033 35.0601C27.2608 35.0044 28.5769 34.557 26.2765 34.5559C26.4348 34.6275 26.5932 34.6991 26.7515 34.7707C26.4271 34.9305 24.098 35.0255 23.7847 34.9877C22.8693 34.8773 23.6676 34.3633 22.7475 34.4247C23.3376 35.1291 20.5399 35.2211 20.7008 34.6147C20.31 35.3763 17.9334 34.7888 16.8161 34.7707C16.1112 34.7598 14.6733 35.0922 14.4493 35.0533C14.1765 35.0057 14.2594 34.4861 13.7667 34.3705C13.6262 34.3375 12.1595 34.7183 10.8721 34.1806C10.6226 34.0769 10.0986 33.1957 10.5624 32.9754C11.3561 32.5985 12.8577 33.3085 12.8385 32.7877C12.816 32.2307 10.7935 32.562 10.2492 32.4893C7.73591 32.153 9.18718 31.5609 9.12254 31.3814C8.95493 30.9458 7.58169 30.9593 7.52439 30.9201C7.28691 30.7462 8.26002 30.4014 8.27471 30.1355C8.29244 29.7894 6.96878 29.1647 7.2697 29.048C7.70045 28.8823 8.91691 29.403 8.99404 29.3781C9.99801 29.0423 8.62186 28.2425 8.24258 27.8496C8.12761 27.7288 8.58572 27.5301 8.49039 27.4946C7.03524 26.9567 8.18365 28.6186 7.21578 28.5076C6.35224 28.4087 7.4633 27.8831 7.43032 27.8541C7.38768 27.8223 6.35519 27.7937 6.19356 27.6077C6.1139 27.5146 8.7975 26.4924 8.68543 26.034C7.82918 26.135 6.97294 26.236 6.11669 26.337C6.04956 25.7394 7.28113 26.1793 7.40852 26.1177C7.66496 25.994 6.94989 25.6916 6.98059 25.5027C6.99705 25.3825 7.8363 24.9536 7.0781 24.7769C6.81753 24.7158 6.27068 25.1348 5.32163 24.7068C8.62445 24.1601 6.33565 23.8241 6.2383 23.6124C6.14294 23.4008 7.71973 22.9025 5.80578 22.9906C5.7228 21.8276 5.84704 22.623 6.39089 22.4186C7.05712 22.1673 5.51733 21.7844 7.95232 22.0749C7.81379 21.5304 5.85662 21.5689 5.75301 21.5255C5.66353 21.4861 6.09858 21.2183 5.94345 21.1275C4.10867 20.0754 5.36889 20.5559 4.83748 19.884C4.79022 19.8239 3.05606 19.5748 4.37628 19.477C6.78153 19.2991 7.78676 20.0707 8.19096 18.4211C6.41187 17.7045 4.25627 18.7693 3.71545 18.7874C2.88767 18.8134 3.74518 18.4769 3.64318 18.3826C3.60775 18.3522 2.89441 18.38 2.88483 18.3532C2.37618 17.0951 6.06043 18.3324 7.22036 18.1136C6.90945 17.9252 6.59854 17.7367 6.28763 17.5483C6.70945 17.5408 7.13126 17.5332 7.55307 17.5257C5.54356 17.1469 7.48223 17.3823 7.9833 16.3635C8.09579 16.1346 6.77562 16.5272 8.28159 15.891C7.17085 15.7441 7.52514 15.536 6.51938 15.8231C6.54534 15.4148 8.80823 14.9542 9.70076 14.7446C6.54766 14.2857 8.34576 15.7836 5.61992 14.9911C5.11445 15.4967 6.41553 15.3983 6.30943 15.4817C5.92878 15.7818 5.03644 15.3053 3.95982 16.3567C3.78452 16.5294 4.52629 17.0607 3.42864 17.0351C3.30723 17.0314 2.60782 16.5773 2.61752 16.5444C2.71024 16.1888 3.40236 16.322 3.43093 16.1736C3.45774 16.0331 2.68558 16.1176 2.68291 16.0786C2.65918 15.6331 3.32718 15.9084 3.23016 15.7689C3.02064 15.4655 0.243148 14.5068 3.86804 14.7876C0.85718 15.2913 3.48256 15.2795 4.65507 15.086C4.95408 15.0375 5.02981 14.7714 5.45586 14.679C6.00391 14.5594 6.64537 14.6872 6.92896 14.6384C7.23396 14.5845 5.50096 13.9555 8.00739 14.1432C6.73179 13.5175 4.4786 14.1846 3.22557 13.7452C0.697529 12.8574 4.98823 12.6668 5.43521 12.5808C5.5543 12.5575 5.15506 12.1981 5.23444 12.1761C5.36425 12.1423 7.7994 12.3084 8.03952 12.011C8.27898 11.7139 7.14757 12.0247 7.07237 11.7148C7.02139 11.5062 9.95904 11.1361 8.36878 10.9935C7.27271 10.8958 5.25236 11.7343 4.91206 10.833C6.52397 10.7584 8.13589 10.6838 9.7478 10.6092C8.86555 10.2662 7.9833 9.92332 7.10105 9.5804C8.91025 9.47164 10.4743 9.8588 12.1926 9.36786C8.06357 8.269 13.5333 8.4909 13.5935 8.35717C13.6136 8.27719 11.9883 7.38527 11.7268 7.22213C13.167 6.87901 17.543 6.71134 14.9828 5.61C15.4475 5.85868 16.5728 5.24483 16.558 5.19849C16.4151 4.71194 13.9607 5.02745 14.361 4.58801C14.8249 4.07805 15.4749 4.76988 16.1886 4.71463C19.8507 4.4266 18.846 1.88661 22.5181 2.28853C22.445 2.19809 22.372 2.10765 22.2989 2.0172C26.2903 2.16116 30.2816 2.30511 34.273 2.44906C35.8346 1.6734 39.9907 1.20107 42.032 1.28689C42.443 1.3036 44.4611 1.71069 44.6133 1.78206C44.8954 1.91884 43.3447 1.97103 44.0454 2.22748C44.1934 2.28012 47.61 2.45117 47.3656 2.0172C46.9828 1.96689 45.7846 2.18503 45.5885 2.08278C44.211 1.35291 54.7439 1.93599 55.2657 1.64187C55.0325 1.50093 54.7992 1.35999 54.5659 1.21906C55.2306 1.28839 55.8952 1.35773 56.5599 1.42707ZM26.0184 36.2811C25.6195 36.7165 24.6198 36.3895 24.029 36.5117C23.2129 36.6829 21.8255 38.3596 22.4228 36.679C23.6214 36.5464 24.8199 36.4137 26.0184 36.2811ZM43.5349 36.93C42.7312 36.6961 43.3546 35.7575 44.0133 36.1477C44.0864 36.192 44.6223 37.2448 43.5349 36.93ZM35.1094 36.4846C35.1432 36.4721 35.8377 36.497 35.862 36.5117C36.4848 36.8885 34.3909 36.8115 35.1094 36.4846ZM75.8111 36.003C74.9255 36.0435 75.5668 36.8968 76.1174 36.5456C76.152 36.5233 75.8693 36.001 75.8111 36.003ZM75.1812 35.9803C74.4935 35.2162 73.1083 36.7648 74.2095 36.6089C74.3163 36.5932 75.213 36.0176 75.1812 35.9803ZM40.6702 36.5569C40.7606 36.264 41.5896 36.4055 41.9436 36.4755C41.934 36.7429 41.0173 36.5242 40.6702 36.5569ZM61.6893 36.4755C61.7245 36.2453 58.843 36.258 58.6467 36.5614C59.1015 36.4327 61.6562 36.6824 61.6893 36.4755ZM69.0789 36.1522C69.0059 36.1124 68.0104 36.1729 68.0395 36.376C68.5254 36.6425 69.4078 36.3323 69.0789 36.1522ZM83.7662 36.1657C83.8203 36.1147 83.0748 34.822 84.8412 35.6728C85.1006 35.7974 84.1743 36.1352 84.2664 36.1816C84.4594 36.272 84.612 36.3142 84.7345 36.3218C83.9119 36.4289 83.0573 36.4793 82.9746 36.4009C82.5864 36.0305 83.7423 36.187 83.7662 36.1657ZM91.477 35.2025C91.6466 34.9917 92.729 35.1044 92.9754 35.1912C93.0177 35.2076 92.8333 35.7618 93.3207 35.7203C93.712 35.6861 93.1275 35.1185 93.8897 35.2093C94.6601 35.3005 93.6309 35.705 93.6982 35.7339C93.7883 35.7717 94.98 35.5169 94.9429 35.8469C94.9153 36.0914 93.6387 35.9261 93.323 35.9781C92.9188 36.0449 93.4089 36.4522 92.7333 36.3647C92.3088 36.3101 92.5441 35.5937 92.4545 35.5575C92.3794 35.5284 90.8954 35.9406 91.4793 35.2048C91.4786 35.204 91.4778 35.2033 91.477 35.2025ZM84.9571 36.2901C84.8952 36.3143 84.8225 36.3272 84.7345 36.3218C84.8092 36.312 84.8835 36.3007 84.9571 36.2901ZM28.3405 35.9668C28.7582 36.1877 27.5182 36.471 27.0486 36.1816C27.0405 35.9482 28.2739 35.9324 28.3405 35.9668ZM85.72 35.7068C86.9421 35.8862 86.0433 36.133 84.9571 36.2901C85.302 36.1553 85.3097 35.6468 85.72 35.7068ZM51.0231 36.0052C51.0747 36.0586 51.1073 36.1419 51.1115 36.2788C50.976 36.1291 50.9639 36.0487 51.0231 36.0052ZM53.8741 36.2494C54.8515 35.8325 52.8657 35.8494 52.8783 36.1477C52.8842 36.2603 53.835 36.266 53.8741 36.2494ZM76.9469 36.0436C76.8575 36.0029 78.2464 34.744 76.2298 35.6887C77.3061 35.837 76.1706 35.9741 76.1874 36.0843C76.2313 36.4012 78.0392 36.0966 78.4395 36.2336C78.7529 35.6667 77.242 36.1781 76.9492 36.0436C76.9484 36.0436 76.9476 36.0436 76.9469 36.0436ZM105.374 35.5078C105.129 35.84 104.352 35.7331 103.827 35.7135C104.072 35.3813 104.85 35.4882 105.374 35.5078ZM242.602 35.5553C239.009 35.8624 238.544 34.5096 241.831 35.0443C241.896 35.0555 242.82 35.4181 242.602 35.5553ZM211.764 35.2048C211.425 34.6152 212.546 34.5204 213.282 34.7639C213.448 34.8187 214.064 35.4159 213.361 35.5327C213.383 34.818 212.296 34.545 211.764 35.2048ZM86.4107 35.3292C86.7666 34.936 87.8619 35.2158 88.4391 35.2749C88.0869 35.5986 86.9211 35.4522 86.4107 35.3292ZM230.795 34.8498C230.416 34.8052 230.16 35.3181 230.226 35.3608C230.518 35.5566 231.226 35.1418 230.795 34.8498ZM82.8748 35.2681C82.8247 35.0331 84.2756 34.807 84.3766 35.3879C84.0665 35.3459 82.9107 35.4156 82.8748 35.2681ZM104.385 35.3314C104.16 35.212 105.326 34.9981 105.679 35.1166C105.651 35.3667 104.533 35.4091 104.385 35.3314ZM224.697 35.0239C224.358 34.9794 223.51 34.9658 223.417 35.1731C223.3 35.4324 224.542 35.344 224.697 35.0239ZM287.804 34.5762C287.846 34.6694 286.534 35.3408 285.951 35.1709C284.843 34.8458 287.757 34.5104 287.804 34.5762ZM234.38 34.5853C235.449 35.0731 234.262 34.6007 234.309 35.1144C235.028 35.1329 236.819 35.1582 235.588 34.6531C235.348 34.5554 234.715 34.6185 234.38 34.5853ZM233.393 34.4134C233.279 34.5799 232.508 35.1045 233.174 35.0669C233.482 35.0487 233.979 34.4658 233.393 34.4134ZM279.673 34.8046C278.714 34.3498 283.109 34.5938 283.235 34.6735C283.302 34.7155 283.346 34.7552 283.371 34.7888C283.532 34.6446 284.362 34.6187 284.458 34.9832C284.209 34.9531 283.53 34.9852 283.451 34.9448C283.417 34.9276 283.391 34.9114 283.374 34.895C283.081 35.2115 279.857 34.8908 279.673 34.8046ZM272.391 34.3366C273.488 33.6657 273.682 34.8063 273.588 34.843C272.394 35.3099 273.172 34.4687 273.136 34.4293C273.052 34.3637 272.204 34.754 272.395 34.3366C272.394 34.3366 272.392 34.3366 272.391 34.3366ZM278.18 34.6169C278.225 34.6021 279.146 34.6374 279.184 34.6554C279.939 35.0387 277.333 34.9405 278.18 34.6169ZM97.2891 34.4044C97.9485 34.5178 97.3017 34.9374 96.8635 34.7865C96.8275 34.7716 96.7075 34.3042 97.2891 34.4044ZM232.867 34.5265C232.714 34.4472 228.803 34.1482 229.038 34.782C229.37 34.7072 233.815 35.0334 232.867 34.5265ZM203.642 34.3727C204.332 34.3776 203.58 34.9754 203.212 34.7526C203.076 34.6698 203.468 34.3719 203.642 34.3727ZM80.9187 34.7255C80.2027 35.0539 80.3508 33.9521 80.9715 34.3298C80.9959 34.3446 80.9468 34.7126 80.9187 34.7255ZM209.151 34.7164C206.773 35.0787 207.336 33.1835 210.428 33.8233C210.332 33.9077 210.235 33.9921 210.138 34.0765C213.707 34.3608 210.382 34.2101 209.508 34.3162C209.176 34.3565 209.455 34.6729 209.154 34.7187C209.153 34.7179 209.152 34.7172 209.151 34.7164ZM200.016 34.3366C197.725 32.9914 202.098 33.8674 203.352 33.6922C202.136 34.2476 200.553 34.1636 202.706 34.7322C199.558 34.8422 200.869 34.3065 200.743 34.2619C200.594 34.212 200.113 34.3943 200.016 34.3366ZM206.057 34.3275C206.19 34.2883 207.187 34.5621 207.546 34.5174C207.044 34.977 205.178 34.5944 206.057 34.3275ZM264.757 34.6486C264.84 34.2886 265.045 34.0234 265.832 34.1579C265.589 34.3388 265.086 34.4944 264.757 34.6486ZM25.2612 34.3863C24.719 34.3605 23.6394 34.2248 23.9705 34.6034C24.0068 34.6356 25.2595 34.5988 25.2612 34.3863ZM221.509 34.2348C221.393 34.1905 218.411 34.1608 219.441 34.5581C219.752 34.678 222.465 34.6271 221.509 34.2348ZM236.951 34.28C236.701 34.2763 235.687 34.3441 235.666 34.4293C235.597 34.7236 236.842 34.5618 236.951 34.28ZM22.5261 34.0178C22.4547 33.9804 20.7987 34.0466 20.9807 34.2212C21.3263 34.5516 22.7708 34.1464 22.5261 34.0178ZM99.688 33.561C99.8265 33.5477 100.01 33.9388 100.057 33.9431C100.17 33.9487 102.704 33.7983 101.736 34.3004C101.574 34.3845 97.9285 34.1917 97.4543 34.1421C97.2709 33.6052 98.8283 34.116 99.2073 34.0607C99.2741 34.0502 99.3169 33.6011 99.6869 33.5633C99.6873 33.5625 99.6877 33.5618 99.688 33.561ZM268.859 34.2687C268.971 33.9274 271.95 33.7014 271.915 34.115C270.896 34.1662 269.878 34.2175 268.859 34.2687ZM267.346 34.2122C266.71 33.9708 268.199 33.8909 268.637 33.9974C268.642 34.227 267.438 34.2475 267.346 34.2122ZM231.301 33.0048C231.001 33.0883 231.922 33.5863 231.716 33.6831C231.584 33.7434 230.915 33.5567 230.702 33.7125C230.641 33.762 231.324 34.2302 231.521 34.2099C231.801 34.1829 231.529 33.8145 231.835 33.812C232.851 33.8041 233.751 34.0668 234.703 34.0607C234.789 34.0594 234.123 33.7993 234.856 33.803C234.969 33.803 235.65 34.1905 236.528 34.1331C238.465 32.933 239.888 34.1113 242.346 33.6786C242.254 33.5656 240.415 33.2625 240.307 33.2513C238.251 33.0539 234.569 33.0322 232.417 33.0297C231.865 33.0286 232.133 33.2827 231.895 33.292C231.707 33.2988 231.93 32.8285 231.301 33.0048ZM25.5492 34.1263C25.2907 33.6565 24.3843 33.9538 23.8053 33.9296C24.0091 34.3533 24.9834 34.0222 25.5492 34.1263ZM253.971 33.8482C253.68 33.8663 252.781 33.7248 252.706 33.8663C252.611 34.051 253.909 34.1675 253.971 33.8482ZM113.976 33.6944C114.004 33.6816 114.702 33.7068 114.729 33.7216C115.353 34.0986 113.258 34.0213 113.976 33.6944ZM130.677 33.7849C131.206 33.7269 131.74 33.5801 131.918 33.9612C131.581 33.9029 130.615 34.0503 130.677 33.7849ZM153.718 33.7736C153.608 33.2744 155.202 33.5977 155.503 33.6424C155.391 33.8643 153.798 34.1332 153.718 33.7736ZM264.643 33.0817C265.617 33.1112 265.411 32.3551 266.03 32.6973C266.131 32.7551 266.457 34.3295 265.386 33.7396C265.193 33.6336 265.947 33.2595 264.643 33.0817ZM210.932 33.8391C211.18 33.5089 211.954 33.6069 212.477 33.6334C212.36 33.8787 211.304 33.8156 210.932 33.8391ZM19.5352 33.6402C19.0783 33.174 16.9672 33.5198 17.4896 33.8278C17.5639 33.868 19.239 33.6225 19.5352 33.6402ZM88.8876 33.8233C89.7562 33.4562 87.9572 33.3425 87.3893 33.7012C87.6464 33.6777 88.8291 33.8475 88.8876 33.8233ZM148.183 33.5022C148.225 33.4872 149.146 33.5226 149.187 33.5407C149.942 33.924 147.336 33.8258 148.183 33.5022ZM125.185 33.1789C125.517 32.8768 127.698 33.1206 128.187 33.4231C127.717 33.8648 124.773 33.5562 125.185 33.1789ZM260.634 33.2965C261.329 33.2808 261.988 33.3739 262.627 33.5045C262.492 33.7588 260.707 33.4865 260.634 33.2965ZM151.564 33.4706C151.614 33.4726 151.662 33.5014 151.709 33.5045C151.659 33.4937 151.611 33.4814 151.564 33.4706ZM245.078 33.1179C244.496 33.0174 244.617 33.4834 244.653 33.4977C245.091 33.6486 245.737 33.2312 245.078 33.1179ZM24.8837 33.4344C24.6818 33.0138 23.7022 33.34 23.1387 33.24C23.3022 33.5721 24.4298 33.4785 24.8837 33.4344ZM197.563 33.4751C196.831 33.0191 199.808 32.4894 200.436 32.7832C200.482 33.065 197.67 33.5375 197.563 33.4751ZM86.1904 33.1925C86.132 32.8629 84.882 33.2606 85.1475 33.4163C85.3157 33.5154 86.2254 33.3972 86.1904 33.1925ZM201.933 32.9754C202.212 32.8748 202.864 33.2 202.635 33.3982C202.34 33.6523 201.86 33.0042 201.933 32.9754ZM227.029 32.7109C226.907 32.6605 225.262 32.9988 225.942 33.3349C226.413 33.5685 226.488 33.0921 226.599 33.0907C226.723 33.0922 229.363 33.6752 227.029 32.7109ZM180.888 33.188C181.509 33.0612 182.259 33.2083 182.909 33.1993C182.644 33.4031 181.152 33.4586 180.888 33.188ZM91.0112 33.1043C90.8605 32.971 86.755 32.8907 89.0873 33.301C89.2233 33.3242 91.469 33.5079 91.0112 33.1043ZM264.643 33.0817C264.52 33.078 264.378 33.0622 264.213 33.0297C264.377 33.0425 264.519 33.0648 264.643 33.0817ZM253.578 33.0319C253.803 32.792 252.673 32.7279 252.339 32.8556C252.237 33.1487 253.547 33.0655 253.578 33.0319ZM182.958 32.8646C183.332 32.7273 184.011 32.8738 184.475 32.8578C184.396 33.0809 183.12 33.0912 182.958 32.8646ZM156.68 32.6136C157.423 32.7462 158.337 32.6852 158.351 32.4124C158.367 32.4551 158.403 32.5003 158.463 32.5458C158.523 32.5909 159.319 32.464 159.665 32.5571C161.736 33.1102 151.669 32.882 157.504 32.1117C157.229 32.279 156.954 32.4463 156.68 32.6136ZM122.233 32.5368C121.811 32.2047 120.63 32.6208 120.937 32.7516C121.15 32.8412 122.655 32.8711 122.233 32.5368ZM138.462 32.3401C138.336 32.2808 137.183 32.5134 137.153 32.6883C137.816 32.8725 139.037 32.6154 138.462 32.3401ZM118.991 32.1479C118.726 32.0978 118.388 32.6332 118.42 32.6566C118.689 32.8521 119.435 32.446 118.991 32.1479ZM262.624 31.6391C262.231 31.4858 260.975 31.8734 260.702 32.227C260.651 32.1586 260.514 32.0695 260.262 31.9625C260.263 31.9625 260.264 31.9625 260.265 31.9625C259.925 31.8196 249.777 31.6636 256.584 32.3446C256.797 32.3664 256.506 32.049 257.373 32.1049C257.431 32.109 257.459 32.3682 257.636 32.3808C258.044 32.4081 260.213 32.5712 260.649 32.3627C260.653 32.4107 260.681 32.4564 260.741 32.4983C261.275 32.8721 262.93 31.7574 262.624 31.6391ZM140.749 32.2926C140.517 32.1966 139.782 32.2877 139.706 32.5164C140.07 32.6285 141.288 32.5166 140.749 32.2926ZM90.8839 32.166C90.411 31.9779 89.2127 32.3295 89.5749 32.5164C89.7969 32.6314 91.4292 32.3819 90.8839 32.166ZM133.39 32.4147C136.102 32.685 134.037 32.3928 134.453 32.0574C134.098 32.1765 133.744 32.2956 133.39 32.4147ZM275.173 32.5051C274.741 32.4279 275.249 31.7662 275.725 32.1253C275.875 32.2393 275.415 32.547 275.173 32.5051ZM294.696 32.2994C294.327 31.7126 296.13 32.0573 295.427 32.4599C295.395 32.4735 294.723 32.3217 294.696 32.2994ZM281.054 32.0597C280.761 32.4592 280.57 32.5066 279.743 32.4079C280.967 32.2953 279.832 31.942 281.054 32.0597ZM158.343 32.3695C158.348 32.3856 158.352 32.3975 158.351 32.4124C158.346 32.3977 158.344 32.3838 158.343 32.3695ZM116.442 32.2519C116.102 31.9134 115.151 31.9383 115.434 32.279C115.462 32.3106 116.303 32.502 116.442 32.2519ZM260.702 32.227C260.747 32.2876 260.724 32.3268 260.649 32.3627C260.645 32.3175 260.665 32.2748 260.702 32.227ZM121.549 31.976C121.515 32.2286 122.963 32.3268 123.021 32.2971C123.852 31.8592 122.147 31.9608 121.549 31.976ZM81.3111 31.811C81.2364 31.8373 81.718 32.4892 82.0132 32.2338C82.2418 32.0356 81.5908 31.7107 81.3111 31.811ZM283.862 31.8969C284.32 31.8973 284.966 31.897 285.085 32.2067C284.777 32.1591 283.852 32.1241 283.862 31.8969ZM293.991 31.8743C293.449 32.2383 292.211 32.2373 291.421 32.1773C291.406 31.6981 293.482 31.987 293.991 31.8743ZM263.868 31.8178C263.831 31.7983 262.681 31.6553 262.838 31.976C263.067 32.4464 264.193 31.9922 263.868 31.8178ZM83.5437 32.1569C84.0578 31.936 82.8746 31.2572 82.3321 31.7816C82.0536 32.0501 83.457 32.1939 83.5437 32.1569ZM113.471 31.8087C112.793 31.9943 114.474 32.3249 114.709 31.9896C114.397 31.9627 113.712 31.743 113.471 31.8087ZM136.556 31.4696C134.418 30.5023 135.582 32.2668 135.961 32.1117C136.015 32.0895 136.608 31.4923 136.556 31.4696ZM14.2302 31.707C13.9275 31.8414 15.0559 32.3282 15.2019 32.0077C15.2921 31.8071 14.4237 31.6213 14.2302 31.707ZM168.749 32.0981C168.659 32.1012 168.569 32.1044 168.481 32.1072C168.547 32.0914 168.635 32.0862 168.749 32.0981ZM107.313 30.5131C108.818 31.8787 108.66 30.8262 108.79 30.8319C109.073 30.8466 109.73 31.2159 110.262 31.1553C109.652 31.309 109.043 31.4628 108.433 31.6165C108.914 31.7151 113.1 32.2178 113.188 31.9964C113.314 31.681 111.997 31.78 111.958 31.7522C111.903 31.7126 111.697 30.8359 111.575 30.8026C111.374 30.7493 107.874 30.7311 107.313 30.5131ZM132.085 31.621C132.428 31.7253 132.526 32.0726 132.686 31.9896C132.74 31.9612 132.749 31.6299 132.935 31.5442C132.651 31.5698 132.368 31.5954 132.085 31.621ZM104.618 31.7409C104.192 31.336 106.102 31.4898 106.163 31.5351C106.49 31.8096 104.966 32.0716 104.618 31.7409ZM120.826 31.6821C120.757 31.6585 119.29 31.5321 119.302 31.7567C119.69 31.928 121.651 31.9779 120.826 31.6821ZM133.164 31.5216C133.68 31.5602 134.654 31.8938 134.542 31.3949C134.541 31.3949 134.541 31.3949 134.54 31.3949C134.081 31.4372 133.623 31.4794 133.164 31.5216ZM85.3036 31.1033C84.3485 30.3087 84.801 31.3127 85.6466 31.569C85.9028 31.2123 85.4601 31.2326 85.3036 31.1033ZM82.2472 30.5109C81.9816 30.3679 79.2435 30.5246 79.6613 30.945C79.8098 31.0948 81.3843 30.717 81.4568 30.746C81.5667 30.7891 81.0645 31.2542 81.9042 31.1621C81.8551 31.0045 82.3383 30.5586 82.2472 30.5109ZM84.5131 30.5945C83.564 29.9903 83.3508 31.1048 84.0645 31.1078C84.3434 31.1098 84.6485 30.6817 84.5131 30.5945ZM88.3897 30.6895C88.0482 30.5838 87.1386 30.4296 86.5117 30.8003C87.3507 30.8319 88.1897 30.8636 89.0288 30.8953C89.1255 30.6853 88.6885 30.7824 88.3874 30.6895C88.3882 30.6895 88.389 30.6895 88.3897 30.6895ZM299.694 29.0186C298.94 28.7025 300.677 28.5814 300.751 28.6591C300.969 28.9169 300.031 29.1597 299.694 29.0186ZM8.3401 21.582C8.13058 21.456 7.9936 21.0415 7.53242 21.2587C7.9963 21.5647 8.46018 21.8707 8.92406 22.1767C9.28456 21.4755 8.56911 21.721 8.3401 21.582ZM6.56872 19.0203C6.63424 19.0033 6.27629 17.9251 7.12285 18.6449C7.69483 19.1309 4.58439 19.6046 4.02292 19.1265C4.64331 18.9044 6.00465 19.1587 6.56872 19.0203ZM1.12033 14.3535C1.08446 14.2675 2.2662 14.1414 2.40298 14.202C3.1212 14.5215 1.31437 14.8141 1.12033 14.3535ZM4.89026 14.5592C4.33605 14.3498 5.56379 14.2149 5.92969 14.3354C5.96518 14.536 4.97587 14.5897 4.89026 14.5592ZM292.058 13.4038C291.458 12.6711 290.922 14.2484 291.844 13.9306C291.888 13.9157 292.083 13.4397 292.058 13.4038ZM2.27563 13.2659C2.82984 13.4753 1.6021 13.6102 1.2362 13.4897C1.20218 13.2893 2.19125 13.2353 2.27563 13.2659ZM291.636 11.6583C290.839 11.131 291.12 12.9007 291.219 12.972C291.629 13.2536 293.035 12.559 293.322 12.3864C291.218 12.6519 292.011 11.9068 291.636 11.6583ZM287.962 12.721C287.223 12.9098 289.111 13.2708 289.472 12.7775C289.105 12.8011 288.172 12.6664 287.962 12.721ZM283.477 12.1535C283.08 12.0901 281.898 11.9383 281.7 12.2168C282.134 12.1664 283.31 12.44 283.477 12.1535ZM282.578 11.3191C281.957 10.9408 281.808 12.0431 282.524 11.7148C282.552 11.7021 282.601 11.3402 282.578 11.3191ZM279.087 10.9212C278.679 10.4828 278.214 11.5504 278.874 11.5792C279.071 11.5857 279.13 10.9715 279.087 10.9212ZM290.639 9.7545C290.055 9.56625 289.304 10.3308 290.549 10.4147C290.112 10.5315 289.674 10.6484 289.237 10.7652C290.868 11.1937 290.748 10.1335 291.217 10.1773C291.871 10.2396 291.82 11.1145 291.688 11.3892C292.225 10.8532 294.505 10.8446 295.823 10.7426C294.665 10.5176 292.785 10.1276 291.642 9.98512C291.316 9.94386 290.999 10.1838 290.721 10.157C290.275 10.1127 290.671 9.76717 290.641 9.7545C290.64 9.7545 290.639 9.7545 290.639 9.7545ZM274.498 10.9054C273.3 10.4088 274.057 11.4809 274.734 11.2897C274.763 11.275 274.527 10.9175 274.498 10.9054ZM0.687808 10.0077C2.28762 10.4559 1.12476 11.0499 4.47151 10.1479C3.06546 10.7864 4.39375 10.6071 4.11929 10.8647C3.89912 11.0684 3.07415 10.8997 3.55369 11.3101C2.92337 10.8634 0.18684 10.9869 0.0648407 10.9144C0.065988 10.9144 0.0671352 10.9144 0.0682825 10.9144C-0.00499156 10.8714 0.177312 9.86521 0.687808 10.0077ZM283.472 9.34977C283.072 8.04883 282.916 10.1137 282.13 9.03548C281.085 10.6012 285.018 9.03571 285.494 10.3582C281.223 10.2045 288.316 11.6686 285.335 9.68893C287.791 10.4074 286.14 9.44375 286.519 9.1915C286.924 8.92279 288.314 9.21481 288.243 8.73024C288.242 8.73024 288.241 8.73024 288.241 8.73024C287.391 8.76416 286.541 8.79807 285.691 8.83199C286.523 9.87728 284.787 9.56385 284.198 8.71216C283.956 8.92469 283.714 9.13723 283.472 9.34977ZM288.281 10.3311C288.197 10.3071 286.349 10.4536 286.468 10.6634C286.715 10.7972 289.338 10.6368 288.281 10.3311ZM296.415 10.1027C295.751 10.1001 294.725 9.89622 294.364 10.2904C295.027 10.293 296.054 10.4971 296.415 10.1027ZM262.244 10.0281C261.398 10.3515 264.002 10.4473 263.249 10.0643C263.211 10.0462 262.285 10.013 262.244 10.0281ZM281.548 9.54648C280.688 9.1489 281.094 10.4144 281.731 10.0846C281.768 10.0652 281.587 9.56461 281.548 9.54648ZM1.98422 9.85398C2.04175 9.54394 4.36293 9.76171 4.77438 9.75902C4.54061 10.0472 1.91823 10.2094 1.98422 9.85398ZM297.583 8.94278C296.263 7.82793 294.471 9.11563 294.274 9.08749C294.079 9.05882 294.385 8.57148 294.341 8.5584C294.239 8.53107 292.158 8.57197 292.058 8.60589C291.986 8.63234 292.362 9.31718 291.933 9.53291C292.77 9.14377 296.575 9.38722 296.772 9.31133C296.925 9.25073 295.772 8.53156 297.581 8.94278C297.581 8.94278 297.582 8.94278 297.583 8.94278ZM293.783 8.93826C294.303 9.22533 292.845 9.26126 292.493 9.15532C291.709 8.91826 293.716 8.90425 293.783 8.93826ZM290.277 8.67372C290.111 8.60933 288.608 8.55084 288.481 8.87043C289.192 9.28501 290.655 8.82375 290.277 8.67372ZM273.559 8.71668C273.169 8.75762 272.096 8.51203 272.034 8.79129C272.425 8.75056 273.498 8.99596 273.559 8.71668ZM9.90383 7.41658C9.25558 7.1829 10.7575 7.08744 11.1957 7.19952C11.2194 7.38581 9.95902 7.43665 9.90383 7.41658ZM281.402 6.87619C281.171 6.79127 276.457 7.00317 275.796 7.13395C276.443 7.34514 281.114 7.36138 281.326 7.2583C281.388 7.22744 281.431 6.88955 281.402 6.87619ZM291.595 6.74731C292.027 6.33607 292.31 6.82929 292.364 6.83549C292.898 6.89842 294.007 6.8057 293.764 7.20178C292.821 7.04197 290.735 7.56397 291.595 6.74731ZM273.224 6.85584C271.624 7.00845 274.698 7.44171 274.295 7.01185C274.269 6.98586 273.39 6.83982 273.224 6.85584ZM281.928 6.75635C282.281 6.42405 286.996 6.71063 287.753 6.71113C287.075 7.32404 286.529 6.8585 285.618 6.88975C285.372 6.89891 285.438 7.15389 285.412 7.1543C284.986 7.16611 285.305 6.87161 285.042 6.86714C284.876 6.86513 281.432 7.22454 281.928 6.75635ZM291.842 6.46242C292.106 6.22667 295.05 6.12618 295.168 6.18883C296.054 6.65477 292.071 6.54449 291.842 6.46242ZM281.496 6.21144C282.003 5.49912 284.344 5.97616 282.742 6.33128C282.589 6.36358 281.941 6.0548 281.496 6.21144ZM273.395 6.17753C273.316 6.15658 271.648 6.01419 271.618 6.24083C271.859 6.32891 274.291 6.40793 273.395 6.17753ZM274.26 5.41103C274.22 5.41647 274.611 5.85298 273.829 5.79767C273.764 5.79246 273.642 5.30134 272.659 5.48112C272.459 5.51815 272.15 5.84305 272.172 5.86324C273.196 6.63398 276.28 5.15782 274.26 5.41103ZM291.896 6.06447C291.737 5.85717 292.12 5.24188 292.465 5.55348C292.613 5.68802 292.337 6.05728 291.896 6.06447ZM268.104 5.97855C269.074 5.6054 266.029 5.53485 265.874 5.63035C265.971 5.86279 268.007 6.015 268.104 5.97855ZM11.4217 4.53601C11.4209 4.53601 11.4201 4.53601 11.4194 4.53601C12.2353 4.62056 11.7299 4.93098 11.7681 4.94073C13.5062 5.39669 13.0452 4.6936 13.317 4.61062C13.8997 4.43117 13.8058 5.28618 14.7889 4.93169C13.1639 5.45518 14.6431 5.23572 14.6891 5.53991C14.8712 6.78126 12.5256 4.95865 11.7154 5.21884C11.6025 5.25487 12.436 5.65105 12.1467 5.76375C11.2064 6.12895 8.29068 4.21267 11.4217 4.53601ZM292.731 5.49921C293.109 5.13459 295.981 5.48824 295.22 5.78863C295.097 5.83679 292.175 6.03068 292.731 5.49921ZM158.604 4.96108C159.294 4.64553 157.695 4.27458 157.398 4.52018C157.251 4.64254 158.301 5.09957 158.604 4.96108ZM147.39 3.61124C146.57 3.6753 145.706 4.99119 146.726 4.78698C146.835 4.76466 147.484 3.79377 147.39 3.61124ZM201.234 4.28729C200.378 3.81703 200.429 4.69078 201.057 4.67845C201.279 4.67424 201.261 4.30217 201.234 4.28729ZM168.555 4.40034C168.47 4.36984 167.48 4.42564 167.516 4.62645C167.882 4.74693 169.109 4.60971 168.555 4.40034ZM201.506 4.16294C200.998 4.32041 201.872 4.95237 202.493 4.33477C202.177 4.38543 201.558 4.14685 201.506 4.16294ZM279.727 4.28051C279.302 4.63929 278.099 4.53088 277.408 4.59253C277.334 4.12771 279.233 4.36478 279.727 4.28051ZM150.871 4.14032C150.095 4.46793 151.758 4.73613 151.605 4.30312C151.584 4.2796 150.902 4.12636 150.871 4.14032ZM228.858 4.11545C228.294 4.39272 230.085 4.76561 229.592 4.27825C229.568 4.25838 228.889 4.10003 228.858 4.11545ZM236.681 4.27599C236.253 4.18246 234.428 4.21123 235.138 4.48174C235.249 4.52331 236.649 4.52995 236.681 4.27599ZM13.3651 4.27599C13.1345 3.7985 14.4733 3.91216 14.665 3.99562C14.7403 4.03033 13.666 4.89723 13.3651 4.27599ZM195.673 4.21268C195.23 4.27242 194.081 4.15889 193.879 4.40939C194.421 4.35754 195.819 4.71167 195.673 4.21268ZM154.411 4.13806C153.735 3.61921 152.58 3.67042 152.865 4.34834C154.141 4.30291 152.707 3.739 154.411 4.13806ZM204.359 3.60446C204.004 3.56488 203.732 4.21592 203.772 4.24659C204.157 4.53841 204.712 3.85776 204.359 3.60446ZM177.7 4.14032C177.68 3.8621 176.541 3.98838 176.693 4.16746C176.743 4.22758 177.717 4.36548 177.7 4.14032ZM264.812 4.12224C264.29 3.86829 265.884 3.62002 266.355 3.91648C266.585 4.34367 264.878 4.15141 264.812 4.12224ZM214.211 3.76725C214.264 3.35436 212.484 3.5878 213.185 3.93005C213.361 4.01568 214.192 3.90531 214.211 3.76725ZM231.251 3.27208C230.057 3.76446 235.071 4.11403 233.753 3.50045C233.659 3.45673 231.355 3.2305 231.251 3.27208ZM239.439 3.57959C239.233 3.52533 239.336 2.13789 240.188 2.67291C240.3 2.74229 239.777 3.10906 239.868 3.19295C239.922 3.24076 241.776 3.43561 241.861 3.40322C241.953 3.36645 241.845 2.92176 241.938 2.87188C242.043 2.81613 243.184 3.20677 243.782 3.21104C244.908 3.21836 245.029 2.84823 245.122 2.84701C245.391 2.84455 245.843 3.10735 246.388 3.10703C249.137 3.10407 253.341 2.79034 255.521 3.57506C253.581 3.25994 251.733 3.59428 249.804 3.69716C250.369 2.92457 246.965 4.29244 248.956 3.40096C248.039 3.59434 240.114 3.74898 239.442 3.57959C239.441 3.57959 239.44 3.57959 239.439 3.57959ZM144.154 3.22234C144.658 2.74862 142.073 2.85518 141.854 3.40322C142.195 3.47928 144.091 3.27603 144.154 3.22234ZM156.079 2.06695C156.319 1.98518 156.547 1.05921 157.805 1.52882C157.806 1.52882 157.808 1.52882 157.809 1.52882C158.177 1.66596 157.757 1.89159 157.825 1.97198C157.849 2.00481 158.997 2.46543 158.044 2.53951C156.59 2.65316 157.907 1.85065 157.132 1.84084C157.037 1.84008 155.57 2.3413 155.655 2.45132C155.664 2.46414 156.106 2.35811 156.178 2.40384C156.454 2.57574 156.32 2.8649 156.359 2.87866C156.486 2.91392 158.806 2.42131 159.143 2.85153C159.253 2.99026 155.445 3.3103 155.296 3.23817C155.202 3.19272 155.242 2.39008 155.145 2.31114C155.095 2.27182 153.563 2.57259 153.364 2.49881C153.306 2.47746 153.262 2.45446 153.23 2.4355C153.462 2.68382 152.075 2.66594 152.117 2.38576C152.141 2.27563 153.096 2.33937 153.13 2.35862C153.145 2.36677 153.158 2.378 153.17 2.38576C152.973 2.08313 156.205 2.09678 155.507 1.64639C156.444 1.39967 155.374 2.30709 156.079 2.06695ZM160.583 1.57178C160.486 1.65619 160.389 1.7406 160.293 1.82502C161.933 1.61841 163.826 2.02476 165.716 2.02173C166.195 2.02157 165.644 1.50532 166.272 1.64639C166.776 1.75945 167.333 2.23829 167.059 2.34506C166.992 2.37169 165.967 2.05981 165.454 2.09182C163.939 2.18658 164.322 2.62929 164.233 2.64125C164.136 2.65384 163.182 2.3425 162.662 2.35636C161.353 2.39219 160.755 2.664 158.966 2.30888C159.998 2.0171 159.433 1.38324 160.583 1.57178ZM221.729 2.51464C221.791 2.23598 222.865 2.48321 223.255 2.44228C223.193 2.72163 222.119 2.47369 221.729 2.51464ZM61.7581 2.15287C61.4284 2.61014 63.8997 2.72337 63.2484 2.34279C63.1043 2.25833 62.0687 2.15612 61.7581 2.15287ZM72.8603 2.43097C73.1909 2.30455 71.8597 1.97532 71.8622 2.32923C71.8641 2.44272 72.8177 2.44742 72.8603 2.43097ZM181.788 2.02173C181.85 2.00741 182.76 2.10925 182.788 2.13252C183.391 2.61806 180.398 2.33743 181.788 2.02173ZM86.3568 1.86798C85.2045 2.1677 88.6728 2.29761 87.613 1.91546C87.5602 1.89684 86.4122 1.85341 86.3568 1.86798ZM91.1776 1.78432C90.9014 1.80038 89.6748 1.65156 89.6586 1.7911C89.6341 2.01621 91.0382 2.17003 91.1776 1.78432ZM204.599 1.87702C204.466 1.36179 206.083 1.75197 206.646 1.68709C206.779 2.20268 205.161 1.81195 204.599 1.87702ZM194.389 1.49717C201.208 1.09101 199.705 2.19182 193.983 1.74814C193.975 1.4176 193.959 1.52274 194.389 1.49717ZM203.121 1.55821C202.873 1.88829 202.099 1.79041 201.576 1.76397C201.67 1.53448 202.744 1.61753 203.121 1.55821ZM58.8154 1.44516C59.2431 1.0282 61.1369 1.54224 60.8002 1.71423C60.7218 1.75137 58.6583 1.67446 58.8154 1.44516ZM182.359 1.58082C182.2 1.07975 184.248 1.28414 184.405 1.39542C185.037 1.84302 182.525 1.47023 182.359 1.58082ZM214.277 1.43612C214.639 1.04363 215.666 1.2455 216.326 1.25071C216.026 1.58632 214.838 1.44318 214.277 1.43612ZM209.509 1.12861C209.551 1.11355 210.472 1.14898 210.513 1.16705C211.268 1.5504 208.662 1.45223 209.509 1.12861ZM10.2905 0.766848C10.3212 0.7542 11.0188 0.779226 11.0431 0.79398C11.6657 1.1708 9.57199 1.09381 10.2905 0.766848Z" fill="#80B3D6"/>
</svg>
