<svg width="95" height="6" viewBox="0 0 95 6" fill="none" xmlns="http://www.w3.org/2000/svg">
<path d="M1.61959 2.50322C2.14494 2.46414 2.83104 2.50592 3.35355 2.56327C3.51925 2.58106 3.43635 2.66057 3.54773 2.67643C3.76914 2.70735 3.97274 2.66835 4.19409 2.70518C4.26515 2.71777 4.17656 2.84372 4.25129 2.85404C4.67094 2.90971 5.05867 2.87763 5.48188 2.9044C7.5571 3.03649 9.59734 3.08377 11.7012 3.14115C12.3869 3.15997 13.2435 3.27427 13.9501 3.22428C14.0337 3.21833 13.9839 3.10778 13.9998 3.09867C14.2507 2.95918 14.1674 3.18236 14.3331 3.21201C14.9725 3.32909 15.6884 3.33927 16.3211 3.29661C16.5817 3.27813 16.3202 3.05855 16.5826 3.1818C16.6009 3.19013 16.5346 3.30753 16.6063 3.32005C16.7684 3.34821 17.0819 3.32722 17.2121 3.33653C17.2796 3.34153 17.3322 3.34509 17.3776 3.34766C17.4946 3.35459 17.5607 3.35423 17.729 3.3552C18.0413 3.35805 18.4366 3.41641 18.7667 3.3898C18.8388 3.38378 18.7432 3.26343 18.8584 3.24295C18.9735 3.22251 19.282 3.23271 19.3873 3.26107C19.4923 3.28945 19.4477 3.38404 19.4662 3.40572C19.6242 3.58872 19.9683 3.33526 20.0159 3.32899C20.8551 3.22216 21.5665 3.3665 22.3493 3.36601C22.9421 3.36533 23.5794 3.31758 24.1447 3.32402C24.826 3.33215 25.3867 3.39724 26.0462 3.38586C26.1147 3.3848 26.0343 3.24332 26.1181 3.24174C27.0125 3.22504 27.9024 3.24017 28.7978 3.33532C28.8868 3.34499 28.7721 3.46927 28.8611 3.48635C29.4052 3.58823 30.2772 3.83307 30.5992 3.29199C30.9688 3.31292 31.4243 3.33448 31.753 3.44331C31.9665 3.51335 31.7592 3.64882 32.0216 3.59091C32.0808 3.578 32.0037 3.45953 32.0925 3.44914C32.466 3.40551 32.8784 3.44376 33.2463 3.38226C33.3215 3.36947 33.3009 3.26328 33.3222 3.24414C33.501 3.08913 33.7999 3.34493 33.8651 3.36349C34.3625 3.50183 34.7223 3.44694 35.1843 3.44992C35.2915 3.45068 35.1646 3.30813 35.2678 3.30373C35.8037 3.28281 36.3559 3.29454 36.88 3.3573C36.9965 3.3716 36.8895 3.49323 36.9452 3.50628C37.1908 3.56235 37.2451 3.33278 37.4803 3.38212C37.5299 3.39222 37.502 3.49628 37.5111 3.50769C37.6529 3.68688 37.7756 3.43263 37.8121 3.42698C38.2728 3.3498 38.5674 3.61473 39.0128 3.57662C39.0661 3.57179 38.9458 3.44032 39.0955 3.43479C40.0928 3.39721 41.147 3.43187 42.1352 3.53556C42.2889 3.55151 42.1794 3.65056 42.1891 3.66273C42.3469 3.85293 42.4483 3.59758 42.4983 3.58789C42.8924 3.51806 43.2612 3.73142 43.5299 3.42699C45.2021 3.52947 46.8637 3.35524 48.5247 3.6232C48.5456 3.6263 48.5084 3.75207 48.5502 3.75771C49.0541 3.82695 48.9605 3.63186 49.295 3.39206C49.3795 3.33184 49.6369 3.61953 49.6595 3.64061C49.7422 3.71828 49.6572 3.90549 49.6849 3.9205C49.914 4.03832 49.8739 3.4201 50.1825 3.41899C50.1923 3.42 50.1516 3.53393 50.1778 3.54517C50.2594 3.58045 50.3399 3.53499 50.4194 3.57392C50.6013 3.66403 50.6671 3.96429 50.9422 3.78856C50.9769 3.76576 50.923 3.41519 51.1979 3.43088C51.3053 3.43744 51.7961 3.42982 51.9333 3.45207C52.0703 3.47431 51.9767 3.58766 51.9865 3.59252C52.3551 3.74072 52.2156 3.80314 52.4 4.02377C52.584 4.24356 52.5313 3.71797 52.6056 3.65902C52.6787 3.60025 52.9502 3.72258 53.0176 3.76519C53.0845 3.80783 53.0015 3.87996 53.061 3.90401C53.4543 4.06111 53.2323 3.6424 53.3611 3.55846C53.6649 3.35972 53.8962 3.74872 54.1763 3.78579C54.2523 3.7958 54.19 3.70725 54.2575 3.69867C54.5249 3.66586 54.6853 3.78685 54.9844 3.67401C55.0347 3.65561 55.2691 3.42016 55.4329 3.59146C55.4556 3.61616 55.3918 3.71362 55.5062 3.73487C55.6772 3.76676 55.9821 3.78658 56.1617 3.75323C56.2943 3.72857 56.1415 3.5692 56.3086 3.61812C56.3827 3.63997 56.246 3.7343 56.3851 3.76753C56.5193 3.80078 56.8882 3.79481 57.0226 3.79087C57.1587 3.78686 57.0836 3.6658 57.0945 3.65757C57.1611 3.61035 57.4198 3.55042 57.4423 3.55044C58.2738 3.53537 59.0668 3.63202 59.8467 3.66081C60.1692 3.67225 60.4894 3.67234 60.8105 3.64956C60.8986 3.64347 60.8385 3.51604 60.8519 3.51379C61.1524 3.45678 60.919 3.79995 61.1303 3.91147C61.0984 3.65193 61.2163 3.69767 61.4355 3.66628C61.5398 3.65095 61.4815 3.55109 61.491 3.54066C61.6437 3.38575 61.7533 3.58158 61.7815 3.62156C61.8856 3.76862 61.9933 3.59141 62.0636 3.68961C62.1339 3.78706 61.9781 3.93569 62.1828 3.93053C62.2386 3.83657 62.0831 3.59597 62.2374 3.55404C62.8129 3.39615 63.9181 3.56314 64.3948 3.56998C64.8702 3.57735 65.0192 3.55565 65.2912 3.58125C65.7923 3.62677 65.6054 3.452 65.9116 3.35951C66.2176 3.26675 66.0823 3.71527 66.1299 3.80915C66.1767 3.90298 66.2208 3.80326 66.2765 3.85379C66.332 3.90431 66.218 3.97317 66.3449 3.98846C66.4705 4.00384 66.813 3.82161 66.8562 3.72009C66.9445 3.50526 66.7788 3.28966 67.1199 3.35459C67.1395 3.35846 67.0811 3.47751 67.1558 3.48641C67.7413 3.55363 68.3664 3.53215 68.9475 3.58383C69.0275 3.59112 68.9626 3.7242 69.0093 3.7299C69.5111 3.78856 69.3223 3.57855 69.5793 3.32208C69.535 3.6483 69.6959 3.83864 70.0631 3.8209C70.2848 3.8102 70.2424 3.67092 70.3822 3.56344C70.4245 3.53104 70.5892 3.61898 70.6141 3.55098C70.696 3.32864 70.5348 3.09445 70.9207 3.16905C70.9376 3.17267 70.8916 3.2945 70.9495 3.29832C71.3188 3.32369 71.3619 3.09345 71.7635 3.04066C72.0738 2.99957 72.6566 3.09967 73.0152 3.09678C73.0327 3.46033 73.3662 3.35309 73.4901 3.09239C73.728 3.08527 73.9786 3.05213 74.2037 3.06944C74.2842 3.07505 74.2401 3.18413 74.251 3.1947C74.4188 3.36074 74.5024 3.10927 74.5525 3.09569C75.089 2.95961 75.5611 3.10538 76.0612 2.87958C76.0794 2.87141 76.0879 2.61699 76.2455 2.7881C76.2558 2.79995 76.0919 2.93016 76.3407 2.91667C76.5873 2.90343 77.0642 2.99516 77.395 2.84534C77.4753 2.80926 77.6581 2.58529 77.8467 2.72758C77.8714 2.74699 77.8539 2.82158 77.8905 2.85846C78.0086 2.97583 78.0402 2.71593 78.1841 2.91948C78.3262 3.12317 78.6006 3.25863 78.9309 3.07323C78.9414 3.06774 79.0015 2.85782 79.1085 2.84964C79.2781 2.83691 79.537 2.85132 79.7141 2.83052C79.7997 2.82041 79.7311 2.70147 79.7458 2.69755C80.32 2.56335 80.7473 2.62745 81.3726 2.60354C81.4927 2.59878 81.7892 2.39136 82.0329 2.49896C82.2944 2.61737 82.1164 3.26007 82.6561 3.04786C82.876 2.96252 83.0681 2.15099 83.5174 2.50664C84.2857 2.31558 85.0391 2.43728 85.8085 2.22404C85.8428 2.21457 85.9339 1.98722 86.0204 1.98309C86.1464 1.97757 86.2216 2.07428 86.3087 2.07457C86.4495 2.07567 86.5839 2.06189 86.7119 2.04451C86.925 1.99072 87.1321 1.91853 87.3531 1.88038C87.4865 1.85682 87.4625 1.97026 87.6228 1.94063C87.7828 1.91042 87.8559 1.75074 88.0848 1.76397C88.2576 1.77424 88.4896 2.0088 88.7135 1.98414C88.6502 1.71078 88.7988 1.67812 89.0386 1.5356C89.0845 1.50811 89.0054 1.42864 89.0257 1.41078C89.108 1.336 89.218 1.38934 89.2943 1.31105C89.3127 1.29221 89.2878 1.19974 89.3014 1.17913C89.4159 1.0005 89.727 1.13509 89.7808 1.15845C89.987 1.247 90.0296 1.10469 90.1727 1.12109C90.316 1.1373 90.1453 1.26073 90.3036 1.24951C90.6319 1.22605 91.0237 1.09223 91.337 1.00217C91.4622 0.965572 91.3401 0.868946 91.3571 0.860867C91.3639 0.857896 91.3708 0.855043 91.3776 0.852297C91.6262 0.763693 91.9069 0.824004 91.9951 0.550704C92.319 1.1538 92.14 0.451878 92.547 0.503869C92.5791 0.50836 92.6768 0.806242 92.5729 0.87367C92.4693 0.941046 92.2783 0.881291 92.1378 0.985325C92.1037 1.00967 91.9599 1.34167 91.9367 1.36559C91.7497 1.55186 91.6069 1.10927 91.5883 1.08732C91.5296 1.01914 91.4724 1.0025 91.4196 1.01422C91.2975 1.04633 91.2017 1.24458 91.1584 1.27367C90.8777 1.46211 90.5959 1.47798 90.3563 1.62266C90.1993 1.71672 90.268 2.01409 90.1312 2.0442C89.6748 2.14418 89.4059 1.77875 89.079 2.24999C89.0081 2.35035 89.1857 2.64843 88.7885 2.48241C88.7629 2.47221 88.4596 2.30337 88.3543 2.4854C88.3412 2.50836 88.365 2.60247 88.3432 2.61625C88.1972 2.70652 88.0722 2.65705 87.9061 2.73327C87.7398 2.80946 87.5384 2.90991 87.3278 2.91828C87.2007 2.92374 87.0093 2.77527 86.9434 2.74193C86.9012 2.72053 86.8617 2.71557 86.8243 2.71925C86.8096 2.72127 86.7661 2.72719 86.7513 2.72757C86.6317 2.72503 86.5204 2.83209 86.4354 2.71786C86.3251 2.57023 86.5007 2.32083 86.235 2.24004C86.2447 2.49222 86.2429 2.75198 86.2476 3.006C85.6884 3.041 85.1225 3.01794 84.5518 3.09257C84.4819 3.10201 84.5687 3.22873 84.494 3.24237C84.1726 3.3001 83.8849 3.23625 83.5553 3.31376C83.3021 3.37407 83.0348 3.5504 82.768 3.61854C82.5614 3.3525 82.1804 3.49646 81.8817 3.50508C81.7795 3.50794 81.7772 3.43061 81.7017 3.41415C81.4155 3.35408 81.5738 3.59226 81.5025 3.64101C81.1943 3.84934 81.11 3.27813 80.7233 3.33675C80.6996 3.34005 80.4943 3.673 80.4612 3.69599C80.259 3.84447 80.4137 3.59359 80.2753 3.58624C80.0181 3.57322 79.845 3.51847 79.5628 3.6398C79.4812 3.67553 79.2927 3.88874 79.117 3.75818C79.0936 3.74114 79.0947 3.63876 79.0768 3.63466C78.7529 3.56905 78.7762 3.88775 78.6038 4.0144C78.4363 4.14052 78.1372 3.94901 78.0731 3.8915C77.9074 3.7428 78.1804 3.81011 78.1865 3.79324C78.2612 3.59264 78.0625 3.646 77.9034 3.64547C77.8493 3.33602 77.6326 3.37628 77.7385 3.64613C77.75 3.67563 77.8707 3.63435 77.9034 3.64547C77.7917 3.9655 77.5655 4.02734 77.2723 3.76677C77.1356 3.6445 77.2375 3.47739 76.8658 3.56992C76.701 3.61128 76.7857 3.82009 76.6421 3.89237C76.3101 4.05767 75.8472 3.89654 75.4954 3.95811C75.3668 3.98055 75.5031 4.08754 75.4153 4.10693C75.1773 4.15912 74.9749 4.08684 74.7426 4.15103C74.7217 4.15698 74.7836 4.27604 74.7107 4.28346C74.1479 4.34274 73.6722 4.29914 73.093 4.33784C72.8204 4.35622 72.3107 4.45889 72.0303 4.46301C71.5279 4.4724 70.9029 4.32947 70.4757 4.39688C70.1956 4.44039 70.2613 4.56051 70.1477 4.65105C69.9301 4.82645 69.5059 4.55528 69.4479 4.51275C69.4464 4.51136 69.6856 4.47002 69.554 4.41316C69.4726 4.28487 69.4506 4.51204 69.4479 4.51275C69.4108 4.48547 68.9227 4.48123 68.8335 4.50891C68.783 4.52422 68.8171 4.63989 68.7906 4.64566C68.1547 4.78036 67.515 4.83699 66.856 4.80666C66.8443 4.80473 66.8569 4.67314 66.8295 4.67023C66.4459 4.62606 66.2206 4.79415 65.9096 4.89958C65.6004 5.00485 65.3463 4.98059 65.1609 4.76096C64.9301 4.79609 64.5907 4.70585 64.3935 4.65051C64.1964 4.5952 64.1749 4.8508 64.1578 4.85628C63.634 5.03046 63.3275 4.89113 62.7667 4.87904C62.5069 4.87277 61.9927 4.91827 61.7056 4.95012C61.4805 4.97577 61.3379 4.91782 61.1371 4.95845C61.1096 4.96389 61.1388 5.07712 61.1304 5.08159C60.9038 5.22012 61.0102 4.94121 60.9625 4.89217C60.7892 4.71375 60.6828 4.61891 60.3873 4.70642C60.3192 4.72647 60.1225 5.1279 59.9963 5.15219C59.9091 5.16863 59.8855 5.13549 59.8566 5.10639C59.8324 5.08085 59.8043 5.05841 59.7271 5.07514C59.7129 5.07808 59.7166 5.16646 59.614 5.16325C59.1353 5.14951 58.6023 5.10136 58.1035 5.11307C58.0345 5.11433 58.1238 5.25404 58.0241 5.25818C57.5454 5.27752 57.0587 5.2749 56.5935 5.21159C56.48 5.19555 56.5506 5.09703 56.5258 5.068C56.3786 4.89235 56.1715 5.14962 56.1368 5.15467C55.305 5.28178 54.6749 5.05257 53.8276 5.16634C53.7823 5.17301 53.4311 5.4491 53.2713 5.21408C53.2605 5.19845 53.1028 4.95798 52.9638 5.12331C52.9552 5.13365 53.054 5.25739 52.8823 5.24537C52.7101 5.23338 52.4427 5.31721 52.2082 5.18167C52.1342 5.13897 51.9588 4.89911 51.7373 5.09153C51.7229 5.10496 51.3811 5.53952 51.2612 5.24086C51.2413 5.1917 51.2612 4.87518 50.9996 5.03826C50.9495 5.06987 51.0408 5.14017 50.9088 5.18467C50.7064 5.25323 50.4364 5.1693 50.1849 5.31102C50.14 5.33611 49.9584 5.55143 49.8097 5.38883C49.7865 5.36337 49.8302 5.25759 49.752 5.246C49.3812 5.19034 48.9852 5.2621 48.608 5.19C48.4745 5.16466 48.5423 4.99369 48.4029 4.94828C48.2636 4.90289 47.9818 4.85959 47.8352 4.938C47.6885 5.01645 47.8497 5.28826 47.6295 5.31058C46.6774 5.40751 45.7322 5.24989 44.7792 5.22841C44.6375 5.2252 44.7553 5.32238 44.5462 5.32463C43.7823 5.33339 42.4562 5.427 41.7894 5.22104C41.2555 5.0561 41.9263 4.92886 41.5191 4.86203C41.3227 4.83015 41.1106 5.14693 41.0631 5.15696C40.5998 5.25885 40.2758 5.11911 39.8593 5.16268C39.7731 5.17172 39.8578 5.29987 39.7845 5.30615C39.534 5.32873 39.2706 5.27181 39.031 5.28258C38.9236 5.28771 38.9435 5.38565 38.8446 5.37821C38.6079 5.36154 38.3988 5.32061 38.1681 5.22906C38.1471 5.22071 38.2886 5.09868 38.1136 5.09435C37.8303 5.08769 37.479 4.9975 37.1531 5.09139C37.0564 5.11963 37.0528 5.34353 36.8447 5.18912C36.8011 5.15687 36.8564 4.88796 36.6145 5.12051C36.5738 5.15915 36.1675 5.47289 35.968 5.2711C35.9154 5.218 35.7812 4.99812 35.6645 5.0328C35.6487 5.03833 35.7121 5.15854 35.6156 5.17036C35.2756 5.20992 34.9196 5.1974 34.5715 5.23535C34.4785 5.24573 34.6171 5.37006 34.4786 5.38155C34.0971 5.41332 33.6186 5.382 33.2463 5.34331C33.1089 5.32881 33.2038 5.22566 33.1938 5.21444C33.033 5.03208 32.9384 5.27845 32.885 5.29285C32.5513 5.37907 32.2976 5.26354 31.9916 5.29435C31.9071 5.30254 31.9671 5.41994 31.9503 5.43043C31.7761 5.53285 31.9057 5.32187 31.7955 5.29869C31.4881 5.23305 31.14 5.24269 30.8271 5.25786C30.712 5.26361 30.8414 5.39971 30.7382 5.4033C30.1303 5.42709 29.4901 5.41437 28.8971 5.33954C28.7854 5.32521 28.8556 5.22032 28.8323 5.19638C28.673 5.02889 28.4346 5.25754 28.3801 5.27933C28.1317 5.37883 28.0356 5.28614 27.8175 5.30352C26.7543 5.39008 25.43 5.32901 24.4292 5.29125C23.1171 5.24265 22.0952 5.143 20.8496 5.16897C20.7712 5.17049 20.8505 5.30998 20.7826 5.31308C19.8866 5.34675 19.0245 5.29226 18.1353 5.33255C18.062 5.33561 18.1676 5.46785 18.0501 5.4772C17.8434 5.49446 17.5929 5.49163 17.3776 5.46383C17.3401 5.45922 17.3036 5.45392 17.2685 5.44791C17.1482 5.42756 17.3094 5.31409 17.1885 5.29593C16.9073 5.25339 16.6119 5.24397 16.3343 5.26517C16.2105 5.27448 16.3971 5.40973 16.2365 5.41129C15.1672 5.4247 14.1081 5.448 13.0271 5.27286C12.9532 5.26083 12.8882 4.98596 12.7335 5.03867C12.7219 5.11495 12.7225 5.20469 12.7174 5.28623C11.1504 5.33015 9.61344 5.23486 8.04781 5.22013C7.98233 5.21954 8.0953 5.36518 7.96885 5.36478C7.22972 5.36263 6.51329 5.40297 5.75944 5.25821C5.68319 5.24405 5.72025 4.98783 5.49959 5.02658C5.46327 5.03365 5.12637 5.06783 5.04223 5.12345C5.03076 5.13184 5.09045 5.25143 4.98493 5.25492C4.36466 5.27308 3.70678 5.24577 3.08668 5.1727C2.98531 5.16068 3.09312 5.03332 3.02114 5.02365C2.51487 4.95605 1.96181 5.05286 1.47885 4.93723C1.15328 4.85937 1.27477 4.63922 1.10177 4.42252C1.07739 4.39195 0.876727 4.3871 0.866247 4.26102C0.839564 3.94398 0.936916 3.59682 0.896967 3.25889C0.888451 3.1861 0.619633 3.2645 0.778797 3.0886C0.789753 3.07683 0.98535 3.01845 1.03294 2.95878C1.06632 2.91753 1.00615 2.7893 1.07429 2.73649C1.14235 2.68373 1.21804 2.79121 1.33052 2.72917C1.44335 2.66635 1.39494 2.52048 1.61959 2.50322ZM63.5177 4.40157C63.3365 4.28299 63.3195 4.73209 63.5107 4.62059C63.52 4.61467 63.5271 4.40738 63.5177 4.40157ZM85.087 2.68314C84.8403 2.50996 84.7097 2.81711 84.89 2.95128C85.0681 3.08568 85.1621 2.73567 85.087 2.68314ZM87.5082 2.24995C87.2062 2.15458 87.288 2.78706 87.5586 2.59871C87.5744 2.58789 87.526 2.25536 87.5082 2.24995ZM1.90087 4.36081C1.89814 4.35486 1.75433 4.34905 1.75116 4.35495C1.67464 4.49744 1.96199 4.50896 1.90087 4.36081ZM89.8118 1.4903C89.7058 1.43145 89.4968 1.59427 89.6282 1.66812C89.7346 1.72744 89.9438 1.5636 89.8118 1.4903ZM54.1847 4.00476C54.1819 3.99808 54.0769 3.99249 54.0792 4.03027C54.0868 4.15195 54.2327 4.11701 54.1847 4.00476ZM93.757 0.524502C93.1612 0.603931 92.7032 0.155119 93.3645 0.0956647C93.4839 0.0852918 93.1405 0.305869 93.2985 0.325775C93.5865 0.362018 93.7118 0.00568834 94.0207 0.131794C94.0766 0.154982 93.7912 0.521064 93.7561 0.525406C93.7564 0.525105 93.7567 0.524803 93.757 0.524502ZM63.4033 3.86505C63.3996 3.85921 63.256 3.85662 63.2526 3.86256C63.1778 4.0066 63.4674 4.01191 63.4033 3.86505ZM48.1425 3.74686C48.1347 3.73424 47.8016 3.72326 47.7906 3.73493C47.6174 3.96828 48.291 3.99118 48.1425 3.74686ZM73.0215 3.10607C73.1637 2.95241 73.3504 2.92204 73.4894 3.09226C73.3317 3.09423 73.1746 3.10411 73.0215 3.10607Z" fill="white"/>
</svg>
