<svg width="30" height="31" viewBox="0 0 30 31" fill="none" xmlns="http://www.w3.org/2000/svg">
<path d="M23.3251 10.5048C23.618 10.2119 24.0928 10.2119 24.3857 10.5048L29.1152 15.2343C29.2557 15.3749 29.3348 15.5658 29.3349 15.7646C29.3349 15.9635 29.2558 16.1542 29.1152 16.2949L24.3857 21.0253C24.0928 21.318 23.618 21.318 23.3251 21.0253C23.0323 20.7325 23.0324 20.2577 23.3251 19.9648L27.5244 15.7646L23.3251 11.5654C23.0322 11.2725 23.0322 10.7977 23.3251 10.5048Z" fill="white"/>
<path d="M28.4521 15.0156C28.8663 15.0157 29.2021 15.3515 29.2021 15.7656C29.2021 16.1798 28.8663 16.5156 28.4521 16.5156L1.92773 16.5156C1.51352 16.5156 1.17773 16.1798 1.17773 15.7656C1.17773 15.3514 1.51352 15.0156 1.92773 15.0156L28.4521 15.0156Z" fill="white"/>
</svg>
