<svg width="30" height="31" viewBox="0 0 30 31" fill="none" xmlns="http://www.w3.org/2000/svg">
<path d="M6.44244 10.5048C6.14955 10.2119 5.67479 10.2119 5.38189 10.5048L0.6524 15.2343C0.511831 15.3749 0.432767 15.5658 0.432674 15.7646C0.432674 15.9635 0.511748 16.1542 0.6524 16.2949L5.38189 21.0253C5.67475 21.318 6.14958 21.318 6.44244 21.0253C6.73529 20.7325 6.73519 20.2577 6.44244 19.9648L2.24322 15.7646L6.44244 11.5654C6.73533 11.2725 6.73533 10.7977 6.44244 10.5048Z" fill="white"/>
<path d="M1.31543 15.0156C0.901268 15.0157 0.56543 15.3515 0.56543 15.7656C0.56543 16.1798 0.901269 16.5156 1.31543 16.5156L27.8398 16.5156C28.2541 16.5156 28.5898 16.1798 28.5898 15.7656C28.5898 15.3514 28.2541 15.0156 27.8398 15.0156L1.31543 15.0156Z" fill="white"/>
</svg>
