<svg width="142" height="12" viewBox="0 0 142 12" fill="none" xmlns="http://www.w3.org/2000/svg">
<path d="M1.76572 6.27959C2.54446 6.13567 3.57835 6.12965 4.36415 6.1724C4.61123 6.18538 4.50285 6.35507 4.67454 6.37102C5.00773 6.40216 5.30734 6.29544 5.64072 6.33724C5.75007 6.35196 5.64107 6.61559 5.75545 6.62525C6.38613 6.67592 6.96742 6.55298 7.60131 6.54086C10.722 6.48125 13.7829 6.20534 16.9344 5.91556C17.535 5.86014 18.2136 5.85798 18.8961 5.81738C19.3793 5.78976 19.8778 5.7399 20.318 5.63843C20.4415 5.6099 20.3376 5.40073 20.359 5.37949C20.6955 5.05292 20.6345 5.51144 20.8832 5.53786C21.8805 5.64008 22.9534 5.51469 23.8763 5.30216C24.2641 5.21173 23.81 4.83071 24.2402 5.02051C24.2701 5.03323 24.2018 5.27959 24.3135 5.28954C24.5667 5.31167 25.0313 5.20542 25.222 5.19791C25.5936 5.1841 25.6549 5.17326 26.0046 5.12768C26.476 5.06835 27.0638 5.10479 27.5627 4.98187C27.6699 4.95484 27.4927 4.73642 27.6607 4.67176C27.8288 4.60715 28.2929 4.56329 28.4543 4.59814C28.6168 4.63286 28.577 4.82939 28.6103 4.86853C28.8854 5.19981 29.3508 4.62324 29.4156 4.60155C30.6338 4.21624 31.7418 4.35303 32.9136 4.18849C33.8022 4.06308 34.7396 3.83579 35.5876 3.73056C36.5973 3.60621 37.4712 3.61595 38.4458 3.45762C38.5492 3.44113 38.3887 3.17774 38.5149 3.15703C39.8504 2.9379 41.1887 2.78338 42.5511 2.78856C42.6874 2.78938 42.5491 3.05924 42.6872 3.07479C43.5361 3.16389 44.8978 3.4727 45.2386 2.33468C45.801 2.30073 46.4828 2.25247 47.0062 2.40205C47.3427 2.49838 47.0686 2.80836 47.4492 2.64067C47.5351 2.60318 47.3875 2.38381 47.5185 2.34538C48.0652 2.18447 48.6933 2.17852 49.2281 1.98434C49.3389 1.94401 49.2799 1.73756 49.3072 1.69538C49.5397 1.35221 50.0465 1.8022 50.1514 1.82603C50.9359 2.00337 51.4606 1.82554 52.1558 1.744C52.318 1.72512 52.0908 1.46635 52.2453 1.43806C52.408 1.40909 52.5702 1.38297 52.7315 1.36012C53.3891 1.26732 54.0376 1.22403 54.6836 1.24835C54.8624 1.25604 54.7301 1.51661 54.8168 1.53266C55.1924 1.6014 55.2291 1.13487 55.5926 1.1923C55.6689 1.20388 55.6513 1.41539 55.6674 1.43652C55.9146 1.76887 56.051 1.24168 56.1032 1.22442C56.7741 0.99356 57.2864 1.47065 57.9448 1.32509C58.025 1.30704 57.8146 1.06454 58.041 1.02991C59.5388 0.799433 61.1498 0.72003 62.6676 0.835544C62.9079 0.853128 62.7499 1.06102 62.7665 1.08441C63.0278 1.45 63.1554 0.932077 63.2293 0.908848C63.8313 0.737779 64.4024 1.14722 64.8029 0.530571C65.0862 0.547526 65.3725 0.560343 65.6433 0.566625C67.3923 0.58475 69.2832 0.372786 71.0816 0.585161C71.5114 0.632643 71.94 0.700322 72.3668 0.794413C72.399 0.800815 72.3404 1.052 72.4048 1.06369C73.1698 1.20742 73.0231 0.816424 73.5333 0.341064C73.6602 0.221709 74.0477 0.800684 74.0802 0.843168C74.2041 0.999689 74.0726 1.37289 74.1142 1.4033C74.4606 1.64227 74.4094 0.40526 74.878 0.407734C74.8925 0.409885 74.83 0.637128 74.8689 0.660001C74.9897 0.731804 75.1119 0.642117 75.2309 0.721222C75.5016 0.90424 75.5957 1.50577 76.015 1.15869C76.0684 1.11364 75.9915 0.411659 76.4087 0.447411C76.5748 0.462284 77.3109 0.454711 77.5168 0.501286C77.7225 0.547846 77.5798 0.773104 77.5944 0.782976C78.148 1.08493 77.9367 1.20765 78.2127 1.65163C78.4889 2.09388 78.4168 1.04196 78.5307 0.925131C78.6445 0.808655 79.0507 1.05702 79.1501 1.1431C79.2499 1.22925 79.1244 1.37242 79.2133 1.4213C79.8019 1.74049 79.4734 0.90025 79.6684 0.733986C80.126 0.340152 80.4821 1.12062 80.9001 1.19721C81.014 1.21788 80.9212 1.04025 81.0224 1.02366C81.4199 0.960169 81.664 1.20327 82.1159 0.978718C82.192 0.942146 82.5548 0.47184 82.795 0.814344C82.8287 0.863741 82.7351 1.0587 82.9041 1.10111C83.1621 1.16481 83.6152 1.20317 83.891 1.13458C84.0604 1.09156 83.9178 0.85628 84.0251 0.845244C84.0447 0.843272 84.0725 0.848351 84.1112 0.862786C84.2251 0.905541 84.0182 1.09594 84.2315 1.16059C84.4422 1.2255 84.9811 1.2069 85.1869 1.1953C85.3905 1.18387 85.2729 0.943677 85.2891 0.926934C85.3871 0.830984 85.7751 0.703378 85.8099 0.702522C87.5495 0.623394 89.1881 0.944628 90.9002 0.775194C91.0338 0.762127 90.9394 0.507901 90.9597 0.503267C91.4221 0.386957 91.0683 1.07475 91.3941 1.29696C91.3395 0.778102 91.529 0.86866 91.8548 0.807531C92.0094 0.777751 91.9228 0.577541 91.9366 0.556763C92.1678 0.248339 92.3312 0.641934 92.3741 0.722343C92.5335 1.01817 92.6928 0.666154 92.8008 0.86425C92.9065 1.06091 92.6684 1.3541 92.9777 1.34912C93.0635 1.16277 92.8325 0.677291 93.0672 0.597742C93.2483 0.537668 93.4519 0.505025 93.6836 0.491932C94.588 0.438989 95.7677 0.702635 96.3395 0.742062C97.052 0.791188 97.2861 0.760819 97.6988 0.83465C98.4482 0.968688 98.1796 0.603457 98.6486 0.446534C99.1198 0.289898 98.8762 1.17329 98.94 1.36529C99.0031 1.5572 99.0778 1.36221 99.1579 1.46857C99.2376 1.5749 99.0584 1.70131 99.2498 1.74426C99.442 1.78714 99.9735 1.45806 100.046 1.25997C100.199 0.840216 99.9703 0.391915 100.477 0.557932C100.506 0.567769 100.406 0.799207 100.518 0.825046C101.405 1.0226 102.331 1.05345 103.217 1.23152C103.338 1.25636 103.224 1.51359 103.294 1.53099C104.033 1.71307 103.777 1.26964 104.194 0.792224C104.088 1.4373 104.305 1.83807 104.867 1.854C105.206 1.86383 105.154 1.57997 105.376 1.38545C105.443 1.32681 105.679 1.52598 105.725 1.39398C105.878 0.962559 105.66 0.47145 106.238 0.677327C106.263 0.68706 106.178 0.923184 106.265 0.939417C106.831 1.04547 106.909 0.592503 107.523 0.549553C108.004 0.515856 108.857 0.808701 109.403 0.861898C109.394 1.13712 109.463 1.28549 109.562 1.3365C109.731 1.42042 109.98 1.24123 110.115 0.930867C110.471 0.955571 110.851 0.930479 111.196 1.00178C111.314 1.02608 111.235 1.23632 111.25 1.25917C111.474 1.61748 111.635 1.12986 111.71 1.11095C112.538 0.927215 113.22 1.29466 114.009 0.926626C114.037 0.913351 114.079 0.407605 114.293 0.77464C114.307 0.799934 114.048 1.03245 114.421 1.04659C114.793 1.06083 115.502 1.3228 116.017 1.08057C116.142 1.0223 116.453 0.607062 116.712 0.923419C116.747 0.966389 116.712 1.11194 116.763 1.19179C116.926 1.44618 117.003 0.933944 117.197 1.36477C117.39 1.79563 117.784 2.11394 118.302 1.80602C118.318 1.79704 118.435 1.39016 118.6 1.39397C118.863 1.40038 119.237 1.4792 119.512 1.47298C119.643 1.46985 119.556 1.21953 119.579 1.21464C120.461 1.0627 121.094 1.28097 122.04 1.37801C122.072 1.38139 122.115 1.37253 122.167 1.35755C122.391 1.2871 122.763 1.08963 123.044 1.30059C123.422 1.58337 123.094 2.83199 123.93 2.50368C124.263 2.3726 124.64 0.78974 125.279 1.58486C126.068 1.43085 126.822 1.56251 127.59 1.58304C127.974 1.59342 128.362 1.57599 128.761 1.48103C128.817 1.46843 128.984 1.03182 129.112 1.03824C129.301 1.04862 129.4 1.25336 129.537 1.26748C130.097 1.33179 130.612 1.1607 131.153 1.1924C131.357 1.20401 131.285 1.41461 131.53 1.42859C131.773 1.4424 131.94 1.16579 132.271 1.30342C132.52 1.40831 132.765 1.9794 133.096 2.04928C133.116 1.48869 133.343 1.50266 133.751 1.35931C133.829 1.33149 133.748 1.13536 133.785 1.11213C133.936 1.01326 134.076 1.17668 134.218 1.06885C134.253 1.04296 134.257 0.851487 134.286 0.819516C134.531 0.540374 134.922 0.976001 134.991 1.05187C135.248 1.33995 135.374 1.09244 135.573 1.20717C135.772 1.32187 135.471 1.45825 135.704 1.52929C136.187 1.67628 136.811 1.65361 137.303 1.66907C137.5 1.67407 137.369 1.41663 137.398 1.41141C137.805 1.35209 138.212 1.62966 138.445 1.12363C138.708 2.44403 138.692 0.999321 139.269 1.271C139.314 1.29295 139.364 1.91633 139.187 2.00527C139.011 2.09412 138.746 1.89578 138.501 2.03489C138.443 2.06752 138.103 2.64632 138.058 2.68105C137.701 2.95238 137.663 2.02137 137.645 1.97001C137.442 1.41568 137.028 2.0387 136.922 2.08072C136.432 2.27319 136.021 2.13695 135.611 2.27377C135.345 2.36219 135.309 2.97126 135.102 2.95C134.408 2.87973 134.175 2.02666 133.512 2.75633C133.369 2.91198 133.503 3.57956 133.005 3.05029C132.974 3.01692 132.605 2.53378 132.387 2.8347C132.36 2.87264 132.359 3.06677 132.323 3.08272C132.081 3.18578 131.926 3.02961 131.663 3.10125C131.404 3.17294 131.089 3.28064 130.792 3.21249C130.616 3.17173 130.384 2.80838 130.301 2.71927C130.059 2.46251 129.798 2.87926 129.65 2.56958C129.5 2.25837 129.8 1.78833 129.402 1.58582C129.385 2.09012 129.349 2.60765 129.323 3.11478C128.744 3.1004 128.165 3.02208 127.595 2.98113C127.31 2.96102 127.027 2.94999 126.743 2.96016C126.636 2.96453 126.748 3.23452 126.634 3.24623C126.154 3.29469 125.73 3.10853 125.236 3.19861C124.852 3.26937 124.445 3.5711 124.042 3.6599C123.772 3.09293 123.161 3.31573 122.697 3.2756C122.536 3.26182 122.541 3.10739 122.427 3.05981C122.307 3.01194 122.239 3.01409 122.196 3.04467C122.19 3.04452 122.171 3.04521 122.165 3.04494C122.055 3.12446 122.135 3.41069 122.052 3.46907C121.57 3.81185 121.525 2.65741 120.95 2.68927C120.92 2.6905 120.553 3.30871 120.503 3.34758C120.181 3.6005 120.447 3.13387 120.243 3.09043C119.871 3.01124 119.61 2.86751 119.175 3.05395C119.048 3.10913 118.748 3.49721 118.495 3.20457C118.462 3.16625 118.477 2.96259 118.45 2.9511C117.971 2.76028 117.969 3.39958 117.701 3.62053C117.432 3.84148 117.003 3.40746 116.915 3.28172C116.686 2.95654 117.085 3.13832 117.096 3.10583C117.233 2.71936 116.927 2.79064 116.691 2.76202C116.647 2.13604 116.319 2.17891 116.447 2.73483C116.462 2.79554 116.643 2.73417 116.691 2.76202C116.496 3.3801 116.134 3.4647 115.726 2.89599C115.535 2.62935 115.708 2.31321 115.141 2.43552C114.885 2.49056 114.989 2.92079 114.762 3.04107C114.243 3.3155 113.562 2.91856 113.025 2.98386C112.83 3.00758 113.021 3.2431 112.888 3.26742C112.532 3.33259 112.221 3.15557 111.863 3.24562C111.831 3.25407 111.909 3.50149 111.798 3.50438C111.018 3.52898 110.331 3.38854 109.533 3.3542C109.473 3.35158 109.413 3.34958 109.35 3.34832C108.927 3.34002 108.171 3.46298 107.734 3.42708C106.98 3.36665 106.057 2.9877 105.41 3.06124C104.99 3.10818 105.077 3.35735 104.892 3.52192C104.539 3.84099 103.936 3.24278 103.854 3.15041C103.852 3.14736 104.215 3.09692 104.025 2.96583C103.918 2.69896 103.858 3.14935 103.854 3.15041C103.801 3.09073 103.08 3.01898 102.936 3.06318C102.858 3.08733 102.896 3.3225 102.856 3.33067C101.886 3.51953 100.919 3.55867 99.9433 3.42999C99.9262 3.42492 99.9573 3.16341 99.9169 3.15476C99.3537 3.02723 98.9845 3.341 98.5154 3.52301C98.0455 3.70495 97.6769 3.63519 97.41 3.18103C97.0555 3.23204 96.5566 3.02596 96.2675 2.90158C95.978 2.77717 95.9335 3.28691 95.9079 3.29667C95.109 3.61035 94.6541 3.31396 93.8341 3.26589C93.7873 3.26305 93.7352 3.26163 93.6794 3.26145C93.263 3.25977 92.6255 3.3253 92.2563 3.37813C91.9244 3.42627 91.7242 3.30937 91.4205 3.3908C91.3792 3.40171 91.4249 3.62811 91.4124 3.63707C91.0793 3.91473 91.2319 3.35675 91.1593 3.25887C90.8962 2.9034 90.7348 2.71436 90.3009 2.89559C90.1988 2.93714 89.9295 3.74479 89.7493 3.79744C89.5118 3.86453 89.5944 3.57502 89.3453 3.65305C89.3239 3.6595 89.3354 3.83594 89.1802 3.8337C88.4619 3.82555 87.6641 3.75656 86.8969 3.80157C86.7922 3.80702 86.9364 4.08254 86.7856 4.09498C86.0753 4.15334 85.2838 4.16441 84.5867 4.04524C84.4135 4.01507 84.5183 3.81686 84.4798 3.75921C84.3457 3.56125 84.1908 3.64217 84.0648 3.75104C83.9731 3.83393 83.9007 3.93306 83.8777 3.93756C82.6057 4.19854 81.6412 3.73564 80.3596 3.95496C80.2903 3.96788 79.7515 4.51615 79.5133 4.04405C79.4971 4.01265 79.262 3.52976 79.0516 3.85855C79.0385 3.87912 79.1849 4.12792 78.9278 4.10158C78.6703 4.07529 78.2557 4.2391 77.9038 3.96451C77.7924 3.87801 77.5309 3.39566 77.1952 3.77707C77.1735 3.80372 76.6529 4.66746 76.4738 4.06824C76.4448 3.9696 76.4788 3.33691 76.0801 3.6589C76.0039 3.72133 76.1413 3.86338 75.9399 3.95026C75.6326 4.08418 75.2282 3.91207 74.8498 4.19168C74.7853 4.24119 74.5012 4.66903 74.2802 4.34168C74.2453 4.29041 74.3134 4.07951 74.1948 4.05517C73.6333 3.93849 73.0444 4.07678 72.4774 3.92878C72.277 3.87681 72.3788 3.5355 72.17 3.44344C71.9606 3.35137 71.5368 3.2629 71.319 3.41932C71.1197 3.56175 71.2988 4.02532 71.09 4.14068C71.0686 4.15205 71.0434 4.16005 71.0138 4.16404C69.5874 4.35626 68.2576 4.06253 66.8131 4.08596C66.5932 4.08801 66.7853 4.27552 66.4568 4.2918C66.238 4.30248 65.9896 4.3182 65.721 4.33272C64.5446 4.38476 63.2134 4.51019 62.3754 4.23231C61.5735 3.95812 62.5346 3.63466 61.9276 3.54419C61.6336 3.50173 61.3691 4.1586 61.3031 4.18413C60.6387 4.44287 60.1396 4.20789 59.5301 4.35385C59.4045 4.38416 59.5548 4.62712 59.4472 4.65016C59.0797 4.73122 58.6801 4.65724 58.3284 4.71552C58.1689 4.74248 58.2156 4.93455 58.0717 4.93476C57.7208 4.93831 57.4021 4.8905 57.0371 4.74663C57.0035 4.73357 57.1904 4.46734 56.9249 4.48802C56.5076 4.52086 55.9656 4.40096 55.4949 4.64505C55.3602 4.71768 55.4098 5.16263 55.0633 4.89262C54.9908 4.83629 55.0079 4.29253 54.702 4.79743C54.658 4.8804 54.1136 5.57802 53.7786 5.21269C53.6881 5.11677 53.4341 4.70494 53.266 4.79568C53.2435 4.80962 53.3693 5.03627 53.2259 5.07788C53.2169 5.08041 53.2079 5.08291 53.1989 5.08538C52.72 5.21958 52.1899 5.26346 51.689 5.40267C51.5512 5.4412 51.7924 5.66104 51.5857 5.71066C51.0299 5.84583 50.3104 5.87608 49.7396 5.87295C49.5278 5.8715 49.6445 5.64809 49.6265 5.62785C49.3406 5.29753 49.2639 5.80464 49.188 5.84369C48.711 6.08057 48.3085 5.90094 47.8559 6.02349C47.7308 6.05671 47.8523 6.27738 47.8298 6.30154C47.5941 6.53969 47.7328 6.09543 47.5627 6.07141C47.0882 6.00242 46.5678 6.09187 46.1085 6.18456C45.9383 6.21917 46.1681 6.46278 46.0148 6.49075C45.1076 6.66143 44.1586 6.76514 43.2455 6.73931C43.0745 6.73381 43.151 6.51159 43.1096 6.46893C42.8239 6.16999 42.5322 6.67166 42.4565 6.72608C42.1134 6.97415 41.947 6.80994 41.6248 6.88948C40.0545 7.28071 38.0688 7.43342 36.5536 7.5684C34.579 7.7455 33.0283 7.76108 31.1645 8.0734C31.0462 8.09296 31.2044 8.35257 31.103 8.37298C29.7879 8.62431 28.4686 8.69785 27.152 8.96137C27.0439 8.98251 27.2372 9.22277 27.0649 9.26549C26.7135 9.35471 26.2546 9.40356 25.8808 9.3698C25.6988 9.3538 25.9045 9.09638 25.722 9.08485C25.3005 9.057 24.8445 9.10063 24.4295 9.20026C24.2515 9.24344 24.5621 9.47393 24.3254 9.50948C22.7218 9.75597 21.1453 10.0165 19.4777 9.88334C19.4623 9.88207 19.4459 9.87115 19.4286 9.85355C19.315 9.74206 19.1604 9.36086 18.9669 9.47816C18.9689 9.63178 18.9932 9.80959 19.0067 9.9723C16.6716 10.3673 14.3333 10.4704 11.9619 10.7178C11.8624 10.7282 12.0676 10.9975 11.8755 11.0191C10.7643 11.144 9.67894 11.3466 8.50465 11.1796C8.38788 11.1634 8.39054 10.648 8.06781 10.7596C8.00691 10.7803 7.51633 10.8996 7.39292 11.0238C7.37685 11.0423 7.49336 11.2709 7.3309 11.2944C6.39116 11.4261 5.39342 11.4666 4.43566 11.4063C4.28151 11.3961 4.42035 11.1278 4.31059 11.1183C3.53182 11.0528 2.71229 11.3174 1.96171 11.1483C1.45939 11.0342 1.6038 10.5802 1.30802 10.17C1.26628 10.1122 0.963011 10.1277 0.92645 9.87772C0.833704 9.24917 0.922536 8.54505 0.806362 7.87652C0.781587 7.7325 0.389827 7.92245 0.600301 7.55192C0.615049 7.52707 0.898973 7.38627 0.96112 7.26133C1.00449 7.17491 0.892684 6.9269 0.986366 6.8131C1.0799 6.69941 1.21106 6.90418 1.37008 6.76633C1.52893 6.62694 1.43076 6.34246 1.76572 6.27959ZM94.9687 2.34803C94.6993 2.10084 94.6534 2.99782 94.947 2.78548C94.9613 2.77416 94.9826 2.36016 94.9687 2.34803ZM127.61 2.25542C127.604 2.24835 127.598 2.2416 127.592 2.23516C127.248 1.8817 127.024 2.4502 127.27 2.74878C127.407 2.91676 127.527 2.78488 127.593 2.61309C127.644 2.47409 127.657 2.30892 127.61 2.25542ZM131.257 1.98103C130.85 1.66556 130.774 2.93739 131.216 2.68383C131.242 2.66951 131.281 1.99936 131.257 1.98103ZM2.50203 9.94569C2.49735 9.93414 2.27912 9.94103 2.27463 9.95325C2.1828 10.2471 2.61996 10.233 2.50203 9.94569ZM134.888 1.70543C134.761 1.53172 134.389 1.72592 134.546 1.94187C134.672 2.11557 135.046 1.9215 134.888 1.70543ZM80.9113 1.6352C80.9065 1.62184 80.7512 1.60971 80.7541 1.68529C80.7644 1.92875 80.9821 1.86013 80.9113 1.6352ZM141.055 1.77456C140.144 1.71372 139.606 0.65498 140.597 0.78762C140.776 0.811624 140.205 1.11727 140.432 1.21526C140.848 1.39381 141.135 0.737892 141.558 1.09756C141.634 1.16338 141.106 1.78036 141.053 1.776C141.053 1.77552 141.054 1.77504 141.055 1.77456ZM94.821 1.26904C94.8153 1.2571 94.5997 1.24429 94.5949 1.25605C94.4764 1.54007 94.9097 1.56601 94.821 1.26904ZM71.7859 1.03861C71.775 1.01319 71.2709 0.989567 71.2533 1.01304C70.9911 1.4789 72.0098 1.5279 71.7859 1.03861ZM109.411 0.881435C109.463 0.81946 109.517 0.769622 109.571 0.733376C109.77 0.604227 109.97 0.647749 110.114 0.930489C109.933 0.913599 109.753 0.906217 109.569 0.893847C109.517 0.890251 109.464 0.886234 109.411 0.881435Z" fill="#988DEF"/>
</svg>
