<svg width="142" height="13" viewBox="0 0 142 13" fill="none" xmlns="http://www.w3.org/2000/svg">
<path d="M1.42392 6.92021C2.20266 6.77629 3.23656 6.77028 4.02235 6.81302C4.26944 6.82601 4.16105 6.99569 4.33274 7.01164C4.66593 7.04278 4.96554 6.93606 5.29892 6.97786C5.40828 6.99259 5.29927 7.25621 5.41366 7.26588C6.04434 7.31655 6.62562 7.19361 7.25951 7.18149C10.3802 7.12188 13.4411 6.84596 16.5926 6.55619C17.1932 6.50076 17.8718 6.4986 18.5543 6.45801C19.0375 6.43038 19.5361 6.38053 19.9762 6.27906C20.0997 6.25053 19.9958 6.04136 20.0172 6.02011C20.3537 5.69354 20.2927 6.15207 20.5414 6.17848C21.5387 6.28071 22.6116 6.15532 23.5345 5.94279C23.9223 5.85235 23.4682 5.47133 23.8984 5.66114C23.9283 5.67385 23.86 5.92021 23.9717 5.93016C24.2249 5.95229 24.6895 5.84604 24.8802 5.83854C25.2518 5.82473 25.3131 5.81389 25.6628 5.76831C26.1342 5.70897 26.722 5.74542 27.2209 5.62249C27.3281 5.59546 27.1509 5.37705 27.3189 5.31239C27.487 5.24778 27.9511 5.20392 28.1125 5.23876C28.275 5.27348 28.2352 5.47001 28.2685 5.50915C28.5436 5.84043 29.009 5.26387 29.0738 5.24217C30.292 4.85686 31.4 4.99366 32.5718 4.82912C33.4604 4.70371 34.3978 4.47642 35.2458 4.37119C36.2555 4.24684 37.1294 4.25657 38.104 4.09825C38.2074 4.08175 38.0469 3.81837 38.1731 3.79765C39.5086 3.57852 40.8469 3.42401 42.2093 3.42918C42.3456 3.43001 42.2073 3.69986 42.3454 3.71541C43.1943 3.80452 44.556 4.11332 44.8968 2.9753C45.4592 2.94136 46.141 2.89309 46.6644 3.04268C47.0009 3.13901 46.7268 3.44898 47.1074 3.28129C47.1933 3.24381 47.0457 3.02444 47.1767 2.98601C47.7234 2.82509 48.3515 2.81914 48.8863 2.62496C48.9971 2.58464 48.9381 2.37819 48.9654 2.336C49.1979 1.99283 49.7047 2.44283 49.8096 2.46666C50.5941 2.64399 51.1188 2.46616 51.814 2.38462C51.9762 2.36574 51.749 2.10697 51.9035 2.07869C52.0662 2.04972 52.2285 2.0236 52.3897 2.00075C53.0473 1.90795 53.6958 1.86466 54.3418 1.88898C54.5206 1.89667 54.3883 2.15723 54.475 2.17329C54.8506 2.24202 54.8873 1.77549 55.2508 1.83293C55.3272 1.8445 55.3095 2.05602 55.3256 2.07714C55.5728 2.4095 55.7092 1.88231 55.7614 1.86505C56.4323 1.63419 56.9446 2.11127 57.6031 1.96571C57.6832 1.94766 57.4728 1.70516 57.6992 1.67053C59.197 1.44006 60.808 1.36066 62.3258 1.47617C62.5661 1.49375 62.4081 1.70165 62.4247 1.72504C62.686 2.09063 62.8136 1.5727 62.8875 1.54947C63.4895 1.3784 64.0606 1.78784 64.4611 1.1712C64.7444 1.18815 65.0307 1.20097 65.3015 1.20725C67.0505 1.22538 68.9414 1.01341 70.7398 1.22579C71.1696 1.27327 71.5982 1.34095 72.025 1.43504C72.0572 1.44144 71.9986 1.69262 72.063 1.70431C72.828 1.84804 72.6814 1.45705 73.1915 0.981689C73.3184 0.862334 73.7059 1.44131 73.7385 1.48379C73.8623 1.64031 73.7308 2.01352 73.7724 2.04393C74.1188 2.28289 74.0676 1.04588 74.5362 1.04836C74.5507 1.05051 74.4882 1.27775 74.5271 1.30063C74.6479 1.37243 74.7701 1.28274 74.8891 1.36185C75.1598 1.54486 75.2539 2.1464 75.6732 1.79932C75.7266 1.75426 75.6497 1.05228 76.0669 1.08804C76.233 1.10291 76.9691 1.09534 77.175 1.14191C77.3807 1.18847 77.238 1.41373 77.2526 1.4236C77.8062 1.72555 77.5949 1.84828 77.8709 2.29225C78.1471 2.7345 78.075 1.68258 78.1889 1.56576C78.3027 1.44928 78.7089 1.69764 78.8083 1.78373C78.9081 1.86988 78.7826 2.01305 78.8715 2.06192C79.4601 2.38112 79.1316 1.54087 79.3267 1.37461C79.7842 0.980777 80.1403 1.76124 80.5583 1.83784C80.6722 1.85851 80.5794 1.68088 80.6806 1.66428C81.0781 1.60079 81.3222 1.84389 81.7741 1.61934C81.8502 1.58277 82.213 1.11246 82.4532 1.45497C82.4869 1.50437 82.3933 1.69932 82.5623 1.74174C82.8203 1.80544 83.2734 1.84379 83.5492 1.7752C83.7186 1.73219 83.576 1.49691 83.6833 1.48587C83.703 1.4839 83.7307 1.48898 83.7694 1.50341C83.8833 1.54617 83.6764 1.73657 83.8897 1.80122C84.1004 1.86613 84.6393 1.84752 84.8451 1.83593C85.0487 1.82449 84.9311 1.5843 84.9473 1.56756C85.0453 1.47161 85.4333 1.344 85.4681 1.34315C87.2077 1.26402 88.8463 1.58525 90.5584 1.41582C90.692 1.40275 90.5976 1.14853 90.618 1.14389C91.0803 1.02758 90.7265 1.71537 91.0523 1.93759C90.9977 1.41873 91.1872 1.50928 91.513 1.44816C91.6676 1.41838 91.581 1.21817 91.5948 1.19739C91.826 0.888964 91.9894 1.28256 92.0323 1.36297C92.1917 1.65879 92.351 1.30678 92.459 1.50488C92.5647 1.70153 92.3266 1.99473 92.6359 1.98975C92.7217 1.8034 92.4907 1.31792 92.7254 1.23837C92.9065 1.17829 93.1101 1.14565 93.3418 1.13256C94.2462 1.07961 95.4259 1.34326 95.9977 1.38269C96.7102 1.43181 96.9443 1.40144 97.357 1.47527C98.1064 1.60931 97.8378 1.24408 98.3068 1.08716C98.778 0.930523 98.5345 1.81392 98.5982 2.00591C98.6613 2.19783 98.736 2.00284 98.8161 2.1092C98.8958 2.21552 98.7166 2.34194 98.908 2.38488C99.1002 2.42777 99.6317 2.09868 99.7046 1.90059C99.8572 1.48084 99.6285 1.03254 100.135 1.19856C100.164 1.20839 100.064 1.43983 100.176 1.46567C101.064 1.66322 101.989 1.69407 102.875 1.87215C102.996 1.89699 102.882 2.15422 102.952 2.17162C103.691 2.3537 103.435 1.91027 103.852 1.43285C103.747 2.07792 103.964 2.4787 104.525 2.49463C104.865 2.50446 104.812 2.22059 105.034 2.02608C105.101 1.96743 105.338 2.16661 105.383 2.03461C105.536 1.60318 105.318 1.11207 105.896 1.31795C105.922 1.32769 105.836 1.56381 105.923 1.58004C106.49 1.68609 106.567 1.23313 107.182 1.19018C107.662 1.15648 108.515 1.44933 109.061 1.50252C109.052 1.77774 109.122 1.92612 109.221 1.97712C109.389 2.06105 109.638 1.88185 109.773 1.57149C110.129 1.5962 110.51 1.5711 110.854 1.64241C110.972 1.66671 110.893 1.87694 110.908 1.89979C111.133 2.2581 111.293 1.77048 111.368 1.75158C112.197 1.56784 112.878 1.93529 113.667 1.56725C113.695 1.55398 113.737 1.04823 113.951 1.41526C113.966 1.44056 113.706 1.67307 114.079 1.68721C114.451 1.70145 115.16 1.96343 115.675 1.72119C115.8 1.66293 116.111 1.24769 116.37 1.56404C116.405 1.60701 116.37 1.75257 116.421 1.83242C116.584 2.08681 116.661 1.57457 116.855 2.0054C117.048 2.43625 117.442 2.75457 117.96 2.44664C117.976 2.43767 118.093 2.03078 118.258 2.03459C118.521 2.041 118.896 2.11983 119.17 2.1136C119.301 2.11047 119.214 1.86016 119.237 1.85526C120.119 1.70332 120.753 1.9216 121.698 2.01863C121.73 2.02202 121.774 2.01316 121.825 1.99817C122.049 1.92773 122.421 1.73025 122.702 1.94122C123.08 2.224 122.753 3.47261 123.588 3.1443C123.921 3.01323 124.298 1.43036 124.938 2.22548C125.726 2.07147 126.48 2.20314 127.248 2.22367C127.633 2.23405 128.02 2.21662 128.419 2.12165C128.475 2.10906 128.642 1.67244 128.771 1.67887C128.959 1.68924 129.059 1.89399 129.195 1.90811C129.755 1.97242 130.27 1.80132 130.811 1.83303C131.015 1.84464 130.943 2.05523 131.188 2.06922C131.431 2.08303 131.598 1.80642 131.929 1.94405C132.178 2.04893 132.423 2.62002 132.755 2.6899C132.774 2.12931 133.001 2.14329 133.409 1.99994C133.488 1.97211 133.406 1.77598 133.443 1.75275C133.594 1.65389 133.734 1.8173 133.876 1.70948C133.911 1.68359 133.915 1.49211 133.944 1.46014C134.189 1.181 134.58 1.61663 134.649 1.69249C134.906 1.98057 135.032 1.73307 135.232 1.84779C135.43 1.96249 135.129 2.09887 135.362 2.16992C135.846 2.3169 136.469 2.29423 136.961 2.3097C137.158 2.31469 137.028 2.05726 137.056 2.05204C137.463 1.99271 137.87 2.27028 138.103 1.76425C138.366 3.08466 138.35 1.63995 138.927 1.91162C138.973 1.93358 139.022 2.55696 138.845 2.64589C138.669 2.73475 138.404 2.53641 138.159 2.67551C138.101 2.70814 137.762 3.28695 137.716 3.32168C137.359 3.593 137.322 2.66199 137.304 2.61064C137.1 2.05631 136.686 2.67933 136.58 2.72134C136.09 2.91381 135.679 2.77757 135.27 2.9144C135.003 3.00281 134.968 3.61189 134.76 3.59062C134.066 3.52035 133.833 2.66729 133.17 3.39695C133.028 3.5526 133.161 4.22019 132.663 3.69092C132.632 3.65755 132.264 3.1744 132.046 3.47532C132.018 3.51326 132.017 3.70739 131.982 3.72334C131.739 3.82641 131.585 3.67024 131.321 3.74188C131.062 3.81357 130.747 3.92127 130.45 3.85311C130.274 3.81236 130.042 3.449 129.96 3.3599C129.717 3.10314 129.457 3.51988 129.308 3.21021C129.159 2.89899 129.458 2.42895 129.06 2.22644C129.043 2.73074 129.007 3.24827 128.981 3.7554C128.403 3.74102 127.824 3.66271 127.253 3.62176C126.968 3.60165 126.685 3.59062 126.401 3.60079C126.294 3.60515 126.406 3.87515 126.292 3.88685C125.812 3.93532 125.388 3.74916 124.894 3.83924C124.511 3.91 124.103 4.21172 123.7 4.30052C123.43 3.73355 122.819 3.95636 122.356 3.91623C122.194 3.90245 122.2 3.74802 122.085 3.70044C121.966 3.65257 121.898 3.65472 121.854 3.6853C121.848 3.68515 121.829 3.68584 121.823 3.68556C121.713 3.76509 121.793 4.05131 121.711 4.10969C121.228 4.45248 121.183 3.29803 120.609 3.3299C120.578 3.33113 120.211 3.94933 120.161 3.9882C119.839 4.24112 120.105 3.7745 119.901 3.73106C119.529 3.65187 119.268 3.50814 118.833 3.69457C118.706 3.74976 118.406 4.13783 118.153 3.84519C118.12 3.80687 118.135 3.60322 118.109 3.59173C117.629 3.4009 117.627 4.04021 117.359 4.26116C117.09 4.48211 116.661 4.04808 116.573 3.92234C116.344 3.59716 116.743 3.77895 116.755 3.74646C116.891 3.35998 116.585 3.43126 116.349 3.40265C116.305 2.77667 115.977 2.81953 116.105 3.37545C116.12 3.43617 116.302 3.3748 116.349 3.40265C116.154 4.02072 115.792 4.10533 115.384 3.53661C115.193 3.26997 115.366 2.95384 114.799 3.07614C114.543 3.13119 114.647 3.56142 114.42 3.6817C113.902 3.95613 113.221 3.55918 112.683 3.62449C112.488 3.64821 112.679 3.88373 112.546 3.90804C112.19 3.97322 111.88 3.7962 111.521 3.88624C111.489 3.8947 111.567 4.14211 111.457 4.14501C110.676 4.16961 109.989 4.02916 109.191 3.99483C109.132 3.99221 109.071 3.9902 109.009 3.98894C108.585 3.98065 107.83 4.10361 107.392 4.0677C106.638 4.00727 105.715 3.62832 105.069 3.70187C104.648 3.7488 104.735 3.99798 104.55 4.16254C104.197 4.48161 103.594 3.8834 103.513 3.79104C103.51 3.78799 103.873 3.73754 103.683 3.60645C103.577 3.33959 103.517 3.78998 103.513 3.79104C103.46 3.73135 102.739 3.65961 102.595 3.7038C102.516 3.72795 102.555 3.96313 102.514 3.97129C101.544 4.16016 100.577 4.1993 99.6015 4.07061C99.5844 4.06554 99.6155 3.80403 99.5751 3.79538C99.0119 3.66786 98.6427 3.98163 98.1736 4.16363C97.7037 4.34558 97.3351 4.27581 97.0682 3.82165C96.7137 3.87266 96.2148 3.66658 95.9257 3.5422C95.6362 3.4178 95.5917 3.92754 95.5661 3.9373C94.7673 4.25098 94.3123 3.95459 93.4923 3.90651C93.4455 3.90368 93.3934 3.90226 93.3376 3.90207C92.9212 3.9004 92.2837 3.96593 91.9145 4.01875C91.5826 4.06689 91.3824 3.95 91.0787 4.03143C91.0374 4.04233 91.0831 4.26873 91.0706 4.27769C90.7375 4.55535 90.8901 3.99737 90.8175 3.8995C90.5544 3.54402 90.393 3.35498 89.9591 3.53622C89.857 3.57777 89.5877 4.38541 89.4075 4.43806C89.17 4.50516 89.2526 4.21565 89.0035 4.29368C88.9821 4.30012 88.9936 4.47657 88.8384 4.47433C88.1201 4.46617 87.3224 4.39719 86.5551 4.44219C86.4504 4.44764 86.5946 4.72317 86.4438 4.7356C85.7335 4.79396 84.942 4.80503 84.2449 4.68587C84.0717 4.65569 84.1765 4.45748 84.138 4.39984C84.0039 4.20188 83.849 4.28279 83.723 4.39166C83.6313 4.47456 83.5589 4.57368 83.5359 4.57819C82.2639 4.83916 81.2994 4.37627 80.0178 4.59558C79.9485 4.6085 79.4097 5.15677 79.1715 4.68468C79.1553 4.65328 78.9202 4.17038 78.7098 4.49918C78.6967 4.51974 78.8431 4.76854 78.586 4.74221C78.3285 4.71592 77.9139 4.87973 77.562 4.60513C77.4506 4.51863 77.1891 4.03629 76.8534 4.41769C76.8317 4.44434 76.3111 5.30809 76.132 4.70886C76.103 4.61023 76.137 3.97753 75.7383 4.29953C75.6621 4.36196 75.7995 4.504 75.5981 4.59088C75.2908 4.7248 74.8864 4.55269 74.508 4.8323C74.4435 4.88182 74.1594 5.30966 73.9384 4.98231C73.9035 4.93104 73.9716 4.72013 73.853 4.6958C73.2915 4.57912 72.7026 4.7174 72.1356 4.56941C71.9352 4.51744 72.037 4.17612 71.8282 4.08406C71.6188 3.992 71.195 3.90353 70.9772 4.05995C70.7779 4.20238 70.957 4.66595 70.7482 4.7813C70.7268 4.79268 70.7016 4.80068 70.672 4.80467C69.2456 4.99689 67.9158 4.70316 66.4713 4.72659C66.2514 4.72863 66.4435 4.91614 66.115 4.93243C65.8962 4.9431 65.6478 4.95883 65.3792 4.97334C64.2028 5.02538 62.8717 5.15081 62.0336 4.87293C61.2318 4.59875 62.1928 4.27529 61.5858 4.18482C61.2918 4.14236 61.0273 4.79923 60.9613 4.82475C60.2969 5.08349 59.7978 4.84851 59.1883 4.99448C59.0627 5.02478 59.213 5.26774 59.1054 5.29079C58.7379 5.37184 58.3383 5.29786 57.9866 5.35615C57.8271 5.38311 57.8738 5.57518 57.7299 5.57538C57.379 5.57894 57.0603 5.53113 56.6953 5.38725C56.6617 5.37419 56.8486 5.10796 56.5831 5.12864C56.1658 5.16148 55.6238 5.04159 55.1531 5.28567C55.0184 5.3583 55.068 5.80326 54.7215 5.53325C54.649 5.47691 54.6661 4.93316 54.3602 5.43806C54.3162 5.52103 53.7719 6.21865 53.4368 5.85332C53.3463 5.7574 53.0923 5.34557 52.9242 5.4363C52.9017 5.45025 53.0275 5.6769 52.8841 5.7185C52.8751 5.72103 52.8661 5.72353 52.8571 5.726C52.3782 5.8602 51.8481 5.90409 51.3472 6.04329C51.2094 6.08183 51.4506 6.30167 51.2439 6.35128C50.6881 6.48645 49.9686 6.5167 49.3978 6.51357C49.186 6.51212 49.3027 6.28872 49.2847 6.26847C48.9988 5.93815 48.9221 6.44526 48.8462 6.48432C48.3692 6.7212 47.9667 6.54157 47.5141 6.66412C47.389 6.69734 47.5105 6.918 47.488 6.94216C47.2523 7.18032 47.391 6.73606 47.2209 6.71203C46.7464 6.64304 46.226 6.73249 45.7667 6.82518C45.5965 6.85979 45.8263 7.10341 45.673 7.13137C44.7658 7.30205 43.8168 7.40577 42.9037 7.37993C42.7327 7.37443 42.8092 7.15221 42.7678 7.10956C42.4821 6.81062 42.1904 7.31229 42.1147 7.36671C41.7716 7.61477 41.6052 7.45057 41.283 7.5301C39.7127 7.92133 37.727 8.07405 36.2118 8.20902C34.2372 8.38613 32.6865 8.4017 30.8227 8.71403C30.7044 8.73358 30.8626 8.9932 30.7612 9.0136C29.4461 9.26493 28.1268 9.33848 26.8102 9.602C26.7021 9.62314 26.8954 9.86339 26.7231 9.90612C26.3717 9.99533 25.9128 10.0442 25.539 10.0104C25.357 9.99442 25.5627 9.73701 25.3802 9.72548C24.9587 9.69763 24.5027 9.74126 24.0877 9.84089C23.9097 9.88406 24.2203 10.1146 23.9836 10.1501C22.38 10.3966 20.8035 10.6571 19.1359 10.524C19.1205 10.5227 19.1041 10.5118 19.0868 10.4942C18.9732 10.3827 18.8186 10.0015 18.6251 10.1188C18.6271 10.2724 18.6514 10.4502 18.6649 10.6129C16.3298 11.0079 13.9915 11.1111 11.6201 11.3584C11.5206 11.3688 11.7258 11.6381 11.5337 11.6597C10.4225 11.7847 9.33714 11.9873 8.16286 11.8202C8.04608 11.804 8.04874 11.2886 7.72602 11.4002C7.66511 11.4209 7.17453 11.5402 7.05112 11.6644C7.03505 11.6829 7.15156 11.9115 6.9891 11.935C6.04937 12.0667 5.05162 12.1073 4.09386 12.047C3.93972 12.0367 4.07856 11.7685 3.96879 11.7589C3.19002 11.6934 2.37049 11.958 1.61991 11.789C1.1176 11.6748 1.262 11.2209 0.966218 10.8107C0.924479 10.7528 0.621214 10.7683 0.584653 10.5183C0.491907 9.88979 0.580739 9.18568 0.464565 8.51714C0.43979 8.37313 0.0480305 8.56307 0.258504 8.19254C0.273253 8.16769 0.557177 8.02689 0.619323 7.90195C0.662688 7.81554 0.550887 7.56752 0.644569 7.45372C0.738105 7.34003 0.869267 7.54481 1.02829 7.40696C1.18713 7.26756 1.08896 6.98309 1.42392 6.92021ZM94.6269 2.98865C94.3575 2.74147 94.3116 3.63844 94.6052 3.42611C94.6195 3.41478 94.6408 3.00079 94.6269 2.98865ZM127.269 2.89604C127.262 2.88898 127.256 2.88223 127.25 2.87578C126.906 2.52232 126.683 3.09082 126.928 3.38941C127.065 3.55739 127.185 3.42551 127.252 3.25371C127.302 3.11471 127.316 2.94955 127.269 2.89604ZM130.916 2.62166C130.508 2.30618 130.432 3.57801 130.874 3.32445C130.9 3.31013 130.94 2.63998 130.916 2.62166ZM2.16023 10.5863C2.15555 10.5748 1.93732 10.5817 1.93284 10.5939C1.841 10.8877 2.27816 10.8737 2.16023 10.5863ZM134.546 2.34605C134.419 2.17234 134.047 2.36654 134.204 2.58249C134.33 2.75619 134.704 2.56213 134.546 2.34605ZM80.5695 2.27583C80.5647 2.26246 80.4094 2.25034 80.4123 2.32592C80.4226 2.56937 80.6403 2.50076 80.5695 2.27583ZM140.713 2.41518C139.802 2.35435 139.265 1.29561 140.255 1.42824C140.435 1.45225 139.863 1.75789 140.091 1.85588C140.506 2.03443 140.794 1.37852 141.216 1.73819C141.292 1.804 140.764 2.42098 140.711 2.41662C140.712 2.41614 140.712 2.41566 140.713 2.41518ZM94.4792 1.90966C94.4735 1.89773 94.2579 1.88491 94.2531 1.89667C94.1346 2.18069 94.5679 2.20664 94.4792 1.90966ZM71.4442 1.67924C71.4332 1.65382 70.9291 1.63019 70.9115 1.65366C70.6493 2.11953 71.668 2.16853 71.4442 1.67924ZM109.069 1.52206C109.122 1.46008 109.176 1.41025 109.229 1.374C109.428 1.24485 109.628 1.28837 109.772 1.57111C109.591 1.55422 109.411 1.54684 109.227 1.53447C109.175 1.53088 109.122 1.52686 109.069 1.52206Z" fill="#8ED680"/>
</svg>
