<svg width="201" height="46" viewBox="0 0 201 46" fill="none" xmlns="http://www.w3.org/2000/svg">
<path d="M15.2969 45.3465C15.4211 45.2904 15.9177 45.4333 16.1334 45.4109C15.8843 46.0126 14.8489 45.5502 15.2969 45.3465ZM37.7523 1.69156C37.5723 1.83935 37.3923 1.98714 37.2123 2.13493C37.7196 2.23599 38.4034 2.13196 38.8738 2.27741C38.9506 2.30182 38.7471 2.73229 38.9294 2.75305C39.1118 2.77369 39.0814 2.18293 39.3473 2.12191C39.6456 2.05526 41.0056 2.4776 41.4778 2.47142C43.2439 2.44578 45.0277 2.12291 46.795 2.3824C44.9649 2.80454 46.802 3.26397 47.3151 3.07877C47.4289 3.03585 47.4196 1.93796 49.2501 2.22912C50.4134 2.4139 49.325 3.97461 51.2748 3.20405C49.7892 2.09412 51.2582 2.1829 52.43 2.15584C52.6321 2.151 54.2618 2.32909 54.9827 2.28627C55.2294 2.27134 55.6096 1.69937 55.9367 1.68691C56.1618 1.67877 56.3295 1.99449 56.6638 1.98118C58.2221 1.92286 59.7542 1.91076 61.3138 2.02961C60.39 3.49988 62.0245 2.66511 62.0971 2.73634C62.4656 3.14052 60.7833 3.24118 61.4462 3.49745C62.3758 3.45916 63.3054 3.42086 64.2351 3.38257C63.4739 3.19501 65.2548 2.14641 65.5771 2.63252C65.444 1.32569 69.8033 3.80303 70.4734 3.37238C70.613 3.28139 69.7094 2.62876 71.8152 2.94095C72.0432 2.97559 71.9537 3.36883 72.0737 3.33307C72.1456 3.31157 72.5897 2.06298 73.0466 2.75859C73.2134 3.01248 72.1264 3.82612 74.5016 3.51468C73.567 2.23271 77.7969 2.85102 78.5734 3.17665C78.4191 3.0042 78.2648 2.83174 78.1106 2.65928C78.877 3.12733 79.0195 2.69517 79.1928 2.72018C79.8912 2.82066 80.8489 3.26504 81.5005 3.23044C82.2631 3.19073 82.272 2.39822 83.1581 2.71366C82.9487 2.5371 82.7393 2.36053 82.5298 2.18397C83.1432 2.23102 83.7565 2.27808 84.3698 2.32514C82.9403 3.36279 84.676 2.37765 84.79 2.35599C84.9718 2.31927 84.7075 2.74666 85.0115 2.69562C85.043 2.68707 85.0009 2.28225 85.4692 2.2406C86.4477 2.15494 86.289 2.66222 86.6996 2.65977C86.7372 2.65745 86.6085 2.29203 87.3182 2.21154C89.5738 1.95527 87.3047 2.49067 87.2178 2.54034C87.1038 2.60586 87.8641 4.13478 85.9543 3.57944C86.5957 3.7565 86.6549 4.43084 86.7271 4.44815C86.7911 4.46241 87.9054 4.37647 87.967 4.35375C88.5163 4.12934 88.0383 3.665 88.1456 3.58335C88.2334 3.51753 89.5702 4.1284 89.8958 2.74594C90.5275 4.02861 89.5171 3.90342 88.4391 4.09112C88.28 4.352 89.46 4.61643 89.5221 4.61623C91.0469 4.62618 90.2112 3.56856 90.55 2.89953C90.7279 2.54949 91.3434 3.27139 90.7774 2.32454C92.1621 2.23623 91.3185 2.77547 91.4072 2.85699C91.5411 2.9768 92.0275 2.71065 92.0879 2.74711C92.1764 2.80108 91.8645 3.12481 92.2144 3.24255C92.2725 3.25973 92.8423 2.7029 92.1156 2.42871C93.0887 2.51635 93.0124 2.03702 93.3348 3.00436C94.0202 1.1847 93.8128 4.08706 94.076 4.19144C94.7761 4.46666 94.5839 3.03211 94.6216 2.96253C94.8807 2.51681 96.8208 3.0247 97.3038 2.82207C97.1056 3.85261 95.7627 2.82093 95.4589 3.01872C94.4462 3.67673 96.8744 3.54614 96.1325 4.83701C96.442 4.48334 96.7516 4.12967 97.0612 3.776C97.6168 4.61429 96.8161 4.97143 98.3319 4.67893C98.5852 3.96127 97.261 4.78398 97.5299 4.21925C97.6884 3.88782 98.5665 3.82344 98.5851 3.64818C98.6041 3.43719 97.809 3.68102 97.9366 3.3573C98.2152 2.65872 101.103 3.34915 98.8974 3.71387C99.5117 3.70684 99.817 5.10324 100.353 4.67323C100.7 4.39411 98.7776 2.45344 101.682 2.82986C101.738 3.48854 100.518 3.01486 100.486 3.06469C100.441 3.13724 100.65 4.62428 100.688 4.6979C100.821 4.94036 103.797 4.16894 104.418 4.92021C104.176 4.05979 106.662 4.7851 106.936 4.52572C107.009 4.45409 106.743 3.9261 106.821 3.87106C107.305 3.54369 108.601 4.49283 109.205 4.52202C109.881 4.55503 109.799 4.1002 109.837 4.10136C110.135 4.12909 109.894 4.43505 110.076 4.43565C110.351 4.43638 112.24 4.51456 112.335 4.45109C112.363 4.4313 112.059 3.91003 112.472 3.81494C112.543 3.79846 112.493 4.41317 113.715 4.15731C115.187 3.84959 112.701 3.38421 113.317 2.745C114.253 3.66973 114.23 2.76065 114.485 2.83407C114.573 2.86077 115.226 3.6388 115.943 3.59568C115.428 3.71697 114.913 3.83826 114.398 3.95955C114.902 4.09911 115.885 3.9393 116.3 4.09572C116.502 4.17186 116.33 4.8053 116.771 4.7917C116.865 4.78536 117.249 3.24183 116.087 3.92646C115.999 3.3735 116.547 3.73752 116.803 3.58338C116.842 3.55935 117.001 2.63803 117.322 3.214C117.399 3.35569 116.526 6.03995 118.738 4.10986C118.809 4.04765 118.566 3.70865 118.636 3.63934C118.683 3.5924 119.243 3.73325 119.305 3.68593C119.369 3.63513 119.101 3.26502 119.177 3.19323C119.567 2.82327 120.063 4.28666 119.266 4.16905C119.531 4.35155 119.797 4.53406 120.062 4.71657C119.785 3.61445 120.483 4.41049 120.852 4.37958C123.217 4.18214 121.64 3.45408 122.049 3.08726C122.708 2.49828 122.193 4.37639 123.168 3.81867C123.258 3.76651 122.092 2.95813 124.378 3.42738C124.04 3.45579 123.702 3.48419 123.364 3.5126C123.55 4.57795 124.585 3.44946 124.664 3.43517C125.564 3.29635 124.953 3.67494 126.293 3.1379C126.412 3.08968 126.67 3.35431 126.926 3.22541C127.987 2.6944 125.534 2.88679 125.47 2.45558C125.44 2.2443 128.077 2.31867 128.166 2.4196C128.547 2.86688 126.969 2.60561 127.266 3.15948C127.374 3.35616 131.136 2.98428 131.888 3.20493C132.756 3.46165 133.136 4.90708 133.155 3.28655C133.387 4.87927 133.613 3.79568 133.724 3.80753C135.068 3.96562 135.071 3.98169 136.226 3.83866C136.481 3.8076 136.692 4.29199 136.783 4.21121C136.836 4.16241 136.742 3.64511 137 3.48781C137.359 3.27267 139.499 3.82119 139.656 4.108C139.813 4.39481 138.75 4.22453 138.937 4.69551C139.707 4.74917 140.448 4.63897 141.223 4.6947C141.546 4.71925 141.377 5.04648 141.516 5.05414C141.576 5.05865 142.691 4.77828 142.645 4.6567C142.537 4.37399 139.098 4.53575 140.008 3.968C140.183 3.85829 140.794 4.62041 140.703 3.69892C143.773 3.93239 146.842 4.16586 149.912 4.39933C148.142 5.07377 146.161 4.4419 144.312 4.49158C144.059 4.49752 143.203 4.40182 143.303 4.86801C144.874 5.00114 146.83 4.77441 148.337 5.08983C148.385 5.10025 148.204 5.51692 148.384 5.58463C148.722 5.71102 149.828 5.04557 150.012 5.22143C150.043 5.2623 149.412 5.80844 149.6 6.16025C150.082 7.0631 150.222 5.07318 150.642 5.10015C150.967 5.12186 153.145 6.1021 153.694 5.49829C154.278 4.85469 152.087 5.10897 152.253 4.58025C153.738 4.05953 155.233 4.64039 156.634 4.58531C156.658 4.58382 156.448 4.16674 156.76 4.11114C157.305 4.01438 157.442 4.60469 157.706 4.70107C157.991 4.8037 159 4.72739 159.133 4.94329C159.15 4.9716 158.941 5.55433 158.91 5.5705C158.469 5.80781 158.319 5.0481 158.279 5.03804C158.129 5.00807 157.979 5.29739 157.842 5.27899C157.617 5.24832 157.494 4.97854 157.197 4.95242C156.991 4.93339 157.186 5.45112 156.988 5.42593C156.915 5.41459 156.14 4.22972 156.058 5.43217C156.032 5.8113 162.441 6.35004 163.084 6.05184C162.536 5.90276 161.987 5.75368 161.438 5.6046C162.552 5.96571 163.901 5.01527 163.985 6.43815C168.124 6.58776 172.264 6.73737 176.403 6.88699C177.142 7.0141 176.729 7.92469 177.947 7.66852C177.635 7.37485 177.323 7.08117 177.011 6.7875C177.633 6.99677 180.392 7.41802 180.841 7.23311C180.899 7.20886 180.986 6.38242 181.677 6.31692C182.29 6.25911 182.383 6.8796 182.71 7.00095C182.984 7.1011 183.294 6.94122 183.376 6.97609C183.438 7.00399 183.46 7.38313 183.61 7.45042C184.084 7.65856 183.707 6.58848 184.169 7.8175C184.054 7.86327 183.938 7.90903 183.823 7.9548C184.396 8.13675 185.175 8.6993 184.328 8.96693C184.182 9.01313 184.31 8.64753 184.201 8.64729C179.955 8.68123 183.34 9.42119 184.832 8.86387C185.21 9.41016 187.354 9.09575 187.424 9.20337C187.522 9.35921 187.152 9.79041 187.629 10.1691C187.73 10.2493 190.596 9.96819 189.559 10.6818C189.345 10.8291 187.973 10.6615 187.642 10.6801C188.411 11.8378 190.25 10.2029 190.455 10.2468C191.281 10.4329 188.856 11.2318 190.72 11.3806C192.154 11.4948 190.814 10.7152 191.368 10.3915C191.679 10.2099 193.296 11.0699 193.26 9.97276C193.818 9.86013 193.488 10.4382 193.556 10.4806C193.623 10.5178 194.721 10.1983 195.075 10.4323C195.118 10.4614 194.977 11.0304 195.022 11.0774C195.108 11.158 196.165 11.0525 196.208 11.0046C196.235 10.9712 195.987 10.4701 196.092 10.3499C196.214 10.2113 197.229 10.3369 197.286 10.1947C197.367 9.97964 196.111 10.1116 196.325 9.55521C196.902 9.70039 197.848 9.3356 198.233 8.88937C198.139 9.01708 197.577 9.03101 197.383 8.98416C197.481 8.16749 198.686 8.18833 198.269 8.83198C198.533 8.48663 198.356 8.30086 198.506 7.97415C198.545 7.8914 198.917 7.87728 198.99 7.73633C199 7.70821 198.619 7.39671 198.697 7.23131C198.838 6.93242 199.965 7.00899 200.057 7.08844C200.315 7.31358 199.393 7.57606 199.314 7.92022C199.302 7.97308 200.079 8.65503 200.09 8.7148C200.131 9.35539 199.264 8.88701 199.359 9.46428C199.573 9.58777 199.788 9.71127 200.002 9.83477C199.167 10.4119 197.634 10.0993 197.233 10.7601C198.465 10.5724 199.753 10.6062 199.738 12.1015C199.732 12.7312 199.198 13.0961 199.217 13.2564C199.291 13.83 200.033 13.2135 200.06 13.244C200.082 13.2791 200.092 13.3132 200.092 13.3463C200.092 13.3463 200.092 13.3463 200.092 13.3463C200.089 13.6817 199.036 13.9148 198.983 14.0676C198.892 14.339 199.351 15.4626 199.348 15.7104C199.331 15.76 198.581 16.019 198.83 16.4533C199.082 16.892 199.736 16.9069 199.759 16.9525C199.882 17.2147 198.735 17.4437 198.699 17.5977C198.681 17.6755 199.292 18.1596 199.309 18.2975C199.323 18.4359 198.853 18.7337 198.665 19.1685C198.525 19.4916 198.923 19.7433 198.853 19.7936C198.802 19.8268 197.72 19.8126 197.666 19.8692C197.586 19.9528 197.837 20.3423 197.799 20.4388C197.746 20.5777 197.397 20.4351 197.442 20.5788C197.475 20.6859 198.819 22.0322 198.807 22.3889C198.787 22.9972 197.364 21.5857 198.679 23.9975C198.688 24.0133 199.015 23.8453 199.024 23.8602C199.221 24.3035 198.173 24.9747 199.448 24.8662C197.072 25.6143 199.146 25.7784 198.787 26.8001C198.648 27.1927 197.729 27.3477 197.724 27.4068C197.809 27.907 198.105 27.522 198.202 27.7677C198.256 27.905 197.43 28.4266 197.612 28.771C197.706 28.9485 198.579 28.8927 198.615 28.9274C198.958 29.2554 198.531 29.6022 198.605 29.8338C198.655 29.9891 199.181 30.0056 199.194 30.0335C199.216 30.0917 198.496 30.7117 198.346 30.9304C198.231 31.0987 198.654 31.3673 198.574 31.4404C198.095 31.8777 197.091 30.7444 198.054 32.3289C198.113 32.4261 198.482 32.39 198.493 32.4094C198.718 32.8581 198.038 32.8913 197.913 33.2562C197.7 33.885 198.679 33.5413 197.863 33.9782C198.469 34.3954 198.809 34.3809 199.523 34.2717C197.546 34.5764 196.836 36.2029 199.028 36.1795C198.331 36.1484 198.401 37.0702 198.193 37.0847C198.064 37.0926 197.06 36.1687 197.507 38.2273C197.563 38.4845 198.18 38.1633 197.983 38.6871C196.511 38.5412 197.949 39.0212 197.95 39.0906C197.921 40.3009 194.328 39.2805 193.708 39.4136C192.989 39.5679 192.343 40.5166 192.187 40.5165C191.674 40.5128 192.104 40.0319 191.99 39.8529C191.876 39.6756 190.408 40.5916 190.335 40.54C190.054 40.3331 190.346 39.7615 190.317 39.7323C189.969 39.3779 188.005 39.8114 187.457 39.6736C187.471 40.046 188.573 40.0844 187.88 40.6768C187.073 41.3675 187.04 39.726 187.02 39.6536C183.348 39.6396 179.676 39.6256 176.004 39.6116C176.043 40.4851 178.449 39.846 178.502 39.9613C178.817 40.6445 174.762 40.5993 174.267 40.2871C174.644 40.4787 175.02 40.6703 175.396 40.862C174.743 41.8606 173.325 40.5449 172.389 40.9806C172.086 41.1218 172.662 41.5139 172.65 41.5403C172.308 41.9274 171.766 41.6227 172.177 41.1025C171.346 41.5974 171.471 41.045 170.836 40.9983C170.804 40.9963 171.073 41.4036 170.569 41.5675C170.333 41.644 169.078 41.6351 168.907 41.9881C168.837 42.1367 169.461 43.7127 169.551 42.3613C170.911 43.0314 169.992 41.7488 170.522 41.7841C170.603 41.7918 170.41 42.545 171.748 42.2005C171.483 43.5593 169.953 42.5293 169.688 42.6921C169.142 43.0265 171.377 43.7473 171.796 42.6898C171.596 43.7503 171.954 42.8342 172.453 42.8819C173 42.9336 172.759 43.2479 173.055 43.252C173.864 43.2665 173.534 42.5141 174.196 43.1953C173.562 41.0979 175.34 42.9284 175.858 43.4806C175.007 43.58 174.157 43.6793 173.306 43.7787C173.354 43.889 173.401 43.9992 173.449 44.1095C173.225 44.0921 173.002 44.0747 172.778 44.0574C172.815 43.9524 172.851 43.8474 172.888 43.7424C171.729 44.4176 171.453 43.646 171.359 43.6367C170.149 43.5377 168.749 43.533 167.525 43.5206C167.341 43.5188 167.461 44.2046 166.126 43.6577C165.701 43.4836 166.108 42.9541 165.623 43.0301C165.006 44.4728 165.027 43.3183 164.847 43.3151C164.33 43.3111 164.011 43.6671 163.963 43.6705C163.324 43.7213 162.39 43.6539 161.688 43.7016C161.675 43.707 162.036 44.1547 161.581 44.0194C161.422 43.9711 160.002 42.0611 158.743 42.6698C159.068 42.8007 159.393 42.9315 159.718 43.0623C159.336 42.88 156.644 43.3368 157.297 43.8503C157.698 44.1641 158.691 42.9484 158.79 44.126C157.898 43.7666 152.953 44.2536 152.57 43.9771C152.517 43.9376 152.848 43.5584 152.775 43.509C152.718 43.4713 151.585 43.5527 151.436 43.4048C151.348 43.317 151.85 43.087 151.81 42.9491C151.775 42.8508 150.363 42.6759 150.279 43.1538C150.627 42.9645 151.601 43.1401 151.087 43.5394C151.02 43.5889 150.682 43.2775 150.601 43.3404C149.855 43.9208 152.073 43.7979 152.416 43.8055C151.018 44.404 148.87 43.6679 147.254 44.0524C146.605 43.6488 148.225 43.4508 147.49 43.1149C145.965 42.4185 147.079 43.6624 147.031 43.7127C146.647 44.1115 145.37 41.9474 145.356 43.5866C144.803 43.3354 144.985 43.1302 144.2 43.3383C144.302 43.4527 144.404 43.567 144.506 43.6814C143.629 44.6239 141.809 42.2136 141.948 42.032C142.323 41.5459 143.275 42.3164 143.357 42.2987C143.478 42.2726 143.826 40.6119 145.14 42.1098C145.692 40.9986 143.045 41.34 144.254 40.5892C143.441 40.7075 140.105 39.9041 139.62 40.3899C139.562 40.4533 139.82 41.5671 138.999 40.9946C138.609 40.7221 139.555 40.7168 139.377 40.4621C138.832 39.6804 131.321 40.1171 129.895 40.1467C129.803 40.1472 129.839 39.8025 129.748 39.805C129.469 39.8123 128.447 40.3186 127.948 40.1558C128.979 40.8027 126.966 40.8362 126.455 40.7618C125.679 40.6485 125.732 40.0418 125.398 39.91C124.108 39.402 122.093 40.8272 121.099 39.4716C121.143 40.8094 119.366 38.8019 118.55 38.7836C117.912 38.7689 116.978 39.6465 117.836 40.1925C116.733 40.122 115.57 40.3622 114.535 40.4351C114.364 40.4473 114.603 40.0538 114.311 40.0872C114.284 40.0931 114.245 40.4803 113.994 40.5186C111.923 40.8398 112.936 40.0243 112.551 39.7791C112.335 39.6418 112.176 39.5731 112.059 39.5499C113.265 39.4839 114.657 39.3429 115.029 39.3348C114.718 38.4765 112.355 39.4777 111.668 39.2419C111.644 39.2333 111.731 38.7623 111.707 38.7587C111.706 38.7587 111.706 38.7587 111.705 38.7587C111.447 38.7205 109.8 38.8813 110.134 39.4465C110.224 39.5975 110.981 39.6033 111.88 39.5595C111.636 39.663 111.814 40.1929 111.77 40.2151C111.248 40.4721 109.977 39.9461 109.525 39.8729C109.422 39.8568 109.427 40.1954 109.41 40.196C108.999 40.1158 109.176 39.1505 108.746 40.144C108.011 38.9333 110.143 39.9764 109.999 39.1927C109.888 38.5894 105.13 38.8746 105.136 39.8238C105.121 39.7221 105.056 39.5956 104.923 39.4512C104.629 39.1304 103.304 39.2194 103.074 39.3924C103.036 39.4265 103.044 40.3478 102.996 40.3559C102.876 40.3761 101.264 39.6409 100.655 40.1805C100.981 40.3122 101.306 40.4439 101.631 40.5756C99.6607 40.5678 99.9631 40.8444 100.617 41.1251C100.65 41.1278 100.682 41.163 100.713 41.167C101.22 41.3748 101.871 41.5762 101.88 41.6489C101.916 41.9265 98.5713 42.0539 99.2212 41.2045C99.3117 41.0884 100.855 41.4813 100.094 40.8654C99.9614 40.7575 98.9666 40.9235 98.915 40.8559C98.5695 40.4063 100.743 39.8301 100.483 39.193C99.952 39.7933 99.2789 39.4695 98.6739 39.6207C98.3986 39.689 98.3274 40.1503 98.2934 40.1587C97.7859 40.2752 98.0741 39.7933 97.9049 39.804C97.8141 39.8116 96.8075 40.8341 97.0077 39.415C93.7102 40.4336 96.0894 40.4517 98.1077 40.3879C97.466 40.9002 96.2181 40.6399 95.6563 40.7555C95.4547 40.7975 95.5702 41.2725 95.2295 41.3646C94.5282 41.554 91.1922 40.9825 90.323 40.8472C90.8588 40.684 90.7067 40.1663 90.2939 40.1987C89.881 40.2313 90.222 40.9233 90.141 40.9968C90.0541 41.0728 88.1212 40.7319 87.7985 40.8186C89.2576 40.5807 88.9331 40.0631 87.6967 39.9992C87.8767 39.8523 88.0567 39.7055 88.2367 39.5586C87.5101 39.7612 85.9924 38.9634 85.5714 39.1938C85.5054 39.2308 85.7381 39.6657 85.701 39.6865C85.332 39.8675 84.0851 39.4159 84.0257 39.5631C83.9754 39.6857 84.5058 40.053 84.3064 40.2301C84.2648 40.2674 83.7553 39.678 83.2477 39.8178C83.0593 39.8692 83.1692 40.2796 83.1217 40.303C82.7256 40.4968 82.964 39.8091 82.242 39.9141C81.7131 39.9918 81.3142 40.6628 80.586 40.4336C82.9761 41.3123 80.9639 40.9371 79.9596 41.1895C79.7986 41.2297 79.9303 41.9742 78.9735 41.6045C81.0268 40.2768 78.3969 40.8894 77.8601 40.8704C77.8307 40.8656 77.8246 40.3753 77.5613 40.3653C77.539 40.3656 77.5683 40.6971 77.3234 40.7205C75.0003 40.9413 76.4875 40.579 76.0492 40.2488C75.8626 40.1081 74.7301 40.5674 74.426 40.5763C74.356 40.5769 74.391 40.2329 74.1204 40.2442C73.6417 40.2651 73.2101 40.6281 72.894 40.6546C72.8571 40.656 72.86 40.1129 72.2599 40.2842C72.0912 40.3321 71.9006 40.5234 72.1384 40.6815C72.9272 41.2015 74.4382 40.3247 75.3302 40.8445C76.1436 41.318 73.5665 41.3413 73.4325 41.3429C73.3833 41.3442 73.8887 41.0786 73.3778 41.0211C72.9416 40.9731 72.1361 41.9048 71.4871 41.6953C71.4376 41.6797 70.9241 40.8802 70.9485 40.834C70.9705 40.8003 71.7703 40.634 71.6562 40.4029C71.6425 40.3766 71.1351 40.3779 71.0703 40.2059C70.9908 39.9967 70.7886 37.9477 70.6807 37.8955C70.4036 37.7665 70.5808 38.2348 70.4012 38.2009C70.0161 38.1293 68.6832 37.5131 68.634 38.2224C68.8546 38.2663 69.0753 38.3102 69.296 38.3541C68.0658 38.4171 68.5875 38.7234 68.4122 38.8551C68.2234 38.9976 68.2812 38.3743 67.8672 38.3123C67.7771 38.2987 66.0418 38.415 66.0712 38.6769C67.0337 38.2681 66.6719 39.0361 66.716 39.0502C66.8837 39.1018 67.1017 38.6711 67.3271 38.6816C68.9122 38.762 67.3076 39.4316 67.6805 39.6101C67.8089 39.6702 68.0686 39.3031 68.1231 39.3225C68.3002 39.385 68.2992 39.8684 68.4181 39.8303C68.6954 39.7418 68.378 39.0552 68.4002 39.0198C68.6507 38.5938 69.6148 39.1341 69.006 39.8734C69.3657 40.1445 69.4154 39.2405 69.6994 39.6043C70.2642 40.3249 69.4109 40.1341 69.1784 40.2511C68.3443 40.6733 68.1007 40.3242 66.9239 40.4335C66.5001 40.472 65.9949 40.9073 65.7983 40.9298C65.6743 40.944 64.5181 39.406 64.4644 41.7981C64.012 41.5629 63.312 39.9807 62.8434 40.0491C62.4227 40.1114 62.5495 40.9589 62.51 40.9913C62.4495 41.0422 61.942 40.9714 61.7691 41.0897C61.5666 41.2294 61.6646 41.5532 61.344 41.6823C60.5462 42.0027 60.574 41.1389 60.4927 41.0821C59.5492 40.4256 59.9547 41.6577 59.7434 41.7546C59.5469 41.8436 56.8043 41.3485 56.2237 41.6548C56.4604 41.4837 56.697 41.3125 56.9336 41.1414C56.517 40.5991 56.0637 41.4744 56.0636 40.5081C55.9656 42.0675 55.1051 41.0177 54.8437 41.0559C54.7407 41.0716 54.7467 41.3375 54.6178 41.348C54.1145 41.3905 52.9823 41.1698 52.7084 41.3024C51.524 41.8732 54.5329 42.8629 54.77 42.9231C54.2947 42.9021 51.6023 43.2298 52.8325 43.9897C53.0227 44.107 53.3669 43.4116 53.4745 43.3851C54.2024 43.2112 53.626 43.8322 53.6825 43.8922C53.7786 43.989 54.2616 43.3881 54.3872 43.4611C54.4291 43.4846 54.1535 44.0489 54.8462 44.0664C54.501 44.6128 52.5572 44.1497 52.3007 44.2766C52.2093 44.3219 52.7704 45.5 51.1129 44.3467C51.1314 44.4558 51.1498 44.5649 51.1683 44.674C50.2399 44.7114 49.3116 44.7488 48.3832 44.7862C48.4861 44.536 49.0112 44.036 48.3541 44.1377C47.9758 44.1966 48.2508 44.7579 48.2162 44.7738C47.8759 44.925 41.8766 44.6906 40.7132 44.7436C40.3175 44.7607 39.2111 45.2011 39.127 45.2088C38.6239 45.2497 36.8459 44.9429 36.4902 45.0035C36.2681 45.0424 36.4752 45.5115 36.2773 45.488C36.0933 45.4655 36.2877 45.0153 36.2332 44.996C35.7814 44.8286 32.335 45.3934 31.5212 44.9608C32.0197 45.0927 34.5195 44.2103 34.4719 43.8913C34.4614 43.8476 33.8584 43.499 33.7321 43.6656C33.5288 43.2729 32.8104 44.4579 32.4267 44.2209C32.3833 44.194 32.5604 43.5275 31.8733 43.4007C31.6366 43.3574 31.0117 43.873 30.3917 43.2844C29.4851 43.5575 24.7374 42.653 24.4054 43.368C24.3954 43.4058 25.063 43.6583 24.6083 43.9492C24.0037 44.3359 24.5544 43.0215 23.8545 42.9021C23.749 42.884 21.7979 43.0017 21.7334 43.0828C21.1369 43.8182 22.8384 44.1319 22.8138 44.2177C22.7527 44.4339 21.3358 44.5535 21.2787 44.502C21.2243 44.4484 22.3869 43.4771 20.9964 43.8377C21.1544 43.9562 21.3124 44.0747 21.4704 44.1931C20.816 44.4161 20.7593 43.7372 20.6015 43.6945C20.1112 43.5593 19.5712 44.5855 18.7941 43.3064C18.5886 42.9669 18.9373 42.5946 18.9116 42.5437C18.6652 42.087 18.3363 43.3007 17.9675 42.3905C17.9398 42.3226 18.8194 41.7862 17.2896 41.7725C17.3942 41.8604 17.4988 41.9482 17.6034 42.036C17.3861 42.2285 15.8363 42.3314 15.6283 42.2838C15.0206 42.1447 15.5565 41.5246 14.9441 41.5943C15.3296 42.4531 13.4682 42.5498 13.5811 41.8141C13.3138 42.7371 11.7391 42.0107 10.9963 41.9828C10.5276 41.9659 9.56815 42.3619 9.41958 42.3135C9.2386 42.2541 9.29882 41.6235 8.97231 41.4803C8.8792 41.4395 7.90013 41.8943 7.04927 41.2341C6.88436 41.1069 6.54452 40.0336 6.85506 39.7685C7.3866 39.3149 8.37821 40.1854 8.37057 39.5527C8.36105 38.8759 7.01284 39.2675 6.65153 39.1763C4.98349 38.7544 5.95439 38.0428 5.91316 37.8245C5.80596 37.2944 4.89262 37.3035 4.85489 37.2556C4.69867 37.043 5.34916 36.6294 5.36153 36.3065C5.37671 35.8861 4.50258 35.1202 4.70383 34.98C4.99191 34.7811 5.79577 35.4201 5.84731 35.3903C6.51823 34.9877 5.6109 34.0089 5.36253 33.5296C5.28725 33.3821 5.59384 33.1432 5.5308 33.0997C4.56837 32.4384 5.31582 34.4633 4.67326 34.3233C4.09997 34.1985 4.84398 33.5661 4.82232 33.5307C4.79428 33.4918 4.10795 33.4515 4.00228 33.2247C3.95022 33.1112 5.74483 31.8838 5.67478 31.3264C5.10439 31.4445 4.53399 31.5626 3.96359 31.6807C3.9248 30.9544 4.7395 31.4954 4.82481 31.4212C4.99655 31.2724 4.52399 30.9012 4.54625 30.6718C4.55837 30.5259 5.12067 30.0095 4.6182 29.7907C4.44551 29.7151 4.07776 30.2212 3.45082 29.6961C5.65256 29.0497 4.13378 28.6294 4.07111 28.3717C4.00977 28.1141 5.06321 27.5173 3.78957 27.6141C3.74576 26.2008 3.8206 27.1677 4.18426 26.9223C4.62977 26.6207 3.60955 26.1472 5.22599 26.5132C5.1392 25.851 3.83728 25.8873 3.7688 25.834C3.70969 25.7857 4.00161 25.4627 3.89935 25.3516C2.68949 24.0637 3.52285 24.6541 3.17603 23.8351C3.14519 23.7619 1.9944 23.45 2.87331 23.3382C4.47455 23.135 5.1355 24.0777 5.42042 22.076C4.24433 21.196 2.80042 22.4779 2.4406 22.497C1.88986 22.5241 2.46341 22.12 2.3965 22.0049C2.37323 21.9677 1.89859 21.9977 1.89248 21.9652C1.56653 20.4341 4.00447 21.9568 4.77798 21.6972C4.57307 21.4667 4.36815 21.2361 4.16324 21.0056C4.44382 20.9987 4.7244 20.9918 5.00498 20.9849C3.67235 20.514 4.95927 20.8103 5.30246 19.5755C5.3795 19.298 4.49774 19.7678 5.50544 19.003C4.76823 18.8187 5.00587 18.5677 4.33423 18.9112C4.35549 18.4153 5.86482 17.8678 6.46042 17.6181C4.36808 17.0438 5.54917 18.8729 3.74422 17.8956C3.40313 18.5071 4.26932 18.3945 4.19795 18.4953C3.94188 18.8578 3.35313 18.2742 2.62688 19.5457C2.50862 19.7544 2.9967 20.4039 2.26701 20.3668C2.18631 20.3617 1.72564 19.8064 1.73241 19.7665C1.79755 19.3349 2.25651 19.5005 2.27696 19.3204C2.29617 19.1498 1.78184 19.2483 1.78045 19.201C1.76903 18.6597 2.21056 18.9976 2.1474 18.8276C2.01104 18.458 0.173367 17.2785 2.5812 17.639C0.574029 18.2348 2.32004 18.2346 3.10166 18.0058C3.30097 17.9485 3.35394 17.6256 3.63817 17.5157C4.0038 17.3733 4.42912 17.532 4.61819 17.4742C4.82154 17.4104 3.67524 16.637 5.3402 16.8784C4.49803 16.1115 2.99312 16.9098 2.16415 16.3694C0.491665 15.2774 3.34687 15.0689 3.64496 14.9668C3.72438 14.9391 3.4624 14.5004 3.51541 14.474C3.60206 14.4337 5.21983 14.6486 5.38241 14.2886C5.54457 13.9289 4.78913 14.3004 4.74215 13.9236C4.71029 13.6699 6.66747 13.2361 5.61133 13.0544C4.88339 12.9297 3.53165 13.9375 3.31416 12.8408C4.38682 12.7588 5.45948 12.6768 6.53215 12.5948C5.9488 12.1735 5.36545 11.7522 4.7821 11.3309C5.9863 11.2085 7.02262 11.6872 8.17012 11.1C5.43502 9.74308 9.07024 10.0419 9.11156 9.8798C9.12572 9.78275 8.05366 8.69059 7.88135 8.49101C8.84241 8.08192 11.7542 7.90168 10.0624 6.55012C10.369 6.85469 11.1233 6.11504 11.1139 6.05868C11.0236 5.46687 9.38833 5.83699 9.65884 5.30533C9.97232 4.68834 10.3978 5.53222 10.873 5.46893C13.3111 5.13865 12.6678 2.04782 15.1058 2.55572C15.0582 2.44547 15.0105 2.33521 14.9628 2.22496C17.6156 2.42119 20.2685 2.61744 22.9214 2.81367C23.9675 1.8798 26.7359 1.3283 28.0925 1.44347C28.3657 1.46598 29.7037 1.97129 29.8043 2.0588C29.9905 2.22646 28.9588 2.28156 29.4223 2.59684C29.5202 2.66157 31.7905 2.88765 31.6323 2.35918C31.3782 2.29601 30.5793 2.55458 30.4499 2.42932C29.541 1.53535 36.5397 2.30004 36.8896 1.94555C36.7358 1.7731 36.5821 1.60065 36.4283 1.42819C36.8697 1.51598 37.311 1.60377 37.7523 1.69156ZM17.1011 43.8668C16.8316 44.3936 16.1699 43.991 15.7759 44.1363C15.2315 44.3399 14.2924 46.3693 14.7061 44.331C15.5044 44.1762 16.3028 44.0215 17.1011 43.8668ZM28.7433 44.7489C28.2112 44.4605 28.6349 43.3236 29.0691 43.8011C29.1173 43.8554 29.4634 45.1371 28.7433 44.7489ZM23.1446 44.1627C23.1673 44.1478 23.6289 44.1817 23.6449 44.1997C24.0554 44.6608 22.6636 44.556 23.1446 44.1627ZM50.2163 43.7956C49.627 43.8401 50.0451 44.88 50.4147 44.4564C50.4379 44.4295 50.255 43.7935 50.2163 43.7956ZM49.7976 43.7648C49.3477 42.8329 48.4114 44.7066 49.1453 44.5231C49.2165 44.5046 49.8184 43.8101 49.7976 43.7648ZM26.8419 44.2803C26.9049 43.9251 27.4549 44.1013 27.6896 44.1883C27.6806 44.513 27.0731 44.2425 26.8419 44.2803ZM40.8206 44.294C40.8462 44.0145 38.9299 44.0146 38.7964 44.3821C39.1001 44.2282 40.7965 44.5452 40.8206 44.294ZM45.7379 43.9408C45.6897 43.8921 45.0271 43.9603 45.0444 44.2072C45.365 44.5335 45.9548 44.1614 45.7379 43.9408ZM55.5049 44.036C55.5413 43.9743 55.0583 42.3999 56.2246 43.443C56.3959 43.5957 55.7766 44.001 55.8374 44.0579C55.9649 44.1688 56.0659 44.2208 56.1473 44.2307C55.5992 44.3564 55.0304 44.4131 54.9762 44.3174C54.7216 43.8654 55.4888 44.0617 55.5049 44.036ZM60.6421 42.9072C60.7569 42.652 61.4756 42.7947 61.6386 42.9015C61.6666 42.9216 61.5385 43.5938 61.863 43.546C62.1236 43.5066 61.7404 42.8139 62.2465 42.9284C62.7579 43.0432 62.0695 43.5291 62.1139 43.5645C62.1735 43.611 62.9685 43.3078 62.9406 43.7085C62.9198 44.0054 62.0725 43.7977 61.8621 43.8592C61.5926 43.9381 61.9145 44.4356 61.4661 44.3257C61.1844 44.257 61.3479 43.3881 61.2886 43.3437C61.2389 43.3078 60.2481 43.8007 60.6436 42.91C60.6431 42.909 60.6426 42.9081 60.6421 42.9072ZM56.2956 44.1934C56.2542 44.2225 56.2057 44.2377 56.1473 44.2307C56.197 44.2192 56.2466 44.2059 56.2956 44.1934ZM18.6484 43.4975C18.924 43.7681 18.0966 44.1056 17.7872 43.7515C17.7841 43.4679 18.6044 43.4553 18.6484 43.4975ZM56.8087 43.4889C57.6196 43.7134 57.0195 44.0084 56.2956 44.1934C56.5263 44.0315 56.5364 43.4139 56.8087 43.4889ZM33.7321 43.6656C33.7658 43.7308 33.7868 43.8322 33.7882 43.9984C33.6995 43.8159 33.6923 43.7182 33.7321 43.6656ZM35.6256 43.9775C36.2796 43.4763 34.959 43.4862 34.9644 43.8486C34.9672 43.9854 35.5994 43.9974 35.6256 43.9775ZM50.9712 43.8511C50.9121 43.8011 51.8481 42.2794 50.4978 43.4161C51.2121 43.6021 50.4556 43.7625 50.4657 43.8965C50.4918 44.2816 51.697 43.9213 51.9619 44.0898C52.1759 43.4029 51.1661 44.016 50.9727 43.8511C50.9722 43.8511 50.9717 43.8511 50.9712 43.8511ZM69.8806 43.3524C69.7144 43.7546 69.1987 43.6206 68.8501 43.5941C69.0163 43.1918 69.532 43.3258 69.8806 43.3524ZM161.138 44.1449C158.745 44.4988 158.449 42.853 160.63 43.5201C160.673 43.5341 161.284 43.9795 161.138 44.1449ZM140.633 43.5541C140.414 42.836 141.16 42.7269 141.647 43.0266C141.757 43.094 142.161 43.8228 141.692 43.9609C141.714 43.0929 140.994 42.7554 140.633 43.5541ZM57.2717 43.0339C57.5122 42.5581 58.2379 42.904 58.6211 42.9788C58.3837 43.3702 57.6099 43.1861 57.2717 43.0339ZM153.293 43.2248C153.041 43.1685 152.866 43.7903 152.909 43.8424C153.102 44.0818 153.577 43.5818 153.293 43.2248ZM54.9209 42.9408C54.8899 42.6551 55.8569 42.3881 55.9184 43.0944C55.7126 43.0417 54.9433 43.1201 54.9209 42.9408ZM69.2247 43.1329C69.0761 42.9865 69.8539 42.733 70.0874 42.8789C70.0661 43.1825 69.3221 43.228 69.2247 43.1329ZM149.236 43.4036C149.011 43.3477 148.447 43.3266 148.383 43.578C148.303 43.8923 149.13 43.7916 149.236 43.4036ZM191.207 43.1977C191.234 43.3111 190.355 44.1196 189.969 43.9101C189.235 43.5093 191.176 43.1175 191.207 43.1977ZM155.679 42.9226C156.386 43.521 155.601 42.9407 155.627 43.5649C156.105 43.5913 157.296 43.6316 156.482 43.0115C156.324 42.8915 155.902 42.9648 155.679 42.9226ZM155.025 42.7086C154.947 42.9101 154.429 43.5433 154.873 43.5012C155.078 43.4808 155.414 42.7753 155.025 42.7086ZM185.797 43.4316C185.164 42.874 188.084 43.1939 188.168 43.2913C188.212 43.3428 188.24 43.3912 188.257 43.4321C188.365 43.2579 188.918 43.2308 188.978 43.6742C188.813 43.6363 188.361 43.6716 188.308 43.6221C188.286 43.601 188.269 43.5813 188.258 43.5612C188.06 43.9441 185.919 43.5373 185.797 43.4316ZM180.96 42.824C181.696 42.0149 181.814 43.4016 181.75 43.4457C180.952 44.0064 181.478 42.9887 181.454 42.9406C181.399 42.8606 180.831 43.3302 180.962 42.824C180.961 42.824 180.96 42.824 180.96 42.824ZM184.807 43.1956C184.837 43.1778 185.449 43.2256 185.474 43.2477C185.972 43.7174 184.24 43.5842 184.807 43.1956ZM64.5149 41.9688C64.9523 42.11 64.5181 42.6164 64.2281 42.4307C64.2044 42.4124 64.1291 41.844 64.5149 41.9688ZM154.674 42.8431C154.573 42.746 151.975 42.3618 152.125 43.133C152.347 43.0439 155.3 43.464 154.674 42.8431ZM135.241 42.4998C135.699 42.5095 135.193 43.2316 134.951 42.959C134.861 42.8577 135.125 42.4979 135.241 42.4998ZM53.6254 42.2711C53.146 42.6662 53.2553 41.3287 53.6643 41.7908C53.6804 41.8088 53.6442 42.2557 53.6254 42.2711ZM138.901 42.9468C137.316 43.3741 137.709 41.075 139.759 41.8687C139.694 41.9708 139.629 42.0728 139.563 42.1748C141.934 42.5393 139.724 42.3384 139.142 42.4626C138.921 42.5098 139.103 42.8955 138.903 42.9496C138.902 42.9487 138.902 42.9477 138.901 42.9468ZM132.829 42.4365C131.32 40.7902 134.219 41.8777 135.054 41.6716C134.24 42.3398 133.189 42.2292 134.615 42.9315C132.52 43.0483 133.397 42.4045 133.314 42.3497C133.215 42.2883 132.894 42.5071 132.829 42.4365ZM136.847 42.4578C136.936 42.4109 137.596 42.7489 137.836 42.6965C137.497 43.252 136.26 42.7773 136.847 42.4578ZM175.88 43.1622C175.939 42.7253 176.077 42.4042 176.6 42.5719C176.436 42.7904 176.1 42.9767 175.88 43.1622ZM16.6161 41.5611C16.2558 41.5268 15.5392 41.3563 15.7556 41.8179C15.7794 41.8573 16.6129 41.8192 16.6161 41.5611ZM147.123 42.428C147.047 42.3736 145.064 42.3215 145.745 42.8097C145.951 42.9569 147.756 42.9096 147.123 42.428ZM157.392 42.5656C157.226 42.5597 156.551 42.6366 156.536 42.74C156.488 43.0972 157.317 42.9073 157.392 42.5656ZM14.8008 41.0988C14.7537 41.053 13.6518 41.1245 13.7712 41.3377C13.9977 41.7408 14.9623 41.2564 14.8008 41.0988ZM66.1185 40.9571C66.2107 40.9417 66.3286 41.4178 66.3604 41.4233C66.4352 41.4307 68.1218 41.2615 67.4731 41.8662C67.3649 41.9676 64.9423 41.7138 64.6274 41.6511C64.5107 40.9979 65.5414 41.6266 65.7939 41.5616C65.8384 41.5492 65.8713 41.0038 66.1177 40.9599C66.118 40.959 66.1182 40.9581 66.1185 40.9571ZM178.611 42.7227C178.689 42.3087 180.672 42.0501 180.645 42.5523C179.967 42.6091 179.289 42.6659 178.611 42.7227ZM177.605 42.6459C177.185 42.3492 178.176 42.2602 178.467 42.3919C178.467 42.6709 177.667 42.6893 177.605 42.6459ZM153.647 40.9862C153.447 41.086 154.055 41.696 153.917 41.8125C153.828 41.885 153.385 41.6546 153.242 41.8427C153.201 41.9025 153.65 42.4749 153.782 42.4514C153.968 42.4201 153.791 41.9711 153.995 41.9696C154.67 41.9655 155.266 42.2895 155.9 42.2871C155.957 42.286 155.516 41.9664 156.004 41.9748C156.079 41.9755 156.528 42.4499 157.112 42.3848C158.412 40.9374 159.347 42.3764 160.986 41.8639C160.926 41.7261 159.706 41.348 159.634 41.3339C158.269 41.0831 155.821 41.0371 154.389 41.0224C154.022 41.0182 154.198 41.3282 154.04 41.3382C153.914 41.3456 154.068 40.7754 153.647 40.9862ZM16.8101 41.2468C16.6429 40.6747 16.0372 41.0311 15.6524 40.9985C15.7838 41.5143 16.4349 41.1173 16.8101 41.2468ZM168.715 42.1321C168.521 42.1526 167.924 41.9759 167.874 42.1473C167.808 42.3712 168.671 42.5197 168.715 42.1321ZM75.6189 41.1957C75.6377 41.1803 76.1017 41.2146 76.1191 41.2327C76.5302 41.694 75.1384 41.589 75.6189 41.1957ZM86.7241 41.395C87.0768 41.3274 87.4333 41.1519 87.5479 41.6159C87.3242 41.5432 86.6803 41.7172 86.7241 41.395ZM102.046 41.5046C101.979 40.8977 103.035 41.2989 103.235 41.3549C103.159 41.6238 102.096 41.942 102.046 41.5046ZM175.819 41.2582C176.467 41.2993 176.337 40.3797 176.745 40.7987C176.812 40.8695 177.013 42.7837 176.307 42.0614C176.18 41.9316 176.685 41.4811 175.819 41.2582ZM140.094 41.8907C140.262 41.4909 140.776 41.6141 141.123 41.649C141.043 41.9464 140.341 41.8641 140.094 41.8907ZM12.8155 40.6241C12.5162 40.0553 11.109 40.4641 11.4534 40.8411C11.5024 40.8903 12.6188 40.6011 12.8155 40.6241ZM58.9336 41.2179C59.5148 40.7766 58.3195 40.6289 57.9384 41.0616C58.1096 41.0344 58.8944 41.247 58.9336 41.2179ZM98.3686 41.1454C98.3965 41.1274 99.0086 41.1753 99.0358 41.1975C99.534 41.6672 97.802 41.534 98.3686 41.1454ZM83.0779 40.6295C83.3015 40.2643 84.7499 40.5721 85.0721 40.9422C84.7549 41.4763 82.8003 41.0856 83.0779 40.6295ZM173.151 41.4976C173.614 41.4824 174.051 41.5989 174.474 41.761C174.383 42.0692 173.198 41.7288 173.151 41.4976ZM100.617 41.1251C100.65 41.1278 100.682 41.163 100.713 41.167C100.681 41.1537 100.649 41.1385 100.617 41.1251ZM162.808 41.1974C162.422 41.0722 162.498 41.639 162.521 41.6565C162.811 41.8422 163.246 41.3386 162.808 41.1974ZM16.3744 40.4028C16.2442 39.8908 15.5896 40.2818 15.2158 40.1572C15.3213 40.5616 16.0721 40.4539 16.3744 40.4028ZM131.207 41.3769C130.725 40.819 132.71 40.1915 133.124 40.5518C133.152 40.8943 131.277 41.4533 131.207 41.3769ZM57.1461 40.4372C57.1105 40.0365 56.2753 40.5129 56.4504 40.7035C56.5613 40.8248 57.1673 40.6861 57.1461 40.4372ZM134.118 40.7933C134.305 40.6726 134.735 41.0711 134.58 41.3107C134.382 41.6177 134.069 40.8279 134.118 40.7933ZM150.81 40.6063C150.729 40.5445 149.632 40.9466 150.08 41.3586C150.391 41.6448 150.446 41.0666 150.52 41.0654C150.602 41.0679 152.352 41.7903 150.81 40.6063ZM120.121 40.9388C120.535 40.7882 121.032 40.9709 121.464 40.9633C121.286 41.2095 120.294 41.269 120.121 40.9388ZM60.3528 40.3559C60.2539 40.1932 57.5245 40.0737 59.0715 40.5845C59.1617 40.6134 60.6533 40.8486 60.3528 40.3559ZM175.819 41.2582C175.737 41.253 175.643 41.2331 175.534 41.1927C175.643 41.2091 175.737 41.237 175.819 41.2582ZM168.462 41.1385C168.613 40.8483 167.862 40.7643 167.639 40.9176C167.568 41.2731 168.441 41.1791 168.462 41.1385ZM121.5 40.5571C121.751 40.3923 122.201 40.5739 122.509 40.557C122.455 40.8275 121.606 40.8332 121.5 40.5571ZM104.028 40.1115C104.521 40.2765 105.129 40.2073 105.141 39.876C105.151 39.9279 105.175 39.9831 105.214 40.0386C105.254 40.0937 105.784 39.9438 106.013 40.0588C107.385 40.7418 100.693 40.4106 104.58 39.5062C104.396 39.7079 104.212 39.9097 104.028 40.1115ZM81.1211 39.8337C80.8439 39.428 80.0543 39.9272 80.2569 40.0876C80.398 40.1976 81.3986 40.2421 81.1211 39.8337ZM91.9156 39.6816C91.8323 39.6089 91.0631 39.8853 91.0417 40.0976C91.4808 40.325 92.2948 40.0191 91.9156 39.6816ZM78.9688 39.3439C78.7933 39.2816 78.5634 39.9303 78.5839 39.9588C78.7609 40.1977 79.2616 39.7084 78.9688 39.3439ZM174.491 39.495C174.231 39.3067 173.392 39.7708 173.207 40.1989C173.174 40.1155 173.083 40.0065 172.917 39.8752C172.918 39.8752 172.918 39.8752 172.919 39.8752C172.694 39.6998 165.947 39.4559 170.467 40.3196C170.609 40.3473 170.418 39.9601 170.995 40.0327C171.033 40.038 171.049 40.3529 171.167 40.3692C171.437 40.4047 172.878 40.6144 173.17 40.3634C173.172 40.4217 173.191 40.4774 173.23 40.5287C173.582 40.9855 174.693 39.6403 174.491 39.495ZM93.4366 39.6362C93.2832 39.5183 92.7938 39.6251 92.7409 39.9025C92.9821 40.0406 93.7926 39.9112 93.4366 39.6362ZM60.2773 39.2153C59.9647 38.9843 59.1644 39.4051 59.4034 39.6341C59.5499 39.7749 60.6379 39.4806 60.2773 39.2153ZM88.5419 39.7451C90.3423 40.088 88.9725 39.722 89.2519 39.3168C89.0152 39.4596 88.7786 39.6023 88.5419 39.7451ZM182.828 40.6142C182.541 40.5181 182.885 39.717 183.198 40.1557C183.297 40.295 182.988 40.6664 182.828 40.6142ZM195.813 40.4688C195.573 39.754 196.768 40.1825 196.297 40.6677C196.275 40.684 195.83 40.4961 195.813 40.4688ZM186.743 40.1046C186.544 40.5884 186.416 40.6449 185.867 40.5205C186.682 40.3904 185.931 39.955 186.743 40.1046ZM105.136 39.8238C105.139 39.8434 105.142 39.8579 105.141 39.876C105.138 39.8581 105.136 39.8412 105.136 39.8238ZM77.2725 39.4566C77.0502 39.0436 76.4173 39.0688 76.6024 39.4841C76.6203 39.5226 77.1776 39.7596 77.2725 39.4566ZM173.207 40.1989C173.236 40.2728 173.22 40.3203 173.17 40.3634C173.168 40.3084 173.182 40.2567 173.207 40.1989ZM80.6719 39.1488C80.6468 39.4554 81.6087 39.5825 81.6476 39.5467C82.2044 39.0192 81.0696 39.1336 80.6719 39.1488ZM53.9148 38.7329C53.8649 38.7645 54.1788 39.5589 54.3776 39.2502C54.5316 39.0108 54.1018 38.6125 53.9148 38.7329ZM188.611 39.9219C188.916 39.9249 189.346 39.928 189.422 40.3047C189.218 40.2453 188.603 40.1978 188.611 39.9219ZM195.348 39.9486C194.984 40.3879 194.161 40.38 193.636 40.3029C193.631 39.7208 195.008 40.0828 195.348 39.9486ZM175.316 39.7187C175.292 39.6948 174.528 39.515 174.63 39.9054C174.778 40.478 175.53 39.9323 175.316 39.7187ZM55.3961 39.1651C55.7402 38.8995 54.96 38.0686 54.5941 38.7026C54.4062 39.0273 55.3381 39.2095 55.3961 39.1651ZM75.3016 38.9023C74.8486 39.1242 75.9636 39.5348 76.1231 39.1287C75.9155 39.0943 75.4625 38.8238 75.3016 38.9023ZM90.6561 38.614C89.2438 37.4276 90.0009 39.5772 90.2546 39.3908C90.2904 39.3642 90.6906 38.6419 90.6561 38.614ZM9.30659 38.2473C9.104 38.409 9.84962 39.0064 9.94987 38.6178C10.0118 38.3747 9.43615 38.1443 9.30659 38.2473ZM112.059 39.5499C111.999 39.5532 111.939 39.5566 111.88 39.5595C111.925 39.5406 111.983 39.5349 112.059 39.5499ZM71.2188 37.2956C72.2063 38.9625 72.1115 37.6831 72.1984 37.6907C72.3862 37.7101 72.8193 38.1622 73.1741 38.0914C72.7669 38.2749 72.3598 38.4584 71.9527 38.6419C72.2721 38.7642 75.0508 39.3973 75.1113 39.1288C75.198 38.7464 74.3211 38.8595 74.2959 38.8256C74.2595 38.7772 74.1312 37.7111 74.0503 37.6699C73.9172 37.6041 71.5898 37.5633 71.2188 37.2956ZM87.6814 38.774C87.909 38.9025 87.9706 39.325 88.0776 39.225C88.1141 39.1907 88.1232 38.7883 88.2475 38.6852C88.0588 38.7148 87.8701 38.7444 87.6814 38.774ZM69.4147 38.7725C69.1353 38.2785 70.4041 38.4754 70.4444 38.5309C70.6589 38.866 69.6429 39.1761 69.4147 38.7725ZM80.1941 38.7879C80.148 38.7588 79.1737 38.5974 79.1794 38.8704C79.4358 39.0805 80.7395 39.1516 80.1941 38.7879ZM88.4003 38.659C88.7427 38.7087 89.3873 39.1192 89.3179 38.5125C89.3174 38.5125 89.3169 38.5125 89.3163 38.5125C89.011 38.5613 88.7057 38.6102 88.4003 38.659ZM56.5768 37.8946C55.9494 36.9243 56.2405 38.1463 56.8003 38.4622C56.9742 38.0302 56.6796 38.0525 56.5768 37.8946ZM54.5501 37.1586C54.3748 36.9835 52.5525 37.1591 52.8262 37.6721C52.9235 37.8549 53.9742 37.4043 54.0221 37.44C54.0948 37.4929 53.7563 38.0552 54.3156 37.9478C54.2845 37.7561 54.6101 37.2171 54.5501 37.1586ZM56.0561 37.2723C55.4309 36.5332 55.2781 37.8859 55.7527 37.8934C55.9382 37.8973 56.1453 37.379 56.0561 37.2723ZM58.6331 37.4085C58.407 37.2782 57.8037 37.0861 57.3831 37.533C57.9408 37.5759 58.4984 37.6189 59.0561 37.6618C59.1225 37.4073 58.8309 37.5229 58.6316 37.4084C58.6321 37.4085 58.6326 37.4085 58.6331 37.4085ZM199.168 36.5102C198.67 36.1223 199.826 35.9845 199.874 36.0792C200.017 36.3935 199.391 36.6835 199.168 36.5102ZM5.48869 25.9165C5.35058 25.7623 5.26355 25.2581 4.95474 25.5194C5.26023 25.8936 5.56572 26.2678 5.87121 26.642C6.1178 25.7922 5.63962 26.0865 5.48869 25.9165ZM4.33576 22.7951C4.3795 22.7749 4.15201 21.4633 4.70793 22.3422C5.08355 22.9356 3.01046 23.4943 2.64175 22.9106C3.05649 22.6441 3.9593 22.9602 4.33576 22.7951ZM0.758197 17.097C0.735188 16.9923 1.52228 16.8455 1.61265 16.9198C2.08715 17.3118 0.882727 17.6576 0.758197 17.097ZM3.26321 17.3671C2.89671 17.1098 3.71449 16.9524 3.95663 17.1008C3.97827 17.3447 3.31985 17.4046 3.26321 17.3671ZM194.243 17.5013C193.851 16.608 193.479 18.5213 194.096 18.1402C194.125 18.1222 194.259 17.5451 194.243 17.5013ZM1.53712 15.7821C1.90362 16.0393 1.08585 16.1967 0.843703 16.0484C0.823035 15.8047 1.4813 15.7444 1.53712 15.7821ZM193.979 15.3787C193.455 14.7339 193.624 16.8851 193.689 16.9723C193.959 17.3166 194.901 16.4804 195.093 16.2721C193.692 16.5835 194.226 15.6825 193.979 15.3787ZM191.526 16.6499C191.033 16.8753 192.285 17.324 192.529 16.7267C192.285 16.7534 191.666 16.5848 191.526 16.6499ZM188.549 15.9365C188.285 15.8574 187.501 15.6667 187.367 16.0039C187.655 15.945 188.435 16.2837 188.549 15.9365ZM187.959 14.9182C187.55 14.4553 187.44 15.7936 187.919 15.3986C187.938 15.3833 187.974 14.9439 187.959 14.9182ZM185.641 14.4161C185.375 13.8814 185.055 15.1757 185.494 15.2142C185.624 15.2233 185.669 14.4774 185.641 14.4161ZM193.335 13.0607C192.949 12.8289 192.441 13.7536 193.269 13.8623C192.977 14.0018 192.685 14.1414 192.393 14.281C193.473 14.8102 193.404 13.5217 193.715 13.5774C194.15 13.6566 194.107 14.7191 194.017 15.0521C194.379 14.4039 195.895 14.4057 196.773 14.2888C196.005 14.0093 194.759 13.5255 194 13.3463C193.783 13.2944 193.57 13.5842 193.386 13.5501C193.089 13.4939 193.356 13.0763 193.336 13.0607C193.336 13.0607 193.335 13.0607 193.335 13.0607ZM182.59 14.3723C181.798 13.7627 182.291 15.0691 182.743 14.8405C182.762 14.8228 182.609 14.3872 182.59 14.3723ZM0.513076 11.8157C1.57258 12.3687 0.793455 13.084 3.02789 12.0063C2.08661 12.7744 2.97169 12.5636 2.78665 12.875C2.63825 13.1214 2.09128 12.912 2.40617 13.4131C1.99137 12.8671 0.170351 13.0025 0.0899299 12.9138C0.0906929 12.9138 0.0914558 12.9138 0.0922188 12.9138C0.0439114 12.8612 0.174987 11.6398 0.513076 11.8157ZM188.573 12.5307C188.32 10.9483 188.195 13.4557 187.684 12.1418C186.973 14.0381 189.604 12.1575 189.908 13.7665C187.069 13.557 191.772 15.3735 189.808 12.9527C191.435 13.8387 190.346 12.6592 190.6 12.3548C190.873 12.0305 191.794 12.3927 191.752 11.8037C191.751 11.8037 191.751 11.8037 191.75 11.8037C191.185 11.8403 190.619 11.877 190.054 11.9136C190.597 13.1879 189.445 12.7978 189.062 11.7601C188.899 12.0169 188.736 12.2738 188.573 12.5307ZM191.761 13.7485C191.706 13.719 190.475 13.887 190.553 14.1425C190.715 14.3064 192.461 14.1256 191.761 13.7485ZM197.173 13.5146C196.731 13.508 196.051 13.2548 195.807 13.7316C196.248 13.7384 196.929 13.9918 197.173 13.5146ZM174.449 13.241C173.884 13.6294 175.614 13.7597 175.117 13.2903C175.093 13.2682 174.477 13.2229 174.449 13.241ZM187.291 12.7594C186.723 12.2718 186.981 13.8112 187.408 13.414C187.433 13.3906 187.317 12.7816 187.291 12.7594ZM1.3767 11.6359C1.41799 11.2596 2.95946 11.5365 3.23311 11.5355C3.07483 11.8843 1.32934 12.0673 1.3767 11.6359ZM197.961 12.1119C197.094 10.7506 195.889 12.3052 195.759 12.27C195.629 12.2341 195.838 11.6437 195.808 11.6276C195.741 11.5939 194.357 11.6324 194.29 11.6731C194.241 11.7048 194.485 12.5387 194.197 12.7985C194.758 12.3303 197.286 12.6464 197.418 12.5552C197.52 12.4825 196.76 11.6027 197.959 12.1119C197.96 12.1119 197.96 12.1119 197.961 12.1119ZM195.434 12.0861C195.777 12.4376 194.807 12.4734 194.573 12.3428C194.054 12.0506 195.39 12.0444 195.434 12.0861ZM193.105 11.7459C192.995 11.6668 191.996 11.5877 191.908 11.9753C192.377 12.4827 193.355 11.9302 193.105 11.7459ZM181.987 11.7086C181.727 11.7562 181.016 11.4522 180.972 11.7911C181.232 11.7437 181.943 12.0475 181.987 11.7086ZM6.66714 8.71746C6.23834 8.43013 7.23805 8.32221 7.52833 8.4607C7.54232 8.68712 6.70364 8.74213 6.66714 8.71746ZM187.22 9.51486C187.068 9.41046 183.931 9.64263 183.49 9.79795C183.918 10.058 187.024 10.1027 187.166 9.97863C187.208 9.94147 187.24 9.53125 187.22 9.51486ZM194 9.41288C194.292 8.91564 194.475 9.5163 194.511 9.52412C194.865 9.60342 195.603 9.49672 195.438 9.97656C194.812 9.77739 193.42 10.4003 194 9.41288ZM181.782 9.44635C180.717 9.62316 182.757 10.1659 182.493 9.64159C182.476 9.60988 181.893 9.42777 181.782 9.44635ZM187.572 9.37211C187.81 8.97034 190.942 9.34371 191.446 9.34837C190.989 10.0893 190.63 9.52082 190.024 9.55391C189.861 9.56372 189.902 9.87381 189.884 9.87416C189.601 9.88623 189.816 9.5302 189.641 9.52336C189.531 9.52002 187.237 9.93818 187.572 9.37211ZM194.167 9.06814C194.345 8.78318 196.304 8.67687 196.382 8.75361C196.966 9.32435 194.319 9.16905 194.167 9.06814ZM187.289 8.70786C187.634 7.84528 189.186 8.43731 188.117 8.8601C188.015 8.89852 187.587 8.51996 187.289 8.70786ZM181.903 8.62328C181.85 8.59741 180.742 8.41552 180.72 8.69067C180.88 8.79895 182.496 8.90796 181.903 8.62328ZM182.485 7.69682C182.459 7.7032 182.715 8.23556 182.195 8.16418C182.151 8.1575 182.075 7.56026 181.42 7.77339C181.287 7.81729 181.078 8.21031 181.092 8.23496C181.766 9.1767 183.831 7.40004 182.485 7.69682ZM194.207 8.58502C194.104 8.33235 194.364 7.58698 194.59 7.96734C194.687 8.13157 194.5 8.57865 194.207 8.58502ZM178.386 8.35325C179.035 7.90515 177.01 7.80315 176.906 7.91833C176.969 8.20121 178.321 8.397 178.386 8.35325ZM7.70469 5.22642C7.70418 5.22642 7.70367 5.22641 7.70316 5.22641C8.24496 5.33349 7.90582 5.70787 7.93114 5.71991C9.08248 6.28309 8.78278 5.42654 8.96434 5.3272C9.35365 5.11234 9.28284 6.15046 9.94005 5.7251C8.85431 6.35231 9.84009 6.09365 9.86773 6.4634C9.97669 7.97231 8.43466 5.74574 7.89332 6.05746C7.8179 6.10063 8.3683 6.58634 8.17486 6.7217C7.54594 7.16028 5.62572 4.81688 7.70469 5.22642ZM194.768 7.90285C195.023 7.46194 196.929 7.90692 196.42 8.26774C196.338 8.32558 194.393 8.54546 194.768 7.90285ZM105.578 6.53092C106.04 6.1513 104.98 5.69212 104.78 5.98888C104.681 6.13673 105.375 6.69752 105.578 6.53092ZM98.1338 4.83115C97.5879 4.90458 97.0002 6.49843 97.6806 6.25583C97.7529 6.2293 98.1946 5.05339 98.1338 4.83115ZM133.934 5.94071C133.369 5.36488 133.394 6.42654 133.812 6.41493C133.96 6.411 133.951 5.95893 133.934 5.94071ZM112.201 5.90305C112.144 5.86554 111.485 5.92801 111.507 6.17215C111.75 6.32046 112.567 6.16035 112.201 5.90305ZM134.116 5.79111C133.777 5.97968 134.351 6.75203 134.77 6.00513C134.56 6.06498 134.151 5.77184 134.116 5.79111ZM186.132 6.35279C185.846 6.78634 185.047 6.64821 184.587 6.71941C184.542 6.15437 185.803 6.45252 186.132 6.35279ZM100.443 5.4925C99.924 5.88629 101.027 6.221 100.93 5.69419C100.916 5.6655 100.464 5.47569 100.443 5.4925ZM152.305 5.87989C151.927 6.21369 153.115 6.67624 152.792 6.08158C152.776 6.05731 152.326 5.86132 152.305 5.87989ZM157.506 6.1168C157.223 6.00089 156.008 6.02607 156.478 6.35847C156.551 6.40956 157.483 6.42513 157.506 6.1168ZM8.99965 4.92097C8.85093 4.33971 9.74016 4.48495 9.86681 4.58735C9.91654 4.62992 9.19364 5.67723 8.99965 4.92097ZM130.236 5.8203C129.941 5.8905 129.178 5.74644 129.041 6.04964C129.402 5.98956 130.328 6.42723 130.236 5.8203ZM102.797 5.5087C102.353 4.87481 101.584 4.93083 101.767 5.75586C102.616 5.70751 101.669 5.01483 102.797 5.5087ZM136.019 5.12798C135.783 5.07799 135.595 5.86739 135.622 5.90487C135.875 6.26141 136.251 5.43757 136.019 5.12798ZM118.285 5.63616C118.274 5.29808 117.515 5.44538 117.615 5.66373C117.647 5.73703 118.294 5.90976 118.285 5.63616ZM176.215 6.08067C175.871 5.76939 176.933 5.47633 177.243 5.83899C177.392 6.35914 176.259 6.11645 176.215 6.08067ZM142.568 5.37849C142.608 4.87721 141.422 5.15125 141.885 5.57075C142.001 5.67571 142.555 5.54609 142.568 5.37849ZM153.905 4.86823C153.106 5.45995 156.437 5.91143 155.567 5.15904C155.505 5.10543 153.975 4.81828 153.905 4.86823ZM159.347 5.28561C159.211 5.2186 159.293 3.53377 159.854 4.18824C159.928 4.27312 159.576 4.71585 159.636 4.81824C159.672 4.87661 160.902 5.12323 160.96 5.08435C161.021 5.04016 160.953 4.4994 161.016 4.43931C161.086 4.37215 161.841 4.85279 162.239 4.86117C162.987 4.8761 163.072 4.42714 163.133 4.42614C163.312 4.42461 163.61 4.74626 163.973 4.74879C165.801 4.75992 168.6 4.40132 170.041 5.36623C168.755 4.97305 167.523 5.3693 166.239 5.48394C166.622 4.54846 164.345 6.19185 165.678 5.11959C165.066 5.34958 159.795 5.495 159.349 5.28562C159.348 5.28562 159.348 5.28562 159.347 5.28561ZM95.9854 4.34141C96.325 3.76866 94.6051 3.88426 94.4539 4.54882C94.6801 4.64304 95.9433 4.4063 95.9854 4.34141ZM103.927 3.00175C104.087 2.90371 104.248 1.78012 105.08 2.35731C105.081 2.35732 105.082 2.35732 105.082 2.35733C105.326 2.52589 105.045 2.79772 105.089 2.89575C105.105 2.93576 105.864 3.50144 105.229 3.58632C104.261 3.71659 105.145 2.74879 104.629 2.73273C104.566 2.7313 103.586 3.3323 103.641 3.46641C103.647 3.48202 103.942 3.35559 103.99 3.41153C104.171 3.62182 104.079 3.97236 104.105 3.98928C104.189 4.03279 105.737 3.44681 105.957 3.97123C106.028 4.14034 103.493 4.50871 103.395 4.4203C103.333 4.36459 103.367 3.3898 103.303 3.29339C103.27 3.24535 102.249 3.60252 102.117 3.51182C102.079 3.48558 102.05 3.4574 102.029 3.4342C102.18 3.73709 101.258 3.70794 101.289 3.36781C101.306 3.23417 101.941 3.31671 101.963 3.34028C101.973 3.35026 101.982 3.36397 101.99 3.37345C101.861 3.00477 104.01 3.03867 103.551 2.48783C104.176 2.19313 103.456 3.2897 103.927 3.00175ZM106.927 2.42437C106.862 2.52639 106.797 2.62841 106.731 2.73043C107.824 2.48824 109.079 2.99199 110.336 2.99843C110.655 3.00081 110.293 2.37074 110.71 2.54547C111.043 2.6855 111.409 3.27016 111.226 3.39839C111.181 3.43039 110.503 3.04604 110.161 3.08217C109.153 3.18917 109.403 3.729 109.344 3.74306C109.279 3.75782 108.648 3.37452 108.302 3.38857C107.431 3.42509 107.03 3.75207 105.845 3.3111C106.534 2.96219 106.164 2.18918 106.927 2.42437ZM147.58 3.89713C147.624 3.55896 148.336 3.86504 148.596 3.81741C148.552 4.15641 147.84 3.84948 147.58 3.89713ZM41.2021 2.60105C40.9783 3.15476 42.6207 3.30553 42.1913 2.83975C42.0963 2.73637 41.4085 2.60666 41.2021 2.60105ZM48.5824 2.99833C48.8034 2.84653 47.9214 2.43947 47.9196 2.86939C47.9198 3.00726 48.5539 3.01808 48.5824 2.99833ZM121.024 3.08449C121.066 3.06743 121.669 3.19602 121.688 3.22443C122.084 3.81746 120.096 3.46054 121.024 3.08449ZM57.5631 2.3867C56.7939 2.74462 59.0991 2.921 58.3981 2.45111C58.3631 2.42821 57.6001 2.3693 57.5631 2.3867ZM60.7698 2.31089C60.586 2.32893 59.7717 2.14158 59.7596 2.311C59.7411 2.58432 60.6733 2.77869 60.7698 2.31089ZM136.195 3.03086C136.111 2.40427 137.183 2.88691 137.558 2.81111C137.642 3.43813 136.569 2.95483 136.195 3.03086ZM129.409 2.51476C133.948 2.05789 132.937 3.38705 129.137 2.81746C129.134 2.4159 129.123 2.54353 129.409 2.51476ZM135.215 2.63568C135.047 3.03531 134.533 2.91227 134.186 2.87734C134.25 2.59908 134.964 2.70572 135.215 2.63568ZM39.2521 1.72561C39.5405 1.2214 40.7949 1.85597 40.5693 2.06308C40.5168 2.10778 39.1454 2.00331 39.2521 1.72561ZM121.408 2.55196C121.307 1.94243 122.667 2.20168 122.77 2.3377C123.186 2.8848 121.52 2.41851 121.408 2.55196ZM142.635 2.5471C142.88 2.07226 143.561 2.32299 144 2.33285C143.797 2.73892 143.008 2.55868 142.635 2.5471ZM139.468 2.14803C139.495 2.12995 140.108 2.17793 140.135 2.2001C140.633 2.66981 138.901 2.5366 139.468 2.14803ZM6.98929 0.641782C7.00983 0.626584 7.47349 0.660719 7.48952 0.678772C7.89991 1.13985 6.50831 1.03511 6.98929 0.641782Z" fill="#EED850"/>
</svg>
