<svg width="602" height="46" viewBox="0 0 602 46" fill="none" xmlns="http://www.w3.org/2000/svg">
<path d="M46.8844 45.2226C47.2562 45.1656 48.7516 45.3044 49.3989 45.2803C48.6651 45.884 45.5434 45.4299 46.8844 45.2226ZM113.286 1.38826C112.749 1.5375 112.212 1.68674 111.675 1.83597C113.201 1.93294 115.253 1.82341 116.67 1.96507C116.901 1.98886 116.3 2.42095 116.848 2.44024C117.397 2.45942 117.291 1.86892 118.088 1.80576C118.983 1.73671 123.079 2.14809 124.497 2.13811C129.802 2.09825 135.153 1.76102 140.468 2.00627C134.981 2.44313 140.511 2.88776 142.048 2.69843C142.388 2.6546 142.334 1.55682 147.84 1.83323C151.339 2.00864 148.107 3.57806 153.946 2.79182C149.456 1.6939 153.871 1.77084 157.391 1.73435C157.998 1.72788 162.898 1.89284 165.063 1.84421C165.803 1.8273 166.932 1.25229 167.914 1.2372C168.59 1.22724 169.101 1.54161 170.105 1.5256C174.785 1.45474 179.387 1.4303 184.076 1.53658C181.336 3.01425 186.226 2.16635 186.446 2.23699C187.562 2.63819 182.511 2.75239 184.509 3.00332C187.301 2.95754 190.092 2.91176 192.884 2.86598C190.593 2.68455 195.917 1.62165 196.897 2.10515C196.466 0.799435 209.622 3.24159 211.624 2.80556C212.041 2.71345 209.311 2.06812 215.645 2.36334C216.33 2.39614 216.071 2.79009 216.431 2.75337C216.646 2.73129 217.95 1.47917 219.339 2.17107C219.847 2.4236 216.601 3.24597 223.729 2.91542C220.89 1.64101 233.612 2.22525 235.953 2.54462C235.485 2.37341 235.017 2.2022 234.55 2.03099C236.863 2.49285 237.281 2.05956 237.802 2.08318C239.903 2.17802 242.791 2.61468 244.747 2.57483C247.037 2.52899 247.045 1.73643 249.714 2.04472C249.081 1.86985 248.447 1.69498 247.814 1.52011C249.658 1.56222 251.501 1.60434 253.345 1.64645C249.076 2.69559 254.266 1.69651 254.608 1.67392C255.153 1.63574 254.37 2.06525 255.282 2.01176C255.376 2.00296 255.24 1.59849 256.646 1.55307C259.583 1.45954 259.119 1.96807 260.352 1.96232C260.465 1.9597 260.069 1.59532 262.199 1.50912C268.969 1.2347 262.166 1.78835 261.906 1.83872C261.565 1.90515 263.886 3.4279 258.135 2.88795C260.066 3.05985 260.26 3.73369 260.478 3.75041C260.67 3.76417 264.016 3.66925 264.2 3.64604C265.845 3.41722 264.398 2.95674 264.718 2.87422C264.98 2.8077 269.011 3.40779 269.956 2.02275C271.884 3.30029 268.846 3.18324 265.612 3.37961C265.14 3.64177 268.692 3.89669 268.878 3.89599C273.459 3.89366 270.923 2.84281 271.925 2.17107C272.451 1.8196 274.317 2.53653 272.594 1.59426C276.752 1.4948 274.23 2.04082 274.499 2.12163C274.904 2.24035 276.359 1.97029 276.541 2.00627C276.808 2.05952 275.879 2.38576 276.933 2.50067C277.108 2.51738 278.806 1.95599 276.617 1.68765C279.542 1.76746 279.301 1.28876 280.293 2.25347C282.308 0.428354 281.755 3.33228 282.549 3.43455C284.658 3.70411 284.046 2.27116 284.158 2.20128C284.925 1.75349 290.766 2.24574 292.212 2.03923C291.641 3.07133 287.582 2.0505 286.674 2.25072C283.648 2.91687 290.94 2.76674 288.742 4.06354C289.663 3.70738 290.585 3.35123 291.506 2.99508C293.195 3.82887 290.799 4.19244 295.345 3.88775C296.089 3.16808 292.131 4.00142 292.925 3.43455C293.393 3.10185 296.029 3.0304 296.081 2.855C296.133 2.64386 293.75 2.89408 294.126 2.56934C294.946 1.86854 303.636 2.5357 297.021 2.91817C298.866 2.90619 299.817 4.30009 301.417 3.86578C302.452 3.58387 296.63 1.65874 305.364 2.01176C305.55 2.66997 301.872 2.20613 301.777 2.25622C301.643 2.32913 302.308 3.81443 302.423 3.88775C302.831 4.12912 311.749 3.33378 313.634 4.08002C312.888 3.22157 320.373 3.92683 321.189 3.66527C321.406 3.59305 320.595 3.06721 320.827 3.01156C322.274 2.68029 326.189 3.61897 328.005 3.64329C330.038 3.67085 329.78 3.2167 329.894 3.21756C330.788 3.24289 330.074 3.55077 330.621 3.54991C331.447 3.54843 337.123 3.6114 337.408 3.54716C337.491 3.52714 336.564 3.00834 337.802 2.90993C338.016 2.89288 337.88 3.50797 341.545 3.24228C345.958 2.92272 338.48 2.47737 340.314 1.83323C343.149 2.75038 343.057 1.84152 343.825 1.91288C344.092 1.93888 346.073 2.71161 348.224 2.66273C346.68 2.78816 345.136 2.91359 343.592 3.03902C345.11 3.17452 348.057 3.00681 349.308 3.15988C349.918 3.23439 349.415 3.86919 350.741 3.85204C351.022 3.84495 352.138 2.29837 348.666 2.99233C348.389 2.4401 350.041 2.79971 350.807 2.6435C350.923 2.61916 351.38 1.69659 352.359 2.26995C352.594 2.41101 350.035 5.10222 356.634 3.15438C356.846 3.09161 356.107 2.75457 356.315 2.6847C356.457 2.63738 358.141 2.77372 358.327 2.7259C358.518 2.67459 357.704 2.30664 357.931 2.23424C359.093 1.86117 360.618 3.32051 358.222 3.20932C359.023 3.38968 359.823 3.57005 360.624 3.75041C359.767 2.65055 361.882 3.44096 362.99 3.40708C370.09 3.1906 365.335 2.47526 366.556 2.10515C368.52 1.51089 367.02 3.39309 369.935 2.82753C370.204 2.77465 366.681 1.97569 373.561 2.42651C372.545 2.45764 371.53 2.48877 370.515 2.5199C371.1 3.58371 374.181 2.44692 374.418 2.432C377.119 2.28594 375.293 2.66944 379.305 2.12163C379.663 2.07245 380.443 2.33499 381.21 2.20403C384.385 1.6645 377.019 1.87663 376.818 1.44595C376.723 1.23491 384.644 1.28806 384.916 1.38826C386.071 1.83246 381.325 1.58391 382.229 2.13536C382.56 2.33117 393.85 1.92901 396.115 2.1436C398.729 2.39332 399.905 3.83565 399.922 2.21502C400.66 3.80581 401.311 2.72044 401.646 2.73139C405.688 2.87865 405.695 2.89471 409.162 2.74238C409.927 2.70927 410.573 3.19194 410.844 3.11044C411.002 3.06121 410.707 2.54468 411.479 2.38531C412.551 2.16729 418.995 2.69856 419.474 2.98409C419.953 3.26962 416.753 3.10792 417.326 3.57737C419.642 3.62483 421.864 3.50867 424.195 3.55815C425.164 3.5801 424.666 3.90868 425.085 3.91522C425.263 3.91925 428.607 3.62991 428.466 3.50871C428.134 3.22688 417.806 3.41632 420.526 2.84126C421.05 2.73015 422.904 3.48732 422.609 2.56659C431.836 2.77534 441.062 2.98409 450.289 3.19284C444.988 3.8815 439.022 3.2656 433.469 3.33017C432.708 3.33814 430.135 3.24934 430.448 3.71471C435.17 3.83519 441.04 3.59271 445.574 3.89599C445.719 3.90602 445.186 4.32413 445.73 4.39039C446.746 4.51406 450.053 3.83972 450.61 4.0141C450.705 4.05472 448.822 4.60592 449.395 4.95621C450.864 5.85514 451.237 3.86416 452.501 3.88775C453.478 3.90684 460.043 4.86951 461.678 4.2613C463.417 3.61302 456.84 3.88494 457.325 3.35489C461.776 2.82223 466.282 3.39104 470.487 3.32468C470.561 3.32299 469.917 2.90762 470.856 2.8495C472.488 2.74836 472.917 3.33754 473.712 3.4318C474.569 3.53214 477.599 3.4477 478.005 3.66252C478.056 3.69069 477.442 4.27508 477.349 4.29151C476.029 4.53237 475.56 3.77388 475.44 3.76415C474.988 3.73539 474.545 4.02591 474.133 4.0086C473.455 3.97975 473.082 3.71097 472.187 3.68724C471.57 3.66987 472.166 4.18602 471.571 4.16242C471.352 4.15166 468.996 2.97308 468.777 4.17615C468.709 4.55548 487.975 5.0426 489.901 4.73922C488.249 4.59456 486.597 4.4499 484.945 4.30524C488.299 4.65738 492.329 3.69611 492.614 5.11827C505.054 5.23454 517.493 5.35082 529.932 5.46709C532.153 5.58826 530.935 6.50215 534.59 6.23617C533.645 5.94502 532.701 5.65387 531.757 5.36272C533.63 5.56697 541.929 5.96599 543.272 5.77747C543.446 5.75276 543.688 4.92564 545.761 4.85458C547.601 4.79184 547.897 5.41155 548.881 5.53027C549.707 5.62821 550.634 5.46584 550.88 5.50005C551.068 5.52745 551.142 5.9064 551.595 5.97248C553.024 6.1768 551.865 5.10979 553.284 6.33505C552.939 6.38174 552.593 6.42843 552.248 6.47513C553.972 6.65247 556.328 7.20872 553.788 7.48316C553.352 7.53054 553.726 7.16392 553.401 7.16455C540.646 7.23268 550.831 7.94536 555.301 7.37604C556.449 7.91928 562.883 7.58761 563.096 7.69466C563.394 7.84971 562.293 8.28387 563.736 8.65874C564.039 8.7381 572.642 8.43392 569.544 9.15589C568.905 9.30483 564.781 9.14835 563.786 9.16963C566.126 10.321 571.609 8.6714 572.226 8.71368C574.713 8.89312 567.447 9.71152 573.051 9.84531C577.36 9.94798 573.315 9.17918 574.972 8.85101C575.903 8.66687 580.779 9.51382 580.647 8.41704C582.321 8.29991 581.341 8.88066 581.548 8.92243C581.75 8.95915 585.041 8.63082 586.109 8.862C586.239 8.89075 585.831 9.46083 585.965 9.50747C586.225 9.58733 589.399 9.47337 589.527 9.42507C589.608 9.39151 588.851 8.89241 589.162 8.77136C589.525 8.63179 592.579 8.74924 592.747 8.60656C592.985 8.39084 589.215 8.53295 589.843 7.97482C591.581 8.11535 594.412 7.74296 595.559 7.29364C595.278 7.42211 593.593 7.44055 593.008 7.39527C593.284 6.57784 596.902 6.58897 595.665 7.23596C596.451 6.8885 595.914 6.70416 596.357 6.37625C596.473 6.29318 597.59 6.27607 597.806 6.13454C597.834 6.10634 596.681 5.79792 596.912 5.6319C597.33 5.33187 600.717 5.39937 600.994 5.47808C601.774 5.70113 599.012 5.97103 598.782 6.31582C598.749 6.36877 601.098 7.04444 601.134 7.10412C601.271 7.74437 598.657 7.28297 598.956 7.85946C599.603 7.98123 600.249 8.103 600.895 8.22477C598.402 8.80855 593.79 8.50836 592.6 9.17237C596.297 8.97478 600.165 8.99814 600.157 10.4935C600.155 11.1233 598.56 11.4925 598.622 11.6526C598.857 12.2256 601.071 11.6032 601.152 11.6334C601.219 11.6683 601.25 11.7023 601.25 11.7354C601.25 11.7354 601.25 11.7354 601.25 11.7355C601.25 12.0709 598.094 12.3125 597.936 12.4656C597.671 12.7377 599.075 13.8577 599.073 14.1054C599.024 14.1552 596.777 14.4202 597.535 14.8525C598.302 15.2892 600.269 15.2988 600.338 15.3442C600.714 15.6054 597.273 15.8436 597.171 15.9979C597.117 16.0759 598.964 16.5551 599.018 16.6928C599.064 16.831 597.66 17.1327 597.107 17.569C596.694 17.8932 597.895 18.1417 597.684 18.1925C597.533 18.2262 594.282 18.2206 594.122 18.2776C593.884 18.3619 594.646 18.7493 594.535 18.8462C594.378 18.9855 593.328 18.8457 593.464 18.989C593.567 19.0959 597.637 20.4314 597.611 20.7881C597.564 21.3965 593.254 19.9966 597.265 22.3977C597.293 22.4134 598.269 22.2428 598.296 22.2576C598.899 22.6994 595.769 23.3789 599.596 23.2601C592.477 24.0274 598.71 24.1748 597.657 25.1993C597.25 25.5931 594.49 25.7555 594.477 25.8145C594.746 26.3141 595.625 25.9267 595.924 26.1716C596.088 26.3085 593.619 26.8367 594.175 27.1796C594.462 27.3564 597.083 27.2935 597.191 27.328C598.229 27.6532 596.957 28.0034 597.184 28.2344C597.336 28.3892 598.917 28.4015 598.959 28.4294C599.025 28.4874 596.878 29.1131 596.43 29.333C596.09 29.5023 597.367 29.7674 597.129 29.8412C595.7 30.2824 592.658 29.1572 595.589 30.7339C595.768 30.8305 596.877 30.7915 596.909 30.8108C597.594 31.2577 595.553 31.2964 595.188 31.6622C594.561 32.2927 597.495 31.9412 595.055 32.3846C596.886 32.7969 597.905 32.7797 600.047 32.6648C594.117 32.9854 592.024 34.6176 598.608 34.5765C596.513 34.551 596.746 35.4722 596.121 35.4884C595.732 35.4974 592.695 34.5815 594.088 36.6365C594.263 36.8932 596.107 36.567 595.53 37.0924C591.102 36.9584 595.436 37.4267 595.44 37.4962C595.383 38.7067 584.564 37.7152 582.705 37.8533C580.548 38.0134 578.631 38.9672 578.162 38.9684C576.62 38.9688 577.9 38.4845 577.555 38.3065C577.205 38.13 572.819 39.0578 572.599 39.0069C571.75 38.8022 572.612 38.2283 572.524 38.1994C571.472 37.8477 565.58 38.2971 563.931 38.1636C563.982 38.5359 567.293 38.5655 565.226 39.1634C562.818 39.8606 562.68 38.2194 562.617 38.1472C551.586 38.1627 540.555 38.1783 529.524 38.1939C529.662 39.067 536.874 38.4085 537.038 38.5235C538.001 39.2041 525.818 39.1916 524.323 38.8833C525.459 39.0719 526.594 39.2605 527.729 39.4491C525.791 40.4529 521.5 39.1487 518.696 39.5919C517.79 39.7356 519.53 40.123 519.494 40.1495C518.476 40.5394 516.842 40.239 518.064 39.7155C515.578 40.2171 515.941 39.6637 514.034 39.6221C513.936 39.6204 514.755 40.0255 513.246 40.1934C512.539 40.2718 508.768 40.2731 508.263 40.6274C508.055 40.7766 509.968 42.3475 510.204 40.9955C514.306 41.6546 511.515 40.3794 513.108 40.4104C513.353 40.4175 512.79 41.1722 516.803 40.8169C516.039 42.1779 511.418 41.1602 510.626 41.3251C508.992 41.6639 515.724 42.3667 516.959 41.3059C516.382 42.3679 517.436 41.449 518.937 41.4926C520.579 41.54 519.863 41.8562 520.752 41.8579C523.183 41.8659 522.175 41.1162 524.179 41.792C522.225 39.6998 527.609 41.5159 529.178 42.0639C526.625 42.1701 524.073 42.2764 521.52 42.3826C521.666 42.4924 521.812 42.6023 521.958 42.7122C521.285 42.6966 520.613 42.681 519.941 42.6655C520.049 42.5602 520.156 42.4549 520.264 42.3496C516.797 43.0342 515.951 42.2648 515.668 42.2562C512.029 42.167 507.826 42.1736 504.146 42.1711C503.594 42.1707 503.973 42.8555 499.949 42.3194C498.666 42.1487 499.878 41.6159 498.423 41.6959C496.603 43.1435 496.637 41.9889 496.096 41.987C494.544 41.9872 493.595 42.3458 493.451 42.3496C491.533 42.4056 488.723 42.3457 486.616 42.399C486.577 42.4045 487.673 42.8492 486.304 42.7177C485.824 42.6707 481.512 40.7722 477.743 41.391C478.724 41.5192 479.704 41.6474 480.684 41.7755C479.531 41.5964 471.455 42.0749 473.43 42.5831C474.64 42.8937 477.596 41.67 477.92 42.8467C475.232 42.4945 460.388 43.0213 459.232 42.7479C459.073 42.7088 460.056 42.327 459.835 42.2782C459.664 42.241 456.264 42.3314 455.813 42.1848C455.544 42.0977 457.046 41.8637 456.924 41.7261C456.817 41.628 452.571 41.4645 452.329 41.9431C453.371 41.751 456.302 41.9187 454.765 42.3221C454.568 42.3722 453.543 42.0635 453.303 42.1271C451.074 42.7135 457.734 42.5727 458.765 42.5776C454.581 43.1873 448.111 42.4685 443.263 42.866C441.305 42.4676 446.167 42.2566 443.951 41.9266C439.354 41.2425 442.728 42.4774 442.585 42.5281C441.443 42.93 437.553 40.7763 437.551 42.4155C435.885 42.1688 436.424 41.9621 434.072 42.1766C434.381 42.2901 434.691 42.4036 435 42.5171C432.389 43.4667 426.862 41.0711 427.276 40.8884C428.39 40.3993 431.268 41.1622 431.514 41.1438C431.878 41.1167 432.884 39.4532 436.866 40.9405C438.497 39.8249 430.555 40.1876 434.168 39.4271C431.728 39.5519 421.687 38.7754 420.242 39.2651C420.069 39.329 420.872 40.4406 418.392 39.8748C417.214 39.6054 420.054 39.5925 419.515 39.3392C417.857 38.562 395.306 39.0592 391.022 39.1003C390.744 39.1015 390.846 38.7565 390.573 38.7597C389.733 38.7693 386.675 39.2838 385.173 39.125C388.285 39.7636 382.24 39.8132 380.703 39.743C378.369 39.636 378.514 39.0289 377.505 38.8998C373.62 38.4021 367.599 39.8435 364.58 38.496C364.746 39.8334 359.359 37.8403 356.909 37.8286C354.989 37.819 352.205 38.704 354.795 39.2431C351.482 39.1815 347.995 39.431 344.887 39.5123C344.373 39.5259 345.08 39.1304 344.204 39.1662C344.124 39.1723 344.014 39.5598 343.262 39.6002C337.048 39.938 340.071 39.1144 338.909 38.8723C338.258 38.7367 337.778 38.6693 337.426 38.6471C341.047 38.5713 345.225 38.4191 346.342 38.4081C345.389 37.5523 338.315 38.5725 336.243 38.3422C336.171 38.3338 336.422 37.8621 336.349 37.8588C336.347 37.8588 336.345 37.8588 336.344 37.8588C335.568 37.8226 330.623 37.9967 331.641 38.5592C331.914 38.7094 334.19 38.7091 336.889 38.658C336.159 38.7636 336.704 39.292 336.576 39.3145C335.012 39.5757 331.182 39.06 329.823 38.9904C329.512 38.9751 329.535 39.3137 329.484 39.3145C328.248 39.2376 328.755 38.2709 327.487 39.2678C325.249 38.0631 331.681 39.0889 331.228 38.3065C330.88 37.7041 316.594 38.0276 316.637 38.9767C316.587 38.8752 316.391 38.7492 315.988 38.6059C315.094 38.2874 311.118 38.387 310.432 38.5619C310.316 38.5963 310.362 39.5175 310.219 39.526C309.859 39.5472 304.999 38.8249 303.184 39.3694C304.164 39.4985 305.145 39.6276 306.125 39.7567C300.205 39.7647 301.12 40.0389 303.093 40.3143C303.191 40.3168 303.287 40.3518 303.381 40.3555C304.91 40.5592 306.87 40.7553 306.9 40.8279C307.012 41.1052 296.969 41.2595 298.9 40.4049C299.17 40.2881 303.816 40.6687 301.516 40.0589C301.113 39.952 298.129 40.1261 297.972 40.0589C296.923 39.612 303.44 39.0184 302.643 38.3834C301.062 38.9879 299.032 38.6695 297.218 38.8256C296.392 38.8962 296.19 39.358 296.088 39.3667C294.566 39.4873 295.42 39.003 294.912 39.0151C294.64 39.0234 291.641 40.054 292.207 38.6333C282.326 39.6785 289.474 39.6774 295.536 39.5974C293.62 40.1149 289.865 39.8646 288.18 39.9847C287.576 40.0283 287.934 40.5024 286.913 40.5972C284.811 40.7922 274.775 40.2477 272.161 40.1193C273.766 39.9518 273.297 39.4354 272.058 39.4711C270.818 39.507 271.859 40.1962 271.618 40.2704C271.358 40.3471 265.544 40.0217 264.576 40.111C268.954 39.8614 267.966 39.3464 264.251 39.2925C264.788 39.1442 265.325 38.9959 265.862 38.8476C263.684 39.056 259.106 38.2705 257.847 38.5042C257.649 38.5418 258.359 38.9748 258.248 38.9959C257.144 39.1799 253.387 38.7383 253.212 38.886C253.064 39.009 254.666 39.372 254.072 39.5507C253.947 39.5884 252.402 39.0031 250.881 39.147C250.316 39.1999 250.656 39.6094 250.514 39.6331C249.329 39.8301 250.028 39.1405 247.862 39.2513C246.275 39.3333 245.093 40.0075 242.9 39.7842C250.101 40.6436 244.048 40.2846 241.036 40.545C240.554 40.5866 240.967 41.3299 238.084 40.968C244.22 39.6239 236.335 40.2575 234.722 40.2429C234.633 40.2383 234.603 39.7481 233.812 39.7402C233.745 39.7407 233.841 40.072 233.106 40.0973C226.132 40.3368 230.591 39.9626 229.266 39.6359C228.702 39.4967 225.311 39.9651 224.398 39.9765C224.188 39.9776 224.285 39.6334 223.472 39.6469C222.035 39.6716 220.747 40.038 219.798 40.0671C219.687 40.0688 219.683 39.5256 217.884 39.7018C217.378 39.751 216.81 39.9439 217.529 40.1001C219.911 40.6137 224.429 39.7248 227.121 40.2374C229.576 40.7043 221.835 40.7483 221.432 40.751C221.284 40.7527 222.796 40.483 221.26 40.4297C219.949 40.3852 217.551 41.3234 215.596 41.1191C215.447 41.1039 213.886 40.3085 213.958 40.2621C214.023 40.2282 216.422 40.0556 216.073 39.8254C216.032 39.7992 214.507 39.8045 214.308 39.6331C214.065 39.4245 213.408 37.3772 213.082 37.3259C212.247 37.1991 212.79 37.666 212.25 37.6335C211.091 37.5651 207.072 36.9596 206.941 37.6692C207.605 37.7114 208.269 37.7535 208.933 37.7956C205.239 37.8686 206.814 38.1706 206.29 38.3037C205.727 38.4477 205.885 37.824 204.64 37.7654C204.369 37.7525 199.159 37.8827 199.254 38.1444C202.135 37.7279 201.067 38.4987 201.2 38.5125C201.705 38.5627 202.349 38.1303 203.027 38.1389C207.79 38.2066 202.986 38.8891 204.111 39.0646C204.498 39.1236 205.269 38.7545 205.433 38.7734C205.967 38.8345 205.976 39.3179 206.332 39.2788C207.163 39.1881 206.193 38.5041 206.258 38.4685C207.001 38.0405 209.91 38.5731 208.099 39.3173C209.186 39.5855 209.314 38.681 210.176 39.0426C211.89 39.7586 209.322 39.5747 208.626 39.6936C206.131 40.1224 205.39 39.7753 201.858 39.8941C200.585 39.936 199.078 40.3753 198.488 40.3994C198.116 40.4146 194.606 38.886 194.502 41.2784C193.138 41.0469 190.996 39.4704 189.59 39.5425C188.328 39.6083 188.729 40.4546 188.612 40.4873C188.431 40.5388 186.905 40.4721 186.388 40.5917C185.783 40.733 186.085 41.0561 185.125 41.1877C182.737 41.5145 182.799 40.6506 182.554 40.5945C179.703 39.9455 180.951 41.1743 180.319 41.2729C179.731 41.3635 171.48 40.8905 169.743 41.2015C170.45 41.0284 171.157 40.8554 171.863 40.6824C170.598 40.1435 169.258 41.0224 169.234 40.0561C168.978 41.6162 166.367 40.5734 165.583 40.6137C165.274 40.6303 165.298 40.8961 164.911 40.9076C163.4 40.9542 159.994 40.7426 159.174 40.8774C155.63 41.4577 164.693 42.4231 165.406 42.4814C163.978 42.4642 155.898 42.8136 159.612 43.5636C160.186 43.6793 161.203 42.9812 161.526 42.9539C163.708 42.7741 161.992 43.3998 162.163 43.4593C162.454 43.5553 163.89 42.9505 164.27 43.0225C164.396 43.0456 163.582 43.6121 165.663 43.6241C164.639 44.1733 158.789 43.7258 158.021 43.8548C157.748 43.9008 159.462 45.0744 154.455 43.9344C154.513 44.0434 154.571 44.1523 154.629 44.2613C151.841 44.3062 149.053 44.351 146.265 44.3959C146.568 44.1449 148.133 43.6407 146.162 43.7477C145.027 43.8096 145.867 44.3687 145.763 44.3849C144.745 44.5388 126.716 44.3527 123.223 44.4151C122.034 44.4354 118.721 44.8847 118.469 44.893C116.958 44.938 111.61 44.6455 110.543 44.709C109.877 44.7497 110.51 45.2171 109.915 45.1952C109.361 45.1741 109.935 44.7224 109.77 44.7035C108.409 44.5398 98.0696 45.1323 95.6144 44.7063C97.115 44.8342 104.603 43.9316 104.453 43.6131C104.42 43.5694 102.6 43.2257 102.225 43.3933C101.605 43.0022 99.475 44.193 98.3168 43.9592C98.1858 43.9326 98.7016 43.2646 96.6344 43.1434C95.9222 43.102 94.0576 43.6226 92.1808 43.039C89.4639 43.3194 75.1794 42.4532 74.1993 43.1709C74.1703 43.2087 76.1818 43.4559 74.8228 43.7504C73.0161 44.1419 74.6386 42.8232 72.533 42.7094C72.2157 42.6921 66.3573 42.8256 66.1655 42.9072C64.3912 43.6473 69.5103 43.9473 69.4386 44.0333C69.2601 44.25 65.0067 44.381 64.8338 44.33C64.6693 44.2768 68.1381 43.2961 63.9697 43.668C64.4472 43.7852 64.9247 43.9024 65.4023 44.0196C63.4419 44.2478 63.255 43.5694 62.7801 43.5279C61.3037 43.3967 59.7065 44.4272 57.341 43.1544C56.7155 42.8166 57.7539 42.4415 57.6756 42.3908C56.9242 41.9361 55.9656 43.1524 54.8357 42.2452C54.7507 42.1776 57.3801 41.6341 52.7843 41.6327C53.1006 41.7197 53.4169 41.8067 53.7332 41.8936C53.0852 42.0878 48.4319 42.2032 47.8058 42.1573C45.9771 42.0232 47.5719 41.3988 45.7338 41.4734C46.9127 42.3291 41.3232 42.4407 41.6447 41.7041C40.864 42.6293 36.1157 41.9156 33.8837 41.8936C32.4753 41.8805 29.6025 42.2842 29.1551 42.237C28.6099 42.1791 28.7756 41.548 27.7913 41.4075C27.5106 41.3674 24.5804 41.8301 22.0083 41.1768C21.5098 41.0509 20.463 39.9803 21.3894 39.7128C22.9753 39.2549 25.9752 40.1174 25.937 39.4848C25.892 38.8081 21.8513 39.2106 20.7637 39.1222C15.7426 38.7138 18.642 37.9944 18.5129 37.7764C18.178 37.2472 15.4345 37.2636 15.32 37.216C14.8455 37.0047 16.7896 36.5859 16.819 36.2629C16.8544 35.8424 14.2099 35.0835 14.8111 34.9418C15.6717 34.7405 18.102 35.373 18.2561 35.3428C20.2619 34.9348 17.5126 33.9633 16.7548 33.486C16.5251 33.3392 17.4404 33.0979 17.2499 33.0548C14.3427 32.4013 16.6371 34.4202 14.7034 34.2853C12.9782 34.1651 15.1979 33.5267 15.132 33.4915C15.0468 33.4528 12.9841 33.418 12.6611 33.1921C12.502 33.079 17.8635 31.8372 17.6396 31.2805C15.9289 31.4031 14.2182 31.5258 12.5076 31.6485C12.3735 30.9225 14.834 31.4569 15.0885 31.3821C15.6008 31.2319 14.1722 30.8645 14.2335 30.635C14.2664 30.489 15.9431 29.968 14.4283 29.7533C13.9078 29.6791 12.8152 30.1881 10.9191 29.6681C17.5177 29.004 12.945 28.5959 12.7505 28.3387C12.56 28.0816 15.7102 27.4764 11.8864 27.5834C11.7206 26.1706 11.9688 27.1368 13.0554 26.8885C14.3864 26.5833 11.3101 26.118 16.1749 26.471C15.8982 25.8095 11.988 25.8563 11.781 25.8036C11.6022 25.7557 12.4714 25.4304 12.1615 25.3201C8.49581 24.042 11.0136 24.6257 9.95188 23.8095C9.85746 23.7365 6.39283 23.4339 9.03046 23.3151C13.8358 23.099 15.8442 24.0363 16.6517 22.0324C13.0973 21.1619 8.79069 22.4554 7.71021 22.4773C6.0564 22.5089 7.7696 22.1002 7.56581 21.9857C7.49503 21.9487 6.06988 21.9824 6.05074 21.95C5.03452 20.4215 12.3952 21.9246 14.7126 21.6588C14.0914 21.4299 13.4703 21.201 12.8491 20.9721C13.6918 20.963 14.5345 20.9538 15.3773 20.9447C11.3625 20.4846 15.2357 20.7705 16.2368 19.5329C16.4616 19.2548 13.824 19.7317 16.8328 18.9588C14.6136 18.7804 15.3215 18.5276 13.3121 18.8764C13.364 18.3804 17.8849 17.8208 19.6681 17.5662C13.3686 17.0088 16.961 18.8283 11.5151 17.8656C10.5052 18.4799 13.1046 18.3603 12.8926 18.4617C12.1322 18.8262 10.3494 18.2474 8.19843 19.5246C7.8482 19.7343 9.33015 20.3798 7.13719 20.3486C6.89464 20.3442 5.4973 19.7926 5.51668 19.7526C5.70192 19.3206 7.08469 19.4825 7.14177 19.3022C7.19534 19.1314 5.65265 19.2341 5.64733 19.1868C5.59992 18.6456 6.93449 18.9799 6.74066 18.8105C6.32206 18.442 0.772999 17.2773 8.01506 17.6184C1.99976 18.2303 7.24492 18.2161 9.58744 17.981C10.1848 17.9221 10.3361 17.5988 11.1873 17.4866C12.2823 17.3413 13.5638 17.4965 14.1304 17.4372C14.7397 17.3718 11.2774 16.6076 16.2849 16.8356C13.7365 16.0755 9.23489 16.8859 6.73149 16.3522C1.68079 15.2737 10.2531 15.0422 11.1461 14.9377C11.384 14.9094 10.5864 14.4728 10.7449 14.446C11.0043 14.405 15.8694 14.6068 16.3491 14.2455C16.8275 13.8845 14.5671 14.2621 14.4169 13.8857C14.315 13.6322 20.1841 13.1827 17.007 13.0095C14.8171 12.8908 10.7808 13.9094 10.1009 12.8145C13.3213 12.7238 16.5417 12.6332 19.7621 12.5426C17.9994 12.126 16.2368 11.7094 14.4742 11.2928C18.0887 11.1607 21.2135 11.631 24.6465 11.0346C16.3972 9.69974 27.325 9.96932 27.4452 9.80686C27.4854 9.7097 24.2384 8.62621 23.7159 8.42802C26.5931 8.0112 35.3359 7.80752 30.2209 6.46964C31.1493 6.77172 33.3976 6.02602 33.3679 5.96974C33.0824 5.37868 28.1788 5.76196 28.9786 5.22813C29.9054 4.60864 31.2041 5.44906 32.6299 5.38195C39.9464 5.03205 37.9391 1.9465 45.2754 2.43475C45.1294 2.32488 44.9835 2.21502 44.8376 2.10515C52.8118 2.28002 60.786 2.4549 68.7602 2.62977C71.8801 1.6875 80.1834 1.11372 84.2616 1.21797C85.0828 1.23827 89.1146 1.7328 89.4188 1.81949C89.9823 1.98565 86.8843 2.04905 88.2842 2.36059C88.5798 2.42454 95.4057 2.63232 94.9176 2.10515C94.1527 2.04403 91.7589 2.30902 91.3671 2.1848C88.6151 1.29818 109.658 2.0065 110.701 1.6492C110.235 1.47799 109.769 1.30678 109.303 1.13557C110.631 1.2198 111.959 1.30403 113.286 1.38826ZM52.2686 43.7284C51.4716 44.2574 49.4743 43.8601 48.2941 44.0086C46.6635 44.2165 43.8917 46.2534 45.0851 44.2118C47.4796 44.0507 49.8741 43.8896 52.2686 43.7284ZM87.2643 44.5167C85.6586 44.2326 86.904 43.0924 88.2201 43.5664C88.3661 43.6202 89.4367 44.8992 87.2643 44.5167ZM70.4311 43.9756C70.4987 43.9605 71.8863 43.9907 71.9347 44.0086C73.1791 44.4664 68.9957 44.3728 70.4311 43.9756ZM151.748 43.3906C149.979 43.4398 151.26 44.4764 152.36 44.0498C152.429 44.0227 151.864 43.3882 151.748 43.3906ZM150.489 43.3631C149.115 42.4349 146.348 44.3161 148.548 44.1267C148.761 44.1076 150.553 43.4083 150.489 43.3631ZM81.5409 44.0635C81.7216 43.7078 83.3779 43.8795 84.0851 43.9646C84.0659 44.2894 82.2345 44.0238 81.5409 44.0635ZM123.534 43.9646C123.605 43.685 117.848 43.7004 117.456 44.069C118.364 43.9126 123.468 44.216 123.534 43.9646ZM138.298 43.5719C138.152 43.5235 136.163 43.597 136.221 43.8438C137.192 44.1675 138.955 43.7907 138.298 43.5719ZM167.641 43.5884C167.749 43.5264 166.26 41.956 169.789 42.9896C170.307 43.1409 168.457 43.5512 168.641 43.6076C169.026 43.7175 169.331 43.7687 169.576 43.7779C167.932 43.908 166.225 43.9693 166.06 43.874C165.284 43.4241 167.593 43.6142 167.641 43.5884ZM183.046 42.4183C183.385 42.1621 185.548 42.2991 186.04 42.4045C186.124 42.4244 185.756 43.0976 186.73 43.0473C187.512 43.0057 186.344 42.3162 187.867 42.4265C189.406 42.5372 187.349 43.0287 187.484 43.0637C187.664 43.1097 190.045 42.8001 189.971 43.2011C189.916 43.4981 187.365 43.2973 186.734 43.3604C185.927 43.4415 186.906 43.9364 185.556 43.8301C184.708 43.7637 185.178 42.8935 184.999 42.8495C184.849 42.8141 181.884 43.3149 183.051 42.421C183.049 42.4201 183.048 42.4192 183.046 42.4183ZM170.02 43.7394C169.897 43.7688 169.751 43.7845 169.576 43.7779C169.725 43.7661 169.873 43.7523 170.02 43.7394ZM56.9078 43.3466C57.7424 43.615 55.265 43.9592 54.3269 43.6076C54.3106 43.324 56.7748 43.3049 56.9078 43.3466ZM171.545 43.0308C173.986 43.2488 172.19 43.5486 170.02 43.7394C170.709 43.5756 170.725 42.958 171.545 43.0308ZM102.225 43.3933C102.328 43.4582 102.393 43.5594 102.401 43.7257C102.131 43.5439 102.106 43.4462 102.225 43.3933ZM107.921 43.69C109.873 43.1836 105.906 43.204 105.931 43.5664C105.943 43.7032 107.842 43.7101 107.921 43.69ZM154.017 43.44C153.838 43.3905 156.613 41.8613 152.584 43.0088C154.735 43.189 152.466 43.3556 152.5 43.4895C152.587 43.8744 156.199 43.5044 156.999 43.6708C157.625 42.9821 154.607 43.6033 154.022 43.44C154.02 43.44 154.018 43.44 154.017 43.44ZM210.811 42.7891C210.321 43.1926 208.768 43.0628 207.721 43.039C208.21 42.6355 209.763 42.7653 210.811 42.7891ZM484.975 42.8467C477.796 43.2198 476.866 41.5765 483.435 42.226C483.563 42.2396 485.411 42.6802 484.975 42.8467ZM423.363 42.421C422.687 41.7048 424.926 41.5896 426.396 41.8854C426.729 41.9519 427.959 42.6774 426.554 42.8193C426.599 41.9511 424.426 41.6195 423.363 42.421ZM172.924 42.5721C173.636 42.0944 175.824 42.4344 176.977 42.5062C176.273 42.8994 173.944 42.7216 172.924 42.5721ZM461.385 41.9898C460.628 41.9355 460.117 42.5587 460.248 42.6105C460.833 42.8483 462.247 42.3445 461.385 41.9898ZM165.86 42.4979C165.76 42.2125 168.659 41.9377 168.861 42.6435C168.241 42.5924 165.932 42.677 165.86 42.4979ZM208.835 42.5748C208.385 42.4297 210.715 42.1699 211.42 42.3139C211.364 42.6177 209.13 42.6692 208.835 42.5748ZM449.202 42.2013C448.525 42.1471 446.832 42.1306 446.644 42.3826C446.411 42.6974 448.894 42.5901 449.202 42.2013ZM575.281 41.6574C575.367 41.7706 572.745 42.5862 571.579 42.3798C569.366 41.9849 575.189 41.5775 575.281 41.6574ZM468.547 41.6684C470.684 42.2611 468.312 41.6871 468.405 42.3111C469.843 42.3336 473.42 42.3644 470.961 41.7508C470.482 41.6321 469.218 41.7088 468.547 41.6684ZM466.576 41.4597C466.347 41.6618 464.807 42.2991 466.138 42.2535C466.754 42.2314 467.746 41.5233 466.576 41.4597ZM559.037 41.9348C557.122 41.3824 565.902 41.6788 566.154 41.7755C566.288 41.8266 566.375 41.8748 566.425 41.9156C566.747 41.7405 568.405 41.709 568.597 42.1518C568.1 42.1153 566.743 42.1542 566.585 42.1051C566.517 42.0842 566.466 42.0646 566.431 42.0447C565.846 42.4292 559.404 42.0396 559.037 41.9348ZM544.489 41.3663C546.681 40.5513 547.069 41.9369 546.88 41.9815C544.494 42.5487 546.05 41.5268 545.977 41.4789C545.81 41.3993 544.115 41.8734 544.496 41.3663C544.494 41.3663 544.491 41.3663 544.489 41.3663ZM556.055 41.7069C556.145 41.6888 557.985 41.7317 558.061 41.7536C559.569 42.2193 554.362 42.1 556.055 41.7069ZM194.658 41.4487C195.975 41.5864 194.683 42.0962 193.808 41.9129C193.736 41.8948 193.496 41.327 194.658 41.4487ZM465.524 41.597C465.219 41.5007 457.406 41.1374 457.875 41.9074C458.539 41.8165 467.419 42.2128 465.524 41.597ZM407.138 41.4102C408.515 41.4162 407.013 42.1424 406.278 41.8717C406.006 41.7711 406.79 41.4092 407.138 41.4102ZM161.952 41.8387C160.522 42.2377 160.818 40.8993 162.058 41.358C162.106 41.376 162.008 41.8231 161.952 41.8387ZM418.144 41.8277C413.393 42.2678 414.518 39.9656 420.695 40.7428C420.502 40.8453 420.309 40.9479 420.116 41.0504C427.245 41.3958 420.603 41.2127 418.857 41.3416C418.194 41.3906 418.75 41.7748 418.149 41.8305C418.147 41.8296 418.146 41.8286 418.144 41.8277ZM399.892 41.3663C395.317 39.7322 404.052 40.7963 406.558 40.5835C404.129 41.2582 400.966 41.1561 405.267 41.847C398.979 41.9805 401.597 41.3297 401.346 41.2756C401.048 41.215 400.087 41.4364 399.892 41.3663ZM411.963 41.3553C412.227 41.3076 414.22 41.6403 414.938 41.586C413.934 42.1442 410.206 41.6795 411.963 41.3553ZM529.238 41.7453C529.403 41.308 529.812 40.9858 531.385 41.1493C530.899 41.3691 529.895 41.5581 529.238 41.7453ZM50.7558 41.4267C49.6726 41.3953 47.5158 41.2305 48.1772 41.6904C48.2495 41.7296 50.7525 41.6848 50.7558 41.4267ZM442.832 41.2427C442.602 41.1889 436.644 41.1528 438.702 41.6355C439.323 41.781 444.743 41.7192 442.832 41.2427ZM473.684 41.2976C473.185 41.293 471.16 41.3754 471.117 41.4789C470.98 41.8365 473.466 41.6399 473.684 41.2976ZM45.2914 40.979C45.1488 40.9336 41.8403 41.014 42.204 41.2262C42.8943 41.6275 45.7804 41.1353 45.2914 40.979ZM199.451 40.4242C199.727 40.408 200.093 40.8831 200.189 40.8884C200.414 40.8951 205.477 40.7124 203.542 41.3223C203.22 41.4246 195.936 41.1903 194.988 41.1301C194.622 40.4779 197.733 41.0983 198.491 41.0312C198.624 41.0184 198.709 40.4728 199.449 40.4269C199.449 40.426 199.45 40.4251 199.451 40.4242ZM537.432 41.2839C537.655 40.8692 543.607 40.5947 543.538 41.0971C541.503 41.1594 539.467 41.2216 537.432 41.2839ZM534.409 41.2152C533.139 40.9219 536.113 40.8249 536.989 40.9543C536.999 41.2332 534.594 41.2581 534.409 41.2152ZM462.396 39.7485C461.797 39.8499 463.637 40.4549 463.225 40.5725C462.962 40.6457 461.625 40.419 461.199 40.6082C461.078 40.6683 462.441 41.237 462.836 41.2125C463.396 41.1797 462.852 40.7321 463.464 40.7291C465.493 40.7194 467.292 41.0386 469.194 41.0312C469.366 41.0296 468.034 40.7136 469.499 40.7181C469.725 40.7181 471.086 41.1889 472.838 41.1191C476.709 39.6612 479.551 41.0927 484.464 40.567C484.278 40.4297 480.605 40.0615 480.388 40.0479C476.282 39.8081 468.926 39.7818 464.626 39.7787C463.522 39.7774 464.058 40.086 463.583 40.0973C463.207 40.1057 463.654 39.5343 462.396 39.7485ZM51.3311 41.1108C50.8148 40.5402 49.0038 40.9014 47.8471 40.8719C48.2543 41.3866 50.2008 40.9844 51.3311 41.1108ZM507.687 40.773C507.107 40.795 505.31 40.6231 505.161 40.795C504.97 41.0193 507.565 41.1609 507.687 40.773ZM227.997 40.5862C228.053 40.5707 229.448 40.6012 229.5 40.6192C230.747 41.0772 226.563 40.9833 227.997 40.5862ZM261.363 40.6961C262.42 40.6256 263.487 40.4473 263.843 40.9103C263.169 40.8394 261.239 41.0186 261.363 40.6961ZM307.395 40.6824C307.176 40.076 310.36 40.4687 310.961 40.5231C310.739 40.7925 307.555 41.1193 307.395 40.6824ZM529.008 39.8419C530.955 39.8777 530.544 38.9593 531.78 39.3749C531.981 39.4452 532.633 41.3578 530.494 40.6412C530.109 40.5123 531.615 40.0578 529.008 39.8419ZM421.702 40.762C422.197 40.3609 423.744 40.4799 424.789 40.5121C424.555 40.8101 422.445 40.7334 421.702 40.762ZM39.3159 40.5203C38.4031 39.954 34.1855 40.3741 35.2291 40.7483C35.3775 40.7971 38.7243 40.4989 39.3159 40.5203ZM177.873 40.7428C179.608 40.2968 176.014 40.1587 174.88 40.5945C175.393 40.5659 177.756 40.7721 177.873 40.7428ZM296.338 40.3528C296.421 40.3345 298.261 40.3775 298.343 40.3994C299.851 40.8651 294.645 40.7459 296.338 40.3528ZM250.39 39.96C251.053 39.593 255.412 39.8891 256.389 40.2566C255.449 40.7932 249.568 40.4183 250.39 39.96ZM521 40.1028C522.388 40.0838 523.706 40.1968 524.981 40.3555C524.713 40.6645 521.147 40.3336 521 40.1028ZM303.093 40.3143C303.191 40.3168 303.287 40.3518 303.381 40.3555C303.283 40.3424 303.187 40.3274 303.093 40.3143ZM489.921 39.8858C488.758 39.7638 488.999 40.3299 489.071 40.3473C489.946 40.5306 491.239 40.0236 489.921 39.8858ZM50.0017 40.2704C49.5983 39.7595 47.6412 40.1557 46.5154 40.0341C46.842 40.4376 49.0948 40.324 50.0017 40.2704ZM394.992 40.3198C393.53 39.7658 399.478 39.1223 400.731 39.4793C400.824 39.8216 395.206 40.3956 394.992 40.3198ZM172.484 39.9765C172.368 39.5761 169.87 40.0592 170.401 40.2484C170.737 40.3687 172.554 40.2252 172.484 39.9765ZM403.722 39.7128C404.281 39.5906 405.584 39.9857 405.125 40.2264C404.536 40.535 403.578 39.7478 403.722 39.7128ZM453.862 39.3914C453.618 39.3302 450.332 39.7412 451.689 40.1495C452.631 40.4333 452.781 39.8546 453.002 39.8529C453.25 39.8547 458.525 40.5629 453.862 39.3914ZM361.679 39.971C362.918 39.817 364.417 39.9957 365.715 39.9847C365.186 40.2323 362.206 40.2998 361.679 39.971ZM182.116 39.8693C181.815 39.7074 173.612 39.6099 178.272 40.1083C178.544 40.1365 183.03 40.3597 182.116 39.8693ZM529.008 39.8419C528.763 39.8373 528.48 39.8182 528.151 39.7787C528.477 39.7943 528.761 39.8214 529.008 39.8419ZM506.903 39.7814C507.351 39.49 505.094 39.4121 504.428 39.5672C504.223 39.9233 506.842 39.8222 506.903 39.7814ZM365.813 39.5782C366.561 39.4114 367.918 39.5894 368.844 39.57C368.687 39.8409 366.137 39.8534 365.813 39.5782ZM313.313 39.2733C314.798 39.4343 316.624 39.3603 316.653 39.0289C316.683 39.0807 316.755 39.1356 316.875 39.1909C316.996 39.2456 318.586 39.0915 319.277 39.2046C323.414 39.8766 303.302 39.5993 314.959 38.6635C314.41 38.8668 313.862 39.0701 313.313 39.2733ZM244.493 39.1799C243.65 38.7765 241.29 39.282 241.903 39.4409C242.329 39.5497 245.336 39.5861 244.493 39.1799ZM276.917 38.941C276.665 38.869 274.361 39.1515 274.302 39.3639C275.626 39.5878 278.064 39.2754 276.917 38.941ZM238.015 38.7075C237.487 38.6466 236.812 39.2971 236.874 39.3255C237.411 39.563 238.904 39.0697 238.015 38.7075ZM524.977 38.0895C524.19 37.9032 521.681 38.374 521.135 38.8036C521.033 38.7206 520.759 38.6122 520.257 38.4823C520.259 38.4823 520.26 38.4823 520.262 38.4823C519.584 38.3087 499.31 38.1192 512.909 38.9465C513.334 38.973 512.753 38.5874 514.486 38.6553C514.6 38.6603 514.657 38.9751 515.011 38.9904C515.824 39.0237 520.159 39.2218 521.03 38.9684C521.037 39.0268 521.093 39.0823 521.213 39.1332C522.281 39.5873 525.587 38.2331 524.977 38.0895ZM281.485 38.8833C281.021 38.7666 279.553 38.8774 279.401 39.1552C280.129 39.2914 282.561 39.1554 281.485 38.8833ZM181.861 38.7295C180.917 38.501 178.522 38.9281 179.246 39.1552C179.69 39.2949 182.951 38.9918 181.861 38.7295ZM266.783 39.0316C272.201 39.36 268.076 39.0051 268.906 38.5976C268.198 38.7423 267.491 38.8869 266.783 39.0316ZM550.048 39.1415C549.184 39.0477 550.199 38.2438 551.15 38.68C551.448 38.8186 550.531 39.1924 550.048 39.1415ZM589.052 38.8915C588.315 38.1787 591.916 38.5975 590.512 39.0865C590.447 39.103 589.105 38.9186 589.052 38.8915ZM561.797 38.6004C561.211 39.0857 560.829 39.1433 559.177 39.0234C561.622 38.8866 559.354 38.4574 561.797 38.6004ZM316.637 38.9767C316.646 38.9963 316.654 39.0108 316.653 39.0289C316.642 39.011 316.637 38.9941 316.637 38.9767ZM232.922 38.8338C232.244 38.4227 230.344 38.4529 230.91 38.8668C230.965 38.9051 232.644 39.1376 232.922 38.8338ZM521.135 38.8036C521.225 38.8773 521.179 38.9249 521.03 38.9684C521.023 38.9135 521.061 38.8616 521.135 38.8036ZM243.127 38.4987C243.059 38.8055 245.951 38.9248 246.068 38.8888C247.728 38.3568 244.321 38.4803 243.127 38.4987ZM162.736 38.2982C162.587 38.3302 163.549 39.1221 164.139 38.8119C164.596 38.5711 163.295 38.1764 162.736 38.2982ZM567.406 38.4026C568.321 38.4031 569.611 38.4028 569.849 38.7789C569.235 38.7212 567.387 38.6786 567.406 38.4026ZM587.642 38.3751C586.56 38.8173 584.087 38.8161 582.508 38.7432C582.479 38.1612 586.626 38.512 587.642 38.3751ZM527.461 38.3065C527.386 38.2828 525.089 38.1091 525.403 38.4987C525.861 39.0701 528.109 38.5184 527.461 38.3065ZM167.197 38.7185C168.224 38.4502 165.86 37.6256 164.776 38.2625C164.22 38.5887 167.023 38.7634 167.197 38.7185ZM226.988 38.2955C225.633 38.521 228.992 38.9226 229.461 38.5152C228.837 38.4825 227.47 38.2157 226.988 38.2955ZM273.107 37.8835C268.836 36.7085 271.162 38.852 271.92 38.6635C272.027 38.6366 273.212 37.9111 273.107 37.8835ZM28.7173 38.1719C28.1126 38.3351 30.3669 38.9265 30.6587 38.5372C30.8389 38.2935 29.104 38.0678 28.7173 38.1719ZM337.426 38.6471C337.246 38.6508 337.067 38.6547 336.889 38.658C337.022 38.6389 337.197 38.6326 337.426 38.6471ZM214.684 36.7216C217.691 38.3806 217.375 37.102 217.636 37.1089C218.201 37.1268 219.513 37.5753 220.577 37.5017C219.359 37.6885 218.14 37.8752 216.921 38.062C217.884 38.1818 226.247 38.7925 226.422 38.5235C226.673 38.1404 224.042 38.2606 223.965 38.2268C223.854 38.1787 223.443 37.1137 223.199 37.0732C222.798 37.0085 215.805 36.9864 214.684 36.7216ZM264.175 38.0675C264.862 38.1941 265.057 38.6161 265.376 38.5152C265.485 38.4807 265.502 38.0782 265.874 37.9741C265.307 38.0053 264.741 38.0364 264.175 38.0675ZM209.3 38.2131C208.449 37.7213 212.265 37.908 212.387 37.9631C213.04 38.2965 209.996 38.6148 209.3 38.2131ZM241.683 38.1417C241.543 38.113 238.613 37.9594 238.637 38.2323C239.412 38.4404 243.33 38.501 241.683 38.1417ZM266.332 37.9467C267.362 37.9936 269.308 38.3989 269.085 37.7928C269.083 37.7928 269.082 37.7928 269.08 37.7928C268.164 37.8441 267.248 37.8954 266.332 37.9467ZM170.713 37.4385C168.805 36.4733 169.708 37.6929 171.398 38.0043C171.91 37.571 171.025 37.5956 170.713 37.4385ZM164.606 36.7189C164.076 36.5452 158.605 36.7355 159.44 37.2463C159.737 37.4283 162.882 36.9692 163.027 37.0045C163.247 37.0569 162.243 37.6219 163.921 37.5099C163.823 37.3185 164.788 36.7769 164.606 36.7189ZM169.133 36.8205C167.237 36.0865 166.811 37.4403 168.237 37.444C168.794 37.4464 169.404 36.9264 169.133 36.8205ZM176.878 36.9359C176.196 36.8075 174.379 36.6202 173.126 37.0705C174.803 37.1089 176.479 37.1474 178.155 37.1858C178.348 36.9307 177.475 37.0487 176.874 36.9359C176.875 36.9359 176.877 36.9359 176.878 36.9359ZM599.036 34.9061C597.53 34.5221 601.001 34.375 601.148 34.4694C601.583 34.7825 599.71 35.0776 599.036 34.9061ZM16.9496 25.8722C16.531 25.7192 16.2574 25.2156 15.336 25.4794C16.2628 25.8512 17.1896 26.2229 18.1163 26.5946C18.8365 25.7429 17.4072 26.041 16.9496 25.8722ZM13.4107 22.7602C13.5416 22.7396 12.8264 21.4299 14.5177 22.3043C15.6605 22.8947 9.44623 23.47 8.32449 22.8893C9.56395 22.6195 12.2837 22.9284 13.4107 22.7602ZM2.52549 17.0911C2.45384 16.9866 4.81478 16.8334 5.08806 16.907C6.52297 17.2952 2.91315 17.6506 2.52549 17.0911ZM10.0573 17.341C8.95009 17.0867 11.403 16.9227 12.134 17.0691C12.2049 17.3129 10.2284 17.3781 10.0573 17.341ZM583.78 15.9375C582.582 15.0473 581.51 16.9635 583.354 16.5774C583.442 16.5593 583.831 15.9811 583.78 15.9375ZM4.83363 15.7699C5.94087 16.0243 3.488 16.1882 2.75699 16.0418C2.68901 15.7983 4.66504 15.7327 4.83363 15.7699ZM582.937 13.817C581.346 13.1765 581.906 15.3262 582.105 15.4128C582.924 15.755 585.732 14.9112 586.306 14.7015C582.103 15.0241 583.686 14.1189 582.937 13.817ZM575.598 15.108C574.121 15.3373 577.894 15.7759 578.614 15.1766C577.88 15.2053 576.017 15.0417 575.598 15.108ZM566.638 14.4185C565.844 14.3416 563.483 14.1572 563.087 14.4955C563.954 14.4342 566.303 14.7666 566.638 14.4185ZM564.841 13.405C563.6 12.9454 563.302 14.2845 564.733 13.8857C564.789 13.8702 564.886 13.4306 564.841 13.405ZM557.866 12.9216C557.052 12.3891 556.123 13.6859 557.442 13.7209C557.834 13.7289 557.952 12.9827 557.866 12.9216ZM580.945 11.5043C579.779 11.2756 578.278 12.2044 580.766 12.3063C579.892 12.4483 579.018 12.5902 578.144 12.7321C581.404 13.2526 581.164 11.9647 582.1 12.0179C583.408 12.0936 583.305 13.1564 583.042 13.4902C584.115 12.839 588.67 12.8286 591.303 12.7046C588.989 12.4313 585.234 11.9576 582.951 11.7845C582.299 11.7344 581.666 12.0258 581.11 11.9932C580.219 11.9394 581.01 11.5197 580.95 11.5043C580.948 11.5043 580.946 11.5043 580.945 11.5043ZM548.697 12.9024C546.305 12.2991 547.818 13.6016 549.17 13.3693C549.227 13.3514 548.757 12.9171 548.697 12.9024ZM1.66137 11.8119C4.85759 12.3564 2.53433 13.0779 9.2207 11.9822C6.4116 12.7579 9.06535 12.5401 8.51703 12.8529C8.07716 13.1005 6.42897 12.8955 7.38703 13.394C6.12774 12.8514 0.660505 13.0015 0.416765 12.9134C0.419057 12.9134 0.421349 12.9134 0.423641 12.9134C0.277249 12.8612 0.641467 11.6388 1.66137 11.8119ZM566.626 11.0127C565.828 9.43229 565.515 11.9407 563.947 10.6309C561.858 12.5329 569.716 10.6311 570.667 12.2377C562.134 12.051 576.305 13.8295 570.349 11.4247C575.256 12.2975 571.957 11.1268 572.714 10.8204C573.524 10.494 576.3 10.8487 576.159 10.2601C576.157 10.2601 576.156 10.2601 576.154 10.2601C574.457 10.3013 572.759 10.3425 571.061 10.3837C572.723 11.6535 569.254 11.2727 568.077 10.2381C567.594 10.4963 567.11 10.7545 566.626 11.0127ZM576.235 12.2047C576.067 12.1756 572.375 12.3536 572.613 12.6085C573.106 12.771 578.347 12.5761 576.235 12.2047ZM592.486 11.9273C591.16 11.9242 589.11 11.6765 588.387 12.1553C589.713 12.1585 591.764 12.4064 592.486 11.9273ZM524.216 11.8367C522.526 12.2296 527.729 12.346 526.223 11.8806C526.149 11.8587 524.299 11.8183 524.216 11.8367ZM562.782 11.2516C561.064 10.7686 561.876 12.3059 563.149 11.9053C563.223 11.8817 562.862 11.2736 562.782 11.2516ZM4.25144 11.6252C4.36638 11.2485 9.00379 11.5131 9.82582 11.5098C9.35877 11.8599 4.11959 12.0569 4.25144 11.6252ZM594.819 10.5182C592.181 9.16394 588.601 10.7282 588.209 10.694C587.818 10.6592 588.431 10.0672 588.342 10.0513C588.139 10.0181 583.981 10.0678 583.78 10.109C583.636 10.1411 584.388 10.9731 583.53 11.2351C585.204 10.7624 592.804 11.0582 593.198 10.966C593.504 10.8923 591.201 10.0187 594.814 10.5182C594.816 10.5182 594.817 10.5182 594.819 10.5182ZM587.228 10.5128C588.266 10.8615 585.354 10.9051 584.649 10.7764C583.083 10.4885 587.094 10.4714 587.228 10.5128ZM580.223 10.1914C579.89 10.1132 576.889 10.0421 576.634 10.4304C578.054 10.934 580.978 10.3736 580.223 10.1914ZM546.823 10.2436C546.043 10.2933 543.899 9.99498 543.776 10.3342C544.557 10.2847 546.7 10.5828 546.823 10.2436ZM20.0738 8.66424C18.7787 8.38037 21.7793 8.26441 22.6547 8.40055C22.7022 8.62685 20.184 8.68862 20.0738 8.66424ZM562.491 8.00778C562.03 7.90462 552.613 8.16204 551.292 8.3209C552.584 8.57745 561.917 8.59718 562.34 8.47197C562.464 8.43448 562.55 8.02401 562.491 8.00778ZM582.857 7.85122C583.72 7.35165 584.283 7.95081 584.392 7.95834C585.46 8.03478 587.674 7.92215 587.189 8.4033C585.304 8.20917 581.138 8.84329 582.857 7.85122ZM546.153 7.98306C542.956 8.16845 549.097 8.69477 548.292 8.17258C548.24 8.14101 546.484 7.96359 546.153 7.98306ZM563.543 7.8622C564.249 7.45853 573.668 7.80667 575.18 7.80727C573.826 8.55182 572.734 7.98629 570.915 8.02426C570.424 8.03538 570.555 8.34513 570.502 8.34562C569.652 8.35997 570.288 8.00222 569.764 7.99679C569.433 7.99434 562.551 8.43096 563.543 7.8622ZM583.349 7.50514C583.876 7.21876 589.757 7.09668 589.994 7.17279C591.764 7.73881 583.806 7.60483 583.349 7.50514ZM562.679 7.20025C563.692 6.33493 568.37 6.91444 565.168 7.34583C564.863 7.38507 563.568 7.00997 562.679 7.20025ZM546.495 7.15905C546.337 7.1336 543.004 6.96064 542.944 7.23596C543.426 7.34295 548.285 7.43894 546.495 7.15905ZM548.223 6.22793C548.143 6.23453 548.924 6.7648 547.361 6.69761C547.231 6.69129 546.988 6.09467 545.023 6.31307C544.625 6.35805 544.007 6.75273 544.051 6.77726C546.097 7.71355 552.259 5.92032 548.223 6.22793ZM583.457 7.02172C583.14 6.76989 583.905 6.02245 584.594 6.40097C584.889 6.56441 584.338 7.01298 583.457 7.02172ZM535.924 6.91735C537.861 6.46404 531.778 6.37834 531.468 6.49435C531.663 6.77672 535.73 6.96162 535.924 6.91735ZM23.1062 5.16496C23.1047 5.16496 23.1032 5.16496 23.1016 5.16496C24.7318 5.26767 23.7221 5.64477 23.7984 5.65661C27.2708 6.2105 26.3498 5.35639 26.8928 5.2556C28.0571 5.0376 27.8695 6.07626 29.8335 5.64563C26.587 6.28155 29.5421 6.01497 29.6341 6.38449C29.9979 7.89246 25.3117 5.67838 23.693 5.99446C23.4675 6.03823 25.1327 6.5195 24.5548 6.65641C22.6761 7.10004 16.8509 4.77217 23.1062 5.16496ZM585.126 6.33505C585.882 5.8921 591.618 6.32172 590.097 6.68662C589.853 6.74513 584.014 6.98067 585.126 6.33505ZM317.157 5.68134C318.536 5.29801 315.34 4.84738 314.748 5.14573C314.454 5.29437 316.551 5.84957 317.157 5.68134ZM294.754 4.04156C293.116 4.11938 291.389 5.71791 293.427 5.46984C293.643 5.44273 294.942 4.2633 294.754 4.04156ZM402.327 4.86282C400.616 4.29156 400.718 5.35297 401.974 5.338C402.417 5.33288 402.38 4.8809 402.327 4.86282ZM337.038 5.00016C336.867 4.96311 334.89 5.03088 334.962 5.27483C335.693 5.42119 338.146 5.25449 337.038 5.00016ZM402.87 4.71176C401.855 4.90305 403.601 5.67075 404.841 4.9205C404.211 4.98204 402.974 4.69221 402.87 4.71176ZM559.145 4.85458C558.296 5.29042 555.893 5.15873 554.513 5.23363C554.364 4.66897 558.159 4.95695 559.145 4.85458ZM301.708 4.68429C300.157 5.08225 303.48 5.40807 303.175 4.88205C303.133 4.85347 301.769 4.66732 301.708 4.68429ZM457.516 4.65407C456.388 4.9909 459.968 5.44387 458.983 4.85184C458.934 4.8277 457.577 4.63534 457.516 4.65407ZM473.145 4.84909C472.29 4.73547 468.643 4.77043 470.063 5.09904C470.283 5.14953 473.081 5.1576 473.145 4.84909ZM26.989 4.84909C26.5282 4.26905 29.2031 4.40712 29.586 4.5085C29.7364 4.55066 27.5901 5.60376 26.989 4.84909ZM391.217 4.77218C390.332 4.84475 388.036 4.70684 387.632 5.01114C388.715 4.94815 391.508 5.37835 391.217 4.77218ZM308.779 4.68154C307.429 4.05124 305.121 4.11345 305.692 4.93698C308.241 4.8818 305.377 4.19677 308.779 4.68154ZM408.57 4.03332C407.86 3.98524 407.317 4.77612 407.397 4.81338C408.166 5.16788 409.276 4.34103 408.57 4.03332ZM355.309 4.68429C355.268 4.34631 352.993 4.49971 353.296 4.71725C353.396 4.79028 355.342 4.95781 355.309 4.68429ZM529.348 4.66232C528.305 4.35382 531.489 4.05222 532.43 4.41237C532.888 4.93131 529.479 4.69775 529.348 4.66232ZM428.252 4.23108C428.358 3.72951 424.802 4.01309 426.203 4.42885C426.554 4.53288 428.215 4.3988 428.252 4.23108ZM462.297 3.62956C459.911 4.2277 469.928 4.65234 467.296 3.90698C467.108 3.85387 462.505 3.57905 462.297 3.62956ZM478.656 4.00311C478.244 3.9372 478.449 2.25176 480.152 2.90169C480.376 2.98598 479.33 3.43152 479.513 3.53343C479.62 3.5915 483.324 3.82821 483.494 3.78887C483.678 3.74419 483.462 3.20399 483.648 3.1434C483.858 3.07568 486.137 3.55021 487.331 3.5554C489.581 3.5643 489.824 3.11467 490.008 3.11318C490.546 3.1102 491.449 3.42945 492.539 3.42905C498.031 3.42546 506.43 3.04434 510.784 3.99762C506.909 3.61481 503.218 4.02096 499.362 4.14594C500.492 3.20741 493.691 4.86908 497.669 3.78612C495.837 4.02103 480.004 4.20889 478.66 4.00311C478.659 4.00311 478.657 4.00311 478.656 4.00311ZM288.288 3.56913C289.294 2.99367 284.13 3.12311 283.692 3.78887C284.374 3.88126 288.163 3.63436 288.288 3.56913ZM312.112 2.16558C312.591 2.06624 313.047 0.941395 315.562 1.51187C315.564 1.51187 315.566 1.51187 315.568 1.51187C316.304 1.67846 315.466 1.95255 315.601 2.05022C315.65 2.0901 317.943 2.64965 316.038 2.73963C313.134 2.87769 315.765 1.90282 314.216 1.89091C314.027 1.88999 311.096 2.49886 311.266 2.63251C311.284 2.64808 312.166 2.51928 312.311 2.57483C312.861 2.78366 312.594 3.13492 312.671 3.15164C312.925 3.19447 317.56 2.59605 318.234 3.11868C318.453 3.28721 310.845 3.67598 310.549 3.58836C310.361 3.53315 310.44 2.55811 310.246 2.46222C310.146 2.41445 307.086 2.77983 306.689 2.69019C306.574 2.66427 306.485 2.63632 306.421 2.61329C306.884 2.91495 304.112 2.89323 304.197 2.55286C304.245 2.41908 306.153 2.49652 306.221 2.5199C306.251 2.5298 306.277 2.54345 306.301 2.55286C305.907 2.18523 312.365 2.20181 310.97 1.65469C312.843 1.35497 310.705 2.4573 312.112 2.16558ZM321.111 1.56405C320.917 1.6666 320.724 1.76914 320.531 1.87168C323.808 1.6207 327.59 2.11432 331.366 2.11064C332.324 2.11046 331.221 1.48332 332.477 1.65469C333.483 1.79203 334.597 2.37372 334.05 2.50342C333.916 2.53578 331.868 2.15691 330.843 2.19579C327.817 2.3109 328.581 2.84871 328.404 2.86324C328.209 2.87852 326.304 2.50031 325.264 2.51715C322.649 2.56068 321.454 2.89087 317.881 2.45947C319.943 2.10502 318.814 1.33502 321.111 1.56405ZM443.273 2.70942C443.397 2.37091 445.542 2.67124 446.321 2.62153C446.198 2.96087 444.052 2.65968 443.273 2.70942ZM123.672 2.26995C123.013 2.82544 127.951 2.96299 126.649 2.50067C126.361 2.39807 124.292 2.2739 123.672 2.26995ZM145.853 2.60779C146.513 2.45421 143.853 2.05427 143.858 2.48419C143.862 2.62206 145.767 2.62777 145.853 2.60779ZM363.476 2.11064C363.6 2.09325 365.417 2.21697 365.474 2.24523C366.678 2.83505 360.698 2.49415 363.476 2.11064ZM172.817 1.92387C170.515 2.28797 177.444 2.44578 175.327 1.98155C175.221 1.95894 172.927 1.90617 172.817 1.92387ZM182.448 1.82224C181.896 1.84175 179.446 1.66097 179.413 1.83048C179.365 2.10395 182.17 2.2908 182.448 1.82224ZM409.049 1.93485C408.783 1.30896 412.015 1.78295 413.138 1.70413C413.405 2.33046 410.172 1.85581 409.049 1.93485ZM388.652 1.47341C402.275 0.980015 399.272 2.31727 387.841 1.77829C387.824 1.37676 387.792 1.50449 388.652 1.47341ZM406.097 1.54757C405.602 1.94854 404.055 1.82964 403.01 1.79752C403.198 1.51875 405.343 1.61964 406.097 1.54757ZM117.793 1.41024C118.647 0.903721 122.431 1.52817 121.758 1.73709C121.601 1.78221 117.479 1.68879 117.793 1.41024ZM364.617 1.57504C364.3 0.966337 368.391 1.21463 368.704 1.34981C369.966 1.89355 364.948 1.44069 364.617 1.57504ZM428.385 1.39925C429.108 0.922464 431.159 1.16769 432.479 1.17402C431.878 1.58171 429.505 1.40783 428.385 1.39925ZM418.859 1.0257C418.942 1.0074 420.783 1.05045 420.865 1.0724C422.373 1.53808 417.167 1.41882 418.859 1.0257ZM20.8462 0.586231C20.9075 0.570868 22.3013 0.601269 22.3498 0.619192C23.5938 1.07695 19.4108 0.983416 20.8462 0.586231Z" fill="#8ED680"/>
</svg>
