<svg width="307" height="46" viewBox="0 0 307 46" fill="none" xmlns="http://www.w3.org/2000/svg">
<path d="M24.4439 44.7343C24.6331 44.6773 25.3938 44.8161 25.7231 44.792C25.3498 45.3957 23.7618 44.9416 24.4439 44.7343ZM58.2234 0.899982C57.9502 1.04922 57.677 1.19846 57.4037 1.34769C58.1802 1.44466 59.2239 1.33513 59.9445 1.47679C60.0623 1.50058 59.7566 1.93267 60.0354 1.95196C60.3144 1.97114 60.2606 1.38064 60.6663 1.31748C61.1213 1.24843 63.2049 1.65981 63.9264 1.64983C66.6252 1.60997 69.3471 1.27274 72.0512 1.51799C69.2595 1.95485 72.0727 2.39948 72.8546 2.21015C73.0279 2.16632 73.0002 1.06854 75.8012 1.34495C77.5812 1.52036 75.9371 3.08978 78.9074 2.30354C76.6233 1.20561 78.8695 1.28256 80.66 1.24607C80.9686 1.2396 83.4614 1.40456 84.5626 1.35593C84.9394 1.33902 85.5134 0.764004 86.0131 0.748915C86.3571 0.73896 86.6172 1.05333 87.1278 1.03732C89.5086 0.966459 91.8498 0.942017 94.2347 1.0483C92.841 2.52596 95.3287 1.67806 95.4404 1.74871C96.0086 2.14991 93.4388 2.26411 94.4551 2.51504C95.8753 2.46926 97.2955 2.42348 98.7157 2.3777C97.5501 2.19627 100.259 1.13337 100.757 1.61687C100.538 0.311153 107.23 2.75331 108.249 2.31727C108.461 2.22517 107.072 1.57984 110.294 1.87506C110.643 1.90786 110.511 2.30181 110.694 2.26509C110.804 2.243 111.467 0.990885 112.174 1.68279C112.432 1.93532 110.781 2.75769 114.407 2.42714C112.963 1.15273 119.435 1.73697 120.625 2.05634C120.387 1.88513 120.149 1.71392 119.912 1.54271C121.089 2.00457 121.301 1.57128 121.566 1.59489C122.635 1.68974 124.104 2.1264 125.099 2.08655C126.264 2.0407 126.268 1.24814 127.626 1.55644C127.304 1.38157 126.982 1.2067 126.659 1.03182C127.597 1.07394 128.535 1.11606 129.473 1.15817C127.301 2.2073 129.941 1.20823 130.115 1.18564C130.393 1.14746 129.994 1.57697 130.458 1.52348C130.506 1.51468 130.437 1.11021 131.152 1.06479C132.646 0.971254 132.41 1.47979 133.037 1.47404C133.095 1.47142 132.894 1.10704 133.977 1.02084C137.421 0.746414 133.96 1.30007 133.828 1.35044C133.654 1.41687 134.835 2.93962 131.91 2.39967C132.892 2.57157 132.991 3.24541 133.102 3.26213C133.2 3.27588 134.901 3.18097 134.995 3.15776C135.832 2.92894 135.096 2.46846 135.259 2.38594C135.392 2.31942 137.442 2.91951 137.923 1.53447C138.904 2.81201 137.359 2.69496 135.713 2.89133C135.473 3.15349 137.28 3.40841 137.375 3.40771C139.705 3.40538 138.415 2.35452 138.925 1.68279C139.192 1.33132 140.142 2.04825 139.265 1.10598C141.38 1.00652 140.098 1.55254 140.234 1.63335C140.44 1.75207 141.18 1.48201 141.273 1.51799C141.409 1.57124 140.936 1.89748 141.472 2.01239C141.562 2.0291 142.425 1.4677 141.311 1.19937C142.8 1.27918 142.677 0.800478 143.182 1.76519C144.207 -0.059927 143.926 2.844 144.329 2.94626C145.402 3.21583 145.091 1.78288 145.148 1.713C145.538 1.26521 148.509 1.75746 149.245 1.55095C148.955 2.58305 146.89 1.56222 146.428 1.76244C144.889 2.42859 148.598 2.27845 147.48 3.57526C147.948 3.2191 148.417 2.86295 148.886 2.50679C149.745 3.34059 148.526 3.70416 150.839 3.39947C151.217 2.67979 149.204 3.51314 149.608 2.94626C149.846 2.61357 151.187 2.54211 151.213 2.36671C151.24 2.15558 150.028 2.4058 150.219 2.08106C150.636 1.38026 155.057 2.04742 151.691 2.42989C152.63 2.41791 153.114 3.81181 153.928 3.37749C154.454 3.09559 151.493 1.17046 155.936 1.52348C156.03 2.18169 154.159 1.71785 154.111 1.76794C154.043 1.84085 154.381 3.32615 154.44 3.39947C154.647 3.64084 159.184 2.8455 160.143 3.59174C159.763 2.73329 163.571 3.43855 163.986 3.17699C164.096 3.10477 163.684 2.57893 163.802 2.52328C164.538 2.19201 166.53 3.13069 167.454 3.15501C168.488 3.18257 168.357 2.72842 168.414 2.72928C168.869 2.75461 168.506 3.06249 168.784 3.06162C169.204 3.06015 172.092 3.12312 172.237 3.05888C172.279 3.03886 171.808 2.52006 172.437 2.42165C172.546 2.4046 172.477 3.01969 174.341 2.754C176.586 2.43444 172.782 1.98909 173.715 1.34495C175.157 2.2621 175.11 1.35324 175.501 1.4246C175.637 1.45059 176.645 2.22333 177.739 2.17445C176.954 2.29988 176.168 2.42531 175.383 2.55074C176.155 2.68624 177.654 2.51853 178.291 2.6716C178.601 2.74611 178.345 3.38091 179.019 3.36376C179.162 3.35667 179.73 1.81009 177.964 2.50405C177.823 1.95181 178.663 2.31142 179.053 2.15522C179.112 2.13088 179.345 1.20831 179.843 1.78167C179.962 1.92273 178.661 4.61394 182.017 2.6661C182.125 2.60332 181.749 2.26629 181.855 2.19642C181.927 2.1491 182.784 2.28544 182.879 2.23762C182.976 2.18631 182.562 1.81836 182.677 1.74596C183.268 1.37288 184.044 2.83223 182.825 2.72104C183.233 2.9014 183.64 3.08177 184.047 3.26213C183.611 2.16227 184.687 2.95267 185.251 2.9188C188.863 2.70232 186.444 1.98698 187.065 1.61687C188.064 1.02261 187.301 2.9048 188.784 2.33925C188.921 2.28637 187.128 1.48741 190.628 1.93823C190.112 1.96936 189.595 2.00049 189.079 2.03162C189.376 3.09543 190.944 1.95864 191.064 1.94372C192.439 1.79766 191.509 2.18116 193.55 1.63335C193.733 1.58417 194.129 1.84671 194.519 1.71575C196.135 1.17622 192.388 1.38835 192.285 0.957664C192.237 0.746632 196.266 0.799778 196.405 0.899982C196.992 1.34418 194.578 1.09563 195.038 1.64708C195.206 1.84289 200.95 1.44073 202.102 1.65532C203.431 1.90504 204.03 3.34736 204.039 1.72674C204.414 3.31753 204.745 2.23216 204.915 2.24311C206.972 2.39037 206.975 2.40643 208.739 2.2541C209.128 2.22099 209.457 2.70366 209.595 2.62216C209.675 2.57293 209.525 2.0564 209.918 1.89703C210.463 1.67901 213.741 2.21028 213.985 2.49581C214.228 2.78134 212.6 2.61963 212.892 3.08909C214.07 3.13655 215.201 3.02039 216.387 3.06987C216.879 3.09182 216.626 3.4204 216.839 3.42694C216.93 3.43097 218.631 3.14162 218.559 3.02043C218.39 2.7386 213.136 2.92804 214.52 2.35298C214.787 2.24187 215.73 2.99904 215.58 2.07831C220.273 2.28706 224.967 2.49581 229.661 2.70456C226.964 3.39322 223.929 2.77732 221.104 2.84189C220.717 2.84986 219.408 2.76106 219.568 3.22643C221.97 3.34691 224.956 3.10443 227.262 3.40771C227.336 3.41774 227.065 3.83585 227.341 3.90211C227.858 4.02578 229.541 3.35144 229.824 3.52582C229.872 3.56644 228.915 4.11764 229.206 4.46793C229.953 5.36686 230.143 3.37588 230.786 3.39947C231.283 3.41856 234.623 4.38123 235.455 3.77302C236.339 3.12473 232.993 3.39665 233.24 2.86661C235.504 2.33395 237.796 2.90275 239.936 2.8364C239.973 2.83471 239.646 2.41934 240.123 2.36122C240.954 2.26008 241.172 2.84926 241.576 2.94352C242.012 3.04385 243.554 2.95942 243.76 3.17424C243.786 3.20241 243.474 3.7868 243.427 3.80323C242.755 4.04409 242.516 3.2856 242.455 3.27587C242.226 3.24711 242 3.53762 241.791 3.52032C241.446 3.49147 241.256 3.22269 240.801 3.19896C240.487 3.18159 240.79 3.69774 240.487 3.67414C240.376 3.66338 239.177 2.4848 239.066 3.68787C239.031 4.06719 248.832 4.55432 249.812 4.25094C248.971 4.10628 248.131 3.96162 247.291 3.81696C248.997 4.16909 251.047 3.20783 251.192 4.62998C257.52 4.74626 263.848 4.86254 270.176 4.97881C271.306 5.09998 270.687 6.01386 272.546 5.74788C272.065 5.45674 271.585 5.16559 271.104 4.87444C272.057 5.07869 276.279 5.47771 276.962 5.28919C277.051 5.26448 277.174 4.43736 278.229 4.3663C279.165 4.30355 279.315 4.92327 279.816 5.04199C280.236 5.13993 280.708 4.97756 280.832 5.01177C280.928 5.03917 280.966 5.41812 281.196 5.4842C281.923 5.68851 281.334 4.62151 282.056 5.84677C281.88 5.89346 281.704 5.94015 281.529 5.98685C282.406 6.16418 283.604 6.72044 282.312 6.99488C282.09 7.04226 282.281 6.67563 282.115 6.67626C275.626 6.74439 280.808 7.45708 283.082 6.88776C283.666 7.431 286.939 7.09933 287.047 7.20638C287.199 7.36143 286.638 7.79559 287.373 8.17046C287.527 8.24982 291.903 7.94563 290.327 8.66761C290.002 8.81655 287.904 8.66007 287.398 8.68135C288.588 9.83274 291.378 8.18312 291.692 8.2254C292.957 8.40483 289.261 9.22324 292.111 9.35703C294.303 9.45969 292.245 8.6909 293.088 8.36273C293.562 8.17859 296.043 9.02554 295.976 7.92875C296.827 7.81163 296.329 8.39238 296.434 8.43414C296.536 8.47086 298.211 8.14253 298.754 8.37372C298.82 8.40246 298.613 8.97254 298.681 9.01919C298.813 9.09905 300.428 8.98509 300.493 8.93679C300.534 8.90323 300.149 8.40412 300.307 8.28308C300.492 8.1435 302.045 8.26095 302.131 8.11827C302.252 7.90256 300.334 8.04467 300.654 7.48654C301.538 7.62707 302.978 7.25467 303.562 6.80536C303.419 6.93383 302.561 6.95227 302.264 6.90699C302.404 6.08956 304.245 6.10069 303.615 6.74768C304.015 6.40022 303.742 6.21588 303.967 5.88797C304.026 5.8049 304.595 5.78779 304.704 5.64626C304.719 5.61806 304.132 5.30964 304.25 5.14361C304.462 4.84359 306.185 4.91109 306.326 4.9898C306.723 5.21285 305.318 5.48274 305.201 5.82754C305.184 5.88049 306.379 6.55616 306.397 6.61584C306.467 7.25609 305.138 6.79469 305.29 7.37118C305.618 7.49295 305.947 7.61472 306.276 7.73649C305.008 8.32027 302.661 8.02008 302.056 8.68409C303.937 8.4865 305.905 8.50986 305.901 10.0052C305.899 10.635 305.088 11.0042 305.119 11.1644C305.239 11.7373 306.365 11.1149 306.407 11.1451C306.441 11.18 306.457 11.214 306.457 11.2471C306.457 11.2471 306.457 11.2472 306.457 11.2472C306.456 11.5826 304.851 11.8242 304.771 11.9774C304.636 12.2495 305.35 13.3694 305.349 13.6171C305.324 13.6669 304.181 13.9319 304.567 14.3642C304.957 14.8009 305.958 14.8105 305.993 14.8559C306.184 15.1171 304.434 15.3553 304.381 15.5096C304.354 15.5876 305.294 16.0668 305.321 16.2045C305.345 16.3428 304.63 16.6444 304.349 17.0807C304.139 17.4049 304.75 17.6534 304.642 17.7042C304.566 17.7379 302.912 17.7324 302.831 17.7894C302.709 17.8736 303.097 18.2611 303.04 18.3579C302.96 18.4972 302.426 18.3574 302.496 18.5007C302.548 18.6076 304.619 19.9431 304.605 20.2998C304.582 20.9083 302.389 19.5083 304.429 21.9094C304.443 21.9252 304.94 21.7545 304.954 21.7693C305.26 22.2111 303.668 22.8906 305.615 22.7718C301.994 23.5391 305.164 23.6865 304.629 24.711C304.422 25.1048 303.018 25.2672 303.011 25.3263C303.148 25.8258 303.595 25.4384 303.747 25.6833C303.831 25.8202 302.575 26.3484 302.857 26.6914C303.004 26.8681 304.337 26.8052 304.392 26.8397C304.919 27.1649 304.272 27.5151 304.388 27.7461C304.465 27.901 305.27 27.9132 305.291 27.9411C305.325 27.9991 304.232 28.6248 304.005 28.8448C303.832 29.014 304.481 29.2791 304.36 29.3529C303.633 29.7941 302.086 28.6689 303.577 30.2456C303.668 30.3423 304.232 30.3032 304.248 30.3225C304.597 30.7695 303.559 30.8081 303.373 31.174C303.054 31.8045 304.546 31.4529 303.305 31.8963C304.236 32.3087 304.755 32.2914 305.845 32.1765C302.828 32.4971 301.763 34.1293 305.112 34.0882C304.047 34.0627 304.165 34.9839 303.847 35.0001C303.65 35.0091 302.105 34.0932 302.813 36.1482C302.902 36.4049 303.84 36.0788 303.546 36.6042C301.294 36.4701 303.499 36.9385 303.501 37.0079C303.472 38.2184 297.968 37.227 297.023 37.365C295.925 37.5251 294.95 38.4789 294.712 38.4801C293.927 38.4806 294.578 37.9963 294.403 37.8182C294.225 37.6418 291.993 38.5696 291.882 38.5186C291.449 38.3139 291.888 37.74 291.843 37.7111C291.308 37.3594 288.311 37.8088 287.472 37.6754C287.498 38.0477 289.182 38.0772 288.131 38.6752C286.906 39.3723 286.836 37.7311 286.804 37.6589C281.192 37.6744 275.58 37.69 269.969 37.7056C270.039 38.5787 273.707 37.9203 273.791 38.0352C274.281 38.7158 268.083 38.7033 267.323 38.395C267.901 38.5836 268.478 38.7722 269.056 38.9608C268.069 39.9647 265.887 38.6604 264.46 39.1036C264 39.2473 264.884 39.6348 264.866 39.6612C264.348 40.0511 263.517 39.7507 264.139 39.2272C262.874 39.7288 263.059 39.1754 262.089 39.1339C262.039 39.1321 262.455 39.5372 261.688 39.7052C261.328 39.7835 259.41 39.7848 259.153 40.1391C259.047 40.2883 260.02 41.8593 260.14 40.5072C262.227 41.1663 260.807 39.8911 261.618 39.9222C261.742 39.9292 261.456 40.6839 263.497 40.3287C263.108 41.6896 260.758 40.6719 260.355 40.8368C259.524 41.1756 262.948 41.8784 263.577 40.8176C263.283 41.8796 263.819 40.9607 264.583 41.0043C265.418 41.0517 265.054 41.3679 265.506 41.3697C266.743 41.3776 266.23 40.6279 267.25 41.3037C266.256 39.2115 268.994 41.0277 269.793 41.5757C268.494 41.6819 267.195 41.7881 265.897 41.8943C265.971 42.0041 266.045 42.114 266.12 42.2239C265.778 42.2083 265.436 42.1927 265.094 42.1772C265.148 42.0719 265.203 41.9666 265.258 41.8613C263.494 42.5459 263.064 41.7765 262.92 41.7679C261.069 41.6787 258.93 41.6853 257.059 41.6828C256.778 41.6824 256.97 42.3672 254.924 41.8311C254.271 41.6604 254.887 41.1277 254.147 41.2076C253.221 42.6552 253.239 41.5006 252.963 41.4988C252.174 41.4989 251.691 41.8575 251.618 41.8613C250.642 41.9173 249.213 41.8574 248.141 41.9108C248.121 41.9162 248.679 42.361 247.982 42.2294C247.738 42.1824 245.544 40.2839 243.627 40.9027C244.126 41.0309 244.624 41.1591 245.123 41.2873C244.537 41.1081 240.428 41.5866 241.433 42.0948C242.049 42.4054 243.552 41.1817 243.717 42.3585C242.35 42.0063 234.798 42.533 234.21 42.2596C234.129 42.2206 234.629 41.8387 234.517 41.7899C234.43 41.7527 232.7 41.8432 232.471 41.6965C232.334 41.6094 233.098 41.3754 233.036 41.2378C232.982 41.1397 230.822 40.9762 230.698 41.4548C231.229 41.2627 232.72 41.4305 231.938 41.8338C231.837 41.8839 231.316 41.5753 231.194 41.6388C230.06 42.2252 233.448 42.0845 233.973 42.0893C231.844 42.699 228.553 41.9802 226.087 42.3777C225.09 41.9794 227.564 41.7683 226.437 41.4383C224.098 40.7543 225.814 41.9892 225.742 42.0399C225.161 42.4417 223.182 40.288 223.181 41.9272C222.333 41.6805 222.608 41.4738 221.411 41.6883C221.568 41.8018 221.726 41.9153 221.883 42.0289C220.555 42.9784 217.743 40.5828 217.954 40.4001C218.52 39.911 219.985 40.6739 220.11 40.6555C220.295 40.6284 220.807 38.965 222.832 40.4523C223.662 39.3366 219.622 39.6993 221.46 38.9388C220.218 39.0636 215.111 38.2871 214.375 38.7768C214.288 38.8407 214.696 39.9523 213.434 39.3866C212.835 39.1171 214.28 39.1042 214.006 38.8509C213.162 38.0737 201.69 38.5709 199.511 38.612C199.37 38.6132 199.421 38.2682 199.282 38.2714C198.855 38.281 197.299 38.7955 196.535 38.6367C198.118 39.2753 195.044 39.325 194.262 39.2547C193.074 39.1477 193.148 38.5406 192.635 38.4115C190.658 37.9138 187.595 39.3552 186.06 38.0077C186.144 39.3451 183.404 37.352 182.157 37.3403C181.181 37.3307 179.764 38.2157 181.082 38.7548C179.397 38.6932 177.622 38.9427 176.041 39.024C175.78 39.0376 176.14 38.6422 175.694 38.6779C175.653 38.684 175.598 39.0716 175.215 39.1119C172.054 39.4497 173.592 38.6261 173 38.384C172.669 38.2484 172.425 38.181 172.246 38.1588C174.088 38.083 176.213 37.9308 176.782 37.9198C176.297 37.064 172.698 38.0842 171.644 37.8539C171.608 37.8455 171.735 37.3738 171.698 37.3705C171.697 37.3705 171.696 37.3705 171.696 37.3705C171.301 37.3343 168.785 37.5084 169.303 38.0709C169.442 38.2212 170.6 38.2209 171.973 38.1698C171.601 38.2753 171.879 38.8037 171.813 38.8262C171.018 39.0874 169.069 38.5717 168.378 38.5021C168.22 38.4869 168.232 38.8254 168.206 38.8262C167.577 38.7493 167.835 37.7826 167.19 38.7795C166.052 37.5748 169.324 38.6007 169.093 37.8182C168.916 37.2158 161.648 37.5393 161.67 38.4884C161.645 38.3869 161.545 38.2609 161.34 38.1176C160.886 37.7991 158.863 37.8987 158.514 38.0736C158.455 38.1081 158.478 39.0292 158.405 39.0377C158.223 39.0589 155.75 38.3367 154.827 38.8812C155.325 39.0103 155.824 39.1393 156.323 39.2684C153.311 39.2764 153.777 39.5506 154.78 39.826C154.83 39.8285 154.879 39.8635 154.927 39.8672C155.705 40.0709 156.702 40.267 156.717 40.3397C156.774 40.6169 151.665 40.7712 152.648 39.9167C152.784 39.7999 155.148 40.1804 153.978 39.5706C153.773 39.4637 152.255 39.6378 152.175 39.5706C151.642 39.1237 154.957 38.5301 154.552 37.8951C153.747 38.4996 152.714 38.1812 151.792 38.3373C151.372 38.4079 151.269 38.8697 151.217 38.8784C150.443 38.999 150.877 38.5148 150.619 38.5268C150.48 38.5352 148.954 39.5658 149.243 38.145C144.216 39.1902 147.852 39.1891 150.936 39.1091C149.961 39.6266 148.051 39.3763 147.194 39.4964C146.886 39.54 147.069 40.0141 146.549 40.1089C145.48 40.304 140.375 39.7594 139.045 39.631C139.862 39.4635 139.623 38.9471 138.992 38.9828C138.362 39.0187 138.891 39.708 138.768 39.7821C138.637 39.8588 135.679 39.5335 135.186 39.6228C137.413 39.3731 136.911 38.8582 135.021 38.8043C135.294 38.6559 135.567 38.5076 135.841 38.3593C134.733 38.5677 132.403 37.7822 131.763 38.016C131.663 38.0535 132.023 38.4865 131.967 38.5076C131.405 38.6916 129.494 38.25 129.405 38.3977C129.33 38.5207 130.145 38.8837 129.843 39.0624C129.779 39.1001 128.993 38.5148 128.219 38.6587C127.932 38.7116 128.105 39.1211 128.033 39.1448C127.43 39.3418 127.786 38.6522 126.684 38.7631C125.876 38.8451 125.275 39.5192 124.159 39.2959C127.823 40.1553 124.743 39.7963 123.211 40.0567C122.966 40.0983 123.176 40.8417 121.71 40.4797C124.831 39.1356 120.82 39.7693 119.999 39.7546C119.954 39.75 119.939 39.2598 119.536 39.252C119.502 39.2524 119.551 39.5837 119.177 39.609C115.63 39.8485 117.898 39.4743 117.224 39.1476C116.937 39.0084 115.212 39.4769 114.747 39.4882C114.64 39.4893 114.69 39.1451 114.276 39.1586C113.545 39.1833 112.89 39.5498 112.407 39.5788C112.351 39.5805 112.348 39.0374 111.433 39.2135C111.176 39.2628 110.887 39.4556 111.253 39.6118C112.464 40.1254 114.763 39.2365 116.133 39.7491C117.381 40.216 113.443 40.26 113.238 40.2627C113.163 40.2645 113.932 39.9947 113.151 39.9414C112.484 39.8969 111.264 40.8351 110.27 40.6308C110.194 40.6156 109.399 39.8202 109.436 39.7738C109.469 39.74 110.69 39.5673 110.512 39.3371C110.491 39.3109 109.716 39.3162 109.614 39.1448C109.491 38.9362 109.156 36.889 108.991 36.8376C108.566 36.7108 108.842 37.1777 108.567 37.1453C107.978 37.0768 105.933 36.4713 105.867 37.181C106.205 37.2231 106.542 37.2652 106.88 37.3073C105.001 37.3803 105.802 37.6824 105.536 37.8154C105.249 37.9594 105.33 37.3357 104.696 37.2771C104.558 37.2642 101.908 37.3944 101.956 37.6561C103.422 37.2396 102.878 38.0104 102.946 38.0242C103.203 38.0744 103.531 37.642 103.875 37.6506C106.299 37.7183 103.855 38.4008 104.427 38.5763C104.624 38.6353 105.016 38.2662 105.1 38.2851C105.371 38.3463 105.376 38.8296 105.557 38.7905C105.979 38.6998 105.486 38.0158 105.519 37.9802C105.897 37.5522 107.377 38.0848 106.456 38.829C107.009 39.0972 107.074 38.1927 107.512 38.5543C108.384 39.2703 107.078 39.0864 106.724 39.2053C105.454 39.6341 105.078 39.287 103.281 39.4058C102.633 39.4477 101.867 39.8871 101.567 39.9112C101.377 39.9263 99.5915 38.3977 99.5389 40.7901C98.8447 40.5586 97.7554 38.9821 97.0402 39.0542C96.398 39.12 96.6022 39.9663 96.5423 39.9991C96.4504 40.0505 95.6739 39.9838 95.4112 40.1034C95.1035 40.2447 95.2571 40.5678 94.7688 40.6995C93.5535 41.0262 93.5854 40.1623 93.4605 40.1062C92.0104 39.4572 92.6454 40.686 92.3236 40.7846C92.0244 40.8752 87.8271 40.4022 86.9436 40.7132C87.3031 40.5402 87.6627 40.3671 88.0222 40.1941C87.3788 39.6552 86.6968 40.5341 86.6848 39.5678C86.5542 41.1279 85.2262 40.0851 84.8273 40.1254C84.6701 40.142 84.6825 40.4078 84.4857 40.4193C83.717 40.4659 81.984 40.2543 81.5671 40.3891C79.7641 40.9695 84.3745 41.9348 84.7375 41.9932C84.011 41.9759 79.9004 42.3254 81.7898 43.0753C82.0819 43.1911 82.5994 42.4929 82.7634 42.4656C83.8737 42.2858 83.0005 42.9115 83.0876 42.971C83.2356 43.067 83.9663 42.4622 84.1592 42.5343C84.2235 42.5573 83.8093 43.1239 84.8681 43.1358C84.3473 43.685 81.3711 43.2375 80.9806 43.3665C80.8415 43.4125 81.7134 44.5861 79.1663 43.4462C79.1958 43.5551 79.2254 43.6641 79.2549 43.773C77.8366 43.8179 76.4184 43.8627 75.0001 43.9076C75.1542 43.6566 75.9506 43.1524 74.9476 43.2594C74.3702 43.3213 74.7974 43.8804 74.7447 43.8966C74.2266 44.0505 65.0555 43.8644 63.2781 43.9268C62.6736 43.9471 60.9883 44.3964 60.8598 44.4047C60.0914 44.4497 57.3705 44.1573 56.8277 44.2207C56.4888 44.2614 56.811 44.7288 56.5082 44.7069C56.2268 44.6859 56.5184 44.2341 56.4348 44.2152C55.7424 44.0515 50.4825 44.644 49.2335 44.218C49.9968 44.3459 53.8062 43.4433 53.7296 43.1248C53.7131 43.0811 52.7872 42.7375 52.5962 42.9051C52.2807 42.5139 51.1974 43.7048 50.6082 43.4709C50.5416 43.4443 50.804 42.7763 49.7523 42.6551C49.3901 42.6137 48.4415 43.1343 47.4868 42.5507C46.1046 42.8312 38.8379 41.9649 38.3394 42.6826C38.3246 42.7205 39.3479 42.9676 38.6565 43.2621C37.7374 43.6536 38.5628 42.3349 37.4917 42.2211C37.3302 42.2038 34.35 42.3373 34.2525 42.4189C33.3499 43.159 35.954 43.459 35.9175 43.545C35.8267 43.7617 33.663 43.8928 33.575 43.8417C33.4913 43.7885 35.2559 42.8079 33.1354 43.1797C33.3783 43.2969 33.6213 43.4141 33.8642 43.5313C32.8669 43.7595 32.7719 43.0811 32.5303 43.0396C31.7792 42.9084 30.9667 43.939 29.7633 42.6661C29.4451 42.3283 29.9734 41.9532 29.9335 41.9025C29.5513 41.4479 29.0636 42.6641 28.4889 41.7569C28.4456 41.6893 29.7832 41.1458 27.4453 41.1444C27.6062 41.2314 27.7671 41.3184 27.928 41.4054C27.5983 41.5996 25.2311 41.7149 24.9127 41.669C23.9824 41.5349 24.7937 40.9105 23.8586 40.9851C24.4583 41.8408 21.6149 41.9525 21.7784 41.2158C21.3813 42.141 18.9658 41.4273 17.8303 41.4054C17.1138 41.3922 15.6524 41.7959 15.4248 41.7487C15.1475 41.6908 15.2317 41.0597 14.731 40.9192C14.5882 40.8791 13.0976 41.3418 11.7892 40.6885C11.5356 40.5626 11.003 39.4921 11.4743 39.2245C12.2811 38.7666 13.8072 39.6291 13.7877 38.9965C13.7648 38.3198 11.7093 38.7223 11.156 38.634C8.60169 38.2255 10.0767 37.5061 10.011 37.2881C9.84063 36.7589 8.44495 36.7753 8.38672 36.7278C8.14536 36.5164 9.13436 36.0976 9.14929 35.7747C9.16731 35.3542 7.82202 34.5952 8.12786 34.4535C8.56565 34.2522 9.80199 34.8847 9.88038 34.8545C10.9008 34.4465 9.50211 33.4751 9.11664 32.9978C8.99979 32.8509 9.46539 32.6096 9.3685 32.5665C7.88957 31.913 9.05674 33.9319 8.07306 33.797C7.19541 33.6769 8.32463 33.0385 8.2911 33.0033C8.24777 32.9646 7.19841 32.9298 7.03414 32.7039C6.95318 32.5907 9.68063 31.349 9.56672 30.7922C8.69649 30.9149 7.82625 31.0375 6.95601 31.1602C6.88779 30.4343 8.13948 30.9687 8.26895 30.8938C8.52958 30.7436 7.80283 30.3762 7.83402 30.1467C7.85076 30.0007 8.70372 29.4798 7.93314 29.265C7.6683 29.1908 7.11252 29.6999 6.14796 29.1799C9.50475 28.5157 7.17855 28.1076 7.07961 27.8505C6.98269 27.5933 8.58524 26.9881 6.64002 27.0951C6.55568 25.6823 6.68196 26.6485 7.23469 26.4002C7.91181 26.095 6.34686 25.6298 8.82164 25.9827C8.68085 25.3213 6.69169 25.3681 6.58639 25.3153C6.49545 25.2674 6.9376 24.9421 6.77994 24.8319C4.91518 23.5537 6.19599 24.1374 5.6559 23.3212C5.60787 23.2482 3.84537 22.9456 5.18716 22.8268C7.63171 22.6107 8.65337 23.548 9.06417 21.5441C7.25602 20.6736 5.06519 21.9671 4.51554 21.989C3.67423 22.0206 4.54575 21.6119 4.44208 21.4974C4.40607 21.4604 3.68108 21.4941 3.67134 21.4617C3.15438 19.9332 6.89883 21.4363 8.07772 21.1705C7.76173 20.9416 7.44574 20.7127 7.12975 20.4839C7.55845 20.4747 7.98716 20.4655 8.41587 20.4564C6.37352 19.9963 8.34386 20.2822 8.85312 19.0446C8.96745 18.7665 7.62571 19.2434 9.15629 18.4705C8.0274 18.2921 8.38748 18.0393 7.36528 18.3881C7.39167 17.8921 9.69153 17.3325 10.5986 17.078C7.39403 16.5205 9.22151 18.34 6.45113 17.3774C5.93739 17.9916 7.25973 17.872 7.1519 17.9734C6.76503 18.3379 5.85811 17.7591 4.7639 19.0364C4.58574 19.2461 5.33962 19.8915 4.22403 19.8604C4.10065 19.8559 3.38981 19.3043 3.39966 19.2643C3.4939 18.8323 4.19733 18.9942 4.22637 18.8139C4.25362 18.6432 3.46883 18.7458 3.46612 18.6985C3.44201 18.1573 4.12092 18.4917 4.02231 18.3222C3.80937 17.9537 0.986494 16.789 4.67062 17.1302C1.61056 17.7421 4.27884 17.7278 5.47051 17.4927C5.7744 17.4338 5.85137 17.1105 6.28439 16.9983C6.84139 16.853 7.49333 17.0082 7.78155 16.9489C8.09154 16.8835 6.33022 16.1193 8.87761 16.3473C7.58117 15.5872 5.29116 16.3976 4.01765 15.8639C1.4483 14.7855 5.80911 14.5539 6.2634 14.4494C6.38443 14.4211 5.97867 13.9845 6.05935 13.9577C6.19128 13.9167 8.66622 14.1185 8.91026 13.7572C9.15364 13.3962 8.00374 13.7738 7.9273 13.3974C7.87549 13.144 10.8611 12.6944 9.2449 12.5212C8.13092 12.4025 6.07756 13.4211 5.73169 12.3262C7.36995 12.2356 9.0082 12.1449 10.6465 12.0543C9.74979 11.6377 8.85312 11.2211 7.95646 10.8045C9.79522 10.6724 11.3848 11.1427 13.1312 10.5463C8.93471 9.21146 14.4938 9.48104 14.5549 9.31858C14.5754 9.22142 12.9236 8.13793 12.6578 7.93974C14.1215 7.52292 18.5691 7.31924 15.967 5.98135C16.4393 6.28344 17.583 5.53774 17.5679 5.48146C17.4227 4.8904 14.9282 5.27368 15.335 4.73985C15.8065 4.12036 16.4671 4.96078 17.1925 4.89367C20.9145 4.54377 19.8933 1.45822 23.6254 1.94647C23.5512 1.8366 23.4769 1.72674 23.4027 1.61687C27.4593 1.79174 31.5158 1.96661 35.5724 2.14149C37.1595 1.19922 41.3835 0.625441 43.4582 0.729689C43.8759 0.749992 45.927 1.24452 46.0817 1.33121C46.3683 1.49737 44.7924 1.56077 45.5045 1.87231C45.6549 1.93625 49.1273 2.14404 48.879 1.61687C48.4899 1.55575 47.2721 1.82074 47.0728 1.69652C45.6728 0.809898 56.3778 1.51822 56.9082 1.16092C56.6711 0.989708 56.434 0.818499 56.1969 0.647287C56.8724 0.73152 57.5479 0.815752 58.2234 0.899982ZM27.1829 43.2402C26.7775 43.7691 25.7614 43.3718 25.161 43.5203C24.3316 43.7282 22.9215 45.7652 23.5286 43.7236C24.7467 43.5624 25.9648 43.4013 27.1829 43.2402ZM44.9857 44.0285C44.1688 43.7443 44.8024 42.6041 45.4719 43.0781C45.5462 43.132 46.0908 44.4109 44.9857 44.0285ZM36.4224 43.4874C36.4568 43.4723 37.1627 43.5024 37.1873 43.5203C37.8204 43.9781 35.6922 43.8845 36.4224 43.4874ZM77.7892 42.9023C76.8892 42.9515 77.541 43.9881 78.1005 43.5615C78.1357 43.5344 77.8484 42.8999 77.7892 42.9023ZM77.1491 42.8748C76.4501 41.9466 75.0423 43.8278 76.1615 43.6384C76.27 43.6193 77.1814 42.92 77.1491 42.8748ZM42.0741 43.5752C42.166 43.2195 43.0086 43.3913 43.3684 43.4764C43.3586 43.8012 42.427 43.5355 42.0741 43.5752ZM63.4367 43.4764C63.4725 43.1967 60.5439 43.2121 60.3444 43.5807C60.8066 43.4244 63.4031 43.7277 63.4367 43.4764ZM70.947 43.0836C70.8728 43.0352 69.8611 43.1087 69.8906 43.3555C70.3845 43.6792 71.2813 43.3024 70.947 43.0836ZM85.8744 43.1001C85.9293 43.0381 85.1717 41.4677 86.9669 42.5013C87.2305 42.6526 86.2892 43.063 86.3828 43.1193C86.5789 43.2292 86.734 43.2804 86.8585 43.2896C86.0224 43.4198 85.1538 43.481 85.0698 43.3857C84.6753 42.9358 85.8501 43.1259 85.8744 43.1001ZM93.7112 41.93C93.8835 41.6738 94.9836 41.8108 95.234 41.9162C95.277 41.9361 95.0896 42.6093 95.585 42.559C95.9827 42.5174 95.3886 41.8279 96.1633 41.9382C96.9463 42.049 95.9002 42.5404 95.9686 42.5755C96.0603 42.6214 97.2714 42.3118 97.2337 42.7128C97.2056 43.0098 95.9081 42.809 95.5873 42.8721C95.1765 42.9532 95.6747 43.4481 94.988 43.3418C94.5565 43.2754 94.7957 42.4052 94.7046 42.3612C94.6283 42.3258 93.1201 42.8266 93.7135 41.9327C93.7127 41.9318 93.712 41.9309 93.7112 41.93ZM87.0847 43.2511C87.0218 43.2805 86.9479 43.2962 86.8585 43.2896C86.9344 43.2778 87.0099 43.2641 87.0847 43.2511ZM29.5429 42.8584C29.9675 43.1268 28.7073 43.4709 28.23 43.1193C28.2217 42.8358 29.4753 42.8166 29.5429 42.8584ZM87.8601 42.5425C89.1022 42.7605 88.1886 43.0603 87.0847 43.2511C87.4352 43.0873 87.4431 42.4697 87.8601 42.5425ZM52.5962 42.9051C52.6486 42.97 52.6818 43.0712 52.686 43.2374C52.5484 43.0556 52.536 42.9579 52.5962 42.9051ZM55.4938 43.2017C56.4871 42.6953 54.4689 42.7157 54.4817 43.0781C54.4877 43.2149 55.454 43.2218 55.4938 43.2017ZM78.9436 42.9517C78.8527 42.9022 80.2643 41.373 78.2148 42.5205C79.3087 42.7007 78.1546 42.8673 78.1717 43.0012C78.2163 43.3861 80.0537 43.0161 80.4606 43.1825C80.7791 42.4938 79.2436 43.115 78.9459 42.9517C78.9451 42.9517 78.9444 42.9517 78.9436 42.9517ZM107.835 42.3008C107.586 42.7043 106.796 42.5745 106.263 42.5507C106.512 42.1472 107.302 42.277 107.835 42.3008ZM247.306 42.3585C243.654 42.7316 243.181 41.0882 246.522 41.7377C246.588 41.7514 247.528 42.1919 247.306 42.3585ZM215.963 41.9327C215.619 41.2165 216.758 41.1013 217.506 41.3971C217.675 41.4637 218.301 42.1891 217.587 42.331C217.609 41.4628 216.504 41.1312 215.963 41.9327ZM88.562 42.0838C88.9238 41.6061 90.037 41.9461 90.6236 42.0179C90.2656 42.4112 89.0807 42.2333 88.562 42.0838ZM235.305 41.5015C234.92 41.4473 234.66 42.0704 234.727 42.1222C235.024 42.3601 235.744 41.8562 235.305 41.5015ZM84.9684 42.0096C84.9175 41.7242 86.392 41.4494 86.4947 42.1552C86.1795 42.1041 85.005 42.1888 84.9684 42.0096ZM106.83 42.0865C106.601 41.9414 107.787 41.6816 108.145 41.8256C108.116 42.1294 106.98 42.1809 106.83 42.0865ZM229.108 41.713C228.763 41.6589 227.902 41.6424 227.807 41.8943C227.688 42.2091 228.951 42.1018 229.108 41.713ZM293.246 41.1691C293.289 41.2823 291.956 42.0979 291.363 41.8915C290.237 41.4966 293.199 41.0892 293.246 41.1691ZM238.949 41.1801C240.036 41.7728 238.829 41.1988 238.877 41.8229C239.608 41.8453 241.428 41.8761 240.177 41.2625C239.933 41.1438 239.29 41.2205 238.949 41.1801ZM237.946 40.9714C237.83 41.1735 237.046 41.8108 237.724 41.7652C238.037 41.7431 238.542 41.035 237.946 40.9714ZM284.982 41.4466C284.008 40.8941 288.474 41.1905 288.603 41.2873C288.671 41.3384 288.715 41.3865 288.74 41.4273C288.904 41.2523 289.748 41.2207 289.846 41.6636C289.593 41.627 288.902 41.6659 288.822 41.6169C288.787 41.596 288.762 41.5764 288.744 41.5564C288.446 41.9409 285.169 41.5513 284.982 41.4466ZM277.582 40.878C278.696 40.063 278.894 41.4487 278.798 41.4933C277.584 42.0604 278.376 41.0385 278.338 40.9906C278.254 40.911 277.391 41.3851 277.585 40.878C277.584 40.878 277.583 40.878 277.582 40.878ZM283.465 41.2186C283.511 41.2005 284.447 41.2434 284.486 41.2653C285.253 41.731 282.604 41.6117 283.465 41.2186ZM99.6182 40.9604C100.288 41.0981 99.631 41.6079 99.1856 41.4246C99.1491 41.4065 99.0271 40.8387 99.6182 40.9604ZM237.411 41.1087C237.256 41.0124 233.281 40.6491 233.52 41.4191C233.858 41.3282 238.375 41.7245 237.411 41.1087ZM207.709 40.9219C208.41 40.9279 207.646 41.6541 207.272 41.3834C207.133 41.2828 207.533 40.9209 207.709 40.9219ZM82.9803 41.3504C82.2526 41.7494 82.4031 40.411 83.034 40.8698C83.0587 40.8877 83.0089 41.3348 82.9803 41.3504ZM213.308 41.3394C210.891 41.7795 211.464 39.4773 214.606 40.2545C214.508 40.357 214.41 40.4596 214.311 40.5621C217.938 40.9075 214.559 40.7244 213.671 40.8533C213.334 40.9023 213.616 41.2866 213.311 41.3422C213.31 41.3413 213.309 41.3404 213.308 41.3394ZM204.023 40.878C201.696 39.244 206.139 40.3081 207.414 40.0952C206.179 40.77 204.57 40.6678 206.758 41.3587C203.559 41.4923 204.89 40.8415 204.763 40.7874C204.611 40.7267 204.123 40.9482 204.023 40.878ZM210.164 40.867C210.298 40.8194 211.312 41.152 211.677 41.0977C211.166 41.6559 209.27 41.1912 210.164 40.867ZM269.823 41.257C269.907 40.8197 270.115 40.4975 270.915 40.661C270.668 40.8808 270.157 41.0698 269.823 41.257ZM26.4133 40.9384C25.8623 40.9071 24.7651 40.7423 25.1016 41.2021C25.1384 41.2413 26.4117 41.1965 26.4133 40.9384ZM225.868 40.7544C225.75 40.7006 222.72 40.6645 223.766 41.1472C224.082 41.2927 226.84 41.2309 225.868 40.7544ZM241.562 40.8093C241.309 40.8048 240.278 40.8871 240.256 40.9906C240.187 41.3482 241.451 41.1516 241.562 40.8093ZM23.6336 40.4907C23.561 40.4453 21.8779 40.5257 22.0629 40.7379C22.4141 41.1392 23.8823 40.647 23.6336 40.4907ZM102.056 39.9359C102.197 39.9197 102.383 40.3948 102.432 40.4001C102.546 40.4069 105.122 40.2241 104.138 40.8341C103.974 40.9363 100.268 40.702 99.7861 40.6418C99.5998 39.9896 101.183 40.61 101.568 40.5429C101.636 40.5302 101.679 39.9845 102.055 39.9386C102.056 39.9377 102.056 39.9368 102.056 39.9359ZM273.991 40.7956C274.105 40.381 277.133 40.1064 277.098 40.6088C276.062 40.6711 275.027 40.7333 273.991 40.7956ZM272.453 40.7269C271.807 40.4336 273.32 40.3366 273.766 40.466C273.771 40.7449 272.548 40.7698 272.453 40.7269ZM235.82 39.2602C235.515 39.3616 236.451 39.9666 236.242 40.0842C236.107 40.1575 235.428 39.9307 235.211 40.1199C235.149 40.18 235.843 40.7488 236.043 40.7242C236.328 40.6914 236.052 40.2438 236.363 40.2408C237.395 40.2311 238.31 40.5503 239.278 40.5429C239.365 40.5414 238.688 40.2253 239.433 40.2298C239.548 40.2299 240.24 40.7006 241.132 40.6308C243.101 39.173 244.547 40.6044 247.046 40.0787C246.952 39.9414 245.083 39.5732 244.973 39.5596C242.884 39.3199 239.142 39.2935 236.954 39.2904C236.393 39.2892 236.665 39.5977 236.424 39.609C236.232 39.6174 236.46 39.046 235.82 39.2602ZM26.706 40.6226C26.4434 40.0519 25.5221 40.4131 24.9337 40.3836C25.1408 40.8984 26.131 40.4961 26.706 40.6226ZM258.86 40.2847C258.565 40.3067 257.651 40.1349 257.575 40.3067C257.478 40.5311 258.798 40.6726 258.86 40.2847ZM116.578 40.0979C116.606 40.0824 117.316 40.1129 117.343 40.1309C117.977 40.5889 115.848 40.4951 116.578 40.0979ZM133.552 40.2078C134.09 40.1374 134.632 39.959 134.813 40.4221C134.47 40.3511 133.489 40.5303 133.552 40.2078ZM156.969 40.1941C156.858 39.5877 158.477 39.9804 158.783 40.0348C158.67 40.3043 157.05 40.631 156.969 40.1941ZM269.706 39.3536C270.696 39.3895 270.487 38.471 271.116 38.8867C271.219 38.9569 271.55 40.8695 270.462 40.1529C270.266 40.0241 271.032 39.5695 269.706 39.3536ZM215.118 40.2737C215.37 39.8726 216.157 39.9917 216.689 40.0238C216.569 40.3218 215.496 40.2451 215.118 40.2737ZM20.5937 40.032C20.1294 39.4657 17.9838 39.8858 18.5147 40.26C18.5902 40.3088 20.2928 40.0106 20.5937 40.032ZM91.0795 40.2545C91.9623 39.8086 90.1338 39.6704 89.5567 40.1062C89.818 40.0776 91.02 40.2839 91.0795 40.2545ZM151.344 39.8645C151.386 39.8462 152.322 39.8892 152.364 39.9112C153.131 40.3769 150.483 40.2576 151.344 39.8645ZM127.97 39.4717C128.307 39.1047 130.524 39.4008 131.021 39.7683C130.543 40.3049 127.551 39.9301 127.97 39.4717ZM265.632 39.6145C266.339 39.5955 267.009 39.7085 267.658 39.8672C267.521 40.1762 265.707 39.8453 265.632 39.6145ZM154.78 39.826C154.83 39.8285 154.879 39.8635 154.927 39.8672C154.877 39.8541 154.828 39.8392 154.78 39.826ZM249.822 39.3975C249.23 39.2755 249.353 39.8416 249.39 39.859C249.835 40.0423 250.492 39.5353 249.822 39.3975ZM26.0297 39.7821C25.8245 39.2712 24.8289 39.6674 24.2562 39.5459C24.4224 39.9494 25.5684 39.8357 26.0297 39.7821ZM201.53 39.8315C200.787 39.2776 203.813 38.634 204.45 38.991C204.497 39.3333 201.639 39.9073 201.53 39.8315ZM88.3382 39.4882C88.2788 39.0878 87.0084 39.571 87.2783 39.7601C87.4492 39.8805 88.3737 39.7369 88.3382 39.4882ZM205.972 39.2245C206.256 39.1023 206.919 39.4974 206.685 39.7381C206.386 40.0467 205.898 39.2595 205.972 39.2245ZM231.478 38.9031C231.354 38.842 229.683 39.2529 230.373 39.6612C230.852 39.945 230.929 39.3663 231.041 39.3646C231.167 39.3664 233.851 40.0746 231.478 38.9031ZM184.584 39.4827C185.214 39.3288 185.977 39.5075 186.637 39.4964C186.368 39.744 184.852 39.8115 184.584 39.4827ZM93.2378 39.3811C93.0846 39.2192 88.912 39.1216 91.2824 39.62C91.4206 39.6482 93.703 39.8714 93.2378 39.3811ZM269.706 39.3536C269.581 39.3491 269.437 39.33 269.27 39.2904C269.436 39.306 269.581 39.3331 269.706 39.3536ZM258.461 39.2932C258.689 39.0017 257.541 38.9238 257.202 39.0789C257.098 39.435 258.43 39.3339 258.461 39.2932ZM186.687 39.0899C187.067 38.9231 187.758 39.1011 188.229 39.0817C188.149 39.3526 186.852 39.3651 186.687 39.0899ZM159.979 38.785C160.735 38.946 161.664 38.872 161.678 38.5406C161.694 38.5924 161.731 38.6474 161.791 38.7026C161.853 38.7573 162.662 38.6032 163.013 38.7164C165.118 39.3883 154.887 39.111 160.817 38.1753C160.538 38.3785 160.258 38.5818 159.979 38.785ZM124.97 38.6916C124.541 38.2882 123.341 38.7937 123.652 38.9526C123.869 39.0614 125.399 39.0978 124.97 38.6916ZM141.464 38.4527C141.336 38.3807 140.164 38.6632 140.134 38.8757C140.808 39.0995 142.048 38.7871 141.464 38.4527ZM121.675 38.2192C121.406 38.1583 121.062 38.8088 121.094 38.8372C121.367 39.0747 122.126 38.5814 121.675 38.2192ZM267.655 37.6012C267.255 37.4149 265.979 37.8858 265.701 38.3153C265.649 38.2323 265.51 38.124 265.254 37.994C265.255 37.994 265.256 37.994 265.257 37.994C264.912 37.8205 254.598 37.6309 261.516 38.4582C261.733 38.4847 261.437 38.0991 262.318 38.167C262.377 38.172 262.406 38.4868 262.585 38.5021C263 38.5354 265.204 38.7335 265.647 38.4801C265.651 38.5385 265.68 38.594 265.741 38.6449C266.284 39.099 267.966 37.7448 267.655 37.6012ZM143.788 38.395C143.552 38.2783 142.806 38.3891 142.728 38.6669C143.098 38.8031 144.336 38.6671 143.788 38.395ZM93.1084 38.2412C92.6278 38.0127 91.4098 38.4399 91.7779 38.6669C92.0036 38.8066 93.6626 38.5035 93.1084 38.2412ZM136.309 38.5433C139.065 38.8717 136.967 38.5168 137.389 38.1093C137.029 38.254 136.669 38.3987 136.309 38.5433ZM280.409 38.6532C279.97 38.5594 280.486 37.7555 280.97 38.1917C281.122 38.3303 280.655 38.7041 280.409 38.6532ZM300.251 38.4032C299.876 37.6904 301.708 38.1092 300.994 38.5983C300.961 38.6147 300.278 38.4304 300.251 38.4032ZM286.386 38.1121C286.088 38.5975 285.894 38.655 285.053 38.5351C286.297 38.3983 285.144 37.9691 286.386 38.1121ZM161.67 38.4884C161.675 38.508 161.679 38.5225 161.678 38.5406C161.673 38.5227 161.671 38.5058 161.67 38.4884ZM119.084 38.3456C118.739 37.9344 117.772 37.9647 118.06 38.3785C118.088 38.4168 118.942 38.6494 119.084 38.3456ZM265.701 38.3153C265.747 38.389 265.723 38.4366 265.647 38.4801C265.644 38.4252 265.663 38.3733 265.701 38.3153ZM124.275 38.0105C124.24 38.3172 125.712 38.4365 125.771 38.4005C126.615 37.8685 124.882 37.992 124.275 38.0105ZM83.3791 37.81C83.3032 37.842 83.7926 38.6338 84.0927 38.3236C84.325 38.0829 83.6634 37.6881 83.3791 37.81ZM289.239 37.9143C289.705 37.9149 290.361 37.9145 290.482 38.2906C290.17 38.2329 289.23 38.1903 289.239 37.9143ZM299.534 37.8869C298.983 38.329 297.725 38.3278 296.922 38.2549C296.908 37.6729 299.017 38.0237 299.534 37.8869ZM268.919 37.8182C268.881 37.7945 267.712 37.6209 267.872 38.0105C268.105 38.5818 269.249 38.0301 268.919 37.8182ZM85.6482 38.2302C86.1707 37.9619 84.9682 37.1373 84.4169 37.7742C84.1337 38.1004 85.5601 38.2752 85.6482 38.2302ZM116.065 37.8072C115.375 38.0327 117.084 38.4343 117.323 38.0269C117.005 37.9943 116.31 37.7274 116.065 37.8072ZM139.526 37.3952C137.353 36.2202 138.537 38.3637 138.922 38.1753C138.977 38.1484 139.579 37.4228 139.526 37.3952ZM15.2021 37.6836C14.8945 37.8469 16.0413 38.4383 16.1897 38.0489C16.2814 37.8053 15.3988 37.5796 15.2021 37.6836ZM172.246 38.1588C172.154 38.1626 172.063 38.1664 171.973 38.1698C172.041 38.1506 172.13 38.1443 172.246 38.1588ZM109.806 36.2334C111.335 37.8923 111.175 36.6137 111.308 36.6206C111.595 36.6385 112.262 37.0871 112.804 37.0134C112.184 37.2002 111.564 37.387 110.944 37.5737C111.433 37.6935 115.688 38.3042 115.777 38.0352C115.905 37.6521 114.566 37.7723 114.527 37.7385C114.471 37.6905 114.262 36.6254 114.137 36.5849C113.933 36.5202 110.376 36.4981 109.806 36.2334ZM134.982 37.5792C135.332 37.7058 135.431 38.1278 135.593 38.0269C135.649 37.9924 135.658 37.59 135.846 37.4858C135.558 37.517 135.27 37.5481 134.982 37.5792ZM107.067 37.7248C106.634 37.233 108.575 37.4198 108.637 37.4749C108.969 37.8082 107.421 38.1266 107.067 37.7248ZM123.54 37.6534C123.469 37.6247 121.979 37.4711 121.991 37.744C122.385 37.9521 124.378 38.0127 123.54 37.6534ZM136.08 37.4584C136.603 37.5053 137.594 37.9106 137.48 37.3046C137.479 37.3046 137.478 37.3046 137.478 37.3046C137.012 37.3558 136.546 37.4071 136.08 37.4584ZM87.4369 36.9502C86.4662 35.985 86.926 37.2047 87.7855 37.5161C88.0458 37.0827 87.596 37.1073 87.4369 36.9502ZM84.3306 36.2306C84.0606 36.0569 81.2778 36.2472 81.7024 36.758C81.8533 36.94 83.4535 36.481 83.5272 36.5163C83.639 36.5686 83.1285 37.1336 83.9819 37.0217C83.932 36.8302 84.4231 36.2886 84.3306 36.2306ZM86.6335 36.3322C85.6689 35.5982 85.4522 36.9521 86.1775 36.9557C86.461 36.9581 86.7711 36.4381 86.6335 36.3322ZM90.5734 36.4476C90.2263 36.3192 89.3019 36.1319 88.6647 36.5822C89.5174 36.6206 90.3702 36.6591 91.2229 36.6975C91.3212 36.4425 90.8771 36.5604 90.5711 36.4476C90.5719 36.4476 90.5727 36.4476 90.5734 36.4476ZM305.33 34.4178C304.564 34.0339 306.33 33.8867 306.404 33.9811C306.626 34.2942 305.673 34.5893 305.33 34.4178ZM9.21575 25.3839C9.00281 25.2309 8.86359 24.7273 8.39488 24.9912C8.86634 25.3629 9.3378 25.7346 9.80926 26.1063C10.1756 25.2546 9.44851 25.5528 9.21575 25.3839ZM7.41542 22.2719C7.48203 22.2513 7.11822 20.9416 7.97861 21.816C8.55994 22.4064 5.39867 22.9818 4.82803 22.401C5.45856 22.1312 6.84214 22.4401 7.41542 22.2719ZM1.87801 16.6028C1.84156 16.4983 3.0426 16.3451 3.18162 16.4188C3.91157 16.8069 2.07522 17.1624 1.87801 16.6028ZM5.70954 16.8527C5.14628 16.5984 6.39408 16.4345 6.76595 16.5808C6.80202 16.8246 5.79655 16.8898 5.70954 16.8527ZM297.569 15.4492C296.96 14.5591 296.415 16.4752 297.353 16.0892C297.397 16.071 297.595 15.4928 297.569 15.4492ZM3.05219 15.2816C3.61545 15.536 2.36765 15.6999 1.99578 15.5536C1.96119 15.31 2.96642 15.2444 3.05219 15.2816ZM297.14 13.3287C296.331 12.6882 296.616 14.8379 296.717 14.9246C297.134 15.2667 298.562 14.4229 298.854 14.2132C296.716 14.5358 297.521 13.6306 297.14 13.3287ZM293.407 14.6197C292.656 14.849 294.575 15.2876 294.941 14.6883C294.568 14.717 293.62 14.5534 293.407 14.6197ZM288.849 13.9303C288.445 13.8533 287.244 13.6689 287.043 14.0072C287.483 13.9459 288.678 14.2783 288.849 13.9303ZM287.935 12.9167C287.303 12.4571 287.152 13.7963 287.88 13.3974C287.908 13.382 287.958 12.9423 287.935 12.9167ZM284.386 12.4333C283.972 11.9008 283.5 13.1976 284.171 13.2326C284.37 13.2406 284.43 12.4944 284.386 12.4333ZM296.127 11.016C295.534 10.7873 294.77 11.7161 296.036 11.8181C295.591 11.96 295.147 12.1019 294.702 12.2438C296.36 12.7644 296.239 11.4764 296.715 11.5297C297.38 11.6053 297.328 12.6681 297.194 13.0019C297.74 12.3507 300.057 12.3403 301.396 12.2163C300.219 11.9431 298.309 11.4693 297.147 11.2962C296.816 11.2461 296.494 11.5375 296.211 11.5049C295.758 11.4511 296.16 11.0314 296.129 11.016C296.129 11.016 296.128 11.016 296.127 11.016ZM279.722 12.4141C278.505 11.8108 279.275 13.1133 279.963 12.881C279.992 12.8631 279.753 12.4288 279.722 12.4141ZM1.43842 11.3237C3.06437 11.8681 1.88251 12.5896 5.28394 11.494C3.85492 12.2696 5.20491 12.0518 4.92598 12.3647C4.70221 12.6122 3.86376 12.4072 4.35113 12.9057C3.71051 12.3631 0.929266 12.5132 0.805273 12.4251C0.806439 12.4251 0.807605 12.4251 0.808771 12.4251C0.7343 12.3729 0.919581 11.1505 1.43842 11.3237ZM288.843 10.5244C288.437 8.94401 288.278 11.4524 287.48 10.1426C286.417 12.0446 290.415 10.1429 290.899 11.7494C286.558 11.5627 293.767 13.3413 290.737 10.9364C293.233 11.8092 291.555 10.6385 291.94 10.3321C292.352 10.0057 293.764 10.3604 293.692 9.77178C293.692 9.77178 293.691 9.77178 293.69 9.77178C292.826 9.81298 291.963 9.85418 291.099 9.89538C291.945 11.1652 290.18 10.7844 289.581 9.74981C289.335 10.008 289.089 10.2662 288.843 10.5244ZM293.731 11.7164C293.646 11.6874 291.767 11.8653 291.889 12.1202C292.139 12.2828 294.805 12.0878 293.731 11.7164ZM301.998 11.439C301.324 11.4359 300.281 11.1882 299.913 11.667C300.588 11.6702 301.631 11.9181 301.998 11.439ZM267.268 11.3484C266.408 11.7413 269.055 11.8577 268.29 11.3923C268.252 11.3704 267.31 11.33 267.268 11.3484ZM286.888 10.7633C286.013 10.2804 286.427 11.8176 287.074 11.417C287.112 11.3934 286.928 10.7854 286.888 10.7633ZM2.75602 11.1369C2.81449 10.7602 5.1736 11.0248 5.59177 11.0215C5.35418 11.3716 2.68894 11.5687 2.75602 11.1369ZM303.185 10.03C301.843 8.67566 300.022 10.2399 299.822 10.2058C299.624 10.1709 299.935 9.57891 299.89 9.56303C299.787 9.52983 297.672 9.57951 297.569 9.62071C297.496 9.65284 297.879 10.4848 297.442 10.7469C298.294 10.2741 302.16 10.5699 302.361 10.4777C302.516 10.4041 301.344 9.53042 303.183 10.03C303.183 10.03 303.184 10.03 303.185 10.03ZM299.323 10.0245C299.851 10.3732 298.37 10.4168 298.011 10.2882C297.215 10.0002 299.255 9.98316 299.323 10.0245ZM295.76 9.70311C295.591 9.62489 294.064 9.55385 293.934 9.94207C294.657 10.4457 296.144 9.88537 295.76 9.70311ZM278.769 9.7553C278.372 9.80504 277.281 9.5067 277.219 9.84594C277.616 9.79646 278.706 10.0946 278.769 9.7553ZM10.805 8.17596C10.1462 7.89209 11.6727 7.77613 12.118 7.91227C12.1421 8.13857 10.8611 8.20034 10.805 8.17596ZM286.739 7.5195C286.505 7.41634 281.714 7.67376 281.042 7.83262C281.7 8.08917 286.447 8.1089 286.663 7.98369C286.725 7.9462 286.769 7.53573 286.739 7.5195ZM297.1 7.36294C297.539 6.86337 297.825 7.46253 297.881 7.47006C298.424 7.5465 299.55 7.43386 299.303 7.91502C298.345 7.72089 296.225 8.35501 297.1 7.36294ZM278.428 7.49478C276.802 7.68017 279.926 8.20649 279.516 7.6843C279.49 7.65273 278.596 7.47531 278.428 7.49478ZM287.275 7.37392C287.633 6.97025 292.425 7.31838 293.195 7.31899C292.505 8.06354 291.95 7.49801 291.025 7.53598C290.775 7.5471 290.841 7.85685 290.815 7.85734C290.382 7.87169 290.706 7.51394 290.439 7.50851C290.271 7.50606 286.77 7.94268 287.275 7.37392ZM297.35 7.01685C297.618 6.73048 300.61 6.6084 300.731 6.6845C301.631 7.25052 297.583 7.11655 297.35 7.01685ZM286.835 6.71197C287.35 5.84665 289.73 6.42616 288.101 6.85755C287.946 6.89679 287.287 6.52168 286.835 6.71197ZM278.602 6.67077C278.522 6.64532 276.826 6.47236 276.796 6.74768C277.041 6.85467 279.513 6.95066 278.602 6.67077ZM279.481 5.73965C279.44 5.74625 279.838 6.27652 279.043 6.20933C278.976 6.203 278.853 5.60639 277.853 5.82479C277.65 5.86977 277.336 6.26445 277.359 6.28898C278.4 7.22527 281.534 5.43204 279.481 5.73965ZM297.405 6.53344C297.244 6.28161 297.633 5.53416 297.983 5.91269C298.134 6.07613 297.853 6.5247 297.405 6.53344ZM273.224 6.42906C274.21 5.97576 271.115 5.89006 270.957 6.00607C271.057 6.28843 273.126 6.47334 273.224 6.42906ZM12.3477 4.67668C12.3469 4.67668 12.3461 4.67668 12.3453 4.67668C13.1746 4.77939 12.661 5.15649 12.6998 5.16833C14.4663 5.72222 13.9977 4.86811 14.2739 4.76732C14.8662 4.54932 14.7708 5.58798 15.7699 5.15735C14.1184 5.79327 15.6217 5.52668 15.6685 5.89621C15.8536 7.40418 13.4696 5.1901 12.6462 5.50618C12.5314 5.54994 13.3785 6.03122 13.0846 6.16813C12.1289 6.61176 9.16552 4.28389 12.3477 4.67668ZM298.254 5.84677C298.639 5.40382 301.557 5.83344 300.783 6.19834C300.659 6.25685 297.689 6.49238 298.254 5.84677ZM161.935 5.19305C162.636 4.80973 161.011 4.35909 160.709 4.65745C160.56 4.80609 161.627 5.36128 161.935 5.19305ZM150.538 3.55328C149.705 3.6311 148.826 5.22963 149.863 4.98156C149.973 4.95444 150.634 3.77502 150.538 3.55328ZM205.262 4.37454C204.392 3.80328 204.443 4.86469 205.082 4.84972C205.308 4.8446 205.289 4.39262 205.262 4.37454ZM172.049 4.51188C171.962 4.47482 170.956 4.5426 170.992 4.78654C171.364 4.93291 172.612 4.76621 172.049 4.51188ZM205.538 4.22347C205.022 4.41477 205.91 5.18247 206.541 4.43222C206.221 4.49376 205.591 4.20393 205.538 4.22347ZM285.037 4.3663C284.605 4.80214 283.383 4.67045 282.681 4.74534C282.605 4.18069 284.535 4.46867 285.037 4.3663ZM154.076 4.19601C153.287 4.59397 154.977 4.91979 154.822 4.39377C154.801 4.36519 154.107 4.17904 154.076 4.19601ZM233.337 4.16579C232.764 4.50262 234.584 4.95559 234.083 4.36355C234.059 4.33942 233.369 4.14706 233.337 4.16579ZM241.288 4.36081C240.853 4.24719 238.998 4.28214 239.72 4.61076C239.832 4.66125 241.255 4.66932 241.288 4.36081ZM14.3229 4.36081C14.0885 3.78077 15.4492 3.91884 15.644 4.02022C15.7205 4.06238 14.6287 5.11548 14.3229 4.36081ZM199.61 4.2839C199.16 4.35647 197.992 4.21856 197.786 4.52286C198.337 4.45987 199.758 4.89007 199.61 4.2839ZM157.673 4.19326C156.986 3.56296 155.812 3.62517 156.102 4.4487C157.399 4.39352 155.942 3.70849 157.673 4.19326ZM208.438 3.54504C208.077 3.49696 207.8 4.28784 207.841 4.3251C208.232 4.6796 208.797 3.85275 208.438 3.54504ZM181.343 4.19601C181.322 3.85803 180.165 4.01143 180.319 4.22897C180.37 4.302 181.36 4.46953 181.343 4.19601ZM269.879 4.17403C269.349 3.86554 270.968 3.56394 271.447 3.92409C271.68 4.44303 269.946 4.20947 269.879 4.17403ZM218.451 3.7428C218.504 3.24122 216.695 3.52481 217.408 3.94057C217.587 4.04459 218.432 3.91052 218.451 3.7428ZM235.769 3.14128C234.556 3.73942 239.651 4.16406 238.312 3.4187C238.217 3.36559 235.875 3.09077 235.769 3.14128ZM244.091 3.51483C243.882 3.44892 243.986 1.76348 244.853 2.41341C244.966 2.4977 244.434 2.94324 244.527 3.04515C244.582 3.10322 246.466 3.33993 246.553 3.30059C246.646 3.25591 246.536 2.71571 246.631 2.65512C246.738 2.58739 247.897 3.06193 248.505 3.06712C249.649 3.07602 249.773 2.62639 249.867 2.6249C250.14 2.62192 250.6 2.94117 251.154 2.94077C253.948 2.93718 258.221 2.55606 260.435 3.50933C258.464 3.12653 256.586 3.53268 254.625 3.65766C255.199 2.71912 251.74 4.3808 253.763 3.29784C252.832 3.53275 244.777 3.7206 244.094 3.51483C244.093 3.51483 244.092 3.51483 244.091 3.51483ZM147.249 3.08085C147.761 2.50539 145.134 2.63483 144.911 3.30059C145.258 3.39298 147.185 3.14608 147.249 3.08085ZM159.368 1.6773C159.612 1.57796 159.844 0.453114 161.123 1.02358C161.124 1.02358 161.126 1.02358 161.127 1.02358C161.501 1.19018 161.075 1.46427 161.143 1.56194C161.168 1.60181 162.335 2.16137 161.366 2.25135C159.888 2.38941 161.227 1.41454 160.439 1.40263C160.343 1.4017 158.851 2.01058 158.938 2.14423C158.947 2.1598 159.396 2.031 159.47 2.08655C159.75 2.29538 159.613 2.64664 159.653 2.66335C159.782 2.70619 162.14 2.10777 162.483 2.6304C162.594 2.79893 158.724 3.1877 158.573 3.10008C158.478 3.04486 158.518 2.06983 158.419 1.97394C158.368 1.92617 156.812 2.29155 156.61 2.20191C156.551 2.17599 156.506 2.14804 156.473 2.12501C156.709 2.42667 155.299 2.40495 155.342 2.06458C155.367 1.9308 156.337 2.00823 156.372 2.03162C156.387 2.04152 156.4 2.05516 156.413 2.06458C156.212 1.69695 159.497 1.71353 158.788 1.16641C159.74 0.866692 158.653 1.96902 159.368 1.6773ZM163.946 1.07577C163.848 1.17831 163.75 1.28086 163.651 1.3834C165.318 1.13241 167.242 1.62604 169.163 1.62236C169.65 1.62218 169.09 0.995039 169.728 1.16641C170.24 1.30375 170.807 1.88544 170.528 2.01514C170.46 2.0475 169.419 1.66863 168.897 1.70751C167.358 1.82262 167.746 2.36042 167.656 2.37495C167.557 2.39024 166.588 2.01203 166.059 2.02887C164.729 2.0724 164.121 2.40259 162.303 1.97119C163.352 1.61674 162.778 0.846735 163.946 1.07577ZM226.091 2.22114C226.155 1.88263 227.246 2.18296 227.642 2.13325C227.58 2.47259 226.488 2.1714 226.091 2.22114ZM63.5067 1.78167C63.1715 2.33716 65.6833 2.47471 65.0213 2.01239C64.8749 1.90979 63.8223 1.78562 63.5067 1.78167ZM74.7902 2.11951C75.1262 1.96593 73.7733 1.56599 73.7758 1.99591C73.7778 2.13378 74.7469 2.13948 74.7902 2.11951ZM185.498 1.62236C185.561 1.60497 186.486 1.72869 186.514 1.75695C187.127 2.34677 184.085 2.00587 185.498 1.62236ZM88.5072 1.43559C87.3361 1.79969 90.8612 1.9575 89.784 1.49327C89.7304 1.47066 88.5636 1.41789 88.5072 1.43559ZM93.4069 1.33396C93.1261 1.35347 91.8795 1.17269 91.863 1.3422C91.8382 1.61567 93.2652 1.80252 93.4069 1.33396ZM208.682 1.44657C208.546 0.820681 210.19 1.29467 210.762 1.21585C210.897 1.84218 209.253 1.36753 208.682 1.44657ZM198.305 0.98513C205.236 0.491734 203.708 1.82899 197.892 1.29001C197.884 0.888481 197.868 1.0162 198.305 0.98513ZM207.18 1.05929C206.928 1.46026 206.141 1.34136 205.609 1.30924C205.705 1.03046 206.796 1.13136 207.18 1.05929ZM60.5158 0.921957C60.9505 0.41544 62.8753 1.03989 62.533 1.24881C62.4534 1.29393 60.3562 1.20051 60.5158 0.921957ZM186.078 1.08676C185.917 0.478056 187.998 0.726347 188.157 0.86153C188.8 1.40527 186.247 0.95241 186.078 1.08676ZM218.518 0.910971C218.886 0.434183 219.929 0.679413 220.601 0.685741C220.295 1.09343 219.088 0.919548 218.518 0.910971ZM213.672 0.53742C213.714 0.519119 214.651 0.562164 214.692 0.584114C215.46 1.0498 212.811 0.93054 213.672 0.53742ZM11.198 0.09795C11.2292 0.0825863 11.9382 0.112988 11.9629 0.130911C12.5957 0.588671 10.4678 0.495134 11.198 0.09795Z" fill="#EED850"/>
</svg>
